//Event file generated from Sappy .s format.
	#include "MPlayDef.event"

	#define	endlessb_grp  voicegroup000
	#define	endlessb_pri  0
	#define	endlessb_rev  0
	#define	endlessb_mvl  90
	#define	endlessb_key  0
	#define	endlessb_tbs  1
	#define	endlessb_exg  0
	#define	endlessb_cmp  1

	// .rodata
	//	endlessb
	ALIGN 4

//**************** Track 1 (Midi-Chn.1) ****************//

endlessb_1:
	BYTE	KEYSH   endlessb_key+0
// 000   ----------------------------------------
	BYTE	TEMPO   123*endlessb_tbs/2
	BYTE		VOICE   34
	BYTE		VOL     80*endlessb_mvl/mxv
	BYTE		PAN     c_v-16
	BYTE		MOD     5
	BYTE		BEND    c_v+0
	BYTE		N30     Gn1   v127
	BYTE	W36
	BYTE		N30   
	BYTE	W36
	BYTE		N19   
	BYTE	W24
// 001   ----------------------------------------
	BYTE		N30   
	BYTE	W36
	BYTE		N30   
	BYTE	W36
	BYTE		N10   
	BYTE	W12
	BYTE		N03     Dn2   v104
	BYTE	W06
	BYTE		        Gn1 
	BYTE	W06
endlessb_1_B1:
// 002   ----------------------------------------
endlessb_1_002:
	BYTE		N11     Cn2   v127
	BYTE	W12
	BYTE		N03   
	BYTE	W12
	BYTE		N07     Cn2   v092
	BYTE	W12
	BYTE		N11     Cn2   v127
	BYTE	W12
	BYTE		N02   
	BYTE	W12
	BYTE		N06     Cn2   v092
	BYTE	W12
	BYTE		N11     Cn2   v127
	BYTE	W12
	BYTE		N02     Cn2   v092
	BYTE	W06
	BYTE		        Cn2   v080
	BYTE	W06
	BYTE	PEND
// 003   ----------------------------------------
endlessb_1_003:
	BYTE		N11     As1   v127
	BYTE	W12
	BYTE		N03   
	BYTE	W12
	BYTE		N07     As1   v092
	BYTE	W12
	BYTE		N11     As1   v127
	BYTE	W12
	BYTE		N02   
	BYTE	W12
	BYTE		N06     As1   v092
	BYTE	W12
	BYTE		N11     As1   v127
	BYTE	W12
	BYTE		N02     As1   v092
	BYTE	W06
	BYTE		        As1   v080
	BYTE	W06
	BYTE	PEND
// 004   ----------------------------------------
endlessb_1_004:
	BYTE		N11     Gs1   v127
	BYTE	W12
	BYTE		N03   
	BYTE	W12
	BYTE		N07     Gs1   v092
	BYTE	W12
	BYTE		N11     Gs1   v127
	BYTE	W12
	BYTE		N02   
	BYTE	W12
	BYTE		N06     Gs1   v092
	BYTE	W12
	BYTE		N11     Gs1   v127
	BYTE	W12
	BYTE		N02     Gs1   v092
	BYTE	W06
	BYTE		        Gs1   v080
	BYTE	W06
	BYTE	PEND
// 005   ----------------------------------------
endlessb_1_005:
	BYTE		N11     Gn1   v127
	BYTE	W12
	BYTE		N03   
	BYTE	W12
	BYTE		N07     Gn1   v092
	BYTE	W12
	BYTE		N11     Gn1   v127
	BYTE	W12
	BYTE		N02   
	BYTE	W12
	BYTE		N06     Gn1   v092
	BYTE	W12
	BYTE		N11     Gn1   v127
	BYTE	W12
	BYTE		N02     Gn1   v092
	BYTE	W06
	BYTE		        Gn1   v080
	BYTE	W06
	BYTE	PEND
// 006   ----------------------------------------
	BYTE		N11     Fn1   v127
	BYTE	W12
	BYTE		N03   
	BYTE	W12
	BYTE		N07     Fn1   v092
	BYTE	W12
	BYTE		N11     Fn1   v127
	BYTE	W12
	BYTE		N02   
	BYTE	W12
	BYTE		N06     Fn1   v092
	BYTE	W12
	BYTE		N11     Fn1   v127
	BYTE	W12
	BYTE		N02     Fn1   v092
	BYTE	W06
	BYTE		        Fn1   v080
	BYTE	W06
// 007   ----------------------------------------
	BYTE		N11     Ds2   v127
	BYTE	W12
	BYTE		N03   
	BYTE	W12
	BYTE		N07     Ds2   v092
	BYTE	W12
	BYTE		N11     Ds2   v127
	BYTE	W12
	BYTE		N02   
	BYTE	W12
	BYTE		N06     Ds2   v092
	BYTE	W12
	BYTE		N11     Ds2   v127
	BYTE	W12
	BYTE		N02     Ds2   v092
	BYTE	W06
	BYTE		        Ds2   v080
	BYTE	W06
// 008   ----------------------------------------
endlessb_1_008:
	BYTE		N11     Dn2   v127
	BYTE	W12
	BYTE		N03   
	BYTE	W12
	BYTE		N07     Dn2   v092
	BYTE	W12
	BYTE		N11     Dn2   v127
	BYTE	W12
	BYTE		N02   
	BYTE	W12
	BYTE		N06     Dn2   v092
	BYTE	W12
	BYTE		N11     Dn2   v127
	BYTE	W12
	BYTE		N02     Dn2   v092
	BYTE	W06
	BYTE		        Dn2   v080
	BYTE	W06
	BYTE	PEND
// 009   ----------------------------------------
	BYTE		N11     Gn1   v127
	BYTE	W12
	BYTE		N03   
	BYTE	W12
	BYTE		N07     Gn1   v092
	BYTE	W12
	BYTE		N11     Gn1   v127
	BYTE	W12
	BYTE		N02   
	BYTE	W12
	BYTE		N06     Gn1   v092
	BYTE	W12
	BYTE		N11     Gn1   v127
	BYTE	W12
	BYTE		N03     Dn2 
	BYTE	W06
	BYTE		        Gn2 
	BYTE	W06
// 010   ----------------------------------------
	BYTE	PATT
	 POIN2	endlessb_1_002
// 011   ----------------------------------------
	BYTE	PATT
	 POIN2	endlessb_1_003
// 012   ----------------------------------------
	BYTE		N11     An1   v127
	BYTE	W12
	BYTE		N03   
	BYTE	W12
	BYTE		N07     An1   v092
	BYTE	W12
	BYTE		N11     An1   v127
	BYTE	W12
	BYTE		N02   
	BYTE	W12
	BYTE		N06     An1   v092
	BYTE	W12
	BYTE		N11     An1   v127
	BYTE	W12
	BYTE		N02     An1   v092
	BYTE	W06
	BYTE		        An1   v080
	BYTE	W06
// 013   ----------------------------------------
	BYTE	PATT
	 POIN2	endlessb_1_004
// 014   ----------------------------------------
endlessb_1_014:
	BYTE		N11     Cs2   v127
	BYTE	W12
	BYTE		N03   
	BYTE	W12
	BYTE		N07     Cs2   v092
	BYTE	W12
	BYTE		N11     Cs2   v127
	BYTE	W12
	BYTE		N02   
	BYTE	W12
	BYTE		N06     Cs2   v092
	BYTE	W12
	BYTE		N11     Cs2   v127
	BYTE	W12
	BYTE		N02     Cs2   v092
	BYTE	W06
	BYTE		        Cs2   v080
	BYTE	W06
	BYTE	PEND
// 015   ----------------------------------------
	BYTE	PATT
	 POIN2	endlessb_1_014
// 016   ----------------------------------------
	BYTE	PATT
	 POIN2	endlessb_1_008
// 017   ----------------------------------------
	BYTE	PATT
	 POIN2	endlessb_1_005
// 018   ----------------------------------------
	BYTE		MOD     3
	BYTE		N44     Gs2   v116
	BYTE	W48
	BYTE		N21     Ds3 
	BYTE	W24
	BYTE		        Gs3 
	BYTE	W24
// 019   ----------------------------------------
	BYTE		N22     As3 
	BYTE	W24
	BYTE		N52     As2 
	BYTE	W60
	BYTE		N04     Cn3 
	BYTE	W06
	BYTE		        Dn3 
	BYTE	W06
// 020   ----------------------------------------
	BYTE		N44     Ds3 
	BYTE	W48
	BYTE		N22     As2 
	BYTE	W24
	BYTE		        Ds3 
	BYTE	W24
// 021   ----------------------------------------
	BYTE		N44     Fn3 
	BYTE	W48
	BYTE		N22     Cn3 
	BYTE	W24
	BYTE		        An2 
	BYTE	W24
// 022   ----------------------------------------
	BYTE		N68     Gs2 
	BYTE	W72
	BYTE		N22     Ds3 
	BYTE	W24
// 023   ----------------------------------------
	BYTE		        As2 
	BYTE	W24
	BYTE		        Fn3 
	BYTE	W24
	BYTE		        Cn4 
	BYTE	W24
	BYTE		        As3 
	BYTE	W24
// 024   ----------------------------------------
	BYTE		N44     An3 
	BYTE	W48
	BYTE		        An2 
	BYTE	W48
// 025   ----------------------------------------
	BYTE		N22     Fn3 
	BYTE	W24
	BYTE		        Ds3 
	BYTE	W24
	BYTE		        Cn3 
	BYTE	W24
	BYTE		        An2 
	BYTE	W24
// 026   ----------------------------------------
	BYTE		MOD     5
	BYTE		N76     Gs1 
	BYTE	W84
	BYTE		N04     As1 
	BYTE	W06
	BYTE		        Cn2 
	BYTE	W06
// 027   ----------------------------------------
	BYTE		N44     As1 
	BYTE	W48
	BYTE		N22     Cn2 
	BYTE	W24
	BYTE		        Dn2 
	BYTE	W24
// 028   ----------------------------------------
	BYTE		N44     Ds2 
	BYTE	W48
	BYTE		N22     As1 
	BYTE	W24
	BYTE		        Ds2 
	BYTE	W24
// 029   ----------------------------------------
	BYTE		N44     Fn2 
	BYTE	W48
	BYTE		        Fn1 
	BYTE	W48
// 030   ----------------------------------------
	BYTE		        Gs1 
	BYTE	W48
	BYTE		N22     Ds2 
	BYTE	W24
	BYTE		N44     Gs2 
	BYTE	W24
// 031   ----------------------------------------
	BYTE	W24
	BYTE		        Gs1 
	BYTE	W48
	BYTE		N22     Cn2 
	BYTE	W24
// 032   ----------------------------------------
	BYTE		        As1 
	BYTE	W24
	BYTE		N22   
	BYTE	W24
	BYTE		N22   
	BYTE	W24
	BYTE		N22   
	BYTE	W24
// 033   ----------------------------------------
	BYTE		        Bn1 
	BYTE	W24
	BYTE		N22   
	BYTE	W24
	BYTE		        Gn1 
	BYTE	W24
	BYTE		        Bn1 
	BYTE	W24
// 034   ----------------------------------------
	BYTE		N32     Cn2 
	BYTE	W36
	BYTE		        As1 
	BYTE	W36
	BYTE		N22     Gs1 
	BYTE	W24
// 035   ----------------------------------------
endlessb_1_035:
	BYTE		N30     Gs1   v116
	BYTE	W36
	BYTE		N30   
	BYTE	W36
	BYTE		N19   
	BYTE	W24
	BYTE	PEND
// 036   ----------------------------------------
	BYTE		N32     Cn2 
	BYTE	W36
	BYTE		        As1 
	BYTE	W36
	BYTE		N20     Gs1 
	BYTE	W24
// 037   ----------------------------------------
	BYTE	PATT
	 POIN2	endlessb_1_035
// 038   ----------------------------------------
	BYTE		N30     Gn1   v127
	BYTE	W36
	BYTE		N30   
	BYTE	W36
	BYTE		N19   
	BYTE	W24
// 039   ----------------------------------------
	BYTE		N30   
	BYTE	W36
	BYTE		N30   
	BYTE	W36
	BYTE		N03     Dn2   v104
	BYTE	W12
	BYTE		        Gn1 
	BYTE	W12
	BYTE	GoTo
	 POIN2	endlessb_1_B1
endlessb_1_B2:
// 040   ----------------------------------------
	BYTE	W03
	BYTE	FINE

//**************** Track 2 (Midi-Chn.2) ****************//

endlessb_2:
	BYTE	KEYSH   endlessb_key+0
// 000   ----------------------------------------
	BYTE		VOICE   106
	BYTE		PAN     c_v+0
	BYTE		VOL     92*endlessb_mvl/mxv
	BYTE		MOD     1
	BYTE		BEND    c_v+0
	BYTE		N11     Cn3   v068
	BYTE	W12
	BYTE		N04     Gn2   v064
	BYTE	W12
	BYTE		        Gn2   v076
	BYTE	W12
	BYTE		N11     Cn3 
	BYTE	W12
	BYTE		N04     Gn2 
	BYTE	W12
	BYTE		        Gn2   v064
	BYTE	W12
	BYTE		N11     Cn3   v092
	BYTE	W12
	BYTE		N04     Gn2   v064
	BYTE	W12
// 001   ----------------------------------------
	BYTE		N11     Bn2   v108
	BYTE	W12
	BYTE		N04     Gn2   v064
	BYTE	W12
	BYTE		        Gn2   v076
	BYTE	W12
	BYTE		N11     Bn2   v084
	BYTE	W12
	BYTE		N04     Gn2   v076
	BYTE	W12
	BYTE		        Gn2   v064
	BYTE	W12
	BYTE		N11     Bn2   v092
	BYTE	W12
	BYTE		N04     Gn2   v064
	BYTE	W12
endlessb_2_B1:
// 002   ----------------------------------------
	BYTE		VOICE   106
	BYTE		PAN     c_v-16
	BYTE		N09     Gn3   v092
	BYTE	W12
	BYTE		        Gn3   v076
	BYTE	W12
	BYTE		        Gn3   v044
	BYTE	W12
	BYTE		        Gn3   v092
	BYTE	W12
	BYTE		        Gn3   v076
	BYTE	W12
	BYTE		        Gn3   v044
	BYTE	W12
	BYTE		        Gn3   v092
	BYTE	W12
	BYTE		        Gn3   v076
	BYTE	W12
// 003   ----------------------------------------
endlessb_2_003:
	BYTE		N09     Gn3   v092
	BYTE	W12
	BYTE		        Gn3   v076
	BYTE	W12
	BYTE		        Gn3   v044
	BYTE	W12
	BYTE		        Gn3   v092
	BYTE	W12
	BYTE		        Gn3   v076
	BYTE	W12
	BYTE		        Gn3   v044
	BYTE	W12
	BYTE		        Gn3   v092
	BYTE	W12
	BYTE		        Gn3   v076
	BYTE	W12
	BYTE	PEND
// 004   ----------------------------------------
	BYTE	PATT
	 POIN2	endlessb_2_003
// 005   ----------------------------------------
	BYTE	PATT
	 POIN2	endlessb_2_003
// 006   ----------------------------------------
endlessb_2_006:
	BYTE		N09     Fn3   v092
	BYTE	W12
	BYTE		        Fn3   v076
	BYTE	W12
	BYTE		        Fn3   v044
	BYTE	W12
	BYTE		        Fn3   v092
	BYTE	W12
	BYTE		        Fn3   v076
	BYTE	W12
	BYTE		        Fn3   v044
	BYTE	W12
	BYTE		        Fn3   v092
	BYTE	W12
	BYTE		        Fn3   v076
	BYTE	W12
	BYTE	PEND
// 007   ----------------------------------------
endlessb_2_007:
	BYTE		N09     Ds3   v092
	BYTE	W12
	BYTE		        Ds3   v076
	BYTE	W12
	BYTE		        Ds3   v044
	BYTE	W12
	BYTE		        Ds3   v092
	BYTE	W12
	BYTE		        Ds3   v076
	BYTE	W12
	BYTE		        Ds3   v044
	BYTE	W12
	BYTE		        Ds3   v092
	BYTE	W12
	BYTE		        Ds3   v076
	BYTE	W12
	BYTE	PEND
// 008   ----------------------------------------
	BYTE		        Dn3   v092
	BYTE	W12
	BYTE		        Dn3   v076
	BYTE	W12
	BYTE		        Dn3   v044
	BYTE	W12
	BYTE		        Dn3   v092
	BYTE	W12
	BYTE		        Fn3   v076
	BYTE	W12
	BYTE		        Fn3   v044
	BYTE	W12
	BYTE		        Fn3   v092
	BYTE	W12
	BYTE		        Fn3   v076
	BYTE	W12
// 009   ----------------------------------------
	BYTE	PATT
	 POIN2	endlessb_2_003
// 010   ----------------------------------------
	BYTE	PATT
	 POIN2	endlessb_2_003
// 011   ----------------------------------------
	BYTE	PATT
	 POIN2	endlessb_2_003
// 012   ----------------------------------------
	BYTE	PATT
	 POIN2	endlessb_2_003
// 013   ----------------------------------------
	BYTE	PATT
	 POIN2	endlessb_2_003
// 014   ----------------------------------------
	BYTE	PATT
	 POIN2	endlessb_2_006
// 015   ----------------------------------------
	BYTE	PATT
	 POIN2	endlessb_2_007
// 016   ----------------------------------------
	BYTE		N09     Dn3   v092
	BYTE	W12
	BYTE		        Dn3   v076
	BYTE	W12
	BYTE		        Dn3   v044
	BYTE	W12
	BYTE		        Dn3   v092
	BYTE	W12
	BYTE		        Dn3   v076
	BYTE	W12
	BYTE		        Dn3   v044
	BYTE	W12
	BYTE		        Dn3   v092
	BYTE	W12
	BYTE		        Dn3   v076
	BYTE	W12
// 017   ----------------------------------------
	BYTE	PATT
	 POIN2	endlessb_2_003
// 018   ----------------------------------------
	BYTE	W96
// 019   ----------------------------------------
	BYTE	W96
// 020   ----------------------------------------
	BYTE	W96
// 021   ----------------------------------------
	BYTE	W96
// 022   ----------------------------------------
	BYTE	W96
// 023   ----------------------------------------
	BYTE	W96
// 024   ----------------------------------------
	BYTE	W96
// 025   ----------------------------------------
	BYTE		VOICE   63
	BYTE	W72
	BYTE		PAN     c_v+24
	BYTE		N03     Gn2   v108
	BYTE	W04
	BYTE		        An2 
	BYTE	W03
	BYTE		        As2 
	BYTE	W04
	BYTE		        Cn3 
	BYTE	W03
	BYTE		        Dn3 
	BYTE	W04
	BYTE		        Ds3 
	BYTE	W03
	BYTE		N02     Fn3 
	BYTE	W03
// 026   ----------------------------------------
	BYTE		MOD     0
	BYTE		VOL     28*endlessb_mvl/mxv
	BYTE		BEND    c_v-25
	BYTE		N44     Gn3 
	BYTE	W01
	BYTE		VOL     50*endlessb_mvl/mxv
	BYTE		BEND    c_v-16
	BYTE	W02
	BYTE		VOL     66*endlessb_mvl/mxv
	BYTE		BEND    c_v-8
	BYTE	W01
	BYTE		VOL     84*endlessb_mvl/mxv
	BYTE		BEND    c_v-2
	BYTE	W02
	BYTE		MOD     1
	BYTE		VOL     92*endlessb_mvl/mxv
	BYTE		BEND    c_v+0
	BYTE	W03
	BYTE		VOL     90*endlessb_mvl/mxv
	BYTE	W03
	BYTE		MOD     2
	BYTE		VOL     88*endlessb_mvl/mxv
	BYTE	W03
	BYTE		        84*endlessb_mvl/mxv
	BYTE	W03
	BYTE		MOD     3
	BYTE		VOL     80*endlessb_mvl/mxv
	BYTE	W03
	BYTE		        76*endlessb_mvl/mxv
	BYTE	W03
	BYTE		MOD     4
	BYTE	W21
	BYTE		        2
	BYTE	W03
	BYTE		        0
	BYTE		VOL     28*endlessb_mvl/mxv
	BYTE		BEND    c_v-25
	BYTE		N44     Ds4 
	BYTE	W01
	BYTE		VOL     50*endlessb_mvl/mxv
	BYTE		BEND    c_v-16
	BYTE	W02
	BYTE		VOL     66*endlessb_mvl/mxv
	BYTE		BEND    c_v-8
	BYTE	W01
	BYTE		VOL     84*endlessb_mvl/mxv
	BYTE		BEND    c_v-2
	BYTE	W02
	BYTE		MOD     1
	BYTE		VOL     92*endlessb_mvl/mxv
	BYTE		BEND    c_v+0
	BYTE	W03
	BYTE		VOL     90*endlessb_mvl/mxv
	BYTE	W03
	BYTE		MOD     2
	BYTE		VOL     88*endlessb_mvl/mxv
	BYTE	W03
	BYTE		        84*endlessb_mvl/mxv
	BYTE	W03
	BYTE		MOD     3
	BYTE		VOL     80*endlessb_mvl/mxv
	BYTE	W03
	BYTE		        76*endlessb_mvl/mxv
	BYTE	W03
	BYTE		MOD     4
	BYTE	W21
	BYTE		        2
	BYTE	W03
// 027   ----------------------------------------
	BYTE	W24
	BYTE		        0
	BYTE		VOL     28*endlessb_mvl/mxv
	BYTE		BEND    c_v-25
	BYTE		N23     Dn4 
	BYTE	W01
	BYTE		VOL     50*endlessb_mvl/mxv
	BYTE		BEND    c_v-16
	BYTE	W02
	BYTE		VOL     66*endlessb_mvl/mxv
	BYTE		BEND    c_v-8
	BYTE	W01
	BYTE		VOL     84*endlessb_mvl/mxv
	BYTE		BEND    c_v-2
	BYTE	W02
	BYTE		MOD     1
	BYTE		VOL     92*endlessb_mvl/mxv
	BYTE		BEND    c_v+0
	BYTE	W03
	BYTE		VOL     90*endlessb_mvl/mxv
	BYTE	W03
	BYTE		MOD     2
	BYTE		VOL     88*endlessb_mvl/mxv
	BYTE	W03
	BYTE		        84*endlessb_mvl/mxv
	BYTE	W03
	BYTE		MOD     3
	BYTE		VOL     80*endlessb_mvl/mxv
	BYTE	W03
	BYTE		        76*endlessb_mvl/mxv
	BYTE	W03
	BYTE		MOD     0
	BYTE		VOL     28*endlessb_mvl/mxv
	BYTE		MOD     4
	BYTE		BEND    c_v-25
	BYTE		N23     Cn4 
	BYTE	W01
	BYTE		VOL     50*endlessb_mvl/mxv
	BYTE		BEND    c_v-16
	BYTE	W02
	BYTE		VOL     66*endlessb_mvl/mxv
	BYTE		BEND    c_v-8
	BYTE	W01
	BYTE		VOL     84*endlessb_mvl/mxv
	BYTE		BEND    c_v-2
	BYTE	W02
	BYTE		MOD     1
	BYTE		VOL     92*endlessb_mvl/mxv
	BYTE		BEND    c_v+0
	BYTE	W03
	BYTE		VOL     90*endlessb_mvl/mxv
	BYTE	W03
	BYTE		MOD     2
	BYTE		VOL     88*endlessb_mvl/mxv
	BYTE	W03
	BYTE		        84*endlessb_mvl/mxv
	BYTE	W03
	BYTE		MOD     3
	BYTE		VOL     80*endlessb_mvl/mxv
	BYTE	W03
	BYTE		        76*endlessb_mvl/mxv
	BYTE	W03
	BYTE		MOD     0
	BYTE		VOL     28*endlessb_mvl/mxv
	BYTE		MOD     4
	BYTE		BEND    c_v-25
	BYTE		N23     As3 
	BYTE	W01
	BYTE		VOL     50*endlessb_mvl/mxv
	BYTE		BEND    c_v-16
	BYTE	W02
	BYTE		VOL     66*endlessb_mvl/mxv
	BYTE		BEND    c_v-8
	BYTE	W01
	BYTE		VOL     84*endlessb_mvl/mxv
	BYTE		BEND    c_v-2
	BYTE	W02
	BYTE		MOD     1
	BYTE		VOL     92*endlessb_mvl/mxv
	BYTE		BEND    c_v+0
	BYTE	W03
	BYTE		VOL     90*endlessb_mvl/mxv
	BYTE	W03
	BYTE		MOD     2
	BYTE		VOL     88*endlessb_mvl/mxv
	BYTE	W03
	BYTE		        84*endlessb_mvl/mxv
	BYTE	W03
	BYTE		MOD     3
	BYTE		VOL     80*endlessb_mvl/mxv
	BYTE	W03
	BYTE		        76*endlessb_mvl/mxv
	BYTE	W03
// 028   ----------------------------------------
	BYTE		MOD     0
	BYTE		VOL     28*endlessb_mvl/mxv
	BYTE		MOD     4
	BYTE		BEND    c_v-25
	BYTE		N44     Gn3 
	BYTE	W01
	BYTE		VOL     50*endlessb_mvl/mxv
	BYTE		BEND    c_v-16
	BYTE	W02
	BYTE		VOL     66*endlessb_mvl/mxv
	BYTE		BEND    c_v-8
	BYTE	W01
	BYTE		VOL     84*endlessb_mvl/mxv
	BYTE		BEND    c_v-2
	BYTE	W02
	BYTE		MOD     1
	BYTE		VOL     92*endlessb_mvl/mxv
	BYTE		BEND    c_v+0
	BYTE	W03
	BYTE		VOL     90*endlessb_mvl/mxv
	BYTE	W03
	BYTE		MOD     2
	BYTE		VOL     88*endlessb_mvl/mxv
	BYTE	W03
	BYTE		        84*endlessb_mvl/mxv
	BYTE	W03
	BYTE		MOD     3
	BYTE		VOL     80*endlessb_mvl/mxv
	BYTE	W03
	BYTE		        76*endlessb_mvl/mxv
	BYTE	W03
	BYTE		MOD     4
	BYTE	W21
	BYTE		        2
	BYTE	W03
	BYTE		        0
	BYTE		VOL     28*endlessb_mvl/mxv
	BYTE		BEND    c_v-25
	BYTE		N17     As3 
	BYTE	W01
	BYTE		VOL     50*endlessb_mvl/mxv
	BYTE		BEND    c_v-16
	BYTE	W02
	BYTE		VOL     66*endlessb_mvl/mxv
	BYTE		BEND    c_v-8
	BYTE	W01
	BYTE		VOL     84*endlessb_mvl/mxv
	BYTE		BEND    c_v-2
	BYTE	W02
	BYTE		MOD     1
	BYTE		VOL     92*endlessb_mvl/mxv
	BYTE		BEND    c_v+0
	BYTE	W03
	BYTE		VOL     90*endlessb_mvl/mxv
	BYTE	W03
	BYTE		MOD     2
	BYTE		VOL     88*endlessb_mvl/mxv
	BYTE	W06
	BYTE		MOD     0
	BYTE		VOL     28*endlessb_mvl/mxv
	BYTE		BEND    c_v-25
	BYTE		N17     Ds3 
	BYTE	W01
	BYTE		VOL     50*endlessb_mvl/mxv
	BYTE		BEND    c_v-16
	BYTE	W02
	BYTE		VOL     66*endlessb_mvl/mxv
	BYTE		BEND    c_v-8
	BYTE	W01
	BYTE		VOL     84*endlessb_mvl/mxv
	BYTE		BEND    c_v-2
	BYTE	W02
	BYTE		MOD     1
	BYTE		VOL     92*endlessb_mvl/mxv
	BYTE		BEND    c_v+0
	BYTE	W03
	BYTE		VOL     90*endlessb_mvl/mxv
	BYTE	W03
	BYTE		MOD     2
	BYTE		VOL     88*endlessb_mvl/mxv
	BYTE	W06
	BYTE		MOD     0
	BYTE		VOL     28*endlessb_mvl/mxv
	BYTE		BEND    c_v-25
	BYTE		N11     Gn3 
	BYTE	W01
	BYTE		VOL     50*endlessb_mvl/mxv
	BYTE		BEND    c_v-16
	BYTE	W02
	BYTE		VOL     66*endlessb_mvl/mxv
	BYTE		BEND    c_v-8
	BYTE	W01
	BYTE		VOL     84*endlessb_mvl/mxv
	BYTE		BEND    c_v-2
	BYTE	W02
	BYTE		MOD     1
	BYTE		VOL     92*endlessb_mvl/mxv
	BYTE		BEND    c_v+0
	BYTE	W03
	BYTE		VOL     90*endlessb_mvl/mxv
	BYTE	W03
// 029   ----------------------------------------
	BYTE		MOD     2
	BYTE		VOL     88*endlessb_mvl/mxv
	BYTE		MOD     0
	BYTE		VOL     28*endlessb_mvl/mxv
	BYTE		BEND    c_v-25
	BYTE		N44     Fn3 
	BYTE	W01
	BYTE		VOL     50*endlessb_mvl/mxv
	BYTE		BEND    c_v-16
	BYTE	W02
	BYTE		VOL     66*endlessb_mvl/mxv
	BYTE		BEND    c_v-8
	BYTE	W01
	BYTE		VOL     84*endlessb_mvl/mxv
	BYTE		BEND    c_v-2
	BYTE	W02
	BYTE		MOD     1
	BYTE		VOL     92*endlessb_mvl/mxv
	BYTE		BEND    c_v+0
	BYTE	W03
	BYTE		VOL     90*endlessb_mvl/mxv
	BYTE	W03
	BYTE		MOD     2
	BYTE		VOL     88*endlessb_mvl/mxv
	BYTE	W03
	BYTE		        84*endlessb_mvl/mxv
	BYTE	W03
	BYTE		MOD     3
	BYTE		VOL     80*endlessb_mvl/mxv
	BYTE	W03
	BYTE		        76*endlessb_mvl/mxv
	BYTE	W03
	BYTE		MOD     4
	BYTE	W21
	BYTE		        2
	BYTE	W03
	BYTE		        0
	BYTE		VOL     28*endlessb_mvl/mxv
	BYTE		BEND    c_v-25
	BYTE		N23     Cn3 
	BYTE	W01
	BYTE		VOL     50*endlessb_mvl/mxv
	BYTE		BEND    c_v-16
	BYTE	W02
	BYTE		VOL     66*endlessb_mvl/mxv
	BYTE		BEND    c_v-8
	BYTE	W01
	BYTE		VOL     84*endlessb_mvl/mxv
	BYTE		BEND    c_v-2
	BYTE	W02
	BYTE		MOD     1
	BYTE		VOL     92*endlessb_mvl/mxv
	BYTE		BEND    c_v+0
	BYTE	W03
	BYTE		VOL     90*endlessb_mvl/mxv
	BYTE	W03
	BYTE		MOD     2
	BYTE		VOL     88*endlessb_mvl/mxv
	BYTE	W03
	BYTE		        84*endlessb_mvl/mxv
	BYTE	W03
	BYTE		MOD     3
	BYTE		VOL     80*endlessb_mvl/mxv
	BYTE	W03
	BYTE		        76*endlessb_mvl/mxv
	BYTE	W03
	BYTE		MOD     0
	BYTE		VOL     28*endlessb_mvl/mxv
	BYTE		MOD     4
	BYTE		BEND    c_v-25
	BYTE		N23     Dn3 
	BYTE	W01
	BYTE		VOL     50*endlessb_mvl/mxv
	BYTE		BEND    c_v-16
	BYTE	W02
	BYTE		VOL     66*endlessb_mvl/mxv
	BYTE		BEND    c_v-8
	BYTE	W01
	BYTE		VOL     84*endlessb_mvl/mxv
	BYTE		BEND    c_v-2
	BYTE	W02
	BYTE		MOD     1
	BYTE		VOL     92*endlessb_mvl/mxv
	BYTE		BEND    c_v+0
	BYTE	W03
	BYTE		VOL     90*endlessb_mvl/mxv
	BYTE	W03
	BYTE		MOD     2
	BYTE		VOL     88*endlessb_mvl/mxv
	BYTE	W03
	BYTE		        84*endlessb_mvl/mxv
	BYTE	W03
	BYTE		MOD     3
	BYTE		VOL     80*endlessb_mvl/mxv
	BYTE	W03
	BYTE		        76*endlessb_mvl/mxv
	BYTE	W03
// 030   ----------------------------------------
	BYTE		MOD     0
	BYTE		VOL     28*endlessb_mvl/mxv
	BYTE		MOD     4
	BYTE		BEND    c_v-25
	BYTE		TIE     Ds3 
	BYTE	W01
	BYTE		VOL     50*endlessb_mvl/mxv
	BYTE		BEND    c_v-16
	BYTE	W02
	BYTE		VOL     66*endlessb_mvl/mxv
	BYTE		BEND    c_v-8
	BYTE	W01
	BYTE		VOL     84*endlessb_mvl/mxv
	BYTE		BEND    c_v-2
	BYTE	W02
	BYTE		MOD     1
	BYTE		VOL     92*endlessb_mvl/mxv
	BYTE		BEND    c_v+0
	BYTE	W03
	BYTE		VOL     90*endlessb_mvl/mxv
	BYTE	W03
	BYTE		MOD     2
	BYTE		VOL     88*endlessb_mvl/mxv
	BYTE	W03
	BYTE		        84*endlessb_mvl/mxv
	BYTE	W03
	BYTE		MOD     3
	BYTE		VOL     80*endlessb_mvl/mxv
	BYTE	W03
	BYTE		        76*endlessb_mvl/mxv
	BYTE	W03
	BYTE		        74*endlessb_mvl/mxv
	BYTE		MOD     4
	BYTE	W03
	BYTE		VOL     72*endlessb_mvl/mxv
	BYTE	W03
	BYTE		        70*endlessb_mvl/mxv
	BYTE	W03
	BYTE		        68*endlessb_mvl/mxv
	BYTE	W03
	BYTE		        66*endlessb_mvl/mxv
	BYTE	W03
	BYTE		        64*endlessb_mvl/mxv
	BYTE	W03
	BYTE		        62*endlessb_mvl/mxv
	BYTE	W03
	BYTE		        60*endlessb_mvl/mxv
	BYTE		MOD     2
	BYTE	W03
	BYTE		VOL     58*endlessb_mvl/mxv
	BYTE	W03
	BYTE		        56*endlessb_mvl/mxv
	BYTE	W03
	BYTE		        54*endlessb_mvl/mxv
	BYTE	W03
	BYTE		        52*endlessb_mvl/mxv
	BYTE	W03
	BYTE		        50*endlessb_mvl/mxv
	BYTE	W03
	BYTE		        48*endlessb_mvl/mxv
	BYTE	W03
	BYTE		        46*endlessb_mvl/mxv
	BYTE	W03
	BYTE		        44*endlessb_mvl/mxv
	BYTE	W03
	BYTE		        42*endlessb_mvl/mxv
	BYTE	W03
	BYTE		        40*endlessb_mvl/mxv
	BYTE	W03
	BYTE		        38*endlessb_mvl/mxv
	BYTE	W03
	BYTE		        36*endlessb_mvl/mxv
	BYTE	W03
	BYTE		        34*endlessb_mvl/mxv
	BYTE	W03
	BYTE		        32*endlessb_mvl/mxv
	BYTE	W03
	BYTE		        30*endlessb_mvl/mxv
	BYTE	W03
	BYTE		        28*endlessb_mvl/mxv
	BYTE	W03
// 031   ----------------------------------------
	BYTE	W44
	BYTE	W03
	BYTE		EOT   
	BYTE	W01
	BYTE		MOD     0
	BYTE		VOL     28*endlessb_mvl/mxv
	BYTE		BEND    c_v-25
	BYTE		N17     Dn3 
	BYTE	W01
	BYTE		VOL     50*endlessb_mvl/mxv
	BYTE		BEND    c_v-16
	BYTE	W02
	BYTE		VOL     66*endlessb_mvl/mxv
	BYTE		BEND    c_v-8
	BYTE	W01
	BYTE		VOL     84*endlessb_mvl/mxv
	BYTE		BEND    c_v-2
	BYTE	W02
	BYTE		MOD     1
	BYTE		VOL     92*endlessb_mvl/mxv
	BYTE		BEND    c_v+0
	BYTE	W03
	BYTE		VOL     90*endlessb_mvl/mxv
	BYTE	W03
	BYTE		MOD     2
	BYTE		VOL     88*endlessb_mvl/mxv
	BYTE	W06
	BYTE		MOD     0
	BYTE		VOL     28*endlessb_mvl/mxv
	BYTE		BEND    c_v-25
	BYTE		N17     Ds3 
	BYTE	W01
	BYTE		VOL     50*endlessb_mvl/mxv
	BYTE		BEND    c_v-16
	BYTE	W02
	BYTE		VOL     66*endlessb_mvl/mxv
	BYTE		BEND    c_v-8
	BYTE	W01
	BYTE		VOL     84*endlessb_mvl/mxv
	BYTE		BEND    c_v-2
	BYTE	W02
	BYTE		MOD     1
	BYTE		VOL     92*endlessb_mvl/mxv
	BYTE		BEND    c_v+0
	BYTE	W03
	BYTE		VOL     90*endlessb_mvl/mxv
	BYTE	W03
	BYTE		MOD     2
	BYTE		VOL     88*endlessb_mvl/mxv
	BYTE	W06
	BYTE		MOD     0
	BYTE		VOL     28*endlessb_mvl/mxv
	BYTE		BEND    c_v-25
	BYTE		N11     Fn3 
	BYTE	W01
	BYTE		VOL     50*endlessb_mvl/mxv
	BYTE		BEND    c_v-16
	BYTE	W02
	BYTE		VOL     66*endlessb_mvl/mxv
	BYTE		BEND    c_v-8
	BYTE	W01
	BYTE		VOL     84*endlessb_mvl/mxv
	BYTE		BEND    c_v-2
	BYTE	W02
	BYTE		MOD     1
	BYTE		VOL     92*endlessb_mvl/mxv
	BYTE		BEND    c_v+0
	BYTE	W03
	BYTE		VOL     90*endlessb_mvl/mxv
	BYTE	W03
// 032   ----------------------------------------
	BYTE		MOD     0
	BYTE		VOL     28*endlessb_mvl/mxv
	BYTE		MOD     2
	BYTE		VOL     50*endlessb_mvl/mxv
	BYTE		BEND    c_v-25
	BYTE		N60     Gn3 
	BYTE	W01
	BYTE		BEND    c_v-16
	BYTE	W02
	BYTE		VOL     66*endlessb_mvl/mxv
	BYTE		BEND    c_v-8
	BYTE	W01
	BYTE		VOL     84*endlessb_mvl/mxv
	BYTE		BEND    c_v-2
	BYTE	W02
	BYTE		MOD     1
	BYTE		VOL     92*endlessb_mvl/mxv
	BYTE		BEND    c_v+0
	BYTE	W03
	BYTE		VOL     90*endlessb_mvl/mxv
	BYTE	W03
	BYTE		MOD     2
	BYTE		VOL     88*endlessb_mvl/mxv
	BYTE	W03
	BYTE		        84*endlessb_mvl/mxv
	BYTE	W03
	BYTE		MOD     3
	BYTE		VOL     80*endlessb_mvl/mxv
	BYTE	W03
	BYTE		        76*endlessb_mvl/mxv
	BYTE	W03
	BYTE		MOD     4
	BYTE	W21
	BYTE		        2
	BYTE	W24
	BYTE	W03
	BYTE		        0
	BYTE		VOL     28*endlessb_mvl/mxv
	BYTE		BEND    c_v-25
	BYTE		N17   
	BYTE	W01
	BYTE		VOL     50*endlessb_mvl/mxv
	BYTE		BEND    c_v-16
	BYTE	W02
	BYTE		VOL     66*endlessb_mvl/mxv
	BYTE		BEND    c_v-8
	BYTE	W01
	BYTE		VOL     84*endlessb_mvl/mxv
	BYTE		BEND    c_v-2
	BYTE	W02
	BYTE		MOD     1
	BYTE		VOL     92*endlessb_mvl/mxv
	BYTE		BEND    c_v+0
	BYTE	W03
	BYTE		VOL     90*endlessb_mvl/mxv
	BYTE	W03
	BYTE		MOD     2
	BYTE		VOL     88*endlessb_mvl/mxv
	BYTE	W06
	BYTE		        80*endlessb_mvl/mxv
	BYTE		N05     Gs3 
	BYTE	W06
// 033   ----------------------------------------
	BYTE		MOD     0
	BYTE		VOL     28*endlessb_mvl/mxv
	BYTE		BEND    c_v-25
	BYTE		N92     Gn3 
	BYTE	W01
	BYTE		VOL     50*endlessb_mvl/mxv
	BYTE		BEND    c_v-16
	BYTE	W02
	BYTE		VOL     66*endlessb_mvl/mxv
	BYTE		BEND    c_v-8
	BYTE	W01
	BYTE		VOL     84*endlessb_mvl/mxv
	BYTE		BEND    c_v-2
	BYTE	W02
	BYTE		MOD     1
	BYTE		VOL     92*endlessb_mvl/mxv
	BYTE		BEND    c_v+0
	BYTE	W03
	BYTE		VOL     90*endlessb_mvl/mxv
	BYTE	W03
	BYTE		MOD     2
	BYTE		VOL     88*endlessb_mvl/mxv
	BYTE	W03
	BYTE		        84*endlessb_mvl/mxv
	BYTE	W03
	BYTE		MOD     3
	BYTE		VOL     80*endlessb_mvl/mxv
	BYTE	W03
	BYTE		        76*endlessb_mvl/mxv
	BYTE	W03
	BYTE		        74*endlessb_mvl/mxv
	BYTE		MOD     4
	BYTE	W03
	BYTE		VOL     72*endlessb_mvl/mxv
	BYTE	W03
	BYTE		        70*endlessb_mvl/mxv
	BYTE	W03
	BYTE		        68*endlessb_mvl/mxv
	BYTE	W03
	BYTE		        66*endlessb_mvl/mxv
	BYTE	W03
	BYTE		        64*endlessb_mvl/mxv
	BYTE	W03
	BYTE		        62*endlessb_mvl/mxv
	BYTE	W03
	BYTE		        60*endlessb_mvl/mxv
	BYTE		MOD     2
	BYTE	W03
	BYTE		VOL     58*endlessb_mvl/mxv
	BYTE	W03
	BYTE		        56*endlessb_mvl/mxv
	BYTE	W03
	BYTE		        54*endlessb_mvl/mxv
	BYTE	W03
	BYTE		        52*endlessb_mvl/mxv
	BYTE	W03
	BYTE		        50*endlessb_mvl/mxv
	BYTE	W03
	BYTE		        48*endlessb_mvl/mxv
	BYTE	W03
	BYTE		        46*endlessb_mvl/mxv
	BYTE	W03
	BYTE		        44*endlessb_mvl/mxv
	BYTE	W03
	BYTE		        42*endlessb_mvl/mxv
	BYTE	W03
	BYTE		        40*endlessb_mvl/mxv
	BYTE	W03
	BYTE		        38*endlessb_mvl/mxv
	BYTE	W03
	BYTE		        36*endlessb_mvl/mxv
	BYTE	W03
	BYTE		        34*endlessb_mvl/mxv
	BYTE	W03
	BYTE		        32*endlessb_mvl/mxv
	BYTE	W03
	BYTE		        30*endlessb_mvl/mxv
	BYTE	W03
	BYTE		        28*endlessb_mvl/mxv
	BYTE	W03
// 034   ----------------------------------------
	BYTE		VOICE   107
	BYTE		VOL     92*endlessb_mvl/mxv
	BYTE		MOD     0
	BYTE		PAN     c_v+0
	BYTE		BEND    c_v-50
	BYTE		N17     Fn5   v064
	BYTE	W01
	BYTE		BEND    c_v-35
	BYTE	W02
	BYTE		        c_v-19
	BYTE	W01
	BYTE		        c_v-7
	BYTE	W02
	BYTE		        c_v+0
	BYTE	W12
	BYTE		N05     Gn5 
	BYTE	W06
	BYTE		N11     Fn5 
	BYTE	W12
	BYTE		BEND    c_v-50
	BYTE		N23     Ds5   v072
	BYTE	W01
	BYTE		BEND    c_v-35
	BYTE	W02
	BYTE		        c_v-19
	BYTE	W01
	BYTE		        c_v-7
	BYTE	W02
	BYTE		        c_v+0
	BYTE	W30
	BYTE		        c_v-50
	BYTE		N17     Dn5 
	BYTE	W01
	BYTE		BEND    c_v-35
	BYTE	W02
	BYTE		        c_v-19
	BYTE	W01
	BYTE		        c_v-7
	BYTE	W02
	BYTE		        c_v+0
	BYTE	W12
	BYTE		N05     Ds5 
	BYTE	W06
// 035   ----------------------------------------
	BYTE		N11     Dn5 
	BYTE	W12
	BYTE		BEND    c_v-50
	BYTE		N52     Cn5 
	BYTE	W01
	BYTE		BEND    c_v-35
	BYTE	W02
	BYTE		        c_v-19
	BYTE	W01
	BYTE		        c_v-7
	BYTE	W02
	BYTE		        c_v+0
	BYTE	W54
	BYTE		N11     Dn5 
	BYTE	W12
	BYTE		        Ds5 
	BYTE	W12
// 036   ----------------------------------------
	BYTE		BEND    c_v-50
	BYTE		N17     Fn5   v064
	BYTE	W01
	BYTE		BEND    c_v-35
	BYTE	W02
	BYTE		        c_v-19
	BYTE	W01
	BYTE		        c_v-7
	BYTE	W02
	BYTE		        c_v+0
	BYTE	W12
	BYTE		N05     Gn5 
	BYTE	W06
	BYTE		N11     Fn5 
	BYTE	W12
	BYTE		BEND    c_v-50
	BYTE		N28     Ds5   v072
	BYTE	W01
	BYTE		BEND    c_v-35
	BYTE	W02
	BYTE		        c_v-19
	BYTE	W01
	BYTE		        c_v-7
	BYTE	W02
	BYTE		        c_v+0
	BYTE	W24
	BYTE		N01     Fn5   v032
	BYTE	W02
	BYTE		        Gn5   v044
	BYTE	W02
	BYTE		        Gs5   v052
	BYTE	W02
	BYTE		N23     As5   v060
	BYTE	W24
// 037   ----------------------------------------
	BYTE		N05     Gs5   v064
	BYTE	W06
	BYTE		        Gn5 
	BYTE	W06
	BYTE		BEND    c_v-50
	BYTE		N72     Ds5   v080
	BYTE	W01
	BYTE		BEND    c_v-35
	BYTE	W02
	BYTE		        c_v-19
	BYTE	W01
	BYTE		        c_v-7
	BYTE	W02
	BYTE		        c_v+0
	BYTE	W78
// 038   ----------------------------------------
	BYTE		N11     Cn3   v068
	BYTE	W12
	BYTE		N04     Gn2   v064
	BYTE	W12
	BYTE		        Gn2   v076
	BYTE	W12
	BYTE		N11     Cn3 
	BYTE	W12
	BYTE		N04     Gn2 
	BYTE	W12
	BYTE		        Gn2   v064
	BYTE	W12
	BYTE		N11     Cn3   v092
	BYTE	W12
	BYTE		N04     Gn2   v064
	BYTE	W12
// 039   ----------------------------------------
	BYTE		N11     Bn2   v092
	BYTE	W12
	BYTE		N04     Gn2   v064
	BYTE	W12
	BYTE		        Gn2   v076
	BYTE	W12
	BYTE		N11     Bn2   v068
	BYTE	W12
	BYTE		N04     Gn2   v076
	BYTE	W12
	BYTE		        Gn2   v064
	BYTE	W12
	BYTE		N11     Bn2   v092
	BYTE	W12
	BYTE		N04     Gn2   v064
	BYTE	W12
	BYTE	GoTo
	 POIN2	endlessb_2_B1
endlessb_2_B2:
// 040   ----------------------------------------
	BYTE	W03
	BYTE	FINE

//**************** Track 3 (Midi-Chn.3) ****************//

endlessb_3:
	BYTE	KEYSH   endlessb_key+0
// 000   ----------------------------------------
	BYTE		VOICE   79
	BYTE		VOL     92*endlessb_mvl/mxv
	BYTE		PAN     c_v+0
	BYTE		BEND    c_v+0
	BYTE	W96
// 001   ----------------------------------------
	BYTE	W92
	BYTE	W01
	BYTE	W03
endlessb_3_B1:
// 002   ----------------------------------------
	BYTE		VOICE   79
	BYTE		N32     Ds4   v108
	BYTE	W02
	BYTE	W01
	BYTE	W01
	BYTE	W01
	BYTE	W01
	BYTE	W01
	BYTE	W10
	BYTE	W01
	BYTE	W02
	BYTE	W01
	BYTE	W02
	BYTE	W01
	BYTE	W02
	BYTE	W01
	BYTE	W02
	BYTE	W01
	BYTE	W01
	BYTE	W02
	BYTE	W01
	BYTE	W01
	BYTE	W01
	BYTE		N05     Fn4 
	BYTE	W01
	BYTE	W01
	BYTE	W02
	BYTE	W01
	BYTE	W01
	BYTE		        Gn4 
	BYTE	W01
	BYTE	W01
	BYTE	W02
	BYTE	W01
	BYTE	W01
	BYTE		N56     Cn5 
	BYTE	W01
	BYTE	W02
	BYTE	W01
	BYTE	W02
	BYTE	W01
	BYTE	W02
	BYTE	W01
	BYTE	W01
	BYTE	W08
	BYTE	W04
	BYTE	W05
	BYTE	W04
	BYTE	W01
	BYTE	W02
	BYTE	W01
	BYTE	W02
	BYTE	W01
	BYTE	W02
	BYTE	W01
	BYTE	W02
	BYTE	W01
	BYTE	W02
	BYTE	W01
// 003   ----------------------------------------
	BYTE	W02
	BYTE	W01
	BYTE	W15
	BYTE		N02     Cn5   v084
	BYTE	W03
	BYTE		        Cs5 
	BYTE	W03
	BYTE		N23     Dn5   v104
	BYTE	W02
	BYTE	W01
	BYTE	W01
	BYTE	W01
	BYTE	W01
	BYTE	W01
	BYTE	W01
	BYTE	W01
	BYTE	W02
	BYTE	W01
	BYTE	W02
	BYTE	W01
	BYTE	W02
	BYTE	W01
	BYTE	W02
	BYTE	W01
	BYTE	W02
	BYTE	W01
	BYTE		        As4   v108
	BYTE	W08
	BYTE	W05
	BYTE	W04
	BYTE	W04
	BYTE	W03
	BYTE		        Fn4 
	BYTE	W01
	BYTE	W04
	BYTE	W03
	BYTE	W03
	BYTE	W03
	BYTE	W03
	BYTE	W03
	BYTE	W03
	BYTE	W01
// 004   ----------------------------------------
	BYTE		N17     Gn4 
	BYTE	W06
	BYTE	W06
	BYTE	W06
	BYTE		N05     Fn4 
	BYTE	W01
	BYTE	W05
	BYTE		N92     Gn4 
	BYTE	W01
	BYTE	W01
	BYTE	W01
	BYTE	W01
	BYTE	W01
	BYTE	W01
	BYTE	W03
	BYTE	W03
	BYTE	W03
	BYTE	W03
	BYTE	W01
	BYTE	W01
	BYTE	W02
	BYTE	W01
	BYTE	W02
	BYTE	W01
	BYTE	W02
	BYTE	W01
	BYTE	W02
	BYTE	W01
	BYTE	W03
	BYTE	W03
	BYTE	W03
	BYTE	W03
	BYTE	W03
	BYTE	W03
	BYTE	W03
	BYTE	W03
	BYTE	W03
	BYTE	W01
	BYTE	W02
	BYTE	W01
	BYTE	W02
	BYTE	W01
	BYTE	W02
	BYTE	W01
	BYTE	W02
	BYTE	W01
// 005   ----------------------------------------
	BYTE	W02
	BYTE	W01
	BYTE	W02
	BYTE	W01
	BYTE	W02
	BYTE	W01
	BYTE	W02
	BYTE	W01
	BYTE	W02
	BYTE	W01
	BYTE	W02
	BYTE	W01
	BYTE	W02
	BYTE	W01
	BYTE	W02
	BYTE	W01
	BYTE	W02
	BYTE	W01
	BYTE	W01
	BYTE	W02
	BYTE	W01
	BYTE	W02
	BYTE	W01
	BYTE	W02
	BYTE	W01
	BYTE	W02
	BYTE	W01
	BYTE	W02
	BYTE		N02     As4   v084
	BYTE	W01
	BYTE	W02
	BYTE		        Bn4 
	BYTE	W01
	BYTE	W02
	BYTE		N23     Cn5   v108
	BYTE	W01
	BYTE	W02
	BYTE	W01
	BYTE	W02
	BYTE	W01
	BYTE	W01
	BYTE	W09
	BYTE	W05
	BYTE	W02
	BYTE		        As4 
	BYTE	W03
	BYTE	W04
	BYTE	W02
	BYTE	W01
	BYTE	W02
	BYTE	W01
	BYTE	W02
	BYTE	W01
	BYTE	W02
	BYTE	W01
	BYTE	W02
	BYTE	W01
	BYTE	W01
	BYTE	W01
// 006   ----------------------------------------
	BYTE		N32     Gn4 
	BYTE	W01
	BYTE	W01
	BYTE	W01
	BYTE	W01
	BYTE	W03
	BYTE	W03
	BYTE	W03
	BYTE	W03
	BYTE	W02
	BYTE	W01
	BYTE	W02
	BYTE	W01
	BYTE	W02
	BYTE	W01
	BYTE	W02
	BYTE	W01
	BYTE	W02
	BYTE	W01
	BYTE	W02
	BYTE	W01
	BYTE	W01
	BYTE	W01
	BYTE		N05   
	BYTE	W06
	BYTE		        Gs4 
	BYTE	W06
	BYTE		N44     Fn4 
	BYTE	W05
	BYTE	W03
	BYTE	W03
	BYTE	W03
	BYTE	W03
	BYTE	W03
	BYTE	W03
	BYTE	W01
	BYTE	W01
	BYTE	W02
	BYTE	W01
	BYTE	W02
	BYTE	W01
	BYTE	W02
	BYTE	W01
	BYTE	W02
	BYTE	W01
	BYTE	W02
	BYTE	W01
	BYTE	W02
	BYTE	W01
	BYTE	W02
	BYTE	W01
	BYTE	W02
// 007   ----------------------------------------
	BYTE	W01
	BYTE	W01
	BYTE	W02
	BYTE	W01
	BYTE	W02
	BYTE	W01
	BYTE	W02
	BYTE	W01
	BYTE	W02
	BYTE	W01
	BYTE	W02
	BYTE	W01
	BYTE	W02
	BYTE	W01
	BYTE	W01
	BYTE	W03
	BYTE		N23     Gn4 
	BYTE	W03
	BYTE	W03
	BYTE	W02
	BYTE	W01
	BYTE	W02
	BYTE	W01
	BYTE	W02
	BYTE	W01
	BYTE	W02
	BYTE	W01
	BYTE	W01
	BYTE	W05
	BYTE		N17     Cn4 
	BYTE	W02
	BYTE	W01
	BYTE	W02
	BYTE	W01
	BYTE	W02
	BYTE	W01
	BYTE	W06
	BYTE	W03
	BYTE		        Dn4 
	BYTE	W03
	BYTE	W03
	BYTE	W03
	BYTE	W03
	BYTE	W03
	BYTE	W03
	BYTE		N11     Ds4 
	BYTE	W03
	BYTE	W03
	BYTE	W03
	BYTE	W03
// 008   ----------------------------------------
	BYTE		N17     Gn4 
	BYTE	W02
	BYTE	W01
	BYTE	W02
	BYTE	W01
	BYTE	W02
	BYTE	W01
	BYTE	W01
	BYTE	W03
	BYTE	W03
	BYTE	W02
	BYTE		N05     Fn4 
	BYTE	W01
	BYTE	W02
	BYTE	W01
	BYTE	W02
	BYTE		TIE     Gn4 
	BYTE	W01
	BYTE	W01
	BYTE	W01
	BYTE	W01
	BYTE	W01
	BYTE	W01
	BYTE	W01
	BYTE	W01
	BYTE	W01
	BYTE	W03
	BYTE	W03
	BYTE	W03
	BYTE	W03
	BYTE	W03
	BYTE	W03
	BYTE	W01
	BYTE	W02
	BYTE	W01
	BYTE	W02
	BYTE	W01
	BYTE	W01
	BYTE	W03
	BYTE	W03
	BYTE	W03
	BYTE	W03
	BYTE	W03
	BYTE	W03
	BYTE	W03
	BYTE	W02
	BYTE	W03
	BYTE	W03
	BYTE	W03
	BYTE	W03
	BYTE	W02
// 009   ----------------------------------------
	BYTE	W01
	BYTE	W03
	BYTE	W03
	BYTE	W03
	BYTE	W03
	BYTE	W03
	BYTE	W03
	BYTE	W01
	BYTE	W02
	BYTE	W01
	BYTE	W02
	BYTE	W01
	BYTE	W02
	BYTE	W01
	BYTE	W02
	BYTE	W01
	BYTE	W02
	BYTE	W01
	BYTE	W02
	BYTE	W01
	BYTE	W02
	BYTE	W01
	BYTE	W02
	BYTE	W01
	BYTE	W02
	BYTE	W01
	BYTE	W02
	BYTE	W01
	BYTE	W02
	BYTE	W01
	BYTE	W02
	BYTE	W01
	BYTE	W02
	BYTE	W01
	BYTE	W02
	BYTE	W01
	BYTE		EOT   
	BYTE	W02
	BYTE	W01
	BYTE	W02
	BYTE	W01
	BYTE	W02
	BYTE	W01
	BYTE	W01
	BYTE	W01
	BYTE	W01
	BYTE	W01
	BYTE	W01
	BYTE	W01
	BYTE	W01
	BYTE	W01
	BYTE	W01
	BYTE	W01
	BYTE	W01
	BYTE	W01
	BYTE	W01
	BYTE	W01
	BYTE	W01
	BYTE	W01
	BYTE	W01
	BYTE	W01
	BYTE	W01
	BYTE	W01
	BYTE	W01
	BYTE	W01
	BYTE	W01
	BYTE	W01
	BYTE	W01
// 010   ----------------------------------------
	BYTE		N32     Ds4 
	BYTE	W01
	BYTE	W01
	BYTE	W01
	BYTE	W01
	BYTE	W01
	BYTE	W09
	BYTE	W08
	BYTE	W02
	BYTE	W01
	BYTE	W02
	BYTE	W01
	BYTE	W02
	BYTE	W01
	BYTE	W02
	BYTE	W01
	BYTE	W02
	BYTE		N05     Fn4 
	BYTE	W01
	BYTE	W03
	BYTE	W02
	BYTE		        Gn4 
	BYTE	W01
	BYTE	W03
	BYTE	W02
	BYTE		N56     Cn5 
	BYTE	W01
	BYTE	W01
	BYTE	W01
	BYTE	W01
	BYTE	W01
	BYTE	W03
	BYTE	W03
	BYTE	W03
	BYTE	W02
	BYTE	W01
	BYTE	W02
	BYTE	W01
	BYTE	W02
	BYTE	W01
	BYTE	W02
	BYTE	W01
	BYTE	W02
	BYTE	W01
	BYTE	W02
	BYTE	W01
	BYTE	W02
	BYTE	W02
	BYTE	W01
	BYTE	W02
	BYTE	W01
	BYTE	W02
	BYTE	W01
	BYTE	W02
	BYTE	W01
	BYTE	W01
	BYTE	W01
// 011   ----------------------------------------
	BYTE	W02
	BYTE	W01
	BYTE	W02
	BYTE	W01
	BYTE	W02
	BYTE	W01
	BYTE	W01
	BYTE	W02
	BYTE	W01
	BYTE	W02
	BYTE	W09
	BYTE		N23   
	BYTE	W02
	BYTE	W02
	BYTE	W01
	BYTE	W02
	BYTE	W01
	BYTE	W01
	BYTE	W02
	BYTE	W01
	BYTE	W02
	BYTE	W01
	BYTE	W02
	BYTE	W01
	BYTE	W02
	BYTE	W01
	BYTE	W02
	BYTE	W01
	BYTE		N17     Dn5   v104
	BYTE	W02
	BYTE	W01
	BYTE	W13
	BYTE	W02
	BYTE		        Ds5   v092
	BYTE	W10
	BYTE	W03
	BYTE	W03
	BYTE	W02
	BYTE		N11     Fn5   v088
	BYTE	W01
	BYTE	W03
	BYTE	W03
	BYTE	W03
	BYTE	W02
// 012   ----------------------------------------
	BYTE		N40     Gn5   v080
	BYTE	W02
	BYTE	W01
	BYTE	W02
	BYTE	W01
	BYTE	W02
	BYTE	W01
	BYTE	W02
	BYTE	W01
	BYTE	W02
	BYTE	W01
	BYTE	W01
	BYTE	W03
	BYTE	W03
	BYTE	W03
	BYTE	W03
	BYTE	W03
	BYTE	W03
	BYTE	W02
	BYTE	W01
	BYTE	W02
	BYTE	W01
	BYTE	W01
	BYTE	W01
	BYTE		N05     Fn5   v088
	BYTE	W06
	BYTE		N44     Cn5   v108
	BYTE	W08
	BYTE	W01
	BYTE	W02
	BYTE	W01
	BYTE	W02
	BYTE	W01
	BYTE	W01
	BYTE	W08
	BYTE	W08
	BYTE	W08
	BYTE	W08
// 013   ----------------------------------------
	BYTE	W02
	BYTE	W01
	BYTE	W01
	BYTE	W03
	BYTE	W03
	BYTE	W03
	BYTE	W03
	BYTE	W03
	BYTE	W03
	BYTE	W02
	BYTE		N23     Gn4 
	BYTE	W02
	BYTE	W01
	BYTE	W02
	BYTE	W01
	BYTE	W02
	BYTE	W01
	BYTE	W02
	BYTE	W01
	BYTE	W02
	BYTE	W01
	BYTE	W02
	BYTE	W01
	BYTE	W02
	BYTE	W01
	BYTE	W02
	BYTE	W01
	BYTE		        Ds5   v092
	BYTE	W02
	BYTE	W01
	BYTE	W02
	BYTE	W01
	BYTE	W02
	BYTE	W03
	BYTE	W03
	BYTE	W03
	BYTE	W03
	BYTE	W03
	BYTE	W01
	BYTE		        Dn5   v104
	BYTE	W07
	BYTE	W09
	BYTE	W01
	BYTE	W02
	BYTE	W01
	BYTE	W02
	BYTE	W01
	BYTE	W01
// 014   ----------------------------------------
	BYTE		N40     Cn5   v108
	BYTE	W01
	BYTE	W01
	BYTE	W02
	BYTE	W01
	BYTE	W02
	BYTE	W01
	BYTE	W03
	BYTE	W03
	BYTE	W03
	BYTE	W03
	BYTE	W03
	BYTE	W03
	BYTE	W02
	BYTE	W01
	BYTE	W02
	BYTE	W01
	BYTE	W02
	BYTE	W01
	BYTE	W02
	BYTE	W01
	BYTE	W02
	BYTE	W02
	BYTE		N05     As4 
	BYTE	W06
	BYTE		N44     Fn4 
	BYTE	W11
	BYTE	W03
	BYTE	W03
	BYTE	W03
	BYTE	W03
	BYTE	W01
	BYTE	W02
	BYTE	W01
	BYTE	W02
	BYTE	W01
	BYTE	W02
	BYTE	W01
	BYTE	W02
	BYTE	W01
	BYTE	W02
	BYTE	W01
	BYTE	W02
	BYTE	W01
	BYTE	W02
	BYTE	W01
	BYTE	W02
	BYTE	W01
// 015   ----------------------------------------
	BYTE	W02
	BYTE	W01
	BYTE	W02
	BYTE	W03
	BYTE	W03
	BYTE	W03
	BYTE	W03
	BYTE	W03
	BYTE	W01
	BYTE	W02
	BYTE	W01
	BYTE		N23   
	BYTE	W02
	BYTE	W01
	BYTE	W02
	BYTE	W01
	BYTE	W02
	BYTE	W01
	BYTE	W02
	BYTE	W01
	BYTE	W01
	BYTE	W03
	BYTE	W03
	BYTE	W03
	BYTE	W02
	BYTE		N17     Gn4 
	BYTE	W18
	BYTE		        Gs4 
	BYTE	W18
	BYTE		N11     As4 
	BYTE	W12
// 016   ----------------------------------------
	BYTE		N17     Gn4 
	BYTE	W02
	BYTE	W01
	BYTE	W01
	BYTE	W01
	BYTE	W01
	BYTE	W01
	BYTE	W01
	BYTE	W02
	BYTE	W01
	BYTE	W02
	BYTE	W01
	BYTE	W02
	BYTE	W01
	BYTE	W01
	BYTE		N05     Fn4 
	BYTE	W01
	BYTE	W01
	BYTE	W02
	BYTE	W01
	BYTE	W01
	BYTE		TIE     Gn4 
	BYTE	W01
	BYTE	W01
	BYTE	W01
	BYTE	W01
	BYTE	W01
	BYTE	W01
	BYTE	W01
	BYTE	W20
	BYTE	W01
	BYTE	W02
	BYTE	W01
	BYTE	W03
	BYTE	W03
	BYTE	W03
	BYTE	W03
	BYTE	W03
	BYTE	W03
	BYTE	W03
	BYTE	W03
	BYTE	W03
	BYTE	W03
	BYTE	W03
	BYTE	W03
	BYTE	W03
	BYTE	W02
// 017   ----------------------------------------
	BYTE	W01
	BYTE	W03
	BYTE	W03
	BYTE	W03
	BYTE	W03
	BYTE	W01
	BYTE	W03
	BYTE	W03
	BYTE	W03
	BYTE	W03
	BYTE	W03
	BYTE	W03
	BYTE	W03
	BYTE	W03
	BYTE	W03
	BYTE	W03
	BYTE	W03
	BYTE	W03
	BYTE	W03
	BYTE	W03
	BYTE	W03
	BYTE	W03
	BYTE	W03
	BYTE	W03
	BYTE	W03
	BYTE	W03
	BYTE	W03
	BYTE		EOT   
	BYTE	W03
	BYTE	W03
	BYTE	W01
	BYTE	W12
// 018   ----------------------------------------
	BYTE	W64
	BYTE	W01
	BYTE	W30
	BYTE	W01
// 019   ----------------------------------------
	BYTE	W44
	BYTE	W01
	BYTE	W48
	BYTE	W03
// 020   ----------------------------------------
	BYTE	W24
	BYTE	W02
	BYTE	W68
	BYTE	W02
// 021   ----------------------------------------
	BYTE	W07
	BYTE	W76
	BYTE	W01
	BYTE	W12
// 022   ----------------------------------------
	BYTE	W64
	BYTE	W32
// 023   ----------------------------------------
	BYTE	W44
	BYTE	W01
	BYTE	W48
	BYTE	W03
// 024   ----------------------------------------
	BYTE	W24
	BYTE	W02
	BYTE	W01
	BYTE	W01
	BYTE	W01
	BYTE	W01
	BYTE	W01
	BYTE	W01
	BYTE	W01
	BYTE	W01
	BYTE	W01
	BYTE	W01
	BYTE	W01
	BYTE	W01
	BYTE	W01
	BYTE	W01
	BYTE	W01
	BYTE	W01
	BYTE		N02     As4   v084
	BYTE	W01
	BYTE	W02
	BYTE		        Bn4 
	BYTE	W01
	BYTE	W02
	BYTE		N17     Cn5   v108
	BYTE	W01
	BYTE	W01
	BYTE	W01
	BYTE	W01
	BYTE	W08
	BYTE	W02
	BYTE	W01
	BYTE	W02
	BYTE	W01
	BYTE		N05     Dn5 
	BYTE	W06
	BYTE		TIE     Cn5 
	BYTE	W03
	BYTE	W02
	BYTE	W01
	BYTE	W02
	BYTE	W01
	BYTE	W02
	BYTE	W01
	BYTE	W02
	BYTE	W03
	BYTE	W03
	BYTE	W03
	BYTE	W01
// 025   ----------------------------------------
	BYTE	W02
	BYTE	W03
	BYTE	W03
	BYTE	W03
	BYTE	W03
	BYTE	W03
	BYTE	W03
	BYTE	W03
	BYTE	W03
	BYTE	W03
	BYTE	W03
	BYTE	W03
	BYTE	W03
	BYTE	W03
	BYTE	W03
	BYTE	W01
	BYTE	W01
	BYTE	W02
	BYTE	W01
	BYTE	W02
	BYTE	W01
	BYTE	W02
	BYTE	W01
	BYTE	W02
	BYTE	W01
	BYTE	W02
	BYTE	W01
	BYTE	W02
	BYTE	W01
	BYTE	W02
	BYTE	W01
	BYTE	W02
	BYTE	W01
	BYTE	W02
	BYTE	W01
	BYTE	W02
	BYTE	W01
	BYTE	W02
	BYTE	W01
	BYTE	W02
	BYTE	W01
	BYTE	W02
	BYTE	W01
	BYTE	W02
	BYTE	W01
	BYTE	W02
	BYTE	W01
	BYTE		EOT   
	BYTE	W02
	BYTE	W01
	BYTE	W02
// 026   ----------------------------------------
	BYTE	W01
	BYTE	W48
	BYTE	W03
	BYTE	W24
	BYTE	W02
	BYTE	W18
// 027   ----------------------------------------
	BYTE	W08
	BYTE	W24
	BYTE	W01
	BYTE	W24
	BYTE	W02
	BYTE	W24
	BYTE	W02
	BYTE	W11
// 028   ----------------------------------------
	BYTE	W14
	BYTE	W24
	BYTE	W02
	BYTE	W24
	BYTE	W01
	BYTE	W24
	BYTE	W02
	BYTE	W05
// 029   ----------------------------------------
	BYTE	W21
	BYTE	W24
	BYTE	W01
	BYTE	W24
	BYTE	W02
	BYTE	W24
// 030   ----------------------------------------
	BYTE	W01
	BYTE	W24
	BYTE	W02
	BYTE	W24
	BYTE	W02
	BYTE	W24
	BYTE	W01
	BYTE	W18
// 031   ----------------------------------------
	BYTE	W08
	BYTE	W24
	BYTE	W01
	BYTE	W24
	BYTE	W02
	BYTE	W24
	BYTE	W02
	BYTE	W11
// 032   ----------------------------------------
	BYTE	W14
	BYTE	W24
	BYTE	W02
	BYTE	W24
	BYTE	W02
	BYTE	W24
	BYTE	W01
	BYTE	W05
// 033   ----------------------------------------
	BYTE	W21
	BYTE	W24
	BYTE	W01
	BYTE	W24
	BYTE	W02
	BYTE	W18
	BYTE		VOICE   56
	BYTE		N01     Dn5   v036
	BYTE	W02
	BYTE		        Ds5   v056
	BYTE	W02
	BYTE		        En5   v068
	BYTE	W02
// 034   ----------------------------------------
	BYTE		N17     Fn5   v092
	BYTE	W02
	BYTE	W01
	BYTE	W01
	BYTE	W02
	BYTE	W01
	BYTE	W02
	BYTE	W02
	BYTE	W01
	BYTE	W02
	BYTE	W01
	BYTE	W02
	BYTE	W01
	BYTE		N05     Gn5 
	BYTE	W06
	BYTE		N11     Fn5 
	BYTE	W12
	BYTE		N23     Ds5   v100
	BYTE	W02
	BYTE	W01
	BYTE	W01
	BYTE	W01
	BYTE	W02
	BYTE	W01
	BYTE	W02
	BYTE	W01
	BYTE	W02
	BYTE	W01
	BYTE	W02
	BYTE	W01
	BYTE	W02
	BYTE	W01
	BYTE	W02
	BYTE	W01
	BYTE	W02
	BYTE	W01
	BYTE	W02
	BYTE	W01
	BYTE	W02
	BYTE	W01
	BYTE	W02
	BYTE	W01
	BYTE	W01
	BYTE		N17     Dn5 
	BYTE	W01
	BYTE	W01
	BYTE	W01
	BYTE	W01
	BYTE	W02
	BYTE	W01
	BYTE	W02
	BYTE	W01
	BYTE	W02
	BYTE	W01
	BYTE	W01
	BYTE	W01
	BYTE	W01
	BYTE	W01
	BYTE	W01
	BYTE		N05     Ds5 
	BYTE	W06
// 035   ----------------------------------------
	BYTE		N11     Dn5 
	BYTE	W01
	BYTE	W02
	BYTE	W01
	BYTE	W02
	BYTE	W02
	BYTE	W01
	BYTE	W02
	BYTE	W01
	BYTE		N52     Cn5 
	BYTE	W02
	BYTE	W02
	BYTE	W01
	BYTE	W02
	BYTE	W01
	BYTE	W03
	BYTE	W03
	BYTE	W03
	BYTE	W03
	BYTE	W03
	BYTE	W03
	BYTE	W03
	BYTE	W01
	BYTE	W02
	BYTE	W01
	BYTE	W02
	BYTE	W01
	BYTE	W02
	BYTE	W01
	BYTE	W02
	BYTE	W01
	BYTE	W02
	BYTE	W01
	BYTE	W02
	BYTE	W01
	BYTE	W02
	BYTE	W01
	BYTE	W02
	BYTE	W01
	BYTE	W02
	BYTE	W01
	BYTE	W01
	BYTE	W01
	BYTE	W01
	BYTE		N11     Dn5 
	BYTE	W03
	BYTE	W03
	BYTE	W03
	BYTE	W03
	BYTE		        Ds5 
	BYTE	W03
	BYTE	W03
	BYTE	W03
	BYTE	W03
// 036   ----------------------------------------
	BYTE		N17     Fn5   v092
	BYTE	W01
	BYTE	W01
	BYTE	W01
	BYTE	W14
	BYTE	W01
	BYTE		N05     Gn5 
	BYTE	W06
	BYTE		N11     Fn5 
	BYTE	W03
	BYTE	W03
	BYTE	W03
	BYTE	W03
	BYTE		N28     Ds5   v100
	BYTE	W01
	BYTE	W02
	BYTE	W01
	BYTE	W02
	BYTE	W01
	BYTE	W01
	BYTE	W03
	BYTE	W03
	BYTE	W03
	BYTE	W01
	BYTE	W02
	BYTE	W01
	BYTE	W02
	BYTE	W01
	BYTE	W02
	BYTE	W02
	BYTE	W01
	BYTE	W01
	BYTE		N01     Fn5   v048
	BYTE	W01
	BYTE	W01
	BYTE		        Gn5   v064
	BYTE	W02
	BYTE		        Gs5   v072
	BYTE	W01
	BYTE	W01
	BYTE		N23     As5   v084
	BYTE	W01
	BYTE	W01
	BYTE	W02
	BYTE	W01
	BYTE	W02
	BYTE	W02
	BYTE	W01
	BYTE	W02
	BYTE	W01
	BYTE	W02
	BYTE	W01
	BYTE	W02
	BYTE	W01
	BYTE	W02
	BYTE	W01
	BYTE	W02
// 037   ----------------------------------------
	BYTE		N05     Gs5   v092
	BYTE	W06
	BYTE		        Gn5 
	BYTE	W06
	BYTE		N72     Ds5   v100
	BYTE	W01
	BYTE	W01
	BYTE	W01
	BYTE	W01
	BYTE	W01
	BYTE	W01
	BYTE	W01
	BYTE	W03
	BYTE	W03
	BYTE	W03
	BYTE	W03
	BYTE	W03
	BYTE	W03
	BYTE	W03
	BYTE	W03
	BYTE	W02
	BYTE	W03
	BYTE	W03
	BYTE	W03
	BYTE	W03
	BYTE	W03
	BYTE	W03
	BYTE	W03
	BYTE	W03
	BYTE	W03
	BYTE	W03
	BYTE	W03
	BYTE	W02
	BYTE	W01
	BYTE	W02
	BYTE	W01
	BYTE	W02
	BYTE	W01
	BYTE	W02
	BYTE	W01
	BYTE	W02
	BYTE	W01
	BYTE	W02
	BYTE	W01
// 038   ----------------------------------------
	BYTE		VOICE   71
	BYTE		N44     Gn3   v108
	BYTE	W01
	BYTE	W01
	BYTE	W01
	BYTE	W01
	BYTE	W01
	BYTE	W01
	BYTE	W01
	BYTE	W01
	BYTE	W01
	BYTE	W01
	BYTE	W01
	BYTE	W01
	BYTE	W01
	BYTE	W01
	BYTE	W01
	BYTE	W01
	BYTE	W03
	BYTE	W03
	BYTE	W03
	BYTE	W03
	BYTE	W03
	BYTE	W01
	BYTE	W01
	BYTE	W01
	BYTE	W01
	BYTE	W01
	BYTE	W01
	BYTE	W01
	BYTE	W01
	BYTE	W01
	BYTE	W01
	BYTE	W01
	BYTE	W01
	BYTE	W01
	BYTE	W01
	BYTE	W01
	BYTE	W01
	BYTE	W01
	BYTE		N36     Dn4 
	BYTE	W01
	BYTE	W01
	BYTE	W01
	BYTE	W01
	BYTE	W01
	BYTE	W01
	BYTE	W01
	BYTE	W01
	BYTE	W01
	BYTE	W01
	BYTE	W01
	BYTE	W01
	BYTE	W09
	BYTE	W01
	BYTE	W02
	BYTE	W01
	BYTE	W02
	BYTE	W01
	BYTE	W02
	BYTE	W10
	BYTE		N03     Cs4 
	BYTE	W04
	BYTE		        Cn4 
	BYTE	W04
// 039   ----------------------------------------
	BYTE		N80     Bn3 
	BYTE	W04
	BYTE	W03
	BYTE	W03
	BYTE	W03
	BYTE	W03
	BYTE	W03
	BYTE	W03
	BYTE	W03
	BYTE	W03
	BYTE	W03
	BYTE	W03
	BYTE	W03
	BYTE	W03
	BYTE	W03
	BYTE	W03
	BYTE	W01
	BYTE	W02
	BYTE	W01
	BYTE	W02
	BYTE	W01
	BYTE	W02
	BYTE	W01
	BYTE	W02
	BYTE	W01
	BYTE	W02
	BYTE	W01
	BYTE	W02
	BYTE	W01
	BYTE	W02
	BYTE	W01
	BYTE	W02
	BYTE	W01
	BYTE	W02
	BYTE	W01
	BYTE	W02
	BYTE	W01
	BYTE	W02
	BYTE	W01
	BYTE	W02
	BYTE	W01
	BYTE	W02
	BYTE	W07
	BYTE	W01
	BYTE	W03
	BYTE	GoTo
	 POIN2	endlessb_3_B1
endlessb_3_B2:
// 040   ----------------------------------------
	BYTE	W03
	BYTE	FINE

//**************** Track 4 (Midi-Chn.4) ****************//

endlessb_4:
	BYTE	KEYSH   endlessb_key+0
// 000   ----------------------------------------
	BYTE		VOICE   80
	BYTE		VOL     56*endlessb_mvl/mxv
	BYTE		PAN     c_v-40
	BYTE		BEND    c_v+0
	BYTE		N11     Gn4   v048
	BYTE	W12
	BYTE		PAN     c_v-16
	BYTE		N11     Gn4   v028
	BYTE	W12
	BYTE		PAN     c_v+0
	BYTE		N11     Gn4   v012
	BYTE	W12
	BYTE		PAN     c_v+40
	BYTE		N11     Gn4   v064
	BYTE	W12
	BYTE		PAN     c_v+16
	BYTE		N11     Gn4   v040
	BYTE	W12
	BYTE		PAN     c_v+0
	BYTE		N11     Gn4   v024
	BYTE	W12
	BYTE		PAN     c_v-40
	BYTE		N11     Gn4   v064
	BYTE	W12
	BYTE		PAN     c_v-16
	BYTE		N11     Gn4   v052
	BYTE	W12
// 001   ----------------------------------------
endlessb_4_001:
	BYTE		PAN     c_v-40
	BYTE		N11     Gn4   v076
	BYTE	W12
	BYTE		PAN     c_v-16
	BYTE		N11     Gn4   v052
	BYTE	W12
	BYTE		PAN     c_v+0
	BYTE		N11     Gn4   v036
	BYTE	W12
	BYTE		PAN     c_v+40
	BYTE		N11     Gn4   v076
	BYTE	W12
	BYTE		PAN     c_v+16
	BYTE		N11     Gn4   v052
	BYTE	W12
	BYTE		PAN     c_v+0
	BYTE		N11     Gn4   v036
	BYTE	W12
	BYTE		PAN     c_v-40
	BYTE		N11     Gn4   v076
	BYTE	W12
	BYTE		PAN     c_v-16
	BYTE		N11     Gn4   v052
	BYTE	W12
	BYTE	PEND
endlessb_4_B1:
// 002   ----------------------------------------
	BYTE	W96
// 003   ----------------------------------------
	BYTE	W96
// 004   ----------------------------------------
	BYTE	W96
// 005   ----------------------------------------
	BYTE	W96
// 006   ----------------------------------------
	BYTE	W96
// 007   ----------------------------------------
	BYTE	W96
// 008   ----------------------------------------
	BYTE	W96
// 009   ----------------------------------------
	BYTE	W96
// 010   ----------------------------------------
	BYTE		VOICE   61
	BYTE		N44     Gn2   v096
	BYTE	W03
	BYTE	W03
	BYTE	W03
	BYTE	W03
	BYTE	W03
	BYTE	W03
	BYTE	W03
	BYTE	W03
	BYTE	W03
	BYTE	W03
	BYTE	W03
	BYTE	W03
	BYTE	W03
	BYTE	W03
	BYTE	W03
	BYTE	W03
	BYTE		        Cn3 
	BYTE	W03
	BYTE	W03
	BYTE	W03
	BYTE	W03
	BYTE	W03
	BYTE	W03
	BYTE	W03
	BYTE	W03
	BYTE	W03
	BYTE	W03
	BYTE	W03
	BYTE	W03
	BYTE	W03
	BYTE	W03
	BYTE	W03
	BYTE	W03
// 011   ----------------------------------------
	BYTE		        As2 
	BYTE	W06
	BYTE	W04
	BYTE	W03
	BYTE	W03
	BYTE	W03
	BYTE	W04
	BYTE	W03
	BYTE	W03
	BYTE	W03
	BYTE	W03
	BYTE	W04
	BYTE	W03
	BYTE	W03
	BYTE	W03
	BYTE		        Fn2 
	BYTE	W04
	BYTE	W03
	BYTE	W03
	BYTE	W03
	BYTE	W03
	BYTE	W04
	BYTE	W03
	BYTE	W03
	BYTE	W03
	BYTE	W04
	BYTE	W03
	BYTE	W03
	BYTE	W03
	BYTE	W03
	BYTE	W03
// 012   ----------------------------------------
	BYTE		N32   
	BYTE	W01
	BYTE	W03
	BYTE	W03
	BYTE	W03
	BYTE	W04
	BYTE	W01
	BYTE	W02
	BYTE	W01
	BYTE	W02
	BYTE	W01
	BYTE	W02
	BYTE	W01
	BYTE	W02
	BYTE	W01
	BYTE	W02
	BYTE	W01
	BYTE	W02
	BYTE	W01
	BYTE	W02
	BYTE	W01
	BYTE		N02     Gn2 
	BYTE	W02
	BYTE	W01
	BYTE		        An2 
	BYTE	W02
	BYTE	W01
	BYTE		        As2 
	BYTE	W02
	BYTE	W01
	BYTE		        Cn3 
	BYTE	W02
	BYTE	W01
	BYTE		N17     Dn3 
	BYTE	W18
	BYTE		        Ds3 
	BYTE	W12
	BYTE	W06
	BYTE		N11     Fn3 
	BYTE	W09
	BYTE	W03
// 013   ----------------------------------------
	BYTE		N17     Gn3 
	BYTE	W12
	BYTE	W06
	BYTE		N05     Fn3 
	BYTE	W06
	BYTE		N68     Cn3 
	BYTE	W03
	BYTE	W03
	BYTE	W03
	BYTE	W03
	BYTE	W03
	BYTE	W03
	BYTE	W03
	BYTE	W03
	BYTE	W03
	BYTE	W03
	BYTE	W03
	BYTE	W03
	BYTE	W03
	BYTE	W03
	BYTE	W01
	BYTE	W02
	BYTE	W01
	BYTE	W02
	BYTE	W01
	BYTE	W02
	BYTE	W01
	BYTE	W02
	BYTE	W01
	BYTE	W02
	BYTE	W01
	BYTE	W02
	BYTE	W01
	BYTE	W02
	BYTE	W01
	BYTE	W02
	BYTE	W01
	BYTE	W02
	BYTE	W01
	BYTE	W02
// 014   ----------------------------------------
	BYTE		N44     Gs2 
	BYTE	W01
	BYTE	W02
	BYTE	W01
	BYTE	W02
	BYTE	W01
	BYTE	W02
	BYTE	W01
	BYTE	W02
	BYTE	W01
	BYTE	W02
	BYTE	W01
	BYTE	W02
	BYTE	W01
	BYTE	W02
	BYTE	W01
	BYTE	W04
	BYTE	W04
	BYTE	W04
	BYTE	W04
	BYTE	W04
	BYTE	W04
	BYTE	W02
	BYTE		N36     Cn3 
	BYTE	W08
	BYTE	W06
	BYTE	W05
	BYTE	W06
	BYTE	W05
	BYTE	W06
	BYTE	W03
	BYTE		N02     Dn3   v104
	BYTE	W02
	BYTE	W01
	BYTE		        Ds3 
	BYTE	W03
	BYTE		        En3 
	BYTE	W01
	BYTE	W02
// 015   ----------------------------------------
	BYTE		N44     Fn3   v096
	BYTE	W30
	BYTE	W07
	BYTE	W03
	BYTE	W03
	BYTE	W04
	BYTE	W01
	BYTE		        Cn3 
	BYTE	W02
	BYTE	W03
	BYTE	W03
	BYTE	W04
	BYTE	W03
	BYTE	W03
	BYTE	W04
	BYTE	W03
	BYTE	W03
	BYTE	W03
	BYTE	W04
	BYTE	W03
	BYTE	W03
	BYTE	W04
	BYTE	W03
// 016   ----------------------------------------
	BYTE		N44   
	BYTE	W03
	BYTE	W09
	BYTE	W04
	BYTE	W04
	BYTE	W04
	BYTE	W04
	BYTE	W04
	BYTE	W04
	BYTE	W04
	BYTE	W05
	BYTE	W03
	BYTE		N17     An2 
	BYTE	W01
	BYTE	W04
	BYTE	W04
	BYTE	W04
	BYTE	W04
	BYTE	W01
	BYTE		N02     As2 
	BYTE	W03
	BYTE		        Bn2 
	BYTE	W03
	BYTE		N23     Cn3 
	BYTE	W02
	BYTE	W04
	BYTE	W04
	BYTE	W04
	BYTE	W04
	BYTE	W04
	BYTE	W02
// 017   ----------------------------------------
	BYTE		N48   
	BYTE	W02
	BYTE	W06
	BYTE	W06
	BYTE	W06
	BYTE	W05
	BYTE	W06
	BYTE	W06
	BYTE	W06
	BYTE	W05
	BYTE		        Bn2 
	BYTE	W02
	BYTE	W01
	BYTE	W02
	BYTE	W01
	BYTE	W02
	BYTE	W01
	BYTE	W02
	BYTE	W01
	BYTE	W02
	BYTE	W01
	BYTE	W02
	BYTE	W01
	BYTE	W02
	BYTE	W01
	BYTE	W01
	BYTE	W02
	BYTE	W01
	BYTE	W02
	BYTE	W01
	BYTE	W02
	BYTE	W01
	BYTE	W02
	BYTE	W01
	BYTE	W02
	BYTE	W01
	BYTE	W02
	BYTE	W01
	BYTE	W01
	BYTE	W01
	BYTE	W03
	BYTE	W03
// 018   ----------------------------------------
	BYTE		PAN     c_v+0
	BYTE		N44     Gn3   v127
	BYTE	W03
	BYTE	W03
	BYTE	W03
	BYTE	W03
	BYTE	W03
	BYTE	W03
	BYTE	W03
	BYTE	W03
	BYTE	W03
	BYTE	W03
	BYTE	W03
	BYTE	W03
	BYTE	W12
	BYTE		        Cn4 
	BYTE	W07
	BYTE	W03
	BYTE	W03
	BYTE	W03
	BYTE	W03
	BYTE	W03
	BYTE	W02
	BYTE	W03
	BYTE	W03
	BYTE	W03
	BYTE	W03
	BYTE	W03
	BYTE	W03
	BYTE	W03
	BYTE	W03
// 019   ----------------------------------------
	BYTE	W16
	BYTE	W02
	BYTE	W01
	BYTE	W02
	BYTE	W03
	BYTE		N23   
	BYTE	W03
	BYTE	W03
	BYTE	W03
	BYTE	W03
	BYTE	W03
	BYTE	W03
	BYTE	W03
	BYTE	W03
	BYTE		        Dn4 
	BYTE	W24
	BYTE		        As3 
	BYTE	W24
// 020   ----------------------------------------
	BYTE		N44     Gn3 
	BYTE	W08
	BYTE	W03
	BYTE	W03
	BYTE	W03
	BYTE	W03
	BYTE	W03
	BYTE	W02
	BYTE	W03
	BYTE	W03
	BYTE	W03
	BYTE	W03
	BYTE	W03
	BYTE	W03
	BYTE	W03
	BYTE	W02
	BYTE		N32     Ds3 
	BYTE	W01
	BYTE	W32
	BYTE	W03
	BYTE		N05     Fn3 
	BYTE	W06
	BYTE		        Gn3 
	BYTE	W06
// 021   ----------------------------------------
	BYTE		N44     Fn3 
	BYTE	W06
	BYTE	W05
	BYTE	W04
	BYTE	W05
	BYTE	W05
	BYTE	W05
	BYTE	W04
	BYTE	W05
	BYTE	W03
	BYTE	W03
	BYTE	W03
	BYTE	W03
	BYTE	W03
	BYTE	W02
	BYTE	W02
	BYTE	W01
	BYTE	W01
	BYTE		N23     Cn3 
	BYTE	W01
	BYTE	W01
	BYTE	W02
	BYTE	W01
	BYTE	W02
	BYTE	W01
	BYTE	W02
	BYTE	W01
	BYTE	W02
	BYTE	W11
	BYTE		N11     Dn3 
	BYTE	W12
// 022   ----------------------------------------
	BYTE		N44     Ds3 
	BYTE	W48
	BYTE		N23     Fn3 
	BYTE	W24
	BYTE		        Gn3 
	BYTE	W24
// 023   ----------------------------------------
	BYTE		N44     As3 
	BYTE	W09
	BYTE	W03
	BYTE	W03
	BYTE	W03
	BYTE	W03
	BYTE	W01
	BYTE	W03
	BYTE	W03
	BYTE	W03
	BYTE	W03
	BYTE	W03
	BYTE	W03
	BYTE	W03
	BYTE	W03
	BYTE	W02
	BYTE		N17     Fn3 
	BYTE	W01
	BYTE	W01
	BYTE	W16
	BYTE		        Gn3 
	BYTE	W18
	BYTE		N11     As3 
	BYTE	W12
// 024   ----------------------------------------
	BYTE		N17     Cn4 
	BYTE	W18
	BYTE		N05     Dn4 
	BYTE	W06
	BYTE		TIE     Cn4 
	BYTE	W05
	BYTE	W03
	BYTE	W03
	BYTE	W03
	BYTE	W03
	BYTE	W03
	BYTE	W03
	BYTE	W03
	BYTE	W03
	BYTE	W03
	BYTE	W08
	BYTE	W04
	BYTE	W04
	BYTE	W04
	BYTE	W04
	BYTE	W04
	BYTE	W04
	BYTE	W05
	BYTE	W03
// 025   ----------------------------------------
	BYTE	W01
	BYTE	W04
	BYTE	W04
	BYTE	W04
	BYTE	W04
	BYTE	W04
	BYTE	W03
	BYTE	W03
	BYTE	W03
	BYTE	W03
	BYTE	W03
	BYTE	W03
	BYTE	W03
	BYTE	W03
	BYTE	W03
	BYTE	W03
	BYTE	W03
	BYTE	W03
	BYTE	W03
	BYTE	W03
	BYTE	W03
	BYTE	W03
	BYTE	W02
	BYTE		EOT   
	BYTE	W01
	BYTE	W03
	BYTE	W03
	BYTE	W03
	BYTE	W03
	BYTE	W03
	BYTE	W03
	BYTE	W01
	BYTE	W03
	BYTE	W02
// 026   ----------------------------------------
	BYTE		PAN     c_v+0
	BYTE		N24     Cn2   v104
	BYTE	W01
	BYTE	W03
	BYTE	W03
	BYTE	W03
	BYTE	W03
	BYTE	W03
	BYTE	W03
	BYTE	W03
	BYTE	W02
	BYTE		        Ds2 
	BYTE	W01
	BYTE	W03
	BYTE	W03
	BYTE	W03
	BYTE	W03
	BYTE	W03
	BYTE	W03
	BYTE	W03
	BYTE	W01
	BYTE	W01
	BYTE		        Gs2 
	BYTE	W02
	BYTE	W03
	BYTE	W03
	BYTE	W03
	BYTE	W03
	BYTE	W03
	BYTE	W03
	BYTE	W03
	BYTE	W01
	BYTE		        Cn3 
	BYTE	W02
	BYTE	W03
	BYTE	W03
	BYTE	W03
	BYTE	W03
	BYTE	W03
	BYTE	W03
	BYTE	W04
// 027   ----------------------------------------
	BYTE		N48     Dn3 
	BYTE	W30
	BYTE	W17
	BYTE	W01
	BYTE		        As2 
	BYTE	W16
	BYTE	W17
	BYTE	W15
// 028   ----------------------------------------
	BYTE		        Gn3 
	BYTE	W02
	BYTE	W02
	BYTE	W01
	BYTE	W02
	BYTE	W01
	BYTE	W02
	BYTE	W01
	BYTE	W02
	BYTE	W01
	BYTE	W02
	BYTE	W07
	BYTE	W03
	BYTE	W04
	BYTE	W03
	BYTE	W04
	BYTE	W03
	BYTE	W04
	BYTE	W03
	BYTE	W01
	BYTE		N24     Fn3   v080
	BYTE	W02
	BYTE	W04
	BYTE	W03
	BYTE	W04
	BYTE	W03
	BYTE	W03
	BYTE	W03
	BYTE	W02
	BYTE		        Ds3 
	BYTE	W01
	BYTE	W03
	BYTE	W03
	BYTE	W03
	BYTE	W03
	BYTE	W03
	BYTE	W03
	BYTE	W03
	BYTE	W02
// 029   ----------------------------------------
	BYTE		N96     Cn3   v104
	BYTE	W01
	BYTE	W03
	BYTE	W03
	BYTE	W02
	BYTE	W01
	BYTE	W02
	BYTE	W01
	BYTE	W02
	BYTE	W01
	BYTE	W02
	BYTE	W01
	BYTE	W02
	BYTE	W01
	BYTE	W02
	BYTE	W01
	BYTE	W02
	BYTE	W01
	BYTE	W02
	BYTE	W01
	BYTE	W02
	BYTE	W01
	BYTE	W02
	BYTE	W01
	BYTE	W02
	BYTE	W01
	BYTE	W02
	BYTE	W01
	BYTE	W02
	BYTE	W01
	BYTE	W02
	BYTE	W01
	BYTE	W01
	BYTE	W03
	BYTE	W03
	BYTE	W03
	BYTE	W03
	BYTE	W03
	BYTE	W03
	BYTE	W03
	BYTE	W03
	BYTE	W03
	BYTE	W03
	BYTE	W03
	BYTE	W03
	BYTE	W03
	BYTE	W03
	BYTE	W03
	BYTE	W01
// 030   ----------------------------------------
	BYTE	W02
	BYTE	W03
	BYTE	W03
	BYTE	W02
	BYTE	W03
	BYTE	W03
	BYTE	W03
	BYTE	W03
	BYTE	W02
	BYTE		N48     Ds2 
	BYTE	W01
	BYTE	W03
	BYTE	W03
	BYTE	W03
	BYTE	W03
	BYTE	W03
	BYTE	W03
	BYTE	W03
	BYTE	W03
	BYTE	W03
	BYTE	W03
	BYTE	W03
	BYTE	W03
	BYTE	W03
	BYTE	W03
	BYTE	W03
	BYTE	W02
	BYTE		        Fn2 
	BYTE	W24
// 031   ----------------------------------------
	BYTE	W10
	BYTE	W14
	BYTE		N24     Gn2 
	BYTE	W04
	BYTE	W19
	BYTE	W01
	BYTE		        Gs2 
	BYTE	W17
	BYTE	W07
	BYTE		        Cn3 
	BYTE	W11
	BYTE	W13
// 032   ----------------------------------------
	BYTE		N72     Dn3 
	BYTE	W05
	BYTE	W01
	BYTE	W02
	BYTE	W01
	BYTE	W02
	BYTE	W01
	BYTE	W02
	BYTE	W01
	BYTE	W02
	BYTE	W01
	BYTE	W02
	BYTE	W01
	BYTE	W01
	BYTE	W08
	BYTE	W04
	BYTE	W04
	BYTE	W04
	BYTE	W04
	BYTE	W04
	BYTE	W04
	BYTE	W04
	BYTE	W04
	BYTE	W03
	BYTE	W03
	BYTE	W03
	BYTE	W01
	BYTE		N24     Fn3 
	BYTE	W02
	BYTE	W03
	BYTE	W02
	BYTE	W03
	BYTE	W03
	BYTE	W03
	BYTE	W03
	BYTE	W03
	BYTE	W02
// 033   ----------------------------------------
	BYTE		N96     Dn3 
	BYTE	W03
	BYTE	W03
	BYTE	W03
	BYTE	W01
	BYTE	W02
	BYTE	W01
	BYTE	W02
	BYTE	W01
	BYTE	W02
	BYTE	W01
	BYTE	W02
	BYTE	W01
	BYTE	W02
	BYTE	W01
	BYTE	W02
	BYTE	W01
	BYTE	W02
	BYTE	W01
	BYTE	W02
	BYTE	W01
	BYTE	W02
	BYTE	W01
	BYTE	W02
	BYTE	W01
	BYTE	W02
	BYTE	W01
	BYTE	W02
	BYTE	W01
	BYTE	W02
	BYTE	W01
	BYTE	W02
	BYTE	W01
	BYTE	W02
	BYTE	W01
	BYTE	W02
	BYTE	W01
	BYTE	W02
	BYTE	W01
	BYTE	W02
	BYTE	W01
	BYTE	W02
	BYTE	W01
	BYTE	W02
	BYTE	W03
	BYTE	W03
	BYTE	W03
	BYTE	W03
	BYTE	W01
	BYTE	W01
	BYTE	W02
	BYTE	W01
	BYTE	W02
	BYTE	W01
	BYTE	W02
	BYTE	W01
	BYTE	W02
	BYTE	W01
	BYTE	W01
// 034   ----------------------------------------
	BYTE		N36     Fn3 
	BYTE	W01
	BYTE	W32
	BYTE	W03
	BYTE		N12     Ds3 
	BYTE	W12
	BYTE		        Ds3   v056
	BYTE	W12
	BYTE		        Ds3   v040
	BYTE	W12
	BYTE		N36     Dn3   v104
	BYTE	W24
// 035   ----------------------------------------
	BYTE	W12
	BYTE		N72     Cn3 
	BYTE	W06
	BYTE	W01
	BYTE	W02
	BYTE	W01
	BYTE	W02
	BYTE	W01
	BYTE	W02
	BYTE	W01
	BYTE	W02
	BYTE	W03
	BYTE	W03
	BYTE	W03
	BYTE	W03
	BYTE	W03
	BYTE	W03
	BYTE	W03
	BYTE	W03
	BYTE	W03
	BYTE	W03
	BYTE	W03
	BYTE	W03
	BYTE	W03
	BYTE	W03
	BYTE	W03
	BYTE	W03
	BYTE	W03
	BYTE	W03
	BYTE	W03
	BYTE	W03
	BYTE	W03
	BYTE	W01
	BYTE	W02
// 036   ----------------------------------------
	BYTE		N36     Fn3 
	BYTE	W36
	BYTE		N12     Ds3 
	BYTE	W12
	BYTE		        Ds3   v056
	BYTE	W12
	BYTE		        Ds3   v040
	BYTE	W12
	BYTE		N36     Dn3   v104
	BYTE	W24
// 037   ----------------------------------------
	BYTE	W12
	BYTE		N66     Cn3 
	BYTE	W01
	BYTE	W03
	BYTE	W02
	BYTE	W03
	BYTE	W03
	BYTE	W03
	BYTE	W03
	BYTE	W03
	BYTE	W03
	BYTE	W03
	BYTE	W03
	BYTE	W03
	BYTE	W03
	BYTE	W03
	BYTE	W03
	BYTE	W03
	BYTE	W03
	BYTE	W03
	BYTE	W03
	BYTE	W01
	BYTE	W02
	BYTE	W01
	BYTE	W02
	BYTE	W01
	BYTE	W02
	BYTE	W01
	BYTE	W02
	BYTE	W01
	BYTE	W02
	BYTE	W01
	BYTE	W02
	BYTE	W01
	BYTE	W02
	BYTE	W01
	BYTE	W02
	BYTE	W01
	BYTE	W02
	BYTE	W01
	BYTE	W01
	BYTE	W01
// 038   ----------------------------------------
	BYTE		VOICE   80
	BYTE		PAN     c_v-40
	BYTE		        c_v-40
	BYTE		N11     Gn4   v048
	BYTE	W12
	BYTE		PAN     c_v-16
	BYTE		N11     Gn4   v028
	BYTE	W12
	BYTE		PAN     c_v+0
	BYTE		N11     Gn4   v012
	BYTE	W12
	BYTE		PAN     c_v+40
	BYTE		N11     Gn4   v064
	BYTE	W12
	BYTE		PAN     c_v+16
	BYTE		N11     Gn4   v040
	BYTE	W12
	BYTE		PAN     c_v+0
	BYTE		N11     Gn4   v024
	BYTE	W12
	BYTE		PAN     c_v-40
	BYTE		N11     Gn4   v064
	BYTE	W12
	BYTE		PAN     c_v-16
	BYTE		N11     Gn4   v052
	BYTE	W12
// 039   ----------------------------------------
	BYTE	PATT
	 POIN2	endlessb_4_001
	BYTE	GoTo
	 POIN2	endlessb_4_B1
endlessb_4_B2:
// 040   ----------------------------------------
	BYTE	W03
	BYTE	FINE

//**************** Track 5 (Midi-Chn.5) ****************//

endlessb_5:
	BYTE	KEYSH   endlessb_key+0
// 000   ----------------------------------------
	BYTE		VOICE   40
	BYTE		VOL     68*endlessb_mvl/mxv
	BYTE		PAN     c_v+16
	BYTE		N09     Gn3   v056
	BYTE	W12
	BYTE		        Gn3   v032
	BYTE	W12
	BYTE		        Gn3   v012
	BYTE	W12
	BYTE		        Gn3   v072
	BYTE	W12
	BYTE		        Gn3   v048
	BYTE	W12
	BYTE		        Gn3   v028
	BYTE	W12
	BYTE		        Gn3   v072
	BYTE	W12
	BYTE		        Gn3   v060
	BYTE	W12
// 001   ----------------------------------------
	BYTE		        Gn3   v084
	BYTE	W12
	BYTE		        Gn3   v060
	BYTE	W12
	BYTE		        Gn3   v040
	BYTE	W12
	BYTE		        Gn3   v084
	BYTE	W12
	BYTE		        Gn3   v060
	BYTE	W12
	BYTE		        Gn3   v040
	BYTE	W12
	BYTE		        Gn3   v084
	BYTE	W12
	BYTE		        Gn3   v060
	BYTE	W12
endlessb_5_B1:
// 002   ----------------------------------------
	BYTE		VOICE   40
	BYTE		N06     Cn3   v104
	BYTE	W12
	BYTE		        Cn3   v088
	BYTE	W12
	BYTE		        Cn3   v052
	BYTE	W12
	BYTE		        Cn3   v104
	BYTE	W12
	BYTE		        Cn3   v088
	BYTE	W12
	BYTE		        Cn3   v052
	BYTE	W12
	BYTE		        Cn3   v104
	BYTE	W12
	BYTE		        Cn3   v088
	BYTE	W12
// 003   ----------------------------------------
endlessb_5_003:
	BYTE		N06     As2   v104
	BYTE	W12
	BYTE		        As2   v088
	BYTE	W12
	BYTE		        As2   v052
	BYTE	W12
	BYTE		        As2   v104
	BYTE	W12
	BYTE		        As2   v088
	BYTE	W12
	BYTE		        As2   v052
	BYTE	W12
	BYTE		        As2   v104
	BYTE	W12
	BYTE		        As2   v088
	BYTE	W12
	BYTE	PEND
// 004   ----------------------------------------
endlessb_5_004:
	BYTE		N06     Gs2   v104
	BYTE	W12
	BYTE		        Gs2   v088
	BYTE	W12
	BYTE		        Gs2   v052
	BYTE	W12
	BYTE		        Gs2   v104
	BYTE	W12
	BYTE		        Gs2   v088
	BYTE	W12
	BYTE		        Gs2   v052
	BYTE	W12
	BYTE		        Gs2   v104
	BYTE	W12
	BYTE		        Gs2   v088
	BYTE	W12
	BYTE	PEND
// 005   ----------------------------------------
endlessb_5_005:
	BYTE		N06     Gn2   v104
	BYTE	W12
	BYTE		        Gn2   v088
	BYTE	W12
	BYTE		        Gn2   v052
	BYTE	W12
	BYTE		        Gn2   v104
	BYTE	W12
	BYTE		        Gn2   v088
	BYTE	W12
	BYTE		        Gn2   v052
	BYTE	W12
	BYTE		        Gn2   v104
	BYTE	W12
	BYTE		        Gn2   v088
	BYTE	W12
	BYTE	PEND
// 006   ----------------------------------------
	BYTE		        Fn2   v104
	BYTE	W12
	BYTE		        Fn2   v088
	BYTE	W12
	BYTE		        Fn2   v052
	BYTE	W12
	BYTE		        Fn2   v104
	BYTE	W12
	BYTE		        Fn2   v088
	BYTE	W12
	BYTE		        Fn2   v052
	BYTE	W12
	BYTE		        Fn2   v104
	BYTE	W12
	BYTE		        Fn2   v088
	BYTE	W12
// 007   ----------------------------------------
	BYTE		        Ds2   v104
	BYTE	W12
	BYTE		        Ds2   v088
	BYTE	W12
	BYTE		        Ds2   v052
	BYTE	W12
	BYTE		        Ds2   v104
	BYTE	W12
	BYTE		        Ds2   v088
	BYTE	W12
	BYTE		        Ds2   v052
	BYTE	W12
	BYTE		        Ds2   v104
	BYTE	W12
	BYTE		        Ds2   v088
	BYTE	W12
// 008   ----------------------------------------
endlessb_5_008:
	BYTE		N06     Dn3   v104
	BYTE	W12
	BYTE		        Dn3   v088
	BYTE	W12
	BYTE		        Dn3   v052
	BYTE	W12
	BYTE		        Dn3   v104
	BYTE	W12
	BYTE		        Dn3   v088
	BYTE	W12
	BYTE		        Dn3   v052
	BYTE	W12
	BYTE		        Dn3   v104
	BYTE	W12
	BYTE		        Dn3   v088
	BYTE	W12
	BYTE	PEND
// 009   ----------------------------------------
	BYTE	PATT
	 POIN2	endlessb_5_005
// 010   ----------------------------------------
	BYTE		N06     Cn3   v104
	BYTE	W12
	BYTE		        Cn3   v088
	BYTE	W12
	BYTE		        Cn3   v052
	BYTE	W12
	BYTE		        Cn3   v104
	BYTE	W12
	BYTE		        Cn3   v088
	BYTE	W12
	BYTE		        Cn3   v052
	BYTE	W12
	BYTE		        Cn3   v104
	BYTE	W12
	BYTE		        Cn3   v088
	BYTE	W12
// 011   ----------------------------------------
	BYTE	PATT
	 POIN2	endlessb_5_003
// 012   ----------------------------------------
	BYTE		N06     An2   v104
	BYTE	W12
	BYTE		        An2   v088
	BYTE	W12
	BYTE		        An2   v052
	BYTE	W12
	BYTE		        An2   v104
	BYTE	W12
	BYTE		        An2   v088
	BYTE	W12
	BYTE		        An2   v052
	BYTE	W12
	BYTE		        An2   v104
	BYTE	W12
	BYTE		        An2   v088
	BYTE	W12
// 013   ----------------------------------------
	BYTE	PATT
	 POIN2	endlessb_5_004
// 014   ----------------------------------------
	BYTE		N06     Cs3   v104
	BYTE	W12
	BYTE		        Cs3   v088
	BYTE	W12
	BYTE		        Cs3   v052
	BYTE	W12
	BYTE		        Cs3   v104
	BYTE	W12
	BYTE		        Cs3   v088
	BYTE	W12
	BYTE		        Cs3   v052
	BYTE	W12
	BYTE		        Cs3   v104
	BYTE	W12
	BYTE		        Cs3   v088
	BYTE	W12
// 015   ----------------------------------------
	BYTE		BEND    c_v+0
	BYTE		N06     Cs3   v104
	BYTE	W12
	BYTE		        Cs3   v088
	BYTE	W12
	BYTE		        Cs3   v052
	BYTE	W12
	BYTE		        Cs3   v104
	BYTE	W12
	BYTE		        Cs3   v088
	BYTE	W12
	BYTE		        Cs3   v052
	BYTE	W12
	BYTE		        Cs3   v104
	BYTE	W12
	BYTE		        Cs3   v088
	BYTE	W12
// 016   ----------------------------------------
	BYTE	PATT
	 POIN2	endlessb_5_008
// 017   ----------------------------------------
	BYTE	PATT
	 POIN2	endlessb_5_005
// 018   ----------------------------------------
	BYTE		VOICE   62
	BYTE		N44     Gn2   v127
	BYTE	W48
	BYTE		        Cn3 
	BYTE	W48
// 019   ----------------------------------------
	BYTE	W24
	BYTE		N23   
	BYTE	W24
	BYTE		        Dn3 
	BYTE	W24
	BYTE		        As2 
	BYTE	W24
// 020   ----------------------------------------
	BYTE		N44     Gn3 
	BYTE	W48
	BYTE		N32     Ds3 
	BYTE	W36
	BYTE		N05     Fn3 
	BYTE	W06
	BYTE		        Gn3 
	BYTE	W06
// 021   ----------------------------------------
	BYTE		N44     Fn3 
	BYTE	W48
	BYTE		N12     Fn3   v064
	BYTE	W12
	BYTE		N23     Cn3   v127
	BYTE	W24
	BYTE		N11     Dn3 
	BYTE	W12
// 022   ----------------------------------------
	BYTE		N44     Ds3 
	BYTE	W48
	BYTE		N23     Fn3 
	BYTE	W24
	BYTE		        Gn3 
	BYTE	W24
// 023   ----------------------------------------
	BYTE		N44     As3 
	BYTE	W48
	BYTE		N17     Fn3 
	BYTE	W18
	BYTE		        Gn3 
	BYTE	W18
	BYTE		N11     As3 
	BYTE	W12
// 024   ----------------------------------------
	BYTE		N17     Cn4 
	BYTE	W18
	BYTE		N05     Dn4 
	BYTE	W06
	BYTE		TIE     Cn4 
	BYTE	W72
// 025   ----------------------------------------
	BYTE	W68
	BYTE	W03
	BYTE		EOT   
	BYTE	W24
	BYTE	W01
// 026   ----------------------------------------
	BYTE	W96
// 027   ----------------------------------------
	BYTE	W96
// 028   ----------------------------------------
	BYTE	W96
// 029   ----------------------------------------
	BYTE	W96
// 030   ----------------------------------------
	BYTE	W96
// 031   ----------------------------------------
	BYTE	W96
// 032   ----------------------------------------
	BYTE		VOICE   106
	BYTE		N24     As3   v096
	BYTE	W24
	BYTE		N24   
	BYTE	W24
	BYTE		N24   
	BYTE	W24
	BYTE		N23   
	BYTE	W24
// 033   ----------------------------------------
	BYTE		N24     Bn3 
	BYTE	W24
	BYTE		N24   
	BYTE	W24
	BYTE		        Gn3 
	BYTE	W24
	BYTE		N23     Bn3 
	BYTE	W24
// 034   ----------------------------------------
endlessb_5_034:
	BYTE		N11     Cn4   v116
	BYTE	W12
	BYTE		        Cn4   v096
	BYTE	W12
	BYTE		        Cn4   v056
	BYTE	W12
	BYTE		        As3   v116
	BYTE	W12
	BYTE		        As3   v096
	BYTE	W12
	BYTE		        As3   v056
	BYTE	W12
	BYTE		        Gs3   v116
	BYTE	W12
	BYTE		        Gs3   v096
	BYTE	W12
	BYTE	PEND
// 035   ----------------------------------------
endlessb_5_035:
	BYTE		N11     Gs3   v116
	BYTE	W12
	BYTE		        Gs3   v096
	BYTE	W12
	BYTE		        Gs3   v056
	BYTE	W12
	BYTE		        Gs3   v116
	BYTE	W12
	BYTE		        Gs3   v096
	BYTE	W12
	BYTE		        Gs3   v056
	BYTE	W12
	BYTE		        Gs3   v116
	BYTE	W12
	BYTE		        Gs3   v096
	BYTE	W12
	BYTE	PEND
// 036   ----------------------------------------
	BYTE	PATT
	 POIN2	endlessb_5_034
// 037   ----------------------------------------
	BYTE	PATT
	 POIN2	endlessb_5_035
// 038   ----------------------------------------
	BYTE		VOICE   40
	BYTE		N06     Gn2   v116
	BYTE	W12
	BYTE		        Gn2   v096
	BYTE	W12
	BYTE		        Gn2   v056
	BYTE	W12
	BYTE		        Gn2   v116
	BYTE	W12
	BYTE		        Gn2   v096
	BYTE	W12
	BYTE		        Gn2   v056
	BYTE	W12
	BYTE		        Gn2   v116
	BYTE	W12
	BYTE		        Gn2   v096
	BYTE	W12
// 039   ----------------------------------------
	BYTE		        Gn2   v116
	BYTE	W12
	BYTE		        Gn2   v096
	BYTE	W12
	BYTE		        Gn2   v056
	BYTE	W12
	BYTE		        Gn2   v116
	BYTE	W12
	BYTE		        Gn2   v096
	BYTE	W12
	BYTE		        Gn2   v056
	BYTE	W12
	BYTE		        Gn2   v116
	BYTE	W12
	BYTE		        Gn2   v096
	BYTE	W12
	BYTE	GoTo
	 POIN2	endlessb_5_B1
endlessb_5_B2:
// 040   ----------------------------------------
	BYTE	W03
	BYTE	FINE

//**************** Track 6 (Midi-Chn.6) ****************//

endlessb_6:
	BYTE	KEYSH   endlessb_key+0
// 000   ----------------------------------------
	BYTE		VOICE   106
	BYTE		VOL     80*endlessb_mvl/mxv
	BYTE		PAN     c_v+40
	BYTE		BEND    c_v+0
	BYTE	W96
// 001   ----------------------------------------
	BYTE	W96
endlessb_6_B1:
// 002   ----------------------------------------
	BYTE	W96
// 003   ----------------------------------------
	BYTE	W96
// 004   ----------------------------------------
	BYTE	W96
// 005   ----------------------------------------
	BYTE	W96
// 006   ----------------------------------------
	BYTE	W96
// 007   ----------------------------------------
	BYTE	W96
// 008   ----------------------------------------
	BYTE	W96
// 009   ----------------------------------------
	BYTE	W96
// 010   ----------------------------------------
	BYTE		VOICE   56
	BYTE		PAN     c_v+40
	BYTE	W03
	BYTE		N44     Gn2   v072
	BYTE	W48
	BYTE		        Cn3 
	BYTE	W44
	BYTE	W01
// 011   ----------------------------------------
	BYTE	W03
	BYTE		        As2 
	BYTE	W48
	BYTE		        Fn2 
	BYTE	W44
	BYTE	W01
// 012   ----------------------------------------
	BYTE	W03
	BYTE		N32   
	BYTE	W36
	BYTE		N02     Gn2 
	BYTE	W03
	BYTE		        An2 
	BYTE	W03
	BYTE		        As2 
	BYTE	W03
	BYTE		        Cn3 
	BYTE	W03
	BYTE		N17     Dn3 
	BYTE	W18
	BYTE		        Ds3 
	BYTE	W18
	BYTE		N11     Fn3 
	BYTE	W09
// 013   ----------------------------------------
	BYTE	W03
	BYTE		N17     Gn3 
	BYTE	W18
	BYTE		N05     Fn3 
	BYTE	W06
	BYTE		N68     Cn3 
	BYTE	W68
	BYTE	W01
// 014   ----------------------------------------
	BYTE	W03
	BYTE		N44     Gs2 
	BYTE	W48
	BYTE		N36     Cn3 
	BYTE	W36
	BYTE	W03
	BYTE		N02     Dn3 
	BYTE	W03
	BYTE		        Ds3 
	BYTE	W03
// 015   ----------------------------------------
	BYTE		        En3 
	BYTE	W03
	BYTE		N44     Fn3 
	BYTE	W48
	BYTE		        Cn3 
	BYTE	W44
	BYTE	W01
// 016   ----------------------------------------
	BYTE	W03
	BYTE		N44   
	BYTE	W48
	BYTE		N17     An2 
	BYTE	W18
	BYTE		N02     As2 
	BYTE	W03
	BYTE		        Bn2 
	BYTE	W03
	BYTE		N23     Cn3 
	BYTE	W21
// 017   ----------------------------------------
	BYTE	W03
	BYTE		N48   
	BYTE	W02
	BYTE	W06
	BYTE	W06
	BYTE	W06
	BYTE	W05
	BYTE	W06
	BYTE	W06
	BYTE	W06
	BYTE	W05
	BYTE		        Bn2 
	BYTE	W02
	BYTE	W01
	BYTE	W02
	BYTE	W01
	BYTE	W02
	BYTE	W01
	BYTE	W02
	BYTE	W01
	BYTE	W02
	BYTE	W01
	BYTE	W02
	BYTE	W01
	BYTE	W02
	BYTE	W01
	BYTE	W01
	BYTE	W02
	BYTE	W01
	BYTE	W02
	BYTE	W01
	BYTE	W02
	BYTE	W01
	BYTE	W02
	BYTE	W01
	BYTE	W02
	BYTE	W01
	BYTE	W02
	BYTE	W01
	BYTE	W01
	BYTE	W01
	BYTE	W03
// 018   ----------------------------------------
	BYTE		VOICE   56
	BYTE	W03
	BYTE		PAN     c_v+0
	BYTE	W92
	BYTE	W01
// 019   ----------------------------------------
	BYTE	W96
// 020   ----------------------------------------
	BYTE	W96
// 021   ----------------------------------------
	BYTE	W96
// 022   ----------------------------------------
	BYTE	W96
// 023   ----------------------------------------
	BYTE	W96
// 024   ----------------------------------------
	BYTE	W96
// 025   ----------------------------------------
	BYTE	W72
	BYTE		        c_v+0
	BYTE		N03     Gn3   v108
	BYTE	W04
	BYTE		VOICE   107
	BYTE		N03     An3 
	BYTE	W03
	BYTE		        As3 
	BYTE	W04
	BYTE		        Cn4 
	BYTE	W03
	BYTE		        Dn4 
	BYTE	W04
	BYTE		        Ds4 
	BYTE	W03
	BYTE		N02     Fn4 
	BYTE	W03
// 026   ----------------------------------------
	BYTE		PAN     c_v-24
	BYTE		N44     Gn4 
	BYTE	W09
	BYTE	W01
	BYTE	W02
	BYTE	W01
	BYTE	W02
	BYTE	W01
	BYTE	W02
	BYTE	W01
	BYTE	W02
	BYTE	W01
	BYTE	W02
	BYTE	W01
	BYTE	W01
	BYTE	W06
	BYTE	W04
	BYTE	W03
	BYTE	W03
	BYTE	W03
	BYTE	W03
	BYTE		        Ds5 
	BYTE	W03
	BYTE	W03
	BYTE	W03
	BYTE	W03
	BYTE	W03
	BYTE	W03
	BYTE	W03
	BYTE	W03
	BYTE	W03
	BYTE	W03
	BYTE	W03
	BYTE	W03
	BYTE	W03
	BYTE	W09
// 027   ----------------------------------------
	BYTE	W24
	BYTE		N23     Dn5 
	BYTE	W24
	BYTE		        Cn5 
	BYTE	W24
	BYTE		        As4 
	BYTE	W24
// 028   ----------------------------------------
	BYTE		N44     Gn4 
	BYTE	W02
	BYTE	W03
	BYTE	W03
	BYTE	W03
	BYTE	W03
	BYTE	W03
	BYTE	W02
	BYTE	W03
	BYTE	W03
	BYTE	W03
	BYTE	W03
	BYTE	W03
	BYTE	W03
	BYTE	W03
	BYTE	W03
	BYTE	W03
	BYTE	W02
	BYTE		N17     As4 
	BYTE	W18
	BYTE		        Ds4 
	BYTE	W18
	BYTE		N11     Gn4 
	BYTE	W12
// 029   ----------------------------------------
	BYTE		N44     Fn4 
	BYTE	W04
	BYTE	W03
	BYTE	W03
	BYTE	W03
	BYTE	W03
	BYTE	W03
	BYTE	W01
	BYTE	W03
	BYTE	W03
	BYTE	W03
	BYTE	W03
	BYTE	W03
	BYTE	W03
	BYTE	W03
	BYTE	W03
	BYTE	W03
	BYTE	W01
	BYTE		N23     Cn4 
	BYTE	W24
	BYTE		        Dn4 
	BYTE	W24
// 030   ----------------------------------------
	BYTE		TIE     Ds4 
	BYTE	W07
	BYTE	W03
	BYTE	W03
	BYTE	W03
	BYTE	W03
	BYTE	W03
	BYTE	W03
	BYTE	W03
	BYTE	W03
	BYTE	W03
	BYTE	W03
	BYTE	W03
	BYTE	W03
	BYTE	W03
	BYTE	W03
	BYTE	W03
	BYTE	W03
	BYTE	W04
	BYTE	W04
	BYTE	W03
	BYTE	W04
	BYTE	W04
	BYTE	W03
	BYTE	W04
	BYTE	W04
	BYTE	W04
	BYTE	W03
	BYTE	W04
// 031   ----------------------------------------
	BYTE	W04
	BYTE	W03
	BYTE	W04
	BYTE	W04
	BYTE	W03
	BYTE	W04
	BYTE	W04
	BYTE	W04
	BYTE	W03
	BYTE	W04
	BYTE	W04
	BYTE	W03
	BYTE	W03
	BYTE		EOT   
	BYTE	W01
	BYTE		N17     Dn4 
	BYTE	W18
	BYTE		        Ds4 
	BYTE	W18
	BYTE		N11     Fn4 
	BYTE	W12
// 032   ----------------------------------------
	BYTE		N60     Gn4 
	BYTE	W01
	BYTE	W03
	BYTE	W03
	BYTE	W03
	BYTE	W03
	BYTE	W03
	BYTE	W03
	BYTE	W01
	BYTE	W03
	BYTE	W03
	BYTE	W03
	BYTE	W03
	BYTE	W03
	BYTE	W03
	BYTE	W03
	BYTE	W03
	BYTE	W03
	BYTE	W03
	BYTE	W03
	BYTE	W03
	BYTE	W03
	BYTE	W03
	BYTE	W10
	BYTE		N17   
	BYTE	W18
	BYTE		N05     Gs4 
	BYTE	W06
// 033   ----------------------------------------
	BYTE		N92     Gn4 
	BYTE	W15
	BYTE	W04
	BYTE	W05
	BYTE	W04
	BYTE	W05
	BYTE	W04
	BYTE	W05
	BYTE	W04
	BYTE	W03
	BYTE	W03
	BYTE	W03
	BYTE	W03
	BYTE	W03
	BYTE	W03
	BYTE	W03
	BYTE	W03
	BYTE	W03
	BYTE	W03
	BYTE	W03
	BYTE	W03
	BYTE	W03
	BYTE	W03
	BYTE	W03
	BYTE	W03
	BYTE	W02
// 034   ----------------------------------------
	BYTE	W01
	BYTE	W92
	BYTE	W03
// 035   ----------------------------------------
	BYTE	W96
// 036   ----------------------------------------
	BYTE	W96
// 037   ----------------------------------------
	BYTE	W96
// 038   ----------------------------------------
	BYTE		VOICE   106
	BYTE		N08     Cn3   v056
	BYTE	W12
	BYTE		        Cn3   v032
	BYTE	W12
	BYTE		        Cn3   v012
	BYTE	W12
	BYTE		        Cn3   v072
	BYTE	W12
	BYTE		        Cn3   v048
	BYTE	W12
	BYTE		        Cn3   v028
	BYTE	W12
	BYTE		        Cn3   v072
	BYTE	W12
	BYTE		        Cn3   v060
	BYTE	W12
// 039   ----------------------------------------
	BYTE		        Bn2   v084
	BYTE	W12
	BYTE		        Bn2   v060
	BYTE	W12
	BYTE		        Bn2   v040
	BYTE	W12
	BYTE		        Bn2   v084
	BYTE	W12
	BYTE		        Bn2   v060
	BYTE	W12
	BYTE		        Bn2   v040
	BYTE	W12
	BYTE		        Bn2   v084
	BYTE	W12
	BYTE		        Bn2   v060
	BYTE	W12
	BYTE	GoTo
	 POIN2	endlessb_6_B1
endlessb_6_B2:
// 040   ----------------------------------------
	BYTE	W03
	BYTE	FINE

//**************** Track 7 (Midi-Chn.7) ****************//

endlessb_7:
	BYTE	KEYSH   endlessb_key+0
// 000   ----------------------------------------
	BYTE		VOICE   81
	BYTE		VOL     48*endlessb_mvl/mxv
	BYTE		PAN     c_v+16
	BYTE		BEND    c_v+0
	BYTE		N11     Gn2   v112
	BYTE	W12
	BYTE		        Gn2   v060
	BYTE	W12
	BYTE		        Gn2   v024
	BYTE	W12
	BYTE		        Gn2   v127
	BYTE	W12
	BYTE		        Gn2   v092
	BYTE	W12
	BYTE		        Gn2   v060
	BYTE	W12
	BYTE		        Gn2   v127
	BYTE	W12
	BYTE		        Gn2   v120
	BYTE	W12
// 001   ----------------------------------------
	BYTE		        Gn2   v127
	BYTE	W12
	BYTE		        Gn2   v120
	BYTE	W12
	BYTE		        Gn2   v084
	BYTE	W12
	BYTE		        Gn2   v127
	BYTE	W12
	BYTE		        Gn2   v120
	BYTE	W12
	BYTE		        Gn2   v084
	BYTE	W12
	BYTE		        Gn2   v127
	BYTE	W12
	BYTE		        Gn2   v120
	BYTE	W12
endlessb_7_B1:
// 002   ----------------------------------------
	BYTE		VOICE   79
	BYTE		MOD     3
	BYTE		PAN     c_v+0
	BYTE	W09
	BYTE		N32     Ds4   v072
	BYTE	W02
	BYTE	W01
	BYTE	W01
	BYTE	W01
	BYTE	W01
	BYTE	W01
	BYTE	W10
	BYTE	W01
	BYTE	W02
	BYTE	W01
	BYTE	W02
	BYTE	W01
	BYTE	W02
	BYTE	W01
	BYTE	W02
	BYTE	W01
	BYTE	W01
	BYTE	W02
	BYTE	W01
	BYTE	W01
	BYTE	W01
	BYTE		N05     Fn4 
	BYTE	W01
	BYTE	W01
	BYTE	W02
	BYTE	W01
	BYTE	W01
	BYTE		        Gn4 
	BYTE	W01
	BYTE	W01
	BYTE	W02
	BYTE	W01
	BYTE	W01
	BYTE		N56     Cn5 
	BYTE	W01
	BYTE	W02
	BYTE	W01
	BYTE	W02
	BYTE	W01
	BYTE	W02
	BYTE	W01
	BYTE	W01
	BYTE	W08
	BYTE	W04
	BYTE	W05
	BYTE	W04
	BYTE	W01
	BYTE	W02
	BYTE	W01
	BYTE	W02
	BYTE	W01
// 003   ----------------------------------------
	BYTE	W02
	BYTE	W01
	BYTE	W02
	BYTE	W01
	BYTE	W02
	BYTE	W01
	BYTE	W02
	BYTE	W01
	BYTE	W15
	BYTE		N02   
	BYTE	W03
	BYTE		        Cs5 
	BYTE	W03
	BYTE		N23     Dn5 
	BYTE	W02
	BYTE	W01
	BYTE	W01
	BYTE	W01
	BYTE	W01
	BYTE	W01
	BYTE	W01
	BYTE	W01
	BYTE	W02
	BYTE	W01
	BYTE	W02
	BYTE	W01
	BYTE	W02
	BYTE	W01
	BYTE	W02
	BYTE	W01
	BYTE	W02
	BYTE	W01
	BYTE		        As4 
	BYTE	W08
	BYTE	W05
	BYTE	W04
	BYTE	W04
	BYTE	W03
	BYTE		        Fn4 
	BYTE	W01
	BYTE	W04
	BYTE	W03
	BYTE	W03
	BYTE	W03
	BYTE	W01
// 004   ----------------------------------------
	BYTE	W02
	BYTE	W03
	BYTE	W03
	BYTE	W01
	BYTE		N17     Gn4 
	BYTE	W06
	BYTE	W06
	BYTE	W06
	BYTE		N05     Fn4 
	BYTE	W01
	BYTE	W05
	BYTE		N92     Gn4 
	BYTE	W01
	BYTE	W01
	BYTE	W01
	BYTE	W01
	BYTE	W01
	BYTE	W01
	BYTE	W03
	BYTE	W03
	BYTE	W03
	BYTE	W03
	BYTE	W01
	BYTE	W01
	BYTE	W02
	BYTE	W01
	BYTE	W02
	BYTE	W01
	BYTE	W02
	BYTE	W01
	BYTE	W02
	BYTE	W01
	BYTE	W03
	BYTE	W03
	BYTE	W03
	BYTE	W03
	BYTE	W03
	BYTE	W03
	BYTE	W03
	BYTE	W03
	BYTE	W03
	BYTE	W01
	BYTE	W02
	BYTE	W01
// 005   ----------------------------------------
	BYTE	W02
	BYTE	W01
	BYTE	W02
	BYTE	W01
	BYTE	W02
	BYTE	W01
	BYTE	W02
	BYTE	W01
	BYTE	W02
	BYTE	W01
	BYTE	W02
	BYTE	W01
	BYTE	W02
	BYTE	W01
	BYTE	W02
	BYTE	W01
	BYTE	W02
	BYTE	W01
	BYTE	W02
	BYTE	W01
	BYTE	W02
	BYTE	W01
	BYTE	W02
	BYTE	W01
	BYTE	W01
	BYTE	W02
	BYTE	W01
	BYTE	W02
	BYTE	W01
	BYTE	W02
	BYTE	W01
	BYTE	W02
	BYTE	W01
	BYTE	W02
	BYTE		N02     As4 
	BYTE	W01
	BYTE	W02
	BYTE		        Bn4 
	BYTE	W01
	BYTE	W02
	BYTE		N23     Cn5 
	BYTE	W01
	BYTE	W02
	BYTE	W01
	BYTE	W02
	BYTE	W01
	BYTE	W01
	BYTE	W09
	BYTE	W05
	BYTE	W02
	BYTE		        As4 
	BYTE	W03
	BYTE	W04
	BYTE	W02
	BYTE	W01
	BYTE	W02
	BYTE	W01
	BYTE	W02
// 006   ----------------------------------------
	BYTE	W01
	BYTE	W02
	BYTE	W01
	BYTE	W02
	BYTE	W01
	BYTE	W01
	BYTE	W01
	BYTE		N32     Gn4 
	BYTE	W01
	BYTE	W01
	BYTE	W01
	BYTE	W01
	BYTE	W03
	BYTE	W03
	BYTE	W03
	BYTE	W03
	BYTE	W02
	BYTE	W01
	BYTE	W02
	BYTE	W01
	BYTE	W02
	BYTE	W01
	BYTE	W02
	BYTE	W01
	BYTE	W02
	BYTE	W01
	BYTE	W02
	BYTE	W01
	BYTE	W01
	BYTE	W01
	BYTE		N05   
	BYTE	W06
	BYTE		        Gs4 
	BYTE	W06
	BYTE		N44     Fn4 
	BYTE	W05
	BYTE	W03
	BYTE	W03
	BYTE	W03
	BYTE	W03
	BYTE	W03
	BYTE	W03
	BYTE	W01
	BYTE	W01
	BYTE	W02
	BYTE	W01
	BYTE	W02
	BYTE	W01
	BYTE	W02
	BYTE	W01
	BYTE	W02
	BYTE	W01
	BYTE	W02
// 007   ----------------------------------------
	BYTE	W01
	BYTE	W02
	BYTE	W01
	BYTE	W02
	BYTE	W01
	BYTE	W02
	BYTE	W01
	BYTE	W01
	BYTE	W02
	BYTE	W01
	BYTE	W02
	BYTE	W01
	BYTE	W02
	BYTE	W01
	BYTE	W02
	BYTE	W01
	BYTE	W02
	BYTE	W01
	BYTE	W02
	BYTE	W01
	BYTE	W01
	BYTE	W03
	BYTE		N23     Gn4 
	BYTE	W03
	BYTE	W03
	BYTE	W02
	BYTE	W01
	BYTE	W02
	BYTE	W01
	BYTE	W02
	BYTE	W01
	BYTE	W02
	BYTE	W01
	BYTE	W01
	BYTE	W05
	BYTE		N17     Cn4 
	BYTE	W02
	BYTE	W01
	BYTE	W02
	BYTE	W01
	BYTE	W02
	BYTE	W01
	BYTE	W06
	BYTE	W03
	BYTE		        Dn4 
	BYTE	W03
	BYTE	W03
	BYTE	W03
	BYTE	W03
	BYTE	W03
	BYTE	W03
	BYTE		N11     Ds4 
	BYTE	W03
// 008   ----------------------------------------
	BYTE	W03
	BYTE	W03
	BYTE	W03
	BYTE		N17     Gn4 
	BYTE	W02
	BYTE	W01
	BYTE	W02
	BYTE	W01
	BYTE	W02
	BYTE	W01
	BYTE	W01
	BYTE	W03
	BYTE	W03
	BYTE	W02
	BYTE		N05     Fn4 
	BYTE	W01
	BYTE	W02
	BYTE	W01
	BYTE	W02
	BYTE		TIE     Gn4 
	BYTE	W01
	BYTE	W01
	BYTE	W01
	BYTE	W01
	BYTE	W01
	BYTE	W01
	BYTE	W01
	BYTE	W01
	BYTE	W01
	BYTE	W03
	BYTE	W03
	BYTE	W03
	BYTE	W03
	BYTE	W03
	BYTE	W03
	BYTE	W01
	BYTE	W02
	BYTE	W01
	BYTE	W02
	BYTE	W01
	BYTE	W01
	BYTE	W03
	BYTE	W03
	BYTE	W03
	BYTE	W03
	BYTE	W03
	BYTE	W03
	BYTE	W03
	BYTE	W02
	BYTE	W03
	BYTE	W02
// 009   ----------------------------------------
	BYTE	W01
	BYTE	W03
	BYTE	W03
	BYTE	W03
	BYTE	W03
	BYTE	W03
	BYTE	W03
	BYTE	W03
	BYTE	W03
	BYTE	W03
	BYTE	W01
	BYTE	W02
	BYTE	W01
	BYTE	W02
	BYTE	W01
	BYTE	W02
	BYTE	W01
	BYTE	W02
	BYTE	W01
	BYTE	W02
	BYTE	W01
	BYTE	W02
	BYTE	W01
	BYTE	W02
	BYTE	W01
	BYTE	W02
	BYTE	W01
	BYTE	W02
	BYTE	W01
	BYTE	W02
	BYTE	W01
	BYTE	W02
	BYTE	W01
	BYTE	W02
	BYTE	W01
	BYTE	W02
	BYTE	W01
	BYTE	W02
	BYTE	W01
	BYTE		EOT   
	BYTE	W02
	BYTE	W01
	BYTE	W02
	BYTE	W01
	BYTE	W02
	BYTE	W01
	BYTE	W01
	BYTE	W01
	BYTE	W01
	BYTE	W01
	BYTE	W01
	BYTE	W01
	BYTE	W01
	BYTE	W01
	BYTE	W01
	BYTE	W01
	BYTE	W01
	BYTE	W01
	BYTE	W01
	BYTE	W01
	BYTE	W01
	BYTE	W01
// 010   ----------------------------------------
	BYTE	W01
	BYTE	W01
	BYTE	W01
	BYTE	W01
	BYTE	W01
	BYTE	W01
	BYTE	W01
	BYTE	W01
	BYTE	W01
	BYTE		N32     Ds4 
	BYTE	W01
	BYTE	W01
	BYTE	W01
	BYTE	W01
	BYTE	W01
	BYTE	W09
	BYTE	W08
	BYTE	W02
	BYTE	W01
	BYTE	W02
	BYTE	W01
	BYTE	W02
	BYTE	W01
	BYTE	W02
	BYTE	W01
	BYTE	W02
	BYTE		N05     Fn4 
	BYTE	W01
	BYTE	W03
	BYTE	W02
	BYTE		        Gn4 
	BYTE	W01
	BYTE	W03
	BYTE	W02
	BYTE		N56     Cn5 
	BYTE	W01
	BYTE	W01
	BYTE	W01
	BYTE	W01
	BYTE	W01
	BYTE	W03
	BYTE	W03
	BYTE	W03
	BYTE	W02
	BYTE	W01
	BYTE	W02
	BYTE	W01
	BYTE	W02
	BYTE	W01
	BYTE	W02
	BYTE	W01
	BYTE	W02
	BYTE	W01
	BYTE	W02
	BYTE	W01
	BYTE	W02
	BYTE	W02
	BYTE	W01
	BYTE	W02
// 011   ----------------------------------------
	BYTE	W01
	BYTE	W02
	BYTE	W01
	BYTE	W02
	BYTE	W01
	BYTE	W01
	BYTE	W01
	BYTE	W02
	BYTE	W01
	BYTE	W02
	BYTE	W01
	BYTE	W02
	BYTE	W01
	BYTE	W01
	BYTE	W02
	BYTE	W01
	BYTE	W02
	BYTE	W09
	BYTE		N23   
	BYTE	W02
	BYTE	W02
	BYTE	W01
	BYTE	W02
	BYTE	W01
	BYTE	W01
	BYTE	W02
	BYTE	W01
	BYTE	W02
	BYTE	W01
	BYTE	W02
	BYTE	W01
	BYTE	W02
	BYTE	W01
	BYTE	W02
	BYTE	W01
	BYTE		N17     Dn5 
	BYTE	W02
	BYTE	W01
	BYTE	W13
	BYTE	W02
	BYTE		        Ds5 
	BYTE	W10
	BYTE	W03
	BYTE	W03
	BYTE	W02
	BYTE		N11     Fn5 
	BYTE	W01
	BYTE	W02
// 012   ----------------------------------------
	BYTE	W01
	BYTE	W03
	BYTE	W03
	BYTE	W02
	BYTE		N40     Gn5 
	BYTE	W02
	BYTE	W01
	BYTE	W02
	BYTE	W01
	BYTE	W02
	BYTE	W01
	BYTE	W02
	BYTE	W01
	BYTE	W02
	BYTE	W01
	BYTE	W01
	BYTE	W03
	BYTE	W03
	BYTE	W03
	BYTE	W03
	BYTE	W03
	BYTE	W03
	BYTE	W02
	BYTE	W01
	BYTE	W02
	BYTE	W01
	BYTE	W01
	BYTE	W01
	BYTE		N05     Fn5 
	BYTE	W06
	BYTE		N44     Cn5 
	BYTE	W08
	BYTE	W01
	BYTE	W02
	BYTE	W01
	BYTE	W02
	BYTE	W01
	BYTE	W01
	BYTE	W08
	BYTE	W08
	BYTE	W07
// 013   ----------------------------------------
	BYTE	W01
	BYTE	W08
	BYTE	W02
	BYTE	W01
	BYTE	W01
	BYTE	W03
	BYTE	W03
	BYTE	W03
	BYTE	W03
	BYTE	W03
	BYTE	W03
	BYTE	W02
	BYTE		N23     Gn4 
	BYTE	W02
	BYTE	W01
	BYTE	W02
	BYTE	W01
	BYTE	W02
	BYTE	W01
	BYTE	W02
	BYTE	W01
	BYTE	W02
	BYTE	W01
	BYTE	W02
	BYTE	W01
	BYTE	W02
	BYTE	W01
	BYTE	W02
	BYTE	W01
	BYTE		        Ds5 
	BYTE	W02
	BYTE	W01
	BYTE	W02
	BYTE	W01
	BYTE	W02
	BYTE	W03
	BYTE	W03
	BYTE	W03
	BYTE	W03
	BYTE	W03
	BYTE	W01
	BYTE		        Dn5 
	BYTE	W07
	BYTE	W08
// 014   ----------------------------------------
	BYTE	W01
	BYTE	W01
	BYTE	W02
	BYTE	W01
	BYTE	W02
	BYTE	W01
	BYTE	W01
	BYTE		N40     Cn5 
	BYTE	W01
	BYTE	W01
	BYTE	W02
	BYTE	W01
	BYTE	W02
	BYTE	W01
	BYTE	W03
	BYTE	W03
	BYTE	W03
	BYTE	W03
	BYTE	W03
	BYTE	W03
	BYTE	W02
	BYTE	W01
	BYTE	W02
	BYTE	W01
	BYTE	W02
	BYTE	W01
	BYTE	W02
	BYTE	W01
	BYTE	W02
	BYTE	W02
	BYTE		N05     As4 
	BYTE	W06
	BYTE		N44     Fn4 
	BYTE	W11
	BYTE	W03
	BYTE	W03
	BYTE	W03
	BYTE	W03
	BYTE	W01
	BYTE	W02
	BYTE	W01
	BYTE	W02
	BYTE	W01
	BYTE	W02
	BYTE	W01
	BYTE	W02
	BYTE	W01
	BYTE	W02
	BYTE	W01
// 015   ----------------------------------------
	BYTE	W02
	BYTE	W01
	BYTE	W02
	BYTE	W01
	BYTE	W02
	BYTE	W01
	BYTE	W02
	BYTE	W01
	BYTE	W02
	BYTE	W03
	BYTE	W03
	BYTE	W03
	BYTE	W03
	BYTE	W03
	BYTE	W01
	BYTE	W02
	BYTE	W01
	BYTE		N23   
	BYTE	W02
	BYTE	W01
	BYTE	W02
	BYTE	W01
	BYTE	W02
	BYTE	W01
	BYTE	W02
	BYTE	W01
	BYTE	W01
	BYTE	W03
	BYTE	W03
	BYTE	W03
	BYTE	W02
	BYTE		N17     Gn4 
	BYTE	W18
	BYTE		        Gs4 
	BYTE	W18
	BYTE		N11     As4 
	BYTE	W03
// 016   ----------------------------------------
	BYTE	W09
	BYTE		N17     Gn4 
	BYTE	W02
	BYTE	W01
	BYTE	W01
	BYTE	W01
	BYTE	W01
	BYTE	W01
	BYTE	W01
	BYTE	W02
	BYTE	W01
	BYTE	W02
	BYTE	W01
	BYTE	W02
	BYTE	W01
	BYTE	W01
	BYTE		N05     Fn4 
	BYTE	W01
	BYTE	W01
	BYTE	W02
	BYTE	W01
	BYTE	W01
	BYTE		TIE     Gn4 
	BYTE	W01
	BYTE	W01
	BYTE	W01
	BYTE	W01
	BYTE	W01
	BYTE	W01
	BYTE	W01
	BYTE	W20
	BYTE	W01
	BYTE	W02
	BYTE	W01
	BYTE	W03
	BYTE	W03
	BYTE	W03
	BYTE	W03
	BYTE	W03
	BYTE	W03
	BYTE	W03
	BYTE	W03
	BYTE	W03
	BYTE	W03
	BYTE	W02
// 017   ----------------------------------------
	BYTE	W01
	BYTE	W03
	BYTE	W03
	BYTE	W03
	BYTE	W03
	BYTE	W03
	BYTE	W03
	BYTE	W03
	BYTE	W01
	BYTE	W03
	BYTE	W03
	BYTE	W03
	BYTE	W03
	BYTE	W03
	BYTE	W03
	BYTE	W03
	BYTE	W03
	BYTE	W03
	BYTE	W03
	BYTE	W03
	BYTE	W03
	BYTE	W03
	BYTE	W03
	BYTE	W03
	BYTE	W03
	BYTE	W03
	BYTE	W03
	BYTE	W03
	BYTE	W03
	BYTE	W03
	BYTE		EOT   
	BYTE	W03
	BYTE	W03
	BYTE	W01
	BYTE	W03
// 018   ----------------------------------------
	BYTE		VOICE   51
	BYTE		MOD     1
	BYTE		N44     Gs1   v108
	BYTE	W48
	BYTE		N22     Ds2 
	BYTE	W24
	BYTE		        Gs2 
	BYTE	W02
	BYTE	W22
// 019   ----------------------------------------
	BYTE		N24     As2 
	BYTE	W24
	BYTE		N52     As1 
	BYTE	W30
	BYTE	W30
	BYTE		N05     Cn2 
	BYTE	W06
	BYTE		        Dn2 
	BYTE	W06
// 020   ----------------------------------------
	BYTE		N48     Ds2 
	BYTE	W32
	BYTE	W03
	BYTE	W13
	BYTE		N24     As1 
	BYTE	W24
	BYTE		N23     Ds2 
	BYTE	W24
// 021   ----------------------------------------
	BYTE		N48     Fn2 
	BYTE	W16
	BYTE	W32
	BYTE		N23     Cn2 
	BYTE	W24
	BYTE		        An1 
	BYTE	W21
	BYTE	W03
// 022   ----------------------------------------
	BYTE		N68     Gs1 
	BYTE	W72
	BYTE		N23     Ds2 
	BYTE	W01
	BYTE	W23
// 023   ----------------------------------------
	BYTE		N24     As1 
	BYTE	W24
	BYTE		        Fn2 
	BYTE	W24
	BYTE		        Cn3 
	BYTE	W06
	BYTE	W18
	BYTE		N23     As2 
	BYTE	W24
// 024   ----------------------------------------
	BYTE		N48     An2 
	BYTE	W32
	BYTE	W03
	BYTE	W01
	BYTE	W01
	BYTE	W01
	BYTE	W01
	BYTE	W01
	BYTE	W01
	BYTE	W01
	BYTE	W01
	BYTE	W01
	BYTE	W01
	BYTE	W01
	BYTE	W01
	BYTE	W01
	BYTE		N44     An1 
	BYTE	W44
	BYTE	W02
	BYTE	W01
	BYTE	W01
// 025   ----------------------------------------
	BYTE		N24     Fn2 
	BYTE	W02
	BYTE	W03
	BYTE	W03
	BYTE	W03
	BYTE	W03
	BYTE	W03
	BYTE	W03
	BYTE	W03
	BYTE	W01
	BYTE		        Ds2 
	BYTE	W02
	BYTE	W03
	BYTE	W03
	BYTE	W03
	BYTE	W03
	BYTE	W03
	BYTE	W03
	BYTE	W03
	BYTE	W01
	BYTE		        Cn2 
	BYTE	W02
	BYTE	W03
	BYTE	W01
	BYTE	W01
	BYTE	W02
	BYTE	W01
	BYTE	W02
	BYTE	W01
	BYTE	W02
	BYTE	W01
	BYTE	W02
	BYTE	W01
	BYTE	W02
	BYTE	W01
	BYTE	W02
	BYTE		N23     An1 
	BYTE	W01
	BYTE	W02
	BYTE	W01
	BYTE	W02
	BYTE	W01
	BYTE	W02
	BYTE	W01
	BYTE	W02
	BYTE	W01
	BYTE	W02
	BYTE	W01
	BYTE	W02
	BYTE	W01
	BYTE	W02
	BYTE	W01
	BYTE	W02
// 026   ----------------------------------------
	BYTE		PAN     c_v+32
	BYTE		N76     Gs1 
	BYTE	W84
	BYTE		N05     As1 
	BYTE	W06
	BYTE		        Cn2 
	BYTE	W06
// 027   ----------------------------------------
	BYTE		N44     As1 
	BYTE	W48
	BYTE		N23     Cn2 
	BYTE	W24
	BYTE		        Dn2 
	BYTE	W24
// 028   ----------------------------------------
	BYTE		N48     Ds2 
	BYTE	W48
	BYTE		N24     As1 
	BYTE	W24
	BYTE		N23     Ds2 
	BYTE	W24
// 029   ----------------------------------------
	BYTE		N48     Fn2 
	BYTE	W48
	BYTE		N44     Fn1 
	BYTE	W48
// 030   ----------------------------------------
	BYTE		        Gs1 
	BYTE	W48
	BYTE		N23     Ds2 
	BYTE	W24
	BYTE		N44     Gs2 
	BYTE	W24
// 031   ----------------------------------------
	BYTE	W24
	BYTE		N48     Gs1 
	BYTE	W48
	BYTE		N23     Cn2 
	BYTE	W24
// 032   ----------------------------------------
	BYTE	W96
// 033   ----------------------------------------
	BYTE	W96
// 034   ----------------------------------------
	BYTE	W96
// 035   ----------------------------------------
	BYTE	W96
// 036   ----------------------------------------
	BYTE	W96
// 037   ----------------------------------------
	BYTE	W96
// 038   ----------------------------------------
	BYTE		VOICE   71
	BYTE	W02
	BYTE	W01
	BYTE	W02
	BYTE	W01
	BYTE	W02
	BYTE	W01
	BYTE		N44     Gn3 
	BYTE	W01
	BYTE	W01
	BYTE	W01
	BYTE	W01
	BYTE	W01
	BYTE	W01
	BYTE	W01
	BYTE	W01
	BYTE	W01
	BYTE	W01
	BYTE	W01
	BYTE	W01
	BYTE	W01
	BYTE	W01
	BYTE	W01
	BYTE	W01
	BYTE	W03
	BYTE	W03
	BYTE	W03
	BYTE	W03
	BYTE	W03
	BYTE	W01
	BYTE	W01
	BYTE	W01
	BYTE	W01
	BYTE	W01
	BYTE	W01
	BYTE	W01
	BYTE	W01
	BYTE	W01
	BYTE	W01
	BYTE	W01
	BYTE	W01
	BYTE	W01
	BYTE	W01
	BYTE	W01
	BYTE	W01
	BYTE	W01
	BYTE		N36     Dn4 
	BYTE	W01
	BYTE	W01
	BYTE	W01
	BYTE	W01
	BYTE	W01
	BYTE	W01
	BYTE	W01
	BYTE	W01
	BYTE	W01
	BYTE	W01
	BYTE	W01
	BYTE	W01
	BYTE	W09
	BYTE	W01
	BYTE	W02
	BYTE	W01
	BYTE	W02
	BYTE	W01
	BYTE	W02
	BYTE	W09
// 039   ----------------------------------------
	BYTE	W01
	BYTE		N03     Cs4 
	BYTE	W04
	BYTE		        Cn4 
	BYTE	W04
	BYTE		N80     Bn3 
	BYTE	W04
	BYTE	W03
	BYTE	W03
	BYTE	W03
	BYTE	W03
	BYTE	W03
	BYTE	W03
	BYTE	W03
	BYTE	W03
	BYTE	W03
	BYTE	W03
	BYTE	W03
	BYTE	W03
	BYTE	W03
	BYTE	W03
	BYTE	W01
	BYTE	W02
	BYTE	W01
	BYTE	W02
	BYTE	W01
	BYTE	W02
	BYTE	W01
	BYTE	W02
	BYTE	W01
	BYTE	W02
	BYTE	W01
	BYTE	W02
	BYTE	W01
	BYTE	W02
	BYTE	W01
	BYTE	W02
	BYTE	W01
	BYTE	W02
	BYTE	W01
	BYTE	W02
	BYTE	W01
	BYTE	W02
	BYTE	W01
	BYTE	W02
	BYTE	W01
	BYTE	W02
	BYTE	W02
	BYTE	GoTo
	 POIN2	endlessb_7_B1
endlessb_7_B2:
// 040   ----------------------------------------
	BYTE	W03
	BYTE	FINE

//**************** Track 8 (Midi-Chn.8) ****************//

endlessb_8:
	BYTE	KEYSH   endlessb_key+0
// 000   ----------------------------------------
	BYTE		VOICE   124
	BYTE		VOL     80*endlessb_mvl/mxv
	BYTE		PAN     c_v+0
	BYTE		BEND    c_v+0
	BYTE		N06     Cn1   v108
	BYTE		N06     Dn1   v088
	BYTE	W06
	BYTE		N06   
	BYTE	W06
	BYTE		N06   
	BYTE		N06     Fn1   v127
	BYTE	W06
	BYTE		        Dn1   v048
	BYTE	W06
	BYTE		        Dn1   v032
	BYTE	W06
	BYTE		N05     Dn1   v020
	BYTE	W06
	BYTE		N13     Cn1   v108
	BYTE		N06     Dn1   v088
	BYTE	W06
	BYTE		N05     Dn1   v080
	BYTE	W06
	BYTE		        Dn1   v088
	BYTE		N06     Fn1   v127
	BYTE	W06
	BYTE		N05     Dn1   v072
	BYTE	W06
	BYTE		        Dn1   v088
	BYTE	W06
	BYTE		        Dn1   v048
	BYTE	W06
	BYTE		N13     Cn1   v108
	BYTE		N06     Dn1   v088
	BYTE	W06
	BYTE		N05     Dn1   v020
	BYTE	W06
	BYTE		        Dn1   v048
	BYTE		N06     Fn1   v127
	BYTE	W06
	BYTE		N02     Dn1   v068
	BYTE	W03
	BYTE		        Dn1   v084
	BYTE	W03
// 001   ----------------------------------------
endlessb_8_001:
	BYTE		N06     Cn1   v108
	BYTE		N06     Dn1   v088
	BYTE	W06
	BYTE		N06   
	BYTE	W06
	BYTE		N06   
	BYTE		N06     Fn1   v127
	BYTE	W06
	BYTE		        Dn1   v048
	BYTE	W06
	BYTE		        Dn1   v032
	BYTE	W06
	BYTE		N05     Dn1   v020
	BYTE	W06
	BYTE		N13     Cn1   v108
	BYTE		N06     Dn1   v088
	BYTE	W06
	BYTE		N05   
	BYTE	W06
	BYTE		N05   
	BYTE		N06     Fn1   v127
	BYTE	W06
	BYTE		N05     Dn1   v072
	BYTE	W06
	BYTE		        Dn1   v088
	BYTE	W06
	BYTE		        Dn1   v048
	BYTE	W06
	BYTE		N06     Cn1   v108
	BYTE		N06     Dn1   v088
	BYTE	W12
	BYTE		        Cn1   v127
	BYTE		N06     Dn1   v048
	BYTE	W12
	BYTE	PEND
endlessb_8_B1:
// 002   ----------------------------------------
	BYTE		N06     Cn1   v127
	BYTE		N06     Dn1   v088
	BYTE		N48     An2   v076
	BYTE	W06
	BYTE		N06     Dn1   v088
	BYTE	W06
	BYTE		        Cn1   v127
	BYTE		N06     Dn1   v088
	BYTE	W06
	BYTE		        Dn1   v048
	BYTE	W06
	BYTE		        Dn1   v032
	BYTE	W06
	BYTE		        Dn1   v020
	BYTE	W06
	BYTE		        Cn1   v127
	BYTE		N06     Dn1   v084
	BYTE	W06
	BYTE		        Dn1   v088
	BYTE	W06
	BYTE		        Cn1   v127
	BYTE		N06     Dn1   v088
	BYTE	W06
	BYTE		        Dn1   v072
	BYTE	W06
	BYTE		        Dn1   v088
	BYTE	W06
	BYTE		        Dn1   v048
	BYTE	W06
	BYTE		        Dn1   v032
	BYTE	W06
	BYTE		        Dn1   v020
	BYTE	W12
	BYTE		N02     Dn1   v068
	BYTE	W03
	BYTE		        Dn1   v084
	BYTE	W03
// 003   ----------------------------------------
	BYTE		N06     Cn1   v127
	BYTE		N06     Dn1   v088
	BYTE	W06
	BYTE		N06   
	BYTE	W06
	BYTE		        Cn1   v127
	BYTE		N06     Dn1   v088
	BYTE	W06
	BYTE		        Dn1   v048
	BYTE	W06
	BYTE		        Dn1   v032
	BYTE	W06
	BYTE		        Dn1   v020
	BYTE	W06
	BYTE		        Cn1   v127
	BYTE		N06     Dn1   v084
	BYTE	W06
	BYTE		        Dn1   v088
	BYTE	W06
	BYTE		        Cn1   v127
	BYTE		N06     Dn1   v088
	BYTE	W06
	BYTE		        Dn1   v072
	BYTE	W06
	BYTE		        Dn1   v088
	BYTE	W06
	BYTE		        Cn1   v127
	BYTE		N06     Dn1   v048
	BYTE	W06
	BYTE		        Ds1   v120
	BYTE		N06     Cn2   v104
	BYTE	W24
// 004   ----------------------------------------
endlessb_8_004:
	BYTE		N06     Cn1   v127
	BYTE		N06     Dn1   v088
	BYTE	W06
	BYTE		N06   
	BYTE	W06
	BYTE		        Cn1   v127
	BYTE		N06     Dn1   v088
	BYTE	W06
	BYTE		        Dn1   v048
	BYTE	W06
	BYTE		        Dn1   v032
	BYTE	W06
	BYTE		        Dn1   v020
	BYTE	W06
	BYTE		        Cn1   v127
	BYTE		N06     Dn1   v084
	BYTE	W06
	BYTE		        Dn1   v088
	BYTE	W06
	BYTE		        Cn1   v127
	BYTE		N06     Dn1   v088
	BYTE	W06
	BYTE		        Dn1   v072
	BYTE	W06
	BYTE		        Dn1   v088
	BYTE	W06
	BYTE		        Dn1   v048
	BYTE	W06
	BYTE		        Dn1   v032
	BYTE	W06
	BYTE		        Dn1   v020
	BYTE	W12
	BYTE		N02     Dn1   v068
	BYTE	W03
	BYTE		        Dn1   v084
	BYTE	W03
	BYTE	PEND
// 005   ----------------------------------------
endlessb_8_005:
	BYTE		N06     Cn1   v127
	BYTE		N06     Dn1   v088
	BYTE	W06
	BYTE		N06   
	BYTE	W06
	BYTE		        Cn1   v127
	BYTE		N06     Dn1   v088
	BYTE	W06
	BYTE		        Dn1   v048
	BYTE	W06
	BYTE		        Dn1   v032
	BYTE	W06
	BYTE		        Dn1   v020
	BYTE	W06
	BYTE		        Cn1   v127
	BYTE		N06     Dn1   v084
	BYTE	W06
	BYTE		        Dn1   v088
	BYTE	W06
	BYTE		        Cn1   v127
	BYTE		N06     Dn1   v088
	BYTE	W06
	BYTE		        Dn1   v072
	BYTE	W06
	BYTE		        Dn1   v088
	BYTE	W06
	BYTE		        Dn1   v048
	BYTE	W06
	BYTE		        Ds1   v120
	BYTE		N06     Cn2   v104
	BYTE	W24
	BYTE	PEND
// 006   ----------------------------------------
	BYTE	PATT
	 POIN2	endlessb_8_004
// 007   ----------------------------------------
	BYTE	PATT
	 POIN2	endlessb_8_005
// 008   ----------------------------------------
	BYTE	PATT
	 POIN2	endlessb_8_004
// 009   ----------------------------------------
	BYTE	PATT
	 POIN2	endlessb_8_005
// 010   ----------------------------------------
	BYTE		N06     Cn1   v127
	BYTE		N06     Dn1   v088
	BYTE		N48     An2   v052
	BYTE	W06
	BYTE		N06     Dn1   v088
	BYTE	W06
	BYTE		        Cn1   v127
	BYTE		N06     Dn1   v088
	BYTE	W06
	BYTE		        Dn1   v048
	BYTE	W06
	BYTE		        Dn1   v032
	BYTE	W06
	BYTE		        Dn1   v020
	BYTE	W06
	BYTE		        Cn1   v127
	BYTE		N06     Dn1   v084
	BYTE	W06
	BYTE		        Dn1   v088
	BYTE	W06
	BYTE		        Cn1   v127
	BYTE		N06     Dn1   v088
	BYTE	W06
	BYTE		        Dn1   v072
	BYTE	W06
	BYTE		        Dn1   v088
	BYTE	W06
	BYTE		        Dn1   v048
	BYTE	W06
	BYTE		        Dn1   v032
	BYTE	W06
	BYTE		        Dn1   v020
	BYTE	W12
	BYTE		N02     Dn1   v068
	BYTE	W03
	BYTE		        Dn1   v084
	BYTE	W03
// 011   ----------------------------------------
endlessb_8_011:
	BYTE		N12     Cn1   v127
	BYTE		N05     Dn1   v088
	BYTE	W06
	BYTE		N05   
	BYTE	W06
	BYTE		N12     Cn1   v127
	BYTE		N05     Dn1   v088
	BYTE	W06
	BYTE		        Dn1   v048
	BYTE	W06
	BYTE		        Dn1   v032
	BYTE	W06
	BYTE		        Dn1   v020
	BYTE	W06
	BYTE		N12     Cn1   v127
	BYTE		N05     Dn1   v084
	BYTE	W06
	BYTE		        Dn1   v088
	BYTE	W06
	BYTE		N12     Cn1   v127
	BYTE		N05     Dn1   v088
	BYTE	W06
	BYTE		        Dn1   v072
	BYTE	W06
	BYTE		        Dn1   v088
	BYTE	W06
	BYTE		        Dn1   v048
	BYTE	W06
	BYTE		N06     Ds1   v120
	BYTE		N06     Cn2   v104
	BYTE	W24
	BYTE	PEND
// 012   ----------------------------------------
endlessb_8_012:
	BYTE		N06     Cn1   v127
	BYTE		N05     Dn1   v088
	BYTE	W06
	BYTE		N05   
	BYTE	W06
	BYTE		N12     Cn1   v127
	BYTE		N05     Dn1   v088
	BYTE	W06
	BYTE		        Dn1   v048
	BYTE	W06
	BYTE		        Dn1   v032
	BYTE	W06
	BYTE		        Dn1   v020
	BYTE	W06
	BYTE		N12     Cn1   v127
	BYTE		N05     Dn1   v084
	BYTE	W06
	BYTE		        Dn1   v088
	BYTE	W06
	BYTE		N12     Cn1   v127
	BYTE		N05     Dn1   v088
	BYTE	W06
	BYTE		        Dn1   v072
	BYTE	W06
	BYTE		        Dn1   v088
	BYTE	W06
	BYTE		        Dn1   v048
	BYTE	W06
	BYTE		        Dn1   v032
	BYTE	W06
	BYTE		        Dn1   v020
	BYTE	W12
	BYTE		N02     Dn1   v068
	BYTE	W03
	BYTE		        Dn1   v084
	BYTE	W03
	BYTE	PEND
// 013   ----------------------------------------
	BYTE	PATT
	 POIN2	endlessb_8_011
// 014   ----------------------------------------
	BYTE	PATT
	 POIN2	endlessb_8_012
// 015   ----------------------------------------
	BYTE	PATT
	 POIN2	endlessb_8_011
// 016   ----------------------------------------
	BYTE	PATT
	 POIN2	endlessb_8_012
// 017   ----------------------------------------
	BYTE	PATT
	 POIN2	endlessb_8_011
// 018   ----------------------------------------
	BYTE		N06     Cn1   v127
	BYTE		N06     An2   v108
	BYTE	W12
	BYTE		        Cn1   v064
	BYTE	W12
	BYTE		        Cn1   v127
	BYTE		N06     An1   v100
	BYTE	W12
	BYTE		        Cn1   v064
	BYTE	W12
	BYTE		        Cn1   v127
	BYTE		N06     An1   v100
	BYTE	W12
	BYTE		        Cn1   v064
	BYTE	W12
	BYTE		        Cn1   v127
	BYTE		N06     An1   v100
	BYTE	W12
	BYTE		        Cn1   v064
	BYTE	W12
// 019   ----------------------------------------
endlessb_8_019:
	BYTE		N06     Cn1   v127
	BYTE		N06     An1   v100
	BYTE	W12
	BYTE		        Cn1   v064
	BYTE	W12
	BYTE		        Cn1   v127
	BYTE		N06     An1   v100
	BYTE	W12
	BYTE		        Cn1   v064
	BYTE	W12
	BYTE		        Cn1   v127
	BYTE		N06     An1   v100
	BYTE	W12
	BYTE		        Cn1   v064
	BYTE	W12
	BYTE		        Cn1   v127
	BYTE		N06     An1   v100
	BYTE	W12
	BYTE		        Cn1   v064
	BYTE	W12
	BYTE	PEND
// 020   ----------------------------------------
	BYTE	PATT
	 POIN2	endlessb_8_019
// 021   ----------------------------------------
	BYTE	PATT
	 POIN2	endlessb_8_019
// 022   ----------------------------------------
	BYTE	PATT
	 POIN2	endlessb_8_019
// 023   ----------------------------------------
	BYTE	PATT
	 POIN2	endlessb_8_019
// 024   ----------------------------------------
	BYTE	PATT
	 POIN2	endlessb_8_019
// 025   ----------------------------------------
	BYTE		N06     Cn1   v127
	BYTE		N06     An1   v100
	BYTE	W12
	BYTE		        Cn1   v064
	BYTE	W12
	BYTE		        Cn1   v127
	BYTE		N06     An1   v100
	BYTE	W12
	BYTE		        Cn1   v064
	BYTE	W12
	BYTE		        Cn1   v127
	BYTE		N06     An1   v100
	BYTE	W12
	BYTE		        Cn1   v064
	BYTE	W12
	BYTE		        Ds1   v127
	BYTE		N06     Cn2   v084
	BYTE	W12
	BYTE		        Cn1   v127
	BYTE		N06     Dn1   v056
	BYTE	W12
// 026   ----------------------------------------
endlessb_8_026:
	BYTE		N06     Cn1   v100
	BYTE		N06     Dn1   v088
	BYTE	W06
	BYTE		N06   
	BYTE	W06
	BYTE		        Cn1   v100
	BYTE		N06     Dn1   v088
	BYTE	W06
	BYTE		        Dn1   v056
	BYTE	W06
	BYTE		        Dn1   v044
	BYTE	W06
	BYTE		        Dn1   v032
	BYTE	W06
	BYTE		        Cn1   v100
	BYTE		N06     Dn1   v084
	BYTE	W06
	BYTE		        Dn1   v088
	BYTE	W06
	BYTE		        Cn1   v100
	BYTE		N06     Dn1   v088
	BYTE	W06
	BYTE		        Dn1   v072
	BYTE	W06
	BYTE		        Dn1   v088
	BYTE	W06
	BYTE		        Dn1   v056
	BYTE	W06
	BYTE		        Dn1   v044
	BYTE	W06
	BYTE		        Dn1   v032
	BYTE	W12
	BYTE		N02     Dn1   v076
	BYTE	W03
	BYTE		        Dn1   v084
	BYTE	W03
	BYTE	PEND
// 027   ----------------------------------------
endlessb_8_027:
	BYTE		N06     Cn1   v100
	BYTE		N06     Dn1   v088
	BYTE	W06
	BYTE		N06   
	BYTE	W06
	BYTE		        Cn1   v100
	BYTE		N06     Dn1   v088
	BYTE	W06
	BYTE		        Dn1   v056
	BYTE	W06
	BYTE		        Dn1   v044
	BYTE	W06
	BYTE		        Dn1   v032
	BYTE	W06
	BYTE		        Cn1   v100
	BYTE		N06     Dn1   v084
	BYTE	W06
	BYTE		        Dn1   v088
	BYTE	W06
	BYTE		        Cn1   v100
	BYTE		N06     Dn1   v088
	BYTE	W06
	BYTE		        Dn1   v072
	BYTE	W06
	BYTE		        Dn1   v088
	BYTE	W06
	BYTE		        Dn1   v056
	BYTE	W06
	BYTE		        Ds1   v127
	BYTE		N06     Cn2   v084
	BYTE	W24
	BYTE	PEND
// 028   ----------------------------------------
	BYTE	PATT
	 POIN2	endlessb_8_026
// 029   ----------------------------------------
	BYTE	PATT
	 POIN2	endlessb_8_027
// 030   ----------------------------------------
	BYTE	PATT
	 POIN2	endlessb_8_026
// 031   ----------------------------------------
	BYTE	PATT
	 POIN2	endlessb_8_027
// 032   ----------------------------------------
	BYTE	PATT
	 POIN2	endlessb_8_026
// 033   ----------------------------------------
	BYTE		N06     Cn1   v100
	BYTE		N06     Dn1   v088
	BYTE	W06
	BYTE		N06   
	BYTE	W06
	BYTE		        Cn1   v100
	BYTE		N06     Dn1   v088
	BYTE	W06
	BYTE		        Dn1   v056
	BYTE	W06
	BYTE		        Dn1   v044
	BYTE	W06
	BYTE		        Dn1   v032
	BYTE	W06
	BYTE		        Cn1   v100
	BYTE		N06     Dn1   v084
	BYTE	W06
	BYTE		        Dn1   v088
	BYTE	W06
	BYTE		        Cn1   v100
	BYTE		N06     Dn1   v052
	BYTE	W06
	BYTE		        Dn1   v088
	BYTE	W06
	BYTE		        Dn1   v084
	BYTE	W06
	BYTE		        Dn1   v088
	BYTE	W06
	BYTE		        Ds1   v127
	BYTE		N06     Cn2   v084
	BYTE	W12
	BYTE		        Dn1   v088
	BYTE		N06     An1   v100
	BYTE	W06
	BYTE		        Dn1   v088
	BYTE	W06
// 034   ----------------------------------------
	BYTE		N48     An2   v092
	BYTE	W24
	BYTE		N06     Dn1   v088
	BYTE	W06
	BYTE		N06   
	BYTE	W06
	BYTE		N06   
	BYTE	W06
	BYTE		        Dn1   v056
	BYTE	W06
	BYTE		        Dn1   v044
	BYTE	W06
	BYTE		        Dn1   v032
	BYTE	W06
	BYTE		        Dn1   v084
	BYTE	W06
	BYTE		        Dn1   v088
	BYTE	W06
	BYTE		PAN     c_v-16
	BYTE		N23     Ds1   v127
	BYTE		N24     Gn2   v068
	BYTE	W24
// 035   ----------------------------------------
	BYTE		PAN     c_v-40
	BYTE		N06     Dn1   v088
	BYTE		N24     Gn2   v052
	BYTE	W06
	BYTE		PAN     c_v-16
	BYTE		N06     Dn1   v088
	BYTE	W06
	BYTE		N06   
	BYTE	W06
	BYTE		        Dn1   v056
	BYTE	W06
	BYTE		PAN     c_v+0
	BYTE		N05     Dn1   v044
	BYTE	W06
	BYTE		        Dn1   v088
	BYTE	W06
	BYTE		N06     Dn1   v084
	BYTE	W06
	BYTE		        Dn1   v088
	BYTE	W06
	BYTE		        Dn1   v044
	BYTE	W06
	BYTE		        Dn1   v088
	BYTE	W06
	BYTE		        Dn1   v080
	BYTE	W06
	BYTE		        Dn1   v056
	BYTE	W06
	BYTE		N02     Dn1   v088
	BYTE	W03
	BYTE		N02   
	BYTE	W03
	BYTE		N06   
	BYTE	W06
	BYTE		        Dn1   v080
	BYTE	W06
	BYTE		        Dn1   v060
	BYTE	W06
// 036   ----------------------------------------
	BYTE		N23     Ds1   v127
	BYTE		N06     An2   v092
	BYTE	W24
	BYTE		        Dn1   v088
	BYTE	W06
	BYTE		N06   
	BYTE	W06
	BYTE		N06   
	BYTE	W06
	BYTE		        Dn1   v056
	BYTE	W06
	BYTE		        Dn1   v044
	BYTE	W06
	BYTE		        Dn1   v032
	BYTE	W06
	BYTE		        Dn1   v084
	BYTE	W06
	BYTE		        Dn1   v088
	BYTE	W06
	BYTE		PAN     c_v+16
	BYTE		N23     Ds1   v127
	BYTE		N24     Gn2   v080
	BYTE	W24
// 037   ----------------------------------------
	BYTE		PAN     c_v+40
	BYTE		N06     Dn1   v088
	BYTE		N24     Gn2   v052
	BYTE	W06
	BYTE		PAN     c_v+16
	BYTE		N06     Dn1   v088
	BYTE	W06
	BYTE		N06   
	BYTE	W06
	BYTE		N05     Dn1   v056
	BYTE	W06
	BYTE		PAN     c_v+0
	BYTE		N05     Dn1   v044
	BYTE	W06
	BYTE		        Dn1   v088
	BYTE	W06
	BYTE		N06     Dn1   v084
	BYTE	W06
	BYTE		        Dn1   v088
	BYTE	W06
	BYTE		        Dn1   v040
	BYTE	W06
	BYTE		        Dn1   v088
	BYTE	W06
	BYTE		        Dn1   v080
	BYTE	W06
	BYTE		        Dn1   v056
	BYTE	W06
	BYTE		N02     Dn1   v088
	BYTE	W03
	BYTE		N02   
	BYTE	W03
	BYTE		N06   
	BYTE	W06
	BYTE		        Dn1   v080
	BYTE	W12
// 038   ----------------------------------------
	BYTE		        Cn1   v108
	BYTE		N06     Dn1   v088
	BYTE	W06
	BYTE		N06   
	BYTE	W06
	BYTE		N06   
	BYTE		N06     Fn1   v127
	BYTE	W06
	BYTE		        Dn1   v048
	BYTE	W06
	BYTE		        Dn1   v032
	BYTE	W06
	BYTE		N05     Dn1   v020
	BYTE	W06
	BYTE		N13     Cn1   v108
	BYTE		N06     Dn1   v088
	BYTE	W06
	BYTE		N05     Dn1   v080
	BYTE	W06
	BYTE		        Dn1   v088
	BYTE		N06     Fn1   v127
	BYTE	W06
	BYTE		N05     Dn1   v072
	BYTE	W06
	BYTE		        Dn1   v088
	BYTE	W06
	BYTE		        Dn1   v048
	BYTE	W06
	BYTE		N13     Cn1   v108
	BYTE		N06     Dn1   v088
	BYTE	W06
	BYTE		N05     Dn1   v020
	BYTE	W06
	BYTE		        Dn1   v048
	BYTE		N06     Fn1   v127
	BYTE	W06
	BYTE		N02     Dn1   v068
	BYTE	W03
	BYTE		        Dn1   v084
	BYTE	W03
// 039   ----------------------------------------
	BYTE	PATT
	 POIN2	endlessb_8_001
	BYTE	GoTo
	 POIN2	endlessb_8_B1
endlessb_8_B2:
// 040   ----------------------------------------
	BYTE	W03
	BYTE	FINE

//******************************************************//
	ALIGN 4

endlessb:
	BYTE	8	// NumTrks
	BYTE	0	// NumBlks
	BYTE	endlessb_pri	// Priority
	BYTE	endlessb_rev	// Reverb.

	POIN2	endlessb_grp

	POIN2	endlessb_1
	POIN2	endlessb_2
	POIN2	endlessb_3
	POIN2	endlessb_4
	POIN2	endlessb_5
	POIN2	endlessb_6
	POIN2	endlessb_7
	POIN2	endlessb_8

	
