	.include "MPlayDef.s"

	.equ	Enemy_Phase_2_Celica_grp, voicegroup000
	.equ	Enemy_Phase_2_Celica_pri, 0
	.equ	Enemy_Phase_2_Celica_rev, 0
	.equ	Enemy_Phase_2_Celica_mvl, 127
	.equ	Enemy_Phase_2_Celica_key, 0
	.equ	Enemy_Phase_2_Celica_tbs, 1
	.equ	Enemy_Phase_2_Celica_exg, 0
	.equ	Enemy_Phase_2_Celica_cmp, 1

	.section .rodata
	.global	Enemy_Phase_2_Celica
	.align	2

@**************** Track 1 (Midi-Chn.1) ****************@

Enemy_Phase_2_Celica_1:
	.byte	KEYSH , Enemy_Phase_2_Celica_key+0
Enemy_Phase_2_Celica_1_B1:
@ 000   ----------------------------------------
	.byte	TEMPO , 170*Enemy_Phase_2_Celica_tbs/2
	.byte		VOICE , 41
	.byte	W72
@ 001   ----------------------------------------
	.byte	W72
@ 002   ----------------------------------------
	.byte	W72
@ 003   ----------------------------------------
	.byte	W72
@ 004   ----------------------------------------
	.byte	W72
@ 005   ----------------------------------------
	.byte	W72
@ 006   ----------------------------------------
	.byte	W72
@ 007   ----------------------------------------
	.byte	W72
@ 008   ----------------------------------------
	.byte	W72
@ 009   ----------------------------------------
	.byte	W72
@ 010   ----------------------------------------
	.byte	W72
@ 011   ----------------------------------------
	.byte	W72
@ 012   ----------------------------------------
	.byte	W72
@ 013   ----------------------------------------
	.byte	W72
@ 014   ----------------------------------------
	.byte	W72
@ 015   ----------------------------------------
	.byte	W72
@ 016   ----------------------------------------
	.byte	W72
@ 017   ----------------------------------------
	.byte	W72
@ 018   ----------------------------------------
	.byte	W72
@ 019   ----------------------------------------
	.byte	W72
@ 020   ----------------------------------------
	.byte	W72
@ 021   ----------------------------------------
	.byte	W72
@ 022   ----------------------------------------
	.byte	W72
@ 023   ----------------------------------------
	.byte	W72
@ 024   ----------------------------------------
	.byte	W72
@ 025   ----------------------------------------
	.byte	W72
@ 026   ----------------------------------------
	.byte	W72
@ 027   ----------------------------------------
	.byte	W72
@ 028   ----------------------------------------
	.byte	W72
@ 029   ----------------------------------------
	.byte	W72
@ 030   ----------------------------------------
	.byte	W72
@ 031   ----------------------------------------
	.byte	W72
@ 032   ----------------------------------------
	.byte	W72
@ 033   ----------------------------------------
	.byte	W72
@ 034   ----------------------------------------
	.byte	W72
@ 035   ----------------------------------------
	.byte	W17
	.byte		VOL   , 106*Enemy_Phase_2_Celica_mvl/mxv
	.byte	W13
	.byte	W05
	.byte	W01
	.byte		        107*Enemy_Phase_2_Celica_mvl/mxv
	.byte	W02
	.byte	W03
	.byte	W03
	.byte	W03
	.byte	W03
	.byte	W22
@ 036   ----------------------------------------
	.byte		N32   , An2 , v092
	.byte		N32   , Gn3 
	.byte	W36
	.byte		        Cn3 
	.byte		N32   , As3 
	.byte	W36
@ 037   ----------------------------------------
	.byte		        Bn2 
	.byte		N32   , An3 
	.byte	W36
	.byte		        Dn3 
	.byte		N32   , Cn4 
	.byte	W36
@ 038   ----------------------------------------
	.byte		N64   , Ds3 
	.byte		N64   , Bn3 
	.byte	W72
@ 039   ----------------------------------------
	.byte	W72
	.byte	GOTO
	 .word	Enemy_Phase_2_Celica_1_B1
Enemy_Phase_2_Celica_1_B2:
@ 040   ----------------------------------------
	.byte	W72
@ 041   ----------------------------------------
	.byte	W72
@ 042   ----------------------------------------
	.byte	W72
@ 043   ----------------------------------------
	.byte	W72
@ 044   ----------------------------------------
	.byte	W72
@ 045   ----------------------------------------
	.byte	W72
@ 046   ----------------------------------------
	.byte	W72
@ 047   ----------------------------------------
	.byte	W72
@ 048   ----------------------------------------
	.byte	W72
@ 049   ----------------------------------------
	.byte	W72
@ 050   ----------------------------------------
	.byte	W72
@ 051   ----------------------------------------
	.byte	W72
@ 052   ----------------------------------------
	.byte	W72
@ 053   ----------------------------------------
	.byte	W72
@ 054   ----------------------------------------
	.byte	W72
@ 055   ----------------------------------------
	.byte	W72
@ 056   ----------------------------------------
	.byte	W72
@ 057   ----------------------------------------
	.byte	W72
@ 058   ----------------------------------------
	.byte	W72
@ 059   ----------------------------------------
	.byte	W72
@ 060   ----------------------------------------
	.byte	W72
@ 061   ----------------------------------------
	.byte	W72
@ 062   ----------------------------------------
	.byte	W72
@ 063   ----------------------------------------
	.byte	W72
@ 064   ----------------------------------------
	.byte	W72
@ 065   ----------------------------------------
	.byte	W72
@ 066   ----------------------------------------
	.byte	W72
@ 067   ----------------------------------------
	.byte	W72
@ 068   ----------------------------------------
	.byte	W72
@ 069   ----------------------------------------
	.byte	W72
@ 070   ----------------------------------------
	.byte	W72
@ 071   ----------------------------------------
	.byte	W72
@ 072   ----------------------------------------
	.byte	W72
@ 073   ----------------------------------------
	.byte	W72
@ 074   ----------------------------------------
	.byte	W72
@ 075   ----------------------------------------
	.byte	W72
@ 076   ----------------------------------------
	.byte	W64
	.byte	FINE

@**************** Track 2 (Midi-Chn.2) ****************@

Enemy_Phase_2_Celica_2:
	.byte	KEYSH , Enemy_Phase_2_Celica_key+0
Enemy_Phase_2_Celica_2_B1:
@ 000   ----------------------------------------
	.byte		VOICE , 109
	.byte	W72
@ 001   ----------------------------------------
	.byte	W72
@ 002   ----------------------------------------
	.byte	W72
@ 003   ----------------------------------------
	.byte	W72
@ 004   ----------------------------------------
	.byte	W72
@ 005   ----------------------------------------
	.byte	W72
@ 006   ----------------------------------------
	.byte	W72
@ 007   ----------------------------------------
	.byte	W72
@ 008   ----------------------------------------
	.byte	W72
@ 009   ----------------------------------------
	.byte	W72
@ 010   ----------------------------------------
	.byte	W72
@ 011   ----------------------------------------
	.byte	W72
@ 012   ----------------------------------------
	.byte	W72
@ 013   ----------------------------------------
	.byte	W72
@ 014   ----------------------------------------
	.byte	W72
@ 015   ----------------------------------------
	.byte	W72
@ 016   ----------------------------------------
	.byte	W72
@ 017   ----------------------------------------
	.byte	W72
@ 018   ----------------------------------------
	.byte	W72
@ 019   ----------------------------------------
	.byte	W56
	.byte	W03
	.byte	W03
	.byte	W01
	.byte		VOL   , 103*Enemy_Phase_2_Celica_mvl/mxv
	.byte	W01
	.byte	W01
	.byte	W01
	.byte	W01
	.byte	W01
	.byte	W01
	.byte	W01
	.byte	W01
	.byte	W01
@ 020   ----------------------------------------
	.byte		TIE   , An3 , v100
	.byte		TIE   , Cs4 
	.byte		TIE   , Fs4 
	.byte	W02
	.byte	W68
	.byte	W02
@ 021   ----------------------------------------
	.byte	W72
@ 022   ----------------------------------------
	.byte		N64   , Gs4 
	.byte	W72
@ 023   ----------------------------------------
	.byte		        An4 
	.byte	W64
	.byte		EOT   , An3 
	.byte		        Cs4 
	.byte		        Fs4 
	.byte	W08
@ 024   ----------------------------------------
	.byte		TIE   , An3 
	.byte		TIE   , Cs4 
	.byte		TIE   , Fs4 
	.byte		TIE   , An4 
	.byte	W72
@ 025   ----------------------------------------
	.byte	W72
@ 026   ----------------------------------------
	.byte		N64   , Gs4 
	.byte	W72
@ 027   ----------------------------------------
	.byte	W64
	.byte		EOT   , An3 
	.byte		        Cs4 
	.byte		        Fs4 
	.byte		        An4 
	.byte	W08
@ 028   ----------------------------------------
	.byte		TIE   , Bn3 
	.byte		TIE   , Dn4 
	.byte		TIE   , Fs4 
	.byte	W72
@ 029   ----------------------------------------
	.byte	W72
@ 030   ----------------------------------------
	.byte		N72   , Gs4 
	.byte	W72
@ 031   ----------------------------------------
	.byte		TIE   , An4 
	.byte	W72
@ 032   ----------------------------------------
	.byte	W72
@ 033   ----------------------------------------
	.byte	W72
@ 034   ----------------------------------------
	.byte		N68   , Bn4 
	.byte	W68
	.byte	W03
	.byte		EOT   , Bn3 
	.byte		        Dn4 
	.byte		        Fs4 
	.byte		        An4 
	.byte	W01
@ 035   ----------------------------------------
	.byte		N68   , Cs4 
	.byte		N68   , En4 
	.byte		N68   , An4 
	.byte		N68   , Cs5 
	.byte	W72
@ 036   ----------------------------------------
	.byte	W72
@ 037   ----------------------------------------
	.byte	W72
@ 038   ----------------------------------------
	.byte	W48
	.byte		VOICE , 3
	.byte	W24
@ 039   ----------------------------------------
	.byte	W12
	.byte		N10   , An3 , v120
	.byte		N10   , An4 
	.byte	W12
	.byte		        As3 
	.byte		N10   , As4 
	.byte	W12
	.byte		        Gs3 
	.byte		N10   , Gs4 
	.byte	W12
	.byte		        Gn3 
	.byte		N10   , An4 
	.byte	W12
	.byte		        Gs3 
	.byte		N10   , Fn4 
	.byte	W12
	.byte	GOTO
	 .word	Enemy_Phase_2_Celica_2_B1
Enemy_Phase_2_Celica_2_B2:
@ 040   ----------------------------------------
	.byte	W72
@ 041   ----------------------------------------
	.byte	W72
@ 042   ----------------------------------------
	.byte	W72
@ 043   ----------------------------------------
	.byte	W72
@ 044   ----------------------------------------
	.byte	W72
@ 045   ----------------------------------------
	.byte	W72
@ 046   ----------------------------------------
	.byte	W72
@ 047   ----------------------------------------
	.byte	W72
@ 048   ----------------------------------------
	.byte	W72
@ 049   ----------------------------------------
	.byte	W72
@ 050   ----------------------------------------
	.byte	W72
@ 051   ----------------------------------------
	.byte	W72
@ 052   ----------------------------------------
	.byte	W72
@ 053   ----------------------------------------
	.byte	W72
@ 054   ----------------------------------------
	.byte	W72
@ 055   ----------------------------------------
	.byte	W72
@ 056   ----------------------------------------
	.byte	W72
@ 057   ----------------------------------------
	.byte	W72
@ 058   ----------------------------------------
	.byte	W72
@ 059   ----------------------------------------
	.byte	W72
@ 060   ----------------------------------------
	.byte	W72
@ 061   ----------------------------------------
	.byte	W72
@ 062   ----------------------------------------
	.byte	W72
@ 063   ----------------------------------------
	.byte	W72
@ 064   ----------------------------------------
	.byte	W72
@ 065   ----------------------------------------
	.byte	W72
@ 066   ----------------------------------------
	.byte	W72
@ 067   ----------------------------------------
	.byte	W72
@ 068   ----------------------------------------
	.byte	W72
@ 069   ----------------------------------------
	.byte	W72
@ 070   ----------------------------------------
	.byte	W72
@ 071   ----------------------------------------
	.byte	W72
@ 072   ----------------------------------------
	.byte	W72
@ 073   ----------------------------------------
	.byte	W72
@ 074   ----------------------------------------
	.byte	W72
@ 075   ----------------------------------------
	.byte	W72
@ 076   ----------------------------------------
	.byte	W72
@ 077   ----------------------------------------
	.byte	W68
	.byte	W02
	.byte	FINE

@**************** Track 3 (Midi-Chn.3) ****************@

Enemy_Phase_2_Celica_3:
	.byte	KEYSH , Enemy_Phase_2_Celica_key+0
Enemy_Phase_2_Celica_3_B1:
@ 000   ----------------------------------------
	.byte		VOICE , 36
	.byte	W72
@ 001   ----------------------------------------
	.byte	W72
@ 002   ----------------------------------------
	.byte	W72
@ 003   ----------------------------------------
	.byte	W12
	.byte		VOL   , 116*Enemy_Phase_2_Celica_mvl/mxv
	.byte	W02
	.byte		        117*Enemy_Phase_2_Celica_mvl/mxv
	.byte	W01
	.byte		        118*Enemy_Phase_2_Celica_mvl/mxv
	.byte	W02
	.byte		        119*Enemy_Phase_2_Celica_mvl/mxv
	.byte	W01
	.byte		        120*Enemy_Phase_2_Celica_mvl/mxv
	.byte	W01
	.byte	W01
	.byte		        121*Enemy_Phase_2_Celica_mvl/mxv
	.byte	W01
	.byte		        122*Enemy_Phase_2_Celica_mvl/mxv
	.byte	W01
	.byte	W01
	.byte		        123*Enemy_Phase_2_Celica_mvl/mxv
	.byte	W01
	.byte		        124*Enemy_Phase_2_Celica_mvl/mxv
	.byte	W01
	.byte	W01
	.byte		        125*Enemy_Phase_2_Celica_mvl/mxv
	.byte	W01
	.byte		        126*Enemy_Phase_2_Celica_mvl/mxv
	.byte	W01
	.byte	W02
	.byte	W01
	.byte	W02
	.byte	W24
	.byte	W02
	.byte	W06
	.byte	W02
	.byte	W01
	.byte	W02
	.byte	W01
	.byte	W01
@ 004   ----------------------------------------
	.byte		N10   , Fs2 , v124
	.byte	W01
	.byte	W01
	.byte	W02
	.byte	W01
	.byte	W04
	.byte	W03
	.byte		        An2 
	.byte	W12
	.byte		        Cs3 
	.byte	W12
	.byte		        En3 
	.byte	W12
	.byte		        Ds3 
	.byte	W12
	.byte		        Bn2 
	.byte	W12
@ 005   ----------------------------------------
Enemy_Phase_2_Celica_3_005:
	.byte		N10   , Cs3 , v124
	.byte	W12
	.byte		        An2 
	.byte	W12
	.byte		        Bn2 
	.byte	W12
	.byte		        Gs2 
	.byte	W12
	.byte		        An2 
	.byte	W12
	.byte		        Fs2 
	.byte	W12
	.byte	PEND
@ 006   ----------------------------------------
Enemy_Phase_2_Celica_3_006:
	.byte		N10   , Gs2 , v124
	.byte	W12
	.byte		        Fn2 
	.byte	W12
	.byte		        Gs2 
	.byte	W12
	.byte		        Bn2 
	.byte	W12
	.byte		        Dn3 
	.byte	W12
	.byte		        Bn2 
	.byte	W12
	.byte	PEND
@ 007   ----------------------------------------
Enemy_Phase_2_Celica_3_007:
	.byte		N10   , An2 , v124
	.byte	W12
	.byte		        Bn2 
	.byte	W12
	.byte		        An2 
	.byte	W12
	.byte		        Gs2 
	.byte	W12
	.byte		        Fs2 
	.byte	W12
	.byte		        Gs2 
	.byte	W12
	.byte	PEND
@ 008   ----------------------------------------
Enemy_Phase_2_Celica_3_008:
	.byte		N10   , Fs2 , v124
	.byte	W12
	.byte		        An2 
	.byte	W12
	.byte		        Cs3 
	.byte	W12
	.byte		        En3 
	.byte	W12
	.byte		        Ds3 
	.byte	W12
	.byte		        Bn2 
	.byte	W12
	.byte	PEND
@ 009   ----------------------------------------
	.byte	PATT
	 .word	Enemy_Phase_2_Celica_3_005
@ 010   ----------------------------------------
	.byte	PATT
	 .word	Enemy_Phase_2_Celica_3_006
@ 011   ----------------------------------------
Enemy_Phase_2_Celica_3_011:
	.byte		N10   , An2 , v124
	.byte	W12
	.byte		        Bn2 
	.byte	W12
	.byte		        An2 
	.byte	W12
	.byte		        Gs2 
	.byte	W12
	.byte		        Fs2 
	.byte	W12
	.byte		        An2 
	.byte	W12
	.byte	PEND
@ 012   ----------------------------------------
Enemy_Phase_2_Celica_3_012:
	.byte		N10   , Gs2 , v124
	.byte	W12
	.byte		        An2 
	.byte	W12
	.byte		        Bn2 
	.byte	W12
	.byte		        Cs3 
	.byte	W12
	.byte		        Dn3 
	.byte	W12
	.byte		        Fs3 
	.byte	W12
	.byte	PEND
@ 013   ----------------------------------------
Enemy_Phase_2_Celica_3_013:
	.byte		N10   , Fn3 , v124
	.byte	W12
	.byte		        Cs3 
	.byte	W12
	.byte		        Bn2 
	.byte	W12
	.byte		        Dn3 
	.byte	W12
	.byte		        Cs3 
	.byte	W12
	.byte		        An2 
	.byte	W12
	.byte	PEND
@ 014   ----------------------------------------
Enemy_Phase_2_Celica_3_014:
	.byte		N10   , Bn2 , v124
	.byte	W12
	.byte		        Gs2 
	.byte	W12
	.byte		        Gn2 
	.byte	W12
	.byte		        Gs2 
	.byte	W12
	.byte		        An2 
	.byte	W12
	.byte		        As2 
	.byte	W12
	.byte	PEND
@ 015   ----------------------------------------
Enemy_Phase_2_Celica_3_015:
	.byte		N10   , Dn3 , v124
	.byte	W12
	.byte		        Ds3 
	.byte	W12
	.byte		        En3 
	.byte	W12
	.byte		        Ds3 
	.byte	W12
	.byte		        Dn3 
	.byte	W12
	.byte		        Ds3 
	.byte	W12
	.byte	PEND
@ 016   ----------------------------------------
	.byte	PATT
	 .word	Enemy_Phase_2_Celica_3_012
@ 017   ----------------------------------------
	.byte	PATT
	 .word	Enemy_Phase_2_Celica_3_013
@ 018   ----------------------------------------
Enemy_Phase_2_Celica_3_018:
	.byte		N21   , Bn2 , v124
	.byte	W12
	.byte		N05   , An2 
	.byte	W06
	.byte		        Gs2 
	.byte	W06
	.byte		N44   , Gn2 
	.byte	W48
	.byte	PEND
@ 019   ----------------------------------------
	.byte	W72
@ 020   ----------------------------------------
	.byte	PATT
	 .word	Enemy_Phase_2_Celica_3_008
@ 021   ----------------------------------------
	.byte	PATT
	 .word	Enemy_Phase_2_Celica_3_005
@ 022   ----------------------------------------
	.byte	PATT
	 .word	Enemy_Phase_2_Celica_3_006
@ 023   ----------------------------------------
	.byte	PATT
	 .word	Enemy_Phase_2_Celica_3_007
@ 024   ----------------------------------------
	.byte	PATT
	 .word	Enemy_Phase_2_Celica_3_008
@ 025   ----------------------------------------
	.byte	PATT
	 .word	Enemy_Phase_2_Celica_3_005
@ 026   ----------------------------------------
	.byte	PATT
	 .word	Enemy_Phase_2_Celica_3_006
@ 027   ----------------------------------------
	.byte	PATT
	 .word	Enemy_Phase_2_Celica_3_011
@ 028   ----------------------------------------
	.byte	PATT
	 .word	Enemy_Phase_2_Celica_3_012
@ 029   ----------------------------------------
	.byte	PATT
	 .word	Enemy_Phase_2_Celica_3_013
@ 030   ----------------------------------------
	.byte	PATT
	 .word	Enemy_Phase_2_Celica_3_014
@ 031   ----------------------------------------
	.byte	PATT
	 .word	Enemy_Phase_2_Celica_3_015
@ 032   ----------------------------------------
	.byte	PATT
	 .word	Enemy_Phase_2_Celica_3_012
@ 033   ----------------------------------------
	.byte	PATT
	 .word	Enemy_Phase_2_Celica_3_013
@ 034   ----------------------------------------
	.byte	PATT
	 .word	Enemy_Phase_2_Celica_3_018
@ 035   ----------------------------------------
	.byte	W72
@ 036   ----------------------------------------
	.byte	W72
@ 037   ----------------------------------------
	.byte	W72
@ 038   ----------------------------------------
	.byte	W72
@ 039   ----------------------------------------
	.byte	W72
	.byte	GOTO
	 .word	Enemy_Phase_2_Celica_3_B1
Enemy_Phase_2_Celica_3_B2:
@ 040   ----------------------------------------
	.byte	W72
@ 041   ----------------------------------------
	.byte	W72
@ 042   ----------------------------------------
	.byte	W72
@ 043   ----------------------------------------
	.byte	W72
@ 044   ----------------------------------------
	.byte	W72
@ 045   ----------------------------------------
	.byte	W72
@ 046   ----------------------------------------
	.byte	W72
@ 047   ----------------------------------------
	.byte	W72
@ 048   ----------------------------------------
	.byte	W72
@ 049   ----------------------------------------
	.byte	W72
@ 050   ----------------------------------------
	.byte	W72
@ 051   ----------------------------------------
	.byte	W72
@ 052   ----------------------------------------
	.byte	W72
@ 053   ----------------------------------------
	.byte	W72
@ 054   ----------------------------------------
	.byte	W72
@ 055   ----------------------------------------
	.byte	W72
@ 056   ----------------------------------------
	.byte	W72
@ 057   ----------------------------------------
	.byte	W72
@ 058   ----------------------------------------
	.byte	W72
@ 059   ----------------------------------------
	.byte	W72
@ 060   ----------------------------------------
	.byte	W72
@ 061   ----------------------------------------
	.byte	W72
@ 062   ----------------------------------------
	.byte	W72
@ 063   ----------------------------------------
	.byte	W72
@ 064   ----------------------------------------
	.byte	W72
@ 065   ----------------------------------------
	.byte	W72
@ 066   ----------------------------------------
	.byte	W72
@ 067   ----------------------------------------
	.byte	W72
@ 068   ----------------------------------------
	.byte	W72
@ 069   ----------------------------------------
	.byte	W72
@ 070   ----------------------------------------
	.byte	W72
@ 071   ----------------------------------------
	.byte	W72
@ 072   ----------------------------------------
	.byte	W68
	.byte	W01
	.byte	FINE

@**************** Track 4 (Midi-Chn.4) ****************@

Enemy_Phase_2_Celica_4:
	.byte	KEYSH , Enemy_Phase_2_Celica_key+0
Enemy_Phase_2_Celica_4_B1:
@ 000   ----------------------------------------
	.byte		VOICE , 0
	.byte		VOL   , 118*Enemy_Phase_2_Celica_mvl/mxv
	.byte		N10   , Cs1 , v100
	.byte		N10   , Fs1 
	.byte	W01
	.byte	W11
	.byte		        Cs1 
	.byte		N10   , Fs1 
	.byte	W24
	.byte		        Cs1 
	.byte		N10   , Fs1 
	.byte	W12
	.byte		        Cs1 
	.byte		N10   , Fs1 
	.byte	W12
	.byte		        Cs1 
	.byte		N10   , Fs1 
	.byte	W12
@ 001   ----------------------------------------
Enemy_Phase_2_Celica_4_001:
	.byte		N10   , Cs1 , v100
	.byte		N10   , Fs1 
	.byte	W12
	.byte		        Cs1 
	.byte		N10   , Fs1 
	.byte	W24
	.byte		        Cs1 
	.byte		N10   , Fs1 
	.byte	W12
	.byte		        Cs1 
	.byte		N10   , Fs1 
	.byte	W12
	.byte		        Cs1 
	.byte		N10   , Fs1 
	.byte	W12
	.byte	PEND
@ 002   ----------------------------------------
	.byte	PATT
	 .word	Enemy_Phase_2_Celica_4_001
@ 003   ----------------------------------------
	.byte	PATT
	 .word	Enemy_Phase_2_Celica_4_001
@ 004   ----------------------------------------
	.byte	PATT
	 .word	Enemy_Phase_2_Celica_4_001
@ 005   ----------------------------------------
	.byte	PATT
	 .word	Enemy_Phase_2_Celica_4_001
@ 006   ----------------------------------------
	.byte	PATT
	 .word	Enemy_Phase_2_Celica_4_001
@ 007   ----------------------------------------
	.byte	PATT
	 .word	Enemy_Phase_2_Celica_4_001
@ 008   ----------------------------------------
	.byte	PATT
	 .word	Enemy_Phase_2_Celica_4_001
@ 009   ----------------------------------------
	.byte	PATT
	 .word	Enemy_Phase_2_Celica_4_001
@ 010   ----------------------------------------
	.byte	PATT
	 .word	Enemy_Phase_2_Celica_4_001
@ 011   ----------------------------------------
	.byte	PATT
	 .word	Enemy_Phase_2_Celica_4_001
@ 012   ----------------------------------------
Enemy_Phase_2_Celica_4_012:
	.byte		N10   , Ds1 , v100
	.byte		N10   , Gs1 
	.byte	W12
	.byte		        Ds1 
	.byte		N10   , Gs1 
	.byte	W24
	.byte		        Ds1 
	.byte		N10   , Gs1 
	.byte	W12
	.byte		        Ds1 
	.byte		N10   , Gs1 
	.byte	W12
	.byte		        Ds1 
	.byte		N10   , Gs1 
	.byte	W12
	.byte	PEND
@ 013   ----------------------------------------
	.byte	PATT
	 .word	Enemy_Phase_2_Celica_4_012
@ 014   ----------------------------------------
	.byte	PATT
	 .word	Enemy_Phase_2_Celica_4_012
@ 015   ----------------------------------------
	.byte	PATT
	 .word	Enemy_Phase_2_Celica_4_012
@ 016   ----------------------------------------
	.byte	PATT
	 .word	Enemy_Phase_2_Celica_4_012
@ 017   ----------------------------------------
	.byte	PATT
	 .word	Enemy_Phase_2_Celica_4_012
@ 018   ----------------------------------------
	.byte	PATT
	 .word	Enemy_Phase_2_Celica_4_012
@ 019   ----------------------------------------
Enemy_Phase_2_Celica_4_019:
	.byte		N10   , En1 , v100
	.byte		N10   , An1 
	.byte	W12
	.byte		        En1 
	.byte		N10   , An1 
	.byte	W24
	.byte		        En1 
	.byte		N10   , An1 
	.byte	W12
	.byte		        En1 
	.byte		N10   , An1 
	.byte	W12
	.byte		        En1 
	.byte		N10   , An1 
	.byte	W12
	.byte	PEND
@ 020   ----------------------------------------
	.byte	PATT
	 .word	Enemy_Phase_2_Celica_4_001
@ 021   ----------------------------------------
	.byte	PATT
	 .word	Enemy_Phase_2_Celica_4_001
@ 022   ----------------------------------------
	.byte	PATT
	 .word	Enemy_Phase_2_Celica_4_001
@ 023   ----------------------------------------
	.byte	PATT
	 .word	Enemy_Phase_2_Celica_4_001
@ 024   ----------------------------------------
	.byte	PATT
	 .word	Enemy_Phase_2_Celica_4_001
@ 025   ----------------------------------------
	.byte	PATT
	 .word	Enemy_Phase_2_Celica_4_001
@ 026   ----------------------------------------
	.byte	PATT
	 .word	Enemy_Phase_2_Celica_4_001
@ 027   ----------------------------------------
	.byte	PATT
	 .word	Enemy_Phase_2_Celica_4_001
@ 028   ----------------------------------------
	.byte	PATT
	 .word	Enemy_Phase_2_Celica_4_012
@ 029   ----------------------------------------
	.byte	PATT
	 .word	Enemy_Phase_2_Celica_4_012
@ 030   ----------------------------------------
	.byte	PATT
	 .word	Enemy_Phase_2_Celica_4_012
@ 031   ----------------------------------------
	.byte	PATT
	 .word	Enemy_Phase_2_Celica_4_012
@ 032   ----------------------------------------
	.byte	PATT
	 .word	Enemy_Phase_2_Celica_4_012
@ 033   ----------------------------------------
	.byte	PATT
	 .word	Enemy_Phase_2_Celica_4_012
@ 034   ----------------------------------------
	.byte	PATT
	 .word	Enemy_Phase_2_Celica_4_012
@ 035   ----------------------------------------
	.byte	PATT
	 .word	Enemy_Phase_2_Celica_4_019
@ 036   ----------------------------------------
	.byte		N32   , An0 , v100
	.byte		N32   , An1 
	.byte	W36
	.byte		        Cn1 
	.byte		N32   , Cn2 , v120
	.byte	W36
@ 037   ----------------------------------------
	.byte		        Bn0 , v100
	.byte		N32   , Bn1 , v124
	.byte	W36
	.byte		        Dn1 , v100
	.byte		N32   , Dn2 , v124
	.byte	W36
@ 038   ----------------------------------------
	.byte		N64   , Ds1 , v100
	.byte		N64   , Ds2 , v124
	.byte	W72
@ 039   ----------------------------------------
	.byte	W12
	.byte		N10   , En2 , v100
	.byte	W12
	.byte		        Fn2 
	.byte	W12
	.byte		        Dn2 
	.byte	W12
	.byte		        Ds2 
	.byte	W12
	.byte		        Cn2 
	.byte	W12
	.byte	GOTO
	 .word	Enemy_Phase_2_Celica_4_B1
Enemy_Phase_2_Celica_4_B2:
@ 040   ----------------------------------------
	.byte	W72
@ 041   ----------------------------------------
	.byte	W72
@ 042   ----------------------------------------
	.byte	W72
@ 043   ----------------------------------------
	.byte	W72
@ 044   ----------------------------------------
	.byte	W72
@ 045   ----------------------------------------
	.byte	W72
@ 046   ----------------------------------------
	.byte	W72
@ 047   ----------------------------------------
	.byte	W72
@ 048   ----------------------------------------
	.byte	W72
@ 049   ----------------------------------------
	.byte	W72
@ 050   ----------------------------------------
	.byte	W72
@ 051   ----------------------------------------
	.byte	W72
@ 052   ----------------------------------------
	.byte	W72
@ 053   ----------------------------------------
	.byte	W72
@ 054   ----------------------------------------
	.byte	W72
@ 055   ----------------------------------------
	.byte	W72
@ 056   ----------------------------------------
	.byte	W72
@ 057   ----------------------------------------
	.byte	W72
@ 058   ----------------------------------------
	.byte	W72
@ 059   ----------------------------------------
	.byte	W72
@ 060   ----------------------------------------
	.byte	W72
@ 061   ----------------------------------------
	.byte	W72
@ 062   ----------------------------------------
	.byte	W72
@ 063   ----------------------------------------
	.byte	W72
@ 064   ----------------------------------------
	.byte	W72
@ 065   ----------------------------------------
	.byte	W72
@ 066   ----------------------------------------
	.byte	W72
@ 067   ----------------------------------------
	.byte	W72
@ 068   ----------------------------------------
	.byte	W72
@ 069   ----------------------------------------
	.byte	W72
@ 070   ----------------------------------------
	.byte	W72
@ 071   ----------------------------------------
	.byte	W72
@ 072   ----------------------------------------
	.byte	W72
@ 073   ----------------------------------------
	.byte	W72
@ 074   ----------------------------------------
	.byte	W72
@ 075   ----------------------------------------
	.byte	W72
@ 076   ----------------------------------------
	.byte	W72
@ 077   ----------------------------------------
	.byte	W72
@ 078   ----------------------------------------
	.byte	W72
@ 079   ----------------------------------------
	.byte	W72
@ 080   ----------------------------------------
	.byte	W72
@ 081   ----------------------------------------
	.byte	W72
@ 082   ----------------------------------------
	.byte	W72
@ 083   ----------------------------------------
	.byte	W68
	.byte	W02
	.byte	FINE

@**************** Track 5 (Midi-Chn.9) ****************@

Enemy_Phase_2_Celica_5:
	.byte		VOL   , 127*Enemy_Phase_2_Celica_mvl/mxv
	.byte	KEYSH , Enemy_Phase_2_Celica_key+0
Enemy_Phase_2_Celica_5_B1:
@ 000   ----------------------------------------
	.byte		VOICE , 127
	.byte		N01   , Fs1 , v100
	.byte	W02
	.byte		VOL   , 119*Enemy_Phase_2_Celica_mvl/mxv
	.byte	W06
	.byte		        118*Enemy_Phase_2_Celica_mvl/mxv
	.byte	W64
@ 001   ----------------------------------------
	.byte		N01   
	.byte	W72
@ 002   ----------------------------------------
Enemy_Phase_2_Celica_5_002:
	.byte		N01   , Cn1 , v100
	.byte		N01   , Fs1 
	.byte	W36
	.byte		N01   
	.byte	W36
	.byte	PEND
@ 003   ----------------------------------------
	.byte	PATT
	 .word	Enemy_Phase_2_Celica_5_002
@ 004   ----------------------------------------
Enemy_Phase_2_Celica_5_004:
	.byte		N01   , Cn1 , v100
	.byte		N01   , Ds1 
	.byte		N01   , Fs1 
	.byte		N01   , Cs2 
	.byte	W36
	.byte		        Cn1 
	.byte		N01   , Ds1 
	.byte		N01   , Fs1 
	.byte	W36
	.byte	PEND
@ 005   ----------------------------------------
Enemy_Phase_2_Celica_5_005:
	.byte		N01   , Cn1 , v100
	.byte		N01   , Ds1 
	.byte		N01   , Fs1 
	.byte	W36
	.byte		        Cn1 
	.byte		N01   , Ds1 
	.byte		N01   , Fs1 
	.byte	W36
	.byte	PEND
@ 006   ----------------------------------------
	.byte	PATT
	 .word	Enemy_Phase_2_Celica_5_005
@ 007   ----------------------------------------
	.byte	PATT
	 .word	Enemy_Phase_2_Celica_5_005
@ 008   ----------------------------------------
	.byte	PATT
	 .word	Enemy_Phase_2_Celica_5_005
@ 009   ----------------------------------------
	.byte	PATT
	 .word	Enemy_Phase_2_Celica_5_005
@ 010   ----------------------------------------
	.byte	PATT
	 .word	Enemy_Phase_2_Celica_5_005
@ 011   ----------------------------------------
	.byte	PATT
	 .word	Enemy_Phase_2_Celica_5_005
@ 012   ----------------------------------------
	.byte	PATT
	 .word	Enemy_Phase_2_Celica_5_004
@ 013   ----------------------------------------
	.byte	PATT
	 .word	Enemy_Phase_2_Celica_5_005
@ 014   ----------------------------------------
	.byte	PATT
	 .word	Enemy_Phase_2_Celica_5_005
@ 015   ----------------------------------------
	.byte	PATT
	 .word	Enemy_Phase_2_Celica_5_005
@ 016   ----------------------------------------
	.byte	PATT
	 .word	Enemy_Phase_2_Celica_5_005
@ 017   ----------------------------------------
	.byte	PATT
	 .word	Enemy_Phase_2_Celica_5_005
@ 018   ----------------------------------------
	.byte	PATT
	 .word	Enemy_Phase_2_Celica_5_005
@ 019   ----------------------------------------
Enemy_Phase_2_Celica_5_019:
	.byte		N01   , Cn1 , v100
	.byte		N01   , Ds1 
	.byte		N01   , Fs1 
	.byte	W36
	.byte		        Cn1 
	.byte		N01   , Ds1 
	.byte		N01   , Fs1 
	.byte	W12
	.byte		        Cn1 
	.byte		N01   , Fs1 
	.byte	W12
	.byte		        Cn1 
	.byte		N01   , Fs1 
	.byte	W12
	.byte	PEND
@ 020   ----------------------------------------
	.byte	PATT
	 .word	Enemy_Phase_2_Celica_5_004
@ 021   ----------------------------------------
	.byte	PATT
	 .word	Enemy_Phase_2_Celica_5_005
@ 022   ----------------------------------------
	.byte	PATT
	 .word	Enemy_Phase_2_Celica_5_005
@ 023   ----------------------------------------
	.byte	PATT
	 .word	Enemy_Phase_2_Celica_5_005
@ 024   ----------------------------------------
	.byte	PATT
	 .word	Enemy_Phase_2_Celica_5_005
@ 025   ----------------------------------------
	.byte	PATT
	 .word	Enemy_Phase_2_Celica_5_005
@ 026   ----------------------------------------
	.byte	PATT
	 .word	Enemy_Phase_2_Celica_5_005
@ 027   ----------------------------------------
	.byte	PATT
	 .word	Enemy_Phase_2_Celica_5_005
@ 028   ----------------------------------------
	.byte	PATT
	 .word	Enemy_Phase_2_Celica_5_004
@ 029   ----------------------------------------
	.byte	PATT
	 .word	Enemy_Phase_2_Celica_5_005
@ 030   ----------------------------------------
	.byte	PATT
	 .word	Enemy_Phase_2_Celica_5_005
@ 031   ----------------------------------------
	.byte	PATT
	 .word	Enemy_Phase_2_Celica_5_005
@ 032   ----------------------------------------
	.byte	PATT
	 .word	Enemy_Phase_2_Celica_5_005
@ 033   ----------------------------------------
	.byte	PATT
	 .word	Enemy_Phase_2_Celica_5_005
@ 034   ----------------------------------------
	.byte	PATT
	 .word	Enemy_Phase_2_Celica_5_005
@ 035   ----------------------------------------
	.byte	PATT
	 .word	Enemy_Phase_2_Celica_5_019
@ 036   ----------------------------------------
	.byte		N01   , Cn1 , v100
	.byte		N01   , Ds1 
	.byte		N01   , Fs1 
	.byte		N01   , Cs2 
	.byte		N01   , Ds2 
	.byte	W36
	.byte		        Cn1 
	.byte		N01   , Ds1 
	.byte		N01   , Fs1 
	.byte		N01   , Ds2 
	.byte	W36
@ 037   ----------------------------------------
Enemy_Phase_2_Celica_5_037:
	.byte		N01   , Cn1 , v100
	.byte		N01   , Ds1 
	.byte		N01   , Fs1 
	.byte		N01   , Ds2 
	.byte	W36
	.byte		        Cn1 
	.byte		N01   , Ds1 
	.byte		N01   , Fs1 
	.byte		N01   , Ds2 
	.byte	W36
	.byte	PEND
@ 038   ----------------------------------------
	.byte	PATT
	 .word	Enemy_Phase_2_Celica_5_037
@ 039   ----------------------------------------
	.byte		N01   , Cn1 , v100
	.byte		N01   , Ds1 
	.byte		N01   , Fs1 
	.byte		N01   , Ds2 
	.byte	W36
	.byte		        Cn1 
	.byte		N01   , Ds1 
	.byte		N01   , Fs1 
	.byte		N01   , Ds2 
	.byte	W12
	.byte		        Cn1 
	.byte		N01   , Fs1 
	.byte	W12
	.byte		        Cn1 
	.byte		N01   , Fs1 
	.byte	W12
	.byte	GOTO
	 .word	Enemy_Phase_2_Celica_5_B1
Enemy_Phase_2_Celica_5_B2:
@ 040   ----------------------------------------
	.byte	W72
@ 041   ----------------------------------------
	.byte	W72
@ 042   ----------------------------------------
	.byte	W72
@ 043   ----------------------------------------
	.byte	W72
@ 044   ----------------------------------------
	.byte	W72
@ 045   ----------------------------------------
	.byte	W72
@ 046   ----------------------------------------
	.byte	W72
@ 047   ----------------------------------------
	.byte	W72
@ 048   ----------------------------------------
	.byte	W72
@ 049   ----------------------------------------
	.byte	W72
@ 050   ----------------------------------------
	.byte	W72
@ 051   ----------------------------------------
	.byte	W72
@ 052   ----------------------------------------
	.byte	W72
@ 053   ----------------------------------------
	.byte	W72
@ 054   ----------------------------------------
	.byte	W72
@ 055   ----------------------------------------
	.byte	W72
@ 056   ----------------------------------------
	.byte	W72
@ 057   ----------------------------------------
	.byte	W72
@ 058   ----------------------------------------
	.byte	W72
@ 059   ----------------------------------------
	.byte	W72
@ 060   ----------------------------------------
	.byte	W72
@ 061   ----------------------------------------
	.byte	W72
@ 062   ----------------------------------------
	.byte	W72
@ 063   ----------------------------------------
	.byte	W72
@ 064   ----------------------------------------
	.byte	W72
@ 065   ----------------------------------------
	.byte	W72
@ 066   ----------------------------------------
	.byte	W72
@ 067   ----------------------------------------
	.byte	W72
@ 068   ----------------------------------------
	.byte	W72
@ 069   ----------------------------------------
	.byte	W72
@ 070   ----------------------------------------
	.byte	W72
@ 071   ----------------------------------------
	.byte	W72
@ 072   ----------------------------------------
	.byte	W72
@ 073   ----------------------------------------
	.byte	W72
@ 074   ----------------------------------------
	.byte	W72
@ 075   ----------------------------------------
	.byte	W72
@ 076   ----------------------------------------
	.byte	W72
@ 077   ----------------------------------------
	.byte	W72
@ 078   ----------------------------------------
	.byte	W72
@ 079   ----------------------------------------
	.byte	W72
@ 080   ----------------------------------------
	.byte	W72
@ 081   ----------------------------------------
	.byte	W72
@ 082   ----------------------------------------
	.byte	W72
@ 083   ----------------------------------------
	.byte	W60
	.byte	W03
	.byte	FINE

@******************************************************@
	.align	2

Enemy_Phase_2_Celica:
	.byte	5	@ NumTrks
	.byte	0	@ NumBlks
	.byte	Enemy_Phase_2_Celica_pri	@ Priority
	.byte	Enemy_Phase_2_Celica_rev	@ Reverb.

	.word	Enemy_Phase_2_Celica_grp

	.word	Enemy_Phase_2_Celica_1
	.word	Enemy_Phase_2_Celica_2
	.word	Enemy_Phase_2_Celica_3
	.word	Enemy_Phase_2_Celica_4
	.word	Enemy_Phase_2_Celica_5

	.end
