//Event file generated from Sappy .s format.
	#include "MPlayDef.event"

	#define	Enemy_Phase_2_Celica_grp  voicegroup000
	#define	Enemy_Phase_2_Celica_pri  0
	#define	Enemy_Phase_2_Celica_rev  0
	#define	Enemy_Phase_2_Celica_mvl  67
	#define	Enemy_Phase_2_Celica_key  0
	#define	Enemy_Phase_2_Celica_tbs  1
	#define	Enemy_Phase_2_Celica_exg  0
	#define	Enemy_Phase_2_Celica_cmp  1

	// .rodata
	//	Enemy_Phase_2_Celica
	ALIGN 4

//**************** Track 1 (Midi-Chn.1) ****************//

Enemy_Phase_2_Celica_1:
	BYTE	KEYSH   Enemy_Phase_2_Celica_key+0
Enemy_Phase_2_Celica_1_B1:
// 000   ----------------------------------------
	BYTE	TEMPO   170*Enemy_Phase_2_Celica_tbs/2
	BYTE		VOICE   41
	BYTE	W72
// 001   ----------------------------------------
	BYTE	W72
// 002   ----------------------------------------
	BYTE	W72
// 003   ----------------------------------------
	BYTE	W72
// 004   ----------------------------------------
	BYTE	W72
// 005   ----------------------------------------
	BYTE	W72
// 006   ----------------------------------------
	BYTE	W72
// 007   ----------------------------------------
	BYTE	W72
// 008   ----------------------------------------
	BYTE	W72
// 009   ----------------------------------------
	BYTE	W72
// 010   ----------------------------------------
	BYTE	W72
// 011   ----------------------------------------
	BYTE	W72
// 012   ----------------------------------------
	BYTE	W72
// 013   ----------------------------------------
	BYTE	W72
// 014   ----------------------------------------
	BYTE	W72
// 015   ----------------------------------------
	BYTE	W72
// 016   ----------------------------------------
	BYTE	W72
// 017   ----------------------------------------
	BYTE	W72
// 018   ----------------------------------------
	BYTE	W72
// 019   ----------------------------------------
	BYTE	W72
// 020   ----------------------------------------
	BYTE	W72
// 021   ----------------------------------------
	BYTE	W72
// 022   ----------------------------------------
	BYTE	W72
// 023   ----------------------------------------
	BYTE	W72
// 024   ----------------------------------------
	BYTE	W72
// 025   ----------------------------------------
	BYTE	W72
// 026   ----------------------------------------
	BYTE	W72
// 027   ----------------------------------------
	BYTE	W72
// 028   ----------------------------------------
	BYTE	W72
// 029   ----------------------------------------
	BYTE	W72
// 030   ----------------------------------------
	BYTE	W72
// 031   ----------------------------------------
	BYTE	W72
// 032   ----------------------------------------
	BYTE	W72
// 033   ----------------------------------------
	BYTE	W72
// 034   ----------------------------------------
	BYTE	W72
// 035   ----------------------------------------
	BYTE	W17
	BYTE		VOL     106*Enemy_Phase_2_Celica_mvl/mxv
	BYTE	W13
	BYTE	W05
	BYTE	W01
	BYTE		        107*Enemy_Phase_2_Celica_mvl/mxv
	BYTE	W02
	BYTE	W03
	BYTE	W03
	BYTE	W03
	BYTE	W03
	BYTE	W22
// 036   ----------------------------------------
	BYTE		N32     An2   v092
	BYTE		N32     Gn3 
	BYTE	W36
	BYTE		        Cn3 
	BYTE		N32     As3 
	BYTE	W36
// 037   ----------------------------------------
	BYTE		        Bn2 
	BYTE		N32     An3 
	BYTE	W36
	BYTE		        Dn3 
	BYTE		N32     Cn4 
	BYTE	W36
// 038   ----------------------------------------
	BYTE		N64     Ds3 
	BYTE		N64     Bn3 
	BYTE	W72
// 039   ----------------------------------------
	BYTE	W72
	BYTE	GoTo
	 POIN2	Enemy_Phase_2_Celica_1_B1
Enemy_Phase_2_Celica_1_B2:
// 040   ----------------------------------------
	BYTE	W72
// 041   ----------------------------------------
	BYTE	W72
// 042   ----------------------------------------
	BYTE	W72
// 043   ----------------------------------------
	BYTE	W72
// 044   ----------------------------------------
	BYTE	W72
// 045   ----------------------------------------
	BYTE	W72
// 046   ----------------------------------------
	BYTE	W72
// 047   ----------------------------------------
	BYTE	W72
// 048   ----------------------------------------
	BYTE	W72
// 049   ----------------------------------------
	BYTE	W72
// 050   ----------------------------------------
	BYTE	W72
// 051   ----------------------------------------
	BYTE	W72
// 052   ----------------------------------------
	BYTE	W72
// 053   ----------------------------------------
	BYTE	W72
// 054   ----------------------------------------
	BYTE	W72
// 055   ----------------------------------------
	BYTE	W72
// 056   ----------------------------------------
	BYTE	W72
// 057   ----------------------------------------
	BYTE	W72
// 058   ----------------------------------------
	BYTE	W72
// 059   ----------------------------------------
	BYTE	W72
// 060   ----------------------------------------
	BYTE	W72
// 061   ----------------------------------------
	BYTE	W72
// 062   ----------------------------------------
	BYTE	W72
// 063   ----------------------------------------
	BYTE	W72
// 064   ----------------------------------------
	BYTE	W72
// 065   ----------------------------------------
	BYTE	W72
// 066   ----------------------------------------
	BYTE	W72
// 067   ----------------------------------------
	BYTE	W72
// 068   ----------------------------------------
	BYTE	W72
// 069   ----------------------------------------
	BYTE	W72
// 070   ----------------------------------------
	BYTE	W72
// 071   ----------------------------------------
	BYTE	W72
// 072   ----------------------------------------
	BYTE	W72
// 073   ----------------------------------------
	BYTE	W72
// 074   ----------------------------------------
	BYTE	W72
// 075   ----------------------------------------
	BYTE	W72
// 076   ----------------------------------------
	BYTE	W64
	BYTE	FINE

//**************** Track 2 (Midi-Chn.2) ****************//

Enemy_Phase_2_Celica_2:
	BYTE	KEYSH   Enemy_Phase_2_Celica_key+0
Enemy_Phase_2_Celica_2_B1:
// 000   ----------------------------------------
	BYTE		VOICE   109
	BYTE	W72
// 001   ----------------------------------------
	BYTE	W72
// 002   ----------------------------------------
	BYTE	W72
// 003   ----------------------------------------
	BYTE	W72
// 004   ----------------------------------------
	BYTE	W72
// 005   ----------------------------------------
	BYTE	W72
// 006   ----------------------------------------
	BYTE	W72
// 007   ----------------------------------------
	BYTE	W72
// 008   ----------------------------------------
	BYTE	W72
// 009   ----------------------------------------
	BYTE	W72
// 010   ----------------------------------------
	BYTE	W72
// 011   ----------------------------------------
	BYTE	W72
// 012   ----------------------------------------
	BYTE	W72
// 013   ----------------------------------------
	BYTE	W72
// 014   ----------------------------------------
	BYTE	W72
// 015   ----------------------------------------
	BYTE	W72
// 016   ----------------------------------------
	BYTE	W72
// 017   ----------------------------------------
	BYTE	W72
// 018   ----------------------------------------
	BYTE	W72
// 019   ----------------------------------------
	BYTE	W56
	BYTE	W03
	BYTE	W03
	BYTE	W01
	BYTE		VOL     103*Enemy_Phase_2_Celica_mvl/mxv
	BYTE	W01
	BYTE	W01
	BYTE	W01
	BYTE	W01
	BYTE	W01
	BYTE	W01
	BYTE	W01
	BYTE	W01
	BYTE	W01
// 020   ----------------------------------------
	BYTE		TIE     An3   v100
	BYTE		TIE     Cs4 
	BYTE		TIE     Fs4 
	BYTE	W02
	BYTE	W68
	BYTE	W02
// 021   ----------------------------------------
	BYTE	W72
// 022   ----------------------------------------
	BYTE		N64     Gs4 
	BYTE	W72
// 023   ----------------------------------------
	BYTE		        An4 
	BYTE	W64
	BYTE		EOT     An3 
	BYTE		        Cs4 
	BYTE		        Fs4 
	BYTE	W08
// 024   ----------------------------------------
	BYTE		TIE     An3 
	BYTE		TIE     Cs4 
	BYTE		TIE     Fs4 
	BYTE		TIE     An4 
	BYTE	W72
// 025   ----------------------------------------
	BYTE	W72
// 026   ----------------------------------------
	BYTE		N64     Gs4 
	BYTE	W72
// 027   ----------------------------------------
	BYTE	W64
	BYTE		EOT     An3 
	BYTE		        Cs4 
	BYTE		        Fs4 
	BYTE		        An4 
	BYTE	W08
// 028   ----------------------------------------
	BYTE		TIE     Bn3 
	BYTE		TIE     Dn4 
	BYTE		TIE     Fs4 
	BYTE	W72
// 029   ----------------------------------------
	BYTE	W72
// 030   ----------------------------------------
	BYTE		N72     Gs4 
	BYTE	W72
// 031   ----------------------------------------
	BYTE		TIE     An4 
	BYTE	W72
// 032   ----------------------------------------
	BYTE	W72
// 033   ----------------------------------------
	BYTE	W72
// 034   ----------------------------------------
	BYTE		N68     Bn4 
	BYTE	W68
	BYTE	W03
	BYTE		EOT     Bn3 
	BYTE		        Dn4 
	BYTE		        Fs4 
	BYTE		        An4 
	BYTE	W01
// 035   ----------------------------------------
	BYTE		N68     Cs4 
	BYTE		N68     En4 
	BYTE		N68     An4 
	BYTE		N68     Cs5 
	BYTE	W72
// 036   ----------------------------------------
	BYTE	W72
// 037   ----------------------------------------
	BYTE	W72
// 038   ----------------------------------------
	BYTE	W48
	BYTE		VOICE   3
	BYTE	W24
// 039   ----------------------------------------
	BYTE	W12
	BYTE		N10     An3   v120
	BYTE		N10     An4 
	BYTE	W12
	BYTE		        As3 
	BYTE		N10     As4 
	BYTE	W12
	BYTE		        Gs3 
	BYTE		N10     Gs4 
	BYTE	W12
	BYTE		        Gn3 
	BYTE		N10     An4 
	BYTE	W12
	BYTE		        Gs3 
	BYTE		N10     Fn4 
	BYTE	W12
	BYTE	GoTo
	 POIN2	Enemy_Phase_2_Celica_2_B1
Enemy_Phase_2_Celica_2_B2:
// 040   ----------------------------------------
	BYTE	W72
// 041   ----------------------------------------
	BYTE	W72
// 042   ----------------------------------------
	BYTE	W72
// 043   ----------------------------------------
	BYTE	W72
// 044   ----------------------------------------
	BYTE	W72
// 045   ----------------------------------------
	BYTE	W72
// 046   ----------------------------------------
	BYTE	W72
// 047   ----------------------------------------
	BYTE	W72
// 048   ----------------------------------------
	BYTE	W72
// 049   ----------------------------------------
	BYTE	W72
// 050   ----------------------------------------
	BYTE	W72
// 051   ----------------------------------------
	BYTE	W72
// 052   ----------------------------------------
	BYTE	W72
// 053   ----------------------------------------
	BYTE	W72
// 054   ----------------------------------------
	BYTE	W72
// 055   ----------------------------------------
	BYTE	W72
// 056   ----------------------------------------
	BYTE	W72
// 057   ----------------------------------------
	BYTE	W72
// 058   ----------------------------------------
	BYTE	W72
// 059   ----------------------------------------
	BYTE	W72
// 060   ----------------------------------------
	BYTE	W72
// 061   ----------------------------------------
	BYTE	W72
// 062   ----------------------------------------
	BYTE	W72
// 063   ----------------------------------------
	BYTE	W72
// 064   ----------------------------------------
	BYTE	W72
// 065   ----------------------------------------
	BYTE	W72
// 066   ----------------------------------------
	BYTE	W72
// 067   ----------------------------------------
	BYTE	W72
// 068   ----------------------------------------
	BYTE	W72
// 069   ----------------------------------------
	BYTE	W72
// 070   ----------------------------------------
	BYTE	W72
// 071   ----------------------------------------
	BYTE	W72
// 072   ----------------------------------------
	BYTE	W72
// 073   ----------------------------------------
	BYTE	W72
// 074   ----------------------------------------
	BYTE	W72
// 075   ----------------------------------------
	BYTE	W72
// 076   ----------------------------------------
	BYTE	W72
// 077   ----------------------------------------
	BYTE	W68
	BYTE	W02
	BYTE	FINE

//**************** Track 3 (Midi-Chn.3) ****************//

Enemy_Phase_2_Celica_3:
	BYTE	KEYSH   Enemy_Phase_2_Celica_key+0
Enemy_Phase_2_Celica_3_B1:
// 000   ----------------------------------------
	BYTE		VOICE   36
	BYTE	W72
// 001   ----------------------------------------
	BYTE	W72
// 002   ----------------------------------------
	BYTE	W72
// 003   ----------------------------------------
	BYTE	W12
	BYTE		VOL     116*Enemy_Phase_2_Celica_mvl/mxv
	BYTE	W02
	BYTE		        117*Enemy_Phase_2_Celica_mvl/mxv
	BYTE	W01
	BYTE		        118*Enemy_Phase_2_Celica_mvl/mxv
	BYTE	W02
	BYTE		        119*Enemy_Phase_2_Celica_mvl/mxv
	BYTE	W01
	BYTE		        120*Enemy_Phase_2_Celica_mvl/mxv
	BYTE	W01
	BYTE	W01
	BYTE		        121*Enemy_Phase_2_Celica_mvl/mxv
	BYTE	W01
	BYTE		        122*Enemy_Phase_2_Celica_mvl/mxv
	BYTE	W01
	BYTE	W01
	BYTE		        123*Enemy_Phase_2_Celica_mvl/mxv
	BYTE	W01
	BYTE		        124*Enemy_Phase_2_Celica_mvl/mxv
	BYTE	W01
	BYTE	W01
	BYTE		        125*Enemy_Phase_2_Celica_mvl/mxv
	BYTE	W01
	BYTE		        126*Enemy_Phase_2_Celica_mvl/mxv
	BYTE	W01
	BYTE	W02
	BYTE	W01
	BYTE	W02
	BYTE	W24
	BYTE	W02
	BYTE	W06
	BYTE	W02
	BYTE	W01
	BYTE	W02
	BYTE	W01
	BYTE	W01
// 004   ----------------------------------------
	BYTE		N10     Fs2   v124
	BYTE	W01
	BYTE	W01
	BYTE	W02
	BYTE	W01
	BYTE	W04
	BYTE	W03
	BYTE		        An2 
	BYTE	W12
	BYTE		        Cs3 
	BYTE	W12
	BYTE		        En3 
	BYTE	W12
	BYTE		        Ds3 
	BYTE	W12
	BYTE		        Bn2 
	BYTE	W12
// 005   ----------------------------------------
Enemy_Phase_2_Celica_3_005:
	BYTE		N10     Cs3   v124
	BYTE	W12
	BYTE		        An2 
	BYTE	W12
	BYTE		        Bn2 
	BYTE	W12
	BYTE		        Gs2 
	BYTE	W12
	BYTE		        An2 
	BYTE	W12
	BYTE		        Fs2 
	BYTE	W12
	BYTE	PEND
// 006   ----------------------------------------
Enemy_Phase_2_Celica_3_006:
	BYTE		N10     Gs2   v124
	BYTE	W12
	BYTE		        Fn2 
	BYTE	W12
	BYTE		        Gs2 
	BYTE	W12
	BYTE		        Bn2 
	BYTE	W12
	BYTE		        Dn3 
	BYTE	W12
	BYTE		        Bn2 
	BYTE	W12
	BYTE	PEND
// 007   ----------------------------------------
Enemy_Phase_2_Celica_3_007:
	BYTE		N10     An2   v124
	BYTE	W12
	BYTE		        Bn2 
	BYTE	W12
	BYTE		        An2 
	BYTE	W12
	BYTE		        Gs2 
	BYTE	W12
	BYTE		        Fs2 
	BYTE	W12
	BYTE		        Gs2 
	BYTE	W12
	BYTE	PEND
// 008   ----------------------------------------
Enemy_Phase_2_Celica_3_008:
	BYTE		N10     Fs2   v124
	BYTE	W12
	BYTE		        An2 
	BYTE	W12
	BYTE		        Cs3 
	BYTE	W12
	BYTE		        En3 
	BYTE	W12
	BYTE		        Ds3 
	BYTE	W12
	BYTE		        Bn2 
	BYTE	W12
	BYTE	PEND
// 009   ----------------------------------------
	BYTE	PATT
	 POIN2	Enemy_Phase_2_Celica_3_005
// 010   ----------------------------------------
	BYTE	PATT
	 POIN2	Enemy_Phase_2_Celica_3_006
// 011   ----------------------------------------
Enemy_Phase_2_Celica_3_011:
	BYTE		N10     An2   v124
	BYTE	W12
	BYTE		        Bn2 
	BYTE	W12
	BYTE		        An2 
	BYTE	W12
	BYTE		        Gs2 
	BYTE	W12
	BYTE		        Fs2 
	BYTE	W12
	BYTE		        An2 
	BYTE	W12
	BYTE	PEND
// 012   ----------------------------------------
Enemy_Phase_2_Celica_3_012:
	BYTE		N10     Gs2   v124
	BYTE	W12
	BYTE		        An2 
	BYTE	W12
	BYTE		        Bn2 
	BYTE	W12
	BYTE		        Cs3 
	BYTE	W12
	BYTE		        Dn3 
	BYTE	W12
	BYTE		        Fs3 
	BYTE	W12
	BYTE	PEND
// 013   ----------------------------------------
Enemy_Phase_2_Celica_3_013:
	BYTE		N10     Fn3   v124
	BYTE	W12
	BYTE		        Cs3 
	BYTE	W12
	BYTE		        Bn2 
	BYTE	W12
	BYTE		        Dn3 
	BYTE	W12
	BYTE		        Cs3 
	BYTE	W12
	BYTE		        An2 
	BYTE	W12
	BYTE	PEND
// 014   ----------------------------------------
Enemy_Phase_2_Celica_3_014:
	BYTE		N10     Bn2   v124
	BYTE	W12
	BYTE		        Gs2 
	BYTE	W12
	BYTE		        Gn2 
	BYTE	W12
	BYTE		        Gs2 
	BYTE	W12
	BYTE		        An2 
	BYTE	W12
	BYTE		        As2 
	BYTE	W12
	BYTE	PEND
// 015   ----------------------------------------
Enemy_Phase_2_Celica_3_015:
	BYTE		N10     Dn3   v124
	BYTE	W12
	BYTE		        Ds3 
	BYTE	W12
	BYTE		        En3 
	BYTE	W12
	BYTE		        Ds3 
	BYTE	W12
	BYTE		        Dn3 
	BYTE	W12
	BYTE		        Ds3 
	BYTE	W12
	BYTE	PEND
// 016   ----------------------------------------
	BYTE	PATT
	 POIN2	Enemy_Phase_2_Celica_3_012
// 017   ----------------------------------------
	BYTE	PATT
	 POIN2	Enemy_Phase_2_Celica_3_013
// 018   ----------------------------------------
Enemy_Phase_2_Celica_3_018:
	BYTE		N21     Bn2   v124
	BYTE	W12
	BYTE		N05     An2 
	BYTE	W06
	BYTE		        Gs2 
	BYTE	W06
	BYTE		N44     Gn2 
	BYTE	W48
	BYTE	PEND
// 019   ----------------------------------------
	BYTE	W72
// 020   ----------------------------------------
	BYTE	PATT
	 POIN2	Enemy_Phase_2_Celica_3_008
// 021   ----------------------------------------
	BYTE	PATT
	 POIN2	Enemy_Phase_2_Celica_3_005
// 022   ----------------------------------------
	BYTE	PATT
	 POIN2	Enemy_Phase_2_Celica_3_006
// 023   ----------------------------------------
	BYTE	PATT
	 POIN2	Enemy_Phase_2_Celica_3_007
// 024   ----------------------------------------
	BYTE	PATT
	 POIN2	Enemy_Phase_2_Celica_3_008
// 025   ----------------------------------------
	BYTE	PATT
	 POIN2	Enemy_Phase_2_Celica_3_005
// 026   ----------------------------------------
	BYTE	PATT
	 POIN2	Enemy_Phase_2_Celica_3_006
// 027   ----------------------------------------
	BYTE	PATT
	 POIN2	Enemy_Phase_2_Celica_3_011
// 028   ----------------------------------------
	BYTE	PATT
	 POIN2	Enemy_Phase_2_Celica_3_012
// 029   ----------------------------------------
	BYTE	PATT
	 POIN2	Enemy_Phase_2_Celica_3_013
// 030   ----------------------------------------
	BYTE	PATT
	 POIN2	Enemy_Phase_2_Celica_3_014
// 031   ----------------------------------------
	BYTE	PATT
	 POIN2	Enemy_Phase_2_Celica_3_015
// 032   ----------------------------------------
	BYTE	PATT
	 POIN2	Enemy_Phase_2_Celica_3_012
// 033   ----------------------------------------
	BYTE	PATT
	 POIN2	Enemy_Phase_2_Celica_3_013
// 034   ----------------------------------------
	BYTE	PATT
	 POIN2	Enemy_Phase_2_Celica_3_018
// 035   ----------------------------------------
	BYTE	W72
// 036   ----------------------------------------
	BYTE	W72
// 037   ----------------------------------------
	BYTE	W72
// 038   ----------------------------------------
	BYTE	W72
// 039   ----------------------------------------
	BYTE	W72
	BYTE	GoTo
	 POIN2	Enemy_Phase_2_Celica_3_B1
Enemy_Phase_2_Celica_3_B2:
// 040   ----------------------------------------
	BYTE	W72
// 041   ----------------------------------------
	BYTE	W72
// 042   ----------------------------------------
	BYTE	W72
// 043   ----------------------------------------
	BYTE	W72
// 044   ----------------------------------------
	BYTE	W72
// 045   ----------------------------------------
	BYTE	W72
// 046   ----------------------------------------
	BYTE	W72
// 047   ----------------------------------------
	BYTE	W72
// 048   ----------------------------------------
	BYTE	W72
// 049   ----------------------------------------
	BYTE	W72
// 050   ----------------------------------------
	BYTE	W72
// 051   ----------------------------------------
	BYTE	W72
// 052   ----------------------------------------
	BYTE	W72
// 053   ----------------------------------------
	BYTE	W72
// 054   ----------------------------------------
	BYTE	W72
// 055   ----------------------------------------
	BYTE	W72
// 056   ----------------------------------------
	BYTE	W72
// 057   ----------------------------------------
	BYTE	W72
// 058   ----------------------------------------
	BYTE	W72
// 059   ----------------------------------------
	BYTE	W72
// 060   ----------------------------------------
	BYTE	W72
// 061   ----------------------------------------
	BYTE	W72
// 062   ----------------------------------------
	BYTE	W72
// 063   ----------------------------------------
	BYTE	W72
// 064   ----------------------------------------
	BYTE	W72
// 065   ----------------------------------------
	BYTE	W72
// 066   ----------------------------------------
	BYTE	W72
// 067   ----------------------------------------
	BYTE	W72
// 068   ----------------------------------------
	BYTE	W72
// 069   ----------------------------------------
	BYTE	W72
// 070   ----------------------------------------
	BYTE	W72
// 071   ----------------------------------------
	BYTE	W72
// 072   ----------------------------------------
	BYTE	W68
	BYTE	W01
	BYTE	FINE

//**************** Track 4 (Midi-Chn.4) ****************//

Enemy_Phase_2_Celica_4:
	BYTE	KEYSH   Enemy_Phase_2_Celica_key+0
Enemy_Phase_2_Celica_4_B1:
// 000   ----------------------------------------
	BYTE		VOICE   0
	BYTE		VOL     118*Enemy_Phase_2_Celica_mvl/mxv
	BYTE		N10     Cs1   v100
	BYTE		N10     Fs1 
	BYTE	W01
	BYTE	W11
	BYTE		        Cs1 
	BYTE		N10     Fs1 
	BYTE	W24
	BYTE		        Cs1 
	BYTE		N10     Fs1 
	BYTE	W12
	BYTE		        Cs1 
	BYTE		N10     Fs1 
	BYTE	W12
	BYTE		        Cs1 
	BYTE		N10     Fs1 
	BYTE	W12
// 001   ----------------------------------------
Enemy_Phase_2_Celica_4_001:
	BYTE		N10     Cs1   v100
	BYTE		N10     Fs1 
	BYTE	W12
	BYTE		        Cs1 
	BYTE		N10     Fs1 
	BYTE	W24
	BYTE		        Cs1 
	BYTE		N10     Fs1 
	BYTE	W12
	BYTE		        Cs1 
	BYTE		N10     Fs1 
	BYTE	W12
	BYTE		        Cs1 
	BYTE		N10     Fs1 
	BYTE	W12
	BYTE	PEND
// 002   ----------------------------------------
	BYTE	PATT
	 POIN2	Enemy_Phase_2_Celica_4_001
// 003   ----------------------------------------
	BYTE	PATT
	 POIN2	Enemy_Phase_2_Celica_4_001
// 004   ----------------------------------------
	BYTE	PATT
	 POIN2	Enemy_Phase_2_Celica_4_001
// 005   ----------------------------------------
	BYTE	PATT
	 POIN2	Enemy_Phase_2_Celica_4_001
// 006   ----------------------------------------
	BYTE	PATT
	 POIN2	Enemy_Phase_2_Celica_4_001
// 007   ----------------------------------------
	BYTE	PATT
	 POIN2	Enemy_Phase_2_Celica_4_001
// 008   ----------------------------------------
	BYTE	PATT
	 POIN2	Enemy_Phase_2_Celica_4_001
// 009   ----------------------------------------
	BYTE	PATT
	 POIN2	Enemy_Phase_2_Celica_4_001
// 010   ----------------------------------------
	BYTE	PATT
	 POIN2	Enemy_Phase_2_Celica_4_001
// 011   ----------------------------------------
	BYTE	PATT
	 POIN2	Enemy_Phase_2_Celica_4_001
// 012   ----------------------------------------
Enemy_Phase_2_Celica_4_012:
	BYTE		N10     Ds1   v100
	BYTE		N10     Gs1 
	BYTE	W12
	BYTE		        Ds1 
	BYTE		N10     Gs1 
	BYTE	W24
	BYTE		        Ds1 
	BYTE		N10     Gs1 
	BYTE	W12
	BYTE		        Ds1 
	BYTE		N10     Gs1 
	BYTE	W12
	BYTE		        Ds1 
	BYTE		N10     Gs1 
	BYTE	W12
	BYTE	PEND
// 013   ----------------------------------------
	BYTE	PATT
	 POIN2	Enemy_Phase_2_Celica_4_012
// 014   ----------------------------------------
	BYTE	PATT
	 POIN2	Enemy_Phase_2_Celica_4_012
// 015   ----------------------------------------
	BYTE	PATT
	 POIN2	Enemy_Phase_2_Celica_4_012
// 016   ----------------------------------------
	BYTE	PATT
	 POIN2	Enemy_Phase_2_Celica_4_012
// 017   ----------------------------------------
	BYTE	PATT
	 POIN2	Enemy_Phase_2_Celica_4_012
// 018   ----------------------------------------
	BYTE	PATT
	 POIN2	Enemy_Phase_2_Celica_4_012
// 019   ----------------------------------------
Enemy_Phase_2_Celica_4_019:
	BYTE		N10     En1   v100
	BYTE		N10     An1 
	BYTE	W12
	BYTE		        En1 
	BYTE		N10     An1 
	BYTE	W24
	BYTE		        En1 
	BYTE		N10     An1 
	BYTE	W12
	BYTE		        En1 
	BYTE		N10     An1 
	BYTE	W12
	BYTE		        En1 
	BYTE		N10     An1 
	BYTE	W12
	BYTE	PEND
// 020   ----------------------------------------
	BYTE	PATT
	 POIN2	Enemy_Phase_2_Celica_4_001
// 021   ----------------------------------------
	BYTE	PATT
	 POIN2	Enemy_Phase_2_Celica_4_001
// 022   ----------------------------------------
	BYTE	PATT
	 POIN2	Enemy_Phase_2_Celica_4_001
// 023   ----------------------------------------
	BYTE	PATT
	 POIN2	Enemy_Phase_2_Celica_4_001
// 024   ----------------------------------------
	BYTE	PATT
	 POIN2	Enemy_Phase_2_Celica_4_001
// 025   ----------------------------------------
	BYTE	PATT
	 POIN2	Enemy_Phase_2_Celica_4_001
// 026   ----------------------------------------
	BYTE	PATT
	 POIN2	Enemy_Phase_2_Celica_4_001
// 027   ----------------------------------------
	BYTE	PATT
	 POIN2	Enemy_Phase_2_Celica_4_001
// 028   ----------------------------------------
	BYTE	PATT
	 POIN2	Enemy_Phase_2_Celica_4_012
// 029   ----------------------------------------
	BYTE	PATT
	 POIN2	Enemy_Phase_2_Celica_4_012
// 030   ----------------------------------------
	BYTE	PATT
	 POIN2	Enemy_Phase_2_Celica_4_012
// 031   ----------------------------------------
	BYTE	PATT
	 POIN2	Enemy_Phase_2_Celica_4_012
// 032   ----------------------------------------
	BYTE	PATT
	 POIN2	Enemy_Phase_2_Celica_4_012
// 033   ----------------------------------------
	BYTE	PATT
	 POIN2	Enemy_Phase_2_Celica_4_012
// 034   ----------------------------------------
	BYTE	PATT
	 POIN2	Enemy_Phase_2_Celica_4_012
// 035   ----------------------------------------
	BYTE	PATT
	 POIN2	Enemy_Phase_2_Celica_4_019
// 036   ----------------------------------------
	BYTE		N32     An0   v100
	BYTE		N32     An1 
	BYTE	W36
	BYTE		        Cn1 
	BYTE		N32     Cn2   v120
	BYTE	W36
// 037   ----------------------------------------
	BYTE		        Bn0   v100
	BYTE		N32     Bn1   v124
	BYTE	W36
	BYTE		        Dn1   v100
	BYTE		N32     Dn2   v124
	BYTE	W36
// 038   ----------------------------------------
	BYTE		N64     Ds1   v100
	BYTE		N64     Ds2   v124
	BYTE	W72
// 039   ----------------------------------------
	BYTE	W12
	BYTE		N10     En2   v100
	BYTE	W12
	BYTE		        Fn2 
	BYTE	W12
	BYTE		        Dn2 
	BYTE	W12
	BYTE		        Ds2 
	BYTE	W12
	BYTE		        Cn2 
	BYTE	W12
	BYTE	GoTo
	 POIN2	Enemy_Phase_2_Celica_4_B1
Enemy_Phase_2_Celica_4_B2:
// 040   ----------------------------------------
	BYTE	W72
// 041   ----------------------------------------
	BYTE	W72
// 042   ----------------------------------------
	BYTE	W72
// 043   ----------------------------------------
	BYTE	W72
// 044   ----------------------------------------
	BYTE	W72
// 045   ----------------------------------------
	BYTE	W72
// 046   ----------------------------------------
	BYTE	W72
// 047   ----------------------------------------
	BYTE	W72
// 048   ----------------------------------------
	BYTE	W72
// 049   ----------------------------------------
	BYTE	W72
// 050   ----------------------------------------
	BYTE	W72
// 051   ----------------------------------------
	BYTE	W72
// 052   ----------------------------------------
	BYTE	W72
// 053   ----------------------------------------
	BYTE	W72
// 054   ----------------------------------------
	BYTE	W72
// 055   ----------------------------------------
	BYTE	W72
// 056   ----------------------------------------
	BYTE	W72
// 057   ----------------------------------------
	BYTE	W72
// 058   ----------------------------------------
	BYTE	W72
// 059   ----------------------------------------
	BYTE	W72
// 060   ----------------------------------------
	BYTE	W72
// 061   ----------------------------------------
	BYTE	W72
// 062   ----------------------------------------
	BYTE	W72
// 063   ----------------------------------------
	BYTE	W72
// 064   ----------------------------------------
	BYTE	W72
// 065   ----------------------------------------
	BYTE	W72
// 066   ----------------------------------------
	BYTE	W72
// 067   ----------------------------------------
	BYTE	W72
// 068   ----------------------------------------
	BYTE	W72
// 069   ----------------------------------------
	BYTE	W72
// 070   ----------------------------------------
	BYTE	W72
// 071   ----------------------------------------
	BYTE	W72
// 072   ----------------------------------------
	BYTE	W72
// 073   ----------------------------------------
	BYTE	W72
// 074   ----------------------------------------
	BYTE	W72
// 075   ----------------------------------------
	BYTE	W72
// 076   ----------------------------------------
	BYTE	W72
// 077   ----------------------------------------
	BYTE	W72
// 078   ----------------------------------------
	BYTE	W72
// 079   ----------------------------------------
	BYTE	W72
// 080   ----------------------------------------
	BYTE	W72
// 081   ----------------------------------------
	BYTE	W72
// 082   ----------------------------------------
	BYTE	W72
// 083   ----------------------------------------
	BYTE	W68
	BYTE	W02
	BYTE	FINE

//**************** Track 5 (Midi-Chn.9) ****************//

Enemy_Phase_2_Celica_5:
	BYTE		VOL     127*Enemy_Phase_2_Celica_mvl/mxv
	BYTE	KEYSH   Enemy_Phase_2_Celica_key+0
Enemy_Phase_2_Celica_5_B1:
// 000   ----------------------------------------
	BYTE		VOICE   127
	BYTE		N01     Fs1   v100
	BYTE	W02
	BYTE		VOL     119*Enemy_Phase_2_Celica_mvl/mxv
	BYTE	W06
	BYTE		        118*Enemy_Phase_2_Celica_mvl/mxv
	BYTE	W64
// 001   ----------------------------------------
	BYTE		N01   
	BYTE	W72
// 002   ----------------------------------------
Enemy_Phase_2_Celica_5_002:
	BYTE		N01     Cn1   v100
	BYTE		N01     Fs1 
	BYTE	W36
	BYTE		N01   
	BYTE	W36
	BYTE	PEND
// 003   ----------------------------------------
	BYTE	PATT
	 POIN2	Enemy_Phase_2_Celica_5_002
// 004   ----------------------------------------
Enemy_Phase_2_Celica_5_004:
	BYTE		N01     Cn1   v100
	BYTE		N01     Ds1 
	BYTE		N01     Fs1 
	BYTE		N01     Cs2 
	BYTE	W36
	BYTE		        Cn1 
	BYTE		N01     Ds1 
	BYTE		N01     Fs1 
	BYTE	W36
	BYTE	PEND
// 005   ----------------------------------------
Enemy_Phase_2_Celica_5_005:
	BYTE		N01     Cn1   v100
	BYTE		N01     Ds1 
	BYTE		N01     Fs1 
	BYTE	W36
	BYTE		        Cn1 
	BYTE		N01     Ds1 
	BYTE		N01     Fs1 
	BYTE	W36
	BYTE	PEND
// 006   ----------------------------------------
	BYTE	PATT
	 POIN2	Enemy_Phase_2_Celica_5_005
// 007   ----------------------------------------
	BYTE	PATT
	 POIN2	Enemy_Phase_2_Celica_5_005
// 008   ----------------------------------------
	BYTE	PATT
	 POIN2	Enemy_Phase_2_Celica_5_005
// 009   ----------------------------------------
	BYTE	PATT
	 POIN2	Enemy_Phase_2_Celica_5_005
// 010   ----------------------------------------
	BYTE	PATT
	 POIN2	Enemy_Phase_2_Celica_5_005
// 011   ----------------------------------------
	BYTE	PATT
	 POIN2	Enemy_Phase_2_Celica_5_005
// 012   ----------------------------------------
	BYTE	PATT
	 POIN2	Enemy_Phase_2_Celica_5_004
// 013   ----------------------------------------
	BYTE	PATT
	 POIN2	Enemy_Phase_2_Celica_5_005
// 014   ----------------------------------------
	BYTE	PATT
	 POIN2	Enemy_Phase_2_Celica_5_005
// 015   ----------------------------------------
	BYTE	PATT
	 POIN2	Enemy_Phase_2_Celica_5_005
// 016   ----------------------------------------
	BYTE	PATT
	 POIN2	Enemy_Phase_2_Celica_5_005
// 017   ----------------------------------------
	BYTE	PATT
	 POIN2	Enemy_Phase_2_Celica_5_005
// 018   ----------------------------------------
	BYTE	PATT
	 POIN2	Enemy_Phase_2_Celica_5_005
// 019   ----------------------------------------
Enemy_Phase_2_Celica_5_019:
	BYTE		N01     Cn1   v100
	BYTE		N01     Ds1 
	BYTE		N01     Fs1 
	BYTE	W36
	BYTE		        Cn1 
	BYTE		N01     Ds1 
	BYTE		N01     Fs1 
	BYTE	W12
	BYTE		        Cn1 
	BYTE		N01     Fs1 
	BYTE	W12
	BYTE		        Cn1 
	BYTE		N01     Fs1 
	BYTE	W12
	BYTE	PEND
// 020   ----------------------------------------
	BYTE	PATT
	 POIN2	Enemy_Phase_2_Celica_5_004
// 021   ----------------------------------------
	BYTE	PATT
	 POIN2	Enemy_Phase_2_Celica_5_005
// 022   ----------------------------------------
	BYTE	PATT
	 POIN2	Enemy_Phase_2_Celica_5_005
// 023   ----------------------------------------
	BYTE	PATT
	 POIN2	Enemy_Phase_2_Celica_5_005
// 024   ----------------------------------------
	BYTE	PATT
	 POIN2	Enemy_Phase_2_Celica_5_005
// 025   ----------------------------------------
	BYTE	PATT
	 POIN2	Enemy_Phase_2_Celica_5_005
// 026   ----------------------------------------
	BYTE	PATT
	 POIN2	Enemy_Phase_2_Celica_5_005
// 027   ----------------------------------------
	BYTE	PATT
	 POIN2	Enemy_Phase_2_Celica_5_005
// 028   ----------------------------------------
	BYTE	PATT
	 POIN2	Enemy_Phase_2_Celica_5_004
// 029   ----------------------------------------
	BYTE	PATT
	 POIN2	Enemy_Phase_2_Celica_5_005
// 030   ----------------------------------------
	BYTE	PATT
	 POIN2	Enemy_Phase_2_Celica_5_005
// 031   ----------------------------------------
	BYTE	PATT
	 POIN2	Enemy_Phase_2_Celica_5_005
// 032   ----------------------------------------
	BYTE	PATT
	 POIN2	Enemy_Phase_2_Celica_5_005
// 033   ----------------------------------------
	BYTE	PATT
	 POIN2	Enemy_Phase_2_Celica_5_005
// 034   ----------------------------------------
	BYTE	PATT
	 POIN2	Enemy_Phase_2_Celica_5_005
// 035   ----------------------------------------
	BYTE	PATT
	 POIN2	Enemy_Phase_2_Celica_5_019
// 036   ----------------------------------------
	BYTE		N01     Cn1   v100
	BYTE		N01     Ds1 
	BYTE		N01     Fs1 
	BYTE		N01     Cs2 
	BYTE		N01     Ds2 
	BYTE	W36
	BYTE		        Cn1 
	BYTE		N01     Ds1 
	BYTE		N01     Fs1 
	BYTE		N01     Ds2 
	BYTE	W36
// 037   ----------------------------------------
Enemy_Phase_2_Celica_5_037:
	BYTE		N01     Cn1   v100
	BYTE		N01     Ds1 
	BYTE		N01     Fs1 
	BYTE		N01     Ds2 
	BYTE	W36
	BYTE		        Cn1 
	BYTE		N01     Ds1 
	BYTE		N01     Fs1 
	BYTE		N01     Ds2 
	BYTE	W36
	BYTE	PEND
// 038   ----------------------------------------
	BYTE	PATT
	 POIN2	Enemy_Phase_2_Celica_5_037
// 039   ----------------------------------------
	BYTE		N01     Cn1   v100
	BYTE		N01     Ds1 
	BYTE		N01     Fs1 
	BYTE		N01     Ds2 
	BYTE	W36
	BYTE		        Cn1 
	BYTE		N01     Ds1 
	BYTE		N01     Fs1 
	BYTE		N01     Ds2 
	BYTE	W12
	BYTE		        Cn1 
	BYTE		N01     Fs1 
	BYTE	W12
	BYTE		        Cn1 
	BYTE		N01     Fs1 
	BYTE	W12
	BYTE	GoTo
	 POIN2	Enemy_Phase_2_Celica_5_B1
Enemy_Phase_2_Celica_5_B2:
// 040   ----------------------------------------
	BYTE	W72
// 041   ----------------------------------------
	BYTE	W72
// 042   ----------------------------------------
	BYTE	W72
// 043   ----------------------------------------
	BYTE	W72
// 044   ----------------------------------------
	BYTE	W72
// 045   ----------------------------------------
	BYTE	W72
// 046   ----------------------------------------
	BYTE	W72
// 047   ----------------------------------------
	BYTE	W72
// 048   ----------------------------------------
	BYTE	W72
// 049   ----------------------------------------
	BYTE	W72
// 050   ----------------------------------------
	BYTE	W72
// 051   ----------------------------------------
	BYTE	W72
// 052   ----------------------------------------
	BYTE	W72
// 053   ----------------------------------------
	BYTE	W72
// 054   ----------------------------------------
	BYTE	W72
// 055   ----------------------------------------
	BYTE	W72
// 056   ----------------------------------------
	BYTE	W72
// 057   ----------------------------------------
	BYTE	W72
// 058   ----------------------------------------
	BYTE	W72
// 059   ----------------------------------------
	BYTE	W72
// 060   ----------------------------------------
	BYTE	W72
// 061   ----------------------------------------
	BYTE	W72
// 062   ----------------------------------------
	BYTE	W72
// 063   ----------------------------------------
	BYTE	W72
// 064   ----------------------------------------
	BYTE	W72
// 065   ----------------------------------------
	BYTE	W72
// 066   ----------------------------------------
	BYTE	W72
// 067   ----------------------------------------
	BYTE	W72
// 068   ----------------------------------------
	BYTE	W72
// 069   ----------------------------------------
	BYTE	W72
// 070   ----------------------------------------
	BYTE	W72
// 071   ----------------------------------------
	BYTE	W72
// 072   ----------------------------------------
	BYTE	W72
// 073   ----------------------------------------
	BYTE	W72
// 074   ----------------------------------------
	BYTE	W72
// 075   ----------------------------------------
	BYTE	W72
// 076   ----------------------------------------
	BYTE	W72
// 077   ----------------------------------------
	BYTE	W72
// 078   ----------------------------------------
	BYTE	W72
// 079   ----------------------------------------
	BYTE	W72
// 080   ----------------------------------------
	BYTE	W72
// 081   ----------------------------------------
	BYTE	W72
// 082   ----------------------------------------
	BYTE	W72
// 083   ----------------------------------------
	BYTE	W60
	BYTE	W03
	BYTE	FINE

//******************************************************//
	ALIGN 4

Enemy_Phase_2_Celica:
	BYTE	5	// NumTrks
	BYTE	0	// NumBlks
	BYTE	Enemy_Phase_2_Celica_pri	// Priority
	BYTE	Enemy_Phase_2_Celica_rev	// Reverb.

	POIN2	Enemy_Phase_2_Celica_grp

	POIN2	Enemy_Phase_2_Celica_1
	POIN2	Enemy_Phase_2_Celica_2
	POIN2	Enemy_Phase_2_Celica_3
	POIN2	Enemy_Phase_2_Celica_4
	POIN2	Enemy_Phase_2_Celica_5

	
