//Event file generated from Sappy .s format.
	#include "MPlayDef.event"

	#define	Enemy_Phase_1_Alm_grp  voicegroup000
	#define	Enemy_Phase_1_Alm_pri  0
	#define	Enemy_Phase_1_Alm_rev  0
	#define	Enemy_Phase_1_Alm_mvl  67
	#define	Enemy_Phase_1_Alm_key  0
	#define	Enemy_Phase_1_Alm_tbs  1
	#define	Enemy_Phase_1_Alm_exg  0
	#define	Enemy_Phase_1_Alm_cmp  1

	// .rodata
	//	Enemy_Phase_1_Alm
	ALIGN 4

//**************** Track 1 (Midi-Chn.1) ****************//

Enemy_Phase_1_Alm_1:
	BYTE		VOL     127*Enemy_Phase_1_Alm_mvl/mxv
	BYTE	KEYSH   Enemy_Phase_1_Alm_key+0
// 000   ----------------------------------------
	BYTE	TEMPO   138*Enemy_Phase_1_Alm_tbs/2
	BYTE		VOICE   57
	BYTE	W96
Enemy_Phase_1_Alm_1_B1:
// 001   ----------------------------------------
	BYTE	W96
// 002   ----------------------------------------
	BYTE	W96
// 003   ----------------------------------------
	BYTE	W96
// 004   ----------------------------------------
	BYTE	W96
// 005   ----------------------------------------
	BYTE	W96
// 006   ----------------------------------------
	BYTE	W96
// 007   ----------------------------------------
	BYTE	W96
// 008   ----------------------------------------
	BYTE	W96
// 009   ----------------------------------------
	BYTE	W96
// 010   ----------------------------------------
	BYTE	W96
// 011   ----------------------------------------
	BYTE	W84
	BYTE	W01
	BYTE	W04
	BYTE	W01
	BYTE	W02
	BYTE	W02
	BYTE	W02
// 012   ----------------------------------------
Enemy_Phase_1_Alm_1_012:
	BYTE		N64     Cs4   v100
	BYTE	W72
	BYTE		N21     Fs3 
	BYTE	W24
	BYTE	PEND
// 013   ----------------------------------------
Enemy_Phase_1_Alm_1_013:
	BYTE		N64     Gs3   v100
	BYTE	W72
	BYTE		N21     Bn3 
	BYTE	W24
	BYTE	PEND
// 014   ----------------------------------------
Enemy_Phase_1_Alm_1_014:
	BYTE		N14     An3   v100
	BYTE	W16
	BYTE		N07     En4 
	BYTE	W08
	BYTE		TIE     Cs4 
	BYTE	W72
	BYTE	PEND
// 015   ----------------------------------------
	BYTE	W64
	BYTE		EOT   
	BYTE	W32
// 016   ----------------------------------------
	BYTE	PATT
	 POIN2	Enemy_Phase_1_Alm_1_012
// 017   ----------------------------------------
	BYTE	PATT
	 POIN2	Enemy_Phase_1_Alm_1_013
// 018   ----------------------------------------
	BYTE	PATT
	 POIN2	Enemy_Phase_1_Alm_1_014
// 019   ----------------------------------------
	BYTE	W64
	BYTE		EOT     Cs4 
	BYTE	W32
// 020   ----------------------------------------
	BYTE	W96
// 021   ----------------------------------------
	BYTE	W96
// 022   ----------------------------------------
	BYTE	W96
// 023   ----------------------------------------
	BYTE	W96
// 024   ----------------------------------------
	BYTE	W96
// 025   ----------------------------------------
	BYTE	W96
// 026   ----------------------------------------
	BYTE	W96
// 027   ----------------------------------------
	BYTE	W96
// 028   ----------------------------------------
	BYTE	W96
// 029   ----------------------------------------
	BYTE	W96
// 030   ----------------------------------------
	BYTE		N42     En3   v100
	BYTE		N42     En4 
	BYTE	W48
	BYTE		        Dn3 
	BYTE		N42     Dn4 
	BYTE	W48
// 031   ----------------------------------------
	BYTE		N21     Cn3 
	BYTE		N21     Cn4 
	BYTE	W24
	BYTE		        An2 
	BYTE		N21     Bn3 
	BYTE	W24
	BYTE		        Gs2 
	BYTE		N21     Cn4 
	BYTE	W24
	BYTE		        Bn2 
	BYTE		N21     Dn4 
	BYTE	W24
// 032   ----------------------------------------
	BYTE		TIE     An2 
	BYTE		TIE     An3 
	BYTE	W96
// 033   ----------------------------------------
	BYTE	W42
	BYTE	W01
	BYTE		EOT     An2 
	BYTE		        An3 
	BYTE	W52
	BYTE	W01
	BYTE	GoTo
	 POIN2	Enemy_Phase_1_Alm_1_B1
Enemy_Phase_1_Alm_1_B2:
// 034   ----------------------------------------
	BYTE	W96
// 035   ----------------------------------------
	BYTE	W96
// 036   ----------------------------------------
	BYTE	W96
// 037   ----------------------------------------
	BYTE	W96
// 038   ----------------------------------------
	BYTE	W96
// 039   ----------------------------------------
	BYTE	W96
// 040   ----------------------------------------
	BYTE	W96
// 041   ----------------------------------------
	BYTE	W96
// 042   ----------------------------------------
	BYTE	W96
// 043   ----------------------------------------
	BYTE	W96
// 044   ----------------------------------------
	BYTE	W96
// 045   ----------------------------------------
	BYTE	W96
// 046   ----------------------------------------
	BYTE	W96
// 047   ----------------------------------------
	BYTE	W96
// 048   ----------------------------------------
	BYTE	W96
// 049   ----------------------------------------
	BYTE	W96
// 050   ----------------------------------------
	BYTE	W96
// 051   ----------------------------------------
	BYTE	W96
// 052   ----------------------------------------
	BYTE	W96
// 053   ----------------------------------------
	BYTE	W96
// 054   ----------------------------------------
	BYTE	W96
// 055   ----------------------------------------
	BYTE	W96
// 056   ----------------------------------------
	BYTE	W96
// 057   ----------------------------------------
	BYTE	W96
// 058   ----------------------------------------
	BYTE	W96
// 059   ----------------------------------------
	BYTE	W96
// 060   ----------------------------------------
	BYTE	W96
// 061   ----------------------------------------
	BYTE	W96
// 062   ----------------------------------------
	BYTE	W96
// 063   ----------------------------------------
	BYTE	W96
// 064   ----------------------------------------
	BYTE	W96
// 065   ----------------------------------------
	BYTE	W42
	BYTE	W01
	BYTE	FINE

//**************** Track 2 (Midi-Chn.2) ****************//

Enemy_Phase_1_Alm_2:
	BYTE	KEYSH   Enemy_Phase_1_Alm_key+0
// 000   ----------------------------------------
	BYTE		VOICE   63
	BYTE	W01
	BYTE		VOL     105*Enemy_Phase_1_Alm_mvl/mxv
	BYTE	W02
	BYTE		        106*Enemy_Phase_1_Alm_mvl/mxv
	BYTE	W01
	BYTE		        107*Enemy_Phase_1_Alm_mvl/mxv
	BYTE	W02
	BYTE		        108*Enemy_Phase_1_Alm_mvl/mxv
	BYTE	W01
	BYTE		        111*Enemy_Phase_1_Alm_mvl/mxv
	BYTE	W09
	BYTE		        112*Enemy_Phase_1_Alm_mvl/mxv
	BYTE	W08
	BYTE		        113*Enemy_Phase_1_Alm_mvl/mxv
	BYTE	W72
Enemy_Phase_1_Alm_2_B1:
// 001   ----------------------------------------
	BYTE	W80
	BYTE	W02
	BYTE	W05
	BYTE	W02
	BYTE	W02
	BYTE	W01
	BYTE	W02
	BYTE	W01
	BYTE	W01
// 002   ----------------------------------------
	BYTE		N16     Cn3   v100
	BYTE	W01
	BYTE	W01
	BYTE	W01
	BYTE	W01
	BYTE	W01
	BYTE	W02
	BYTE	W01
	BYTE	W01
	BYTE	W02
	BYTE	W07
	BYTE		N05     Gn3 
	BYTE	W06
	BYTE		N42     Fs3 
	BYTE	W48
	BYTE		N07     Dn3 
	BYTE	W08
	BYTE		        Fn3 
	BYTE	W08
	BYTE		        Dn3 
	BYTE	W08
// 003   ----------------------------------------
	BYTE		N16     Cn3 
	BYTE	W18
	BYTE		N05     Gn3 
	BYTE	W06
	BYTE		N42     Fs3 
	BYTE	W48
	BYTE		N07     Dn3 
	BYTE	W08
	BYTE		        Fn3 
	BYTE	W08
	BYTE		        Dn3 
	BYTE	W08
// 004   ----------------------------------------
	BYTE		N16     An2 
	BYTE	W18
	BYTE		N05     En3 
	BYTE	W06
	BYTE		N42     Dn3 
	BYTE	W48
	BYTE		N07     Cn3 
	BYTE	W08
	BYTE		        Dn3 
	BYTE	W08
	BYTE		        As2 
	BYTE	W08
// 005   ----------------------------------------
	BYTE		N84     An2 
	BYTE	W96
// 006   ----------------------------------------
	BYTE		N16     Gn2 
	BYTE	W18
	BYTE		N05     As2 
	BYTE	W06
	BYTE		N21     Fs3 
	BYTE	W24
	BYTE		N42     Fn3 
	BYTE	W48
// 007   ----------------------------------------
	BYTE		N16     Gn2 
	BYTE	W18
	BYTE		N05     As2 
	BYTE	W06
	BYTE		N21     Gn3 
	BYTE	W24
	BYTE		N42     Fs3 
	BYTE	W48
// 008   ----------------------------------------
	BYTE		N07     En3 
	BYTE	W08
	BYTE		        Dn3 
	BYTE	W08
	BYTE		        En3 
	BYTE	W08
	BYTE		        Fn3 
	BYTE	W08
	BYTE		        Gn3 
	BYTE	W08
	BYTE		        Fn3 
	BYTE	W08
	BYTE		        En3 
	BYTE	W08
	BYTE		        Dn3 
	BYTE	W08
	BYTE		        En3 
	BYTE	W08
	BYTE		        Fn3 
	BYTE	W08
	BYTE		        Gn3 
	BYTE	W08
	BYTE		        Fn3 
	BYTE	W08
// 009   ----------------------------------------
	BYTE		N84     En3 
	BYTE	W96
// 010   ----------------------------------------
	BYTE	W96
// 011   ----------------------------------------
	BYTE	W96
// 012   ----------------------------------------
	BYTE	W96
// 013   ----------------------------------------
	BYTE	W96
// 014   ----------------------------------------
	BYTE	W96
// 015   ----------------------------------------
	BYTE	W96
// 016   ----------------------------------------
	BYTE		N64     Cs3 
	BYTE	W72
	BYTE		N21     Fs2 
	BYTE	W24
// 017   ----------------------------------------
	BYTE		N64     Gs2 
	BYTE	W72
	BYTE		N21     Bn2 
	BYTE	W24
// 018   ----------------------------------------
	BYTE		N14     An2 
	BYTE	W16
	BYTE		N07     En3 
	BYTE	W08
	BYTE		TIE     Cs3 
	BYTE	W72
// 019   ----------------------------------------
	BYTE	W64
	BYTE		EOT   
	BYTE	W32
// 020   ----------------------------------------
	BYTE	W96
// 021   ----------------------------------------
	BYTE	W96
// 022   ----------------------------------------
	BYTE	W96
// 023   ----------------------------------------
	BYTE	W96
// 024   ----------------------------------------
	BYTE	W96
// 025   ----------------------------------------
	BYTE	W96
// 026   ----------------------------------------
	BYTE	W96
// 027   ----------------------------------------
	BYTE	W96
// 028   ----------------------------------------
	BYTE	W96
// 029   ----------------------------------------
	BYTE	W96
// 030   ----------------------------------------
	BYTE		N42     En3 
	BYTE	W48
	BYTE		        Dn3 
	BYTE	W48
// 031   ----------------------------------------
	BYTE		N21     Cn3 
	BYTE	W24
	BYTE		        An2 
	BYTE	W24
	BYTE		        Gs2 
	BYTE	W24
	BYTE		        Bn2 
	BYTE	W24
// 032   ----------------------------------------
	BYTE		TIE     An2 
	BYTE	W96
// 033   ----------------------------------------
	BYTE	W42
	BYTE	W01
	BYTE		EOT   
	BYTE	W52
	BYTE	W01
	BYTE	GoTo
	 POIN2	Enemy_Phase_1_Alm_2_B1
Enemy_Phase_1_Alm_2_B2:
// 034   ----------------------------------------
	BYTE	W96
// 035   ----------------------------------------
	BYTE	W96
// 036   ----------------------------------------
	BYTE	W96
// 037   ----------------------------------------
	BYTE	W96
// 038   ----------------------------------------
	BYTE	W96
// 039   ----------------------------------------
	BYTE	W96
// 040   ----------------------------------------
	BYTE	W96
// 041   ----------------------------------------
	BYTE	W96
// 042   ----------------------------------------
	BYTE	W96
// 043   ----------------------------------------
	BYTE	W96
// 044   ----------------------------------------
	BYTE	W96
// 045   ----------------------------------------
	BYTE	W96
// 046   ----------------------------------------
	BYTE	W96
// 047   ----------------------------------------
	BYTE	W96
// 048   ----------------------------------------
	BYTE	W96
// 049   ----------------------------------------
	BYTE	W96
// 050   ----------------------------------------
	BYTE	W96
// 051   ----------------------------------------
	BYTE	W96
// 052   ----------------------------------------
	BYTE	W96
// 053   ----------------------------------------
	BYTE	W96
// 054   ----------------------------------------
	BYTE	W96
// 055   ----------------------------------------
	BYTE	W96
// 056   ----------------------------------------
	BYTE	W96
// 057   ----------------------------------------
	BYTE	W96
// 058   ----------------------------------------
	BYTE	W96
// 059   ----------------------------------------
	BYTE	W96
// 060   ----------------------------------------
	BYTE	W96
// 061   ----------------------------------------
	BYTE	W96
// 062   ----------------------------------------
	BYTE	W96
// 063   ----------------------------------------
	BYTE	W96
// 064   ----------------------------------------
	BYTE	W96
// 065   ----------------------------------------
	BYTE	W96
// 066   ----------------------------------------
	BYTE	W96
// 067   ----------------------------------------
	BYTE	W96
// 068   ----------------------------------------
	BYTE	W96
// 069   ----------------------------------------
	BYTE	W84
	BYTE	W02
	BYTE	FINE

//**************** Track 3 (Midi-Chn.3) ****************//

Enemy_Phase_1_Alm_3:
	BYTE	KEYSH   Enemy_Phase_1_Alm_key+0
// 000   ----------------------------------------
	BYTE		VOICE   60
	BYTE		VOL     109*Enemy_Phase_1_Alm_mvl/mxv
	BYTE		N21     An1   v100
	BYTE		N21     En2 
	BYTE	W24
	BYTE		        An1 
	BYTE		N21     En2 
	BYTE	W24
	BYTE		        An1 
	BYTE		N21     En2 
	BYTE	W24
	BYTE		        As1 
	BYTE		N21     Fn2 
	BYTE	W24
Enemy_Phase_1_Alm_3_B1:
// 001   ----------------------------------------
Enemy_Phase_1_Alm_3_001:
	BYTE		N21     An1   v100
	BYTE		N21     En2 
	BYTE	W24
	BYTE		        An1 
	BYTE		N21     En2 
	BYTE	W24
	BYTE		        An1 
	BYTE		N21     En2 
	BYTE	W24
	BYTE		        As1 
	BYTE		N21     Fn2 
	BYTE	W24
	BYTE	PEND
// 002   ----------------------------------------
	BYTE	PATT
	 POIN2	Enemy_Phase_1_Alm_3_001
// 003   ----------------------------------------
	BYTE	PATT
	 POIN2	Enemy_Phase_1_Alm_3_001
// 004   ----------------------------------------
	BYTE	PATT
	 POIN2	Enemy_Phase_1_Alm_3_001
// 005   ----------------------------------------
	BYTE		N21     An1   v100
	BYTE		N21     En2 
	BYTE	W24
	BYTE		        An1 
	BYTE		N21     En2 
	BYTE	W24
	BYTE		        An1 
	BYTE		N21     En2 
	BYTE	W24
	BYTE		        Gs1 
	BYTE		N21     Ds2 
	BYTE	W24
// 006   ----------------------------------------
	BYTE	PATT
	 POIN2	Enemy_Phase_1_Alm_3_001
// 007   ----------------------------------------
	BYTE	PATT
	 POIN2	Enemy_Phase_1_Alm_3_001
// 008   ----------------------------------------
	BYTE	PATT
	 POIN2	Enemy_Phase_1_Alm_3_001
// 009   ----------------------------------------
	BYTE		N21     An1   v100
	BYTE		N21     En2 
	BYTE	W24
	BYTE		        An1 
	BYTE		N21     En2 
	BYTE	W24
	BYTE		        An1 
	BYTE		N21     En2 
	BYTE	W24
	BYTE		        Gn1 
	BYTE		N21     Dn2 
	BYTE	W24
// 010   ----------------------------------------
Enemy_Phase_1_Alm_3_010:
	BYTE		N21     Fs1   v100
	BYTE		N21     Cs2 
	BYTE	W24
	BYTE		        Fs1 
	BYTE		N21     Cs2 
	BYTE	W24
	BYTE		        Fs1 
	BYTE		N21     Cs2 
	BYTE	W24
	BYTE		        Gn1 
	BYTE		N21     Dn2 
	BYTE	W24
	BYTE	PEND
// 011   ----------------------------------------
	BYTE	PATT
	 POIN2	Enemy_Phase_1_Alm_3_010
// 012   ----------------------------------------
	BYTE	PATT
	 POIN2	Enemy_Phase_1_Alm_3_010
// 013   ----------------------------------------
	BYTE	PATT
	 POIN2	Enemy_Phase_1_Alm_3_010
// 014   ----------------------------------------
	BYTE	PATT
	 POIN2	Enemy_Phase_1_Alm_3_010
// 015   ----------------------------------------
Enemy_Phase_1_Alm_3_015:
	BYTE		N21     Fs1   v100
	BYTE		N21     Cs2 
	BYTE	W24
	BYTE		        Fs1 
	BYTE		N21     Cs2 
	BYTE	W24
	BYTE		        Fs1 
	BYTE		N21     Cs2 
	BYTE	W24
	BYTE		        Fn1 
	BYTE		N21     Cn2 
	BYTE	W24
	BYTE	PEND
// 016   ----------------------------------------
	BYTE	PATT
	 POIN2	Enemy_Phase_1_Alm_3_010
// 017   ----------------------------------------
	BYTE	PATT
	 POIN2	Enemy_Phase_1_Alm_3_010
// 018   ----------------------------------------
	BYTE	PATT
	 POIN2	Enemy_Phase_1_Alm_3_010
// 019   ----------------------------------------
	BYTE	PATT
	 POIN2	Enemy_Phase_1_Alm_3_015
// 020   ----------------------------------------
Enemy_Phase_1_Alm_3_020:
	BYTE		N10     Fs1   v100
	BYTE		N10     Cs2 
	BYTE	W12
	BYTE		        Fs1 
	BYTE		N10     Cs2 
	BYTE	W12
	BYTE		        Gn1 
	BYTE		N10     Dn2 
	BYTE	W12
	BYTE		        Gn1 
	BYTE		N10     Dn2 
	BYTE	W12
	BYTE		        Fs1 
	BYTE		N10     Cs2 
	BYTE	W12
	BYTE		        Fs1 
	BYTE		N10     Cs2 
	BYTE	W12
	BYTE		        Gn1 
	BYTE		N10     Dn2 
	BYTE	W12
	BYTE		        Gn1 
	BYTE		N10     Dn2 
	BYTE	W12
	BYTE	PEND
// 021   ----------------------------------------
	BYTE	PATT
	 POIN2	Enemy_Phase_1_Alm_3_020
// 022   ----------------------------------------
	BYTE	PATT
	 POIN2	Enemy_Phase_1_Alm_3_020
// 023   ----------------------------------------
	BYTE	PATT
	 POIN2	Enemy_Phase_1_Alm_3_020
// 024   ----------------------------------------
	BYTE	PATT
	 POIN2	Enemy_Phase_1_Alm_3_020
// 025   ----------------------------------------
	BYTE	PATT
	 POIN2	Enemy_Phase_1_Alm_3_020
// 026   ----------------------------------------
Enemy_Phase_1_Alm_3_026:
	BYTE		N10     Gn1   v100
	BYTE		N10     Dn2 
	BYTE	W12
	BYTE		        Gn1 
	BYTE		N10     Dn2 
	BYTE	W12
	BYTE		        Gs1 
	BYTE		N10     Ds2 
	BYTE	W12
	BYTE		        Gs1 
	BYTE		N10     Ds2 
	BYTE	W12
	BYTE		        Gn1 
	BYTE		N10     Dn2 
	BYTE	W12
	BYTE		        Gn1 
	BYTE		N10     Dn2 
	BYTE	W12
	BYTE		        Gs1 
	BYTE		N10     Ds2 
	BYTE	W12
	BYTE		        Gs1 
	BYTE		N10     Ds2 
	BYTE	W12
	BYTE	PEND
// 027   ----------------------------------------
	BYTE	PATT
	 POIN2	Enemy_Phase_1_Alm_3_026
// 028   ----------------------------------------
	BYTE	PATT
	 POIN2	Enemy_Phase_1_Alm_3_026
// 029   ----------------------------------------
	BYTE		N10     Gn1   v100
	BYTE		N10     Dn2 
	BYTE	W12
	BYTE		        Gn1 
	BYTE		N10     Dn2 
	BYTE	W12
	BYTE		        Gs1 
	BYTE		N10     Ds2 
	BYTE	W12
	BYTE		        Gs1 
	BYTE		N10     Ds2 
	BYTE	W12
	BYTE		        Gn1 
	BYTE		N10     Dn2 
	BYTE	W12
	BYTE		        Gn1 
	BYTE		N10     Dn2 
	BYTE	W12
	BYTE		        Fs1 
	BYTE		N10     Cs2 
	BYTE	W12
	BYTE		        Fs1 
	BYTE		N10     Cs2 
	BYTE	W12
// 030   ----------------------------------------
Enemy_Phase_1_Alm_3_030:
	BYTE		N10     An1   v100
	BYTE		N10     En2 
	BYTE	W12
	BYTE		        An1 
	BYTE		N10     En2 
	BYTE	W12
	BYTE		        As1 
	BYTE		N10     Fn2 
	BYTE	W12
	BYTE		        As1 
	BYTE		N10     Fn2 
	BYTE	W12
	BYTE		        An1 
	BYTE		N10     En2 
	BYTE	W12
	BYTE		        An1 
	BYTE		N10     En2 
	BYTE	W12
	BYTE		        As1 
	BYTE		N10     Fn2 
	BYTE	W12
	BYTE		        As1 
	BYTE		N10     Fn2 
	BYTE	W12
	BYTE	PEND
// 031   ----------------------------------------
	BYTE	PATT
	 POIN2	Enemy_Phase_1_Alm_3_030
// 032   ----------------------------------------
	BYTE	PATT
	 POIN2	Enemy_Phase_1_Alm_3_001
// 033   ----------------------------------------
	BYTE	PATT
	 POIN2	Enemy_Phase_1_Alm_3_001
	BYTE	GoTo
	 POIN2	Enemy_Phase_1_Alm_3_B1
Enemy_Phase_1_Alm_3_B2:
// 034   ----------------------------------------
	BYTE	W96
// 035   ----------------------------------------
	BYTE	W96
// 036   ----------------------------------------
	BYTE	W96
// 037   ----------------------------------------
	BYTE	W96
// 038   ----------------------------------------
	BYTE	W96
// 039   ----------------------------------------
	BYTE	W96
// 040   ----------------------------------------
	BYTE	W96
// 041   ----------------------------------------
	BYTE	W96
// 042   ----------------------------------------
	BYTE	W96
// 043   ----------------------------------------
	BYTE	W96
// 044   ----------------------------------------
	BYTE	W96
// 045   ----------------------------------------
	BYTE	W96
// 046   ----------------------------------------
	BYTE	W96
// 047   ----------------------------------------
	BYTE	W96
// 048   ----------------------------------------
	BYTE	W96
// 049   ----------------------------------------
	BYTE	W96
// 050   ----------------------------------------
	BYTE	W96
// 051   ----------------------------------------
	BYTE	W96
// 052   ----------------------------------------
	BYTE	W96
// 053   ----------------------------------------
	BYTE	W96
// 054   ----------------------------------------
	BYTE	W96
// 055   ----------------------------------------
	BYTE	W96
// 056   ----------------------------------------
	BYTE	W96
// 057   ----------------------------------------
	BYTE	W96
// 058   ----------------------------------------
	BYTE	W96
// 059   ----------------------------------------
	BYTE	W96
// 060   ----------------------------------------
	BYTE	W96
// 061   ----------------------------------------
	BYTE	W96
// 062   ----------------------------------------
	BYTE	W96
// 063   ----------------------------------------
	BYTE	W96
// 064   ----------------------------------------
	BYTE	W96
// 065   ----------------------------------------
	BYTE	W96
// 066   ----------------------------------------
	BYTE	W96
// 067   ----------------------------------------
	BYTE	W96
// 068   ----------------------------------------
	BYTE	W96
// 069   ----------------------------------------
	BYTE	W92
	BYTE	W02
	BYTE	FINE

//**************** Track 4 (Midi-Chn.4) ****************//

Enemy_Phase_1_Alm_4:
	BYTE		VOL     127*Enemy_Phase_1_Alm_mvl/mxv
	BYTE	KEYSH   Enemy_Phase_1_Alm_key+0
// 000   ----------------------------------------
	BYTE		VOICE   6
	BYTE	W96
Enemy_Phase_1_Alm_4_B1:
// 001   ----------------------------------------
	BYTE	W96
// 002   ----------------------------------------
	BYTE	W96
// 003   ----------------------------------------
	BYTE	W96
// 004   ----------------------------------------
	BYTE	W96
// 005   ----------------------------------------
	BYTE	W96
// 006   ----------------------------------------
	BYTE	W96
// 007   ----------------------------------------
	BYTE	W96
// 008   ----------------------------------------
	BYTE	W96
// 009   ----------------------------------------
	BYTE	W96
// 010   ----------------------------------------
	BYTE	W96
// 011   ----------------------------------------
	BYTE	W96
// 012   ----------------------------------------
	BYTE	W96
// 013   ----------------------------------------
	BYTE	W96
// 014   ----------------------------------------
	BYTE	W96
// 015   ----------------------------------------
	BYTE	W96
// 016   ----------------------------------------
	BYTE	W96
// 017   ----------------------------------------
	BYTE	W96
// 018   ----------------------------------------
	BYTE	W96
// 019   ----------------------------------------
	BYTE	W96
// 020   ----------------------------------------
	BYTE	W96
// 021   ----------------------------------------
	BYTE	W96
// 022   ----------------------------------------
	BYTE		N21     Cs3   v124
	BYTE	W01
	BYTE	W01
	BYTE	W01
	BYTE	W01
	BYTE	W01
	BYTE	W01
	BYTE	W01
	BYTE	W01
	BYTE	W03
	BYTE	W03
	BYTE	W10
	BYTE		        Fs2 
	BYTE	W24
	BYTE		        Gs2 
	BYTE	W24
	BYTE		        Bn2 
	BYTE	W24
// 023   ----------------------------------------
	BYTE		N42     An2 
	BYTE	W48
	BYTE		        Gs2 
	BYTE	W48
// 024   ----------------------------------------
	BYTE		N21     Fs2 
	BYTE	W24
	BYTE		        Gs2 
	BYTE	W24
	BYTE		        An2 
	BYTE	W24
	BYTE		        En3 
	BYTE	W24
// 025   ----------------------------------------
	BYTE		N84     Cs3 
	BYTE	W68
	BYTE	W02
	BYTE		PAN     c_v+3
	BYTE	W21
	BYTE		        c_v+56
	BYTE	W03
	BYTE		        c_v+57
	BYTE	W02
// 026   ----------------------------------------
	BYTE		N42     Dn3   v127
	BYTE	W48
	BYTE		        Cn3 
	BYTE	W48
// 027   ----------------------------------------
	BYTE		N21     As2 
	BYTE	W24
	BYTE		        An2 
	BYTE	W24
	BYTE		        As2 
	BYTE	W24
	BYTE		        Cn3 
	BYTE	W24
// 028   ----------------------------------------
	BYTE		TIE     Gn2 
	BYTE	W96
// 029   ----------------------------------------
	BYTE	W64
	BYTE		EOT   
	BYTE	W32
// 030   ----------------------------------------
	BYTE		N42     En3 
	BYTE	W48
	BYTE		        Dn3 
	BYTE	W48
// 031   ----------------------------------------
	BYTE		N21     Cn3 
	BYTE	W24
	BYTE		        An2 
	BYTE	W24
	BYTE		        Gs2 
	BYTE	W24
	BYTE		        Bn2 
	BYTE	W24
// 032   ----------------------------------------
	BYTE		TIE     An2 
	BYTE	W96
// 033   ----------------------------------------
	BYTE	W42
	BYTE	W01
	BYTE		EOT   
	BYTE	W48
	BYTE		PAN     c_v+2
	BYTE	W05
	BYTE	GoTo
	 POIN2	Enemy_Phase_1_Alm_4_B1
Enemy_Phase_1_Alm_4_B2:
// 034   ----------------------------------------
	BYTE	W96
// 035   ----------------------------------------
	BYTE	W96
// 036   ----------------------------------------
	BYTE	W96
// 037   ----------------------------------------
	BYTE	W96
// 038   ----------------------------------------
	BYTE	W96
// 039   ----------------------------------------
	BYTE	W96
// 040   ----------------------------------------
	BYTE	W96
// 041   ----------------------------------------
	BYTE	W96
// 042   ----------------------------------------
	BYTE	W96
// 043   ----------------------------------------
	BYTE	W96
// 044   ----------------------------------------
	BYTE	W96
// 045   ----------------------------------------
	BYTE	W96
// 046   ----------------------------------------
	BYTE	W96
// 047   ----------------------------------------
	BYTE	W96
// 048   ----------------------------------------
	BYTE	W96
// 049   ----------------------------------------
	BYTE	W96
// 050   ----------------------------------------
	BYTE	W96
// 051   ----------------------------------------
	BYTE	W96
// 052   ----------------------------------------
	BYTE	W96
// 053   ----------------------------------------
	BYTE	W96
// 054   ----------------------------------------
	BYTE	W96
// 055   ----------------------------------------
	BYTE	W96
// 056   ----------------------------------------
	BYTE	W96
// 057   ----------------------------------------
	BYTE	W96
// 058   ----------------------------------------
	BYTE	W96
// 059   ----------------------------------------
	BYTE	W96
// 060   ----------------------------------------
	BYTE	W96
// 061   ----------------------------------------
	BYTE	W96
// 062   ----------------------------------------
	BYTE	W96
// 063   ----------------------------------------
	BYTE	W96
// 064   ----------------------------------------
	BYTE	W96
// 065   ----------------------------------------
	BYTE	W42
	BYTE	W01
	BYTE	FINE

//**************** Track 5 (Midi-Chn.5) ****************//

Enemy_Phase_1_Alm_5:
	BYTE		VOL     127*Enemy_Phase_1_Alm_mvl/mxv
	BYTE	KEYSH   Enemy_Phase_1_Alm_key+0
// 000   ----------------------------------------
	BYTE		VOICE   57
	BYTE	W96
Enemy_Phase_1_Alm_5_B1:
// 001   ----------------------------------------
	BYTE	W96
// 002   ----------------------------------------
	BYTE	W96
// 003   ----------------------------------------
	BYTE	W96
// 004   ----------------------------------------
	BYTE	W96
// 005   ----------------------------------------
	BYTE	W96
// 006   ----------------------------------------
	BYTE	W96
// 007   ----------------------------------------
	BYTE	W96
// 008   ----------------------------------------
	BYTE	W96
// 009   ----------------------------------------
	BYTE	W96
// 010   ----------------------------------------
	BYTE	W96
// 011   ----------------------------------------
	BYTE	W96
// 012   ----------------------------------------
	BYTE	W96
// 013   ----------------------------------------
	BYTE	W96
// 014   ----------------------------------------
	BYTE	W96
// 015   ----------------------------------------
	BYTE	W96
// 016   ----------------------------------------
	BYTE		N42     Cs4   v084
	BYTE	W48
	BYTE		        Bn3 
	BYTE	W48
// 017   ----------------------------------------
	BYTE		N21     An3 
	BYTE	W24
	BYTE		        Gs3 
	BYTE	W24
	BYTE		        An3   v088
	BYTE	W24
	BYTE		        Bn3 
	BYTE	W24
// 018   ----------------------------------------
	BYTE		TIE     Fs3 
	BYTE	W96
// 019   ----------------------------------------
	BYTE	W64
	BYTE		EOT   
	BYTE	W32
// 020   ----------------------------------------
	BYTE	W96
// 021   ----------------------------------------
	BYTE	W56
	BYTE	W02
	BYTE	W01
	BYTE	W02
	BYTE	W01
	BYTE	W01
	BYTE		VOL     110*Enemy_Phase_1_Alm_mvl/mxv
	BYTE	W01
	BYTE		        111*Enemy_Phase_1_Alm_mvl/mxv
	BYTE	W01
	BYTE	W01
	BYTE		        112*Enemy_Phase_1_Alm_mvl/mxv
	BYTE	W01
	BYTE		        114*Enemy_Phase_1_Alm_mvl/mxv
	BYTE	W01
	BYTE	W01
	BYTE		        115*Enemy_Phase_1_Alm_mvl/mxv
	BYTE	W01
	BYTE		        116*Enemy_Phase_1_Alm_mvl/mxv
	BYTE	W01
	BYTE	W02
	BYTE	W01
	BYTE	W02
	BYTE	W04
	BYTE	W03
	BYTE	W03
	BYTE	W01
	BYTE	W01
	BYTE	W02
	BYTE	W01
	BYTE	W01
	BYTE	W01
	BYTE	W01
	BYTE	W01
	BYTE	W01
// 022   ----------------------------------------
	BYTE		N21     Cs3   v124
	BYTE	W01
	BYTE	W01
	BYTE	W01
	BYTE	W01
	BYTE	W01
	BYTE	W01
	BYTE	W01
	BYTE	W01
	BYTE	W03
	BYTE	W03
	BYTE	W10
	BYTE		        Fs2 
	BYTE	W24
	BYTE		        Gs2 
	BYTE	W24
	BYTE		        Bn2 
	BYTE	W24
// 023   ----------------------------------------
	BYTE		N42     An2 
	BYTE	W48
	BYTE		        Gs2 
	BYTE	W48
// 024   ----------------------------------------
	BYTE		N21     Fs2 
	BYTE	W24
	BYTE		        Gs2 
	BYTE	W24
	BYTE		        An2 
	BYTE	W24
	BYTE		        En3 
	BYTE	W24
// 025   ----------------------------------------
	BYTE		N84     Cs3 
	BYTE	W96
// 026   ----------------------------------------
	BYTE		N42     Dn3   v127
	BYTE	W48
	BYTE		        Cn3 
	BYTE	W48
// 027   ----------------------------------------
	BYTE		N21     As2 
	BYTE	W24
	BYTE		        An2 
	BYTE	W24
	BYTE		        As2 
	BYTE	W24
	BYTE		        Cn3 
	BYTE	W24
// 028   ----------------------------------------
	BYTE		TIE     Gn2 
	BYTE	W96
// 029   ----------------------------------------
	BYTE	W64
	BYTE		EOT   
	BYTE	W28
	BYTE	W01
	BYTE		PAN     c_v-35
	BYTE	W03
// 030   ----------------------------------------
	BYTE		N42     En3 
	BYTE	W05
	BYTE		PAN     c_v-36
	BYTE	W42
	BYTE	W01
	BYTE		N42     Dn3 
	BYTE	W48
// 031   ----------------------------------------
	BYTE		N21     Cn3 
	BYTE	W24
	BYTE		        An2 
	BYTE	W24
	BYTE		        Gs2 
	BYTE	W24
	BYTE		        Bn2 
	BYTE	W14
	BYTE		PAN     c_v-37
	BYTE	W10
// 032   ----------------------------------------
	BYTE		TIE     An2 
	BYTE	W06
	BYTE		PAN     c_v-36
	BYTE	W90
// 033   ----------------------------------------
	BYTE	W42
	BYTE	W01
	BYTE		EOT   
	BYTE	W42
	BYTE		PAN     c_v+0
	BYTE	W10
	BYTE		        c_v+1
	BYTE	W01
	BYTE	GoTo
	 POIN2	Enemy_Phase_1_Alm_5_B1
Enemy_Phase_1_Alm_5_B2:
// 034   ----------------------------------------
	BYTE	W96
// 035   ----------------------------------------
	BYTE	W96
// 036   ----------------------------------------
	BYTE	W96
// 037   ----------------------------------------
	BYTE	W96
// 038   ----------------------------------------
	BYTE	W96
// 039   ----------------------------------------
	BYTE	W96
// 040   ----------------------------------------
	BYTE	W96
// 041   ----------------------------------------
	BYTE	W96
// 042   ----------------------------------------
	BYTE	W96
// 043   ----------------------------------------
	BYTE	W96
// 044   ----------------------------------------
	BYTE	W96
// 045   ----------------------------------------
	BYTE	W96
// 046   ----------------------------------------
	BYTE	W96
// 047   ----------------------------------------
	BYTE	W96
// 048   ----------------------------------------
	BYTE	W96
// 049   ----------------------------------------
	BYTE	W96
// 050   ----------------------------------------
	BYTE	W96
// 051   ----------------------------------------
	BYTE	W96
// 052   ----------------------------------------
	BYTE	W96
// 053   ----------------------------------------
	BYTE	W96
// 054   ----------------------------------------
	BYTE	W96
// 055   ----------------------------------------
	BYTE	W96
// 056   ----------------------------------------
	BYTE	W96
// 057   ----------------------------------------
	BYTE	W96
// 058   ----------------------------------------
	BYTE	W96
// 059   ----------------------------------------
	BYTE	W96
// 060   ----------------------------------------
	BYTE	W96
// 061   ----------------------------------------
	BYTE	W96
// 062   ----------------------------------------
	BYTE	W96
// 063   ----------------------------------------
	BYTE	W96
// 064   ----------------------------------------
	BYTE	W96
// 065   ----------------------------------------
	BYTE	W42
	BYTE	W01
	BYTE	FINE

//**************** Track 6 (Midi-Chn.6) ****************//

Enemy_Phase_1_Alm_6:
	BYTE		VOL     127*Enemy_Phase_1_Alm_mvl/mxv
	BYTE	KEYSH   Enemy_Phase_1_Alm_key+0
// 000   ----------------------------------------
	BYTE		VOICE   121
	BYTE		N01     Cs0   v100
	BYTE		N01     An0 
	BYTE		N01     Bn0 
	BYTE		N01     Cn1 
	BYTE		N01     Fs1 
	BYTE	W12
	BYTE		N01   
	BYTE	W06
	BYTE		N01   
	BYTE	W06
	BYTE		        Cs0 
	BYTE		N01     An0 
	BYTE		N01     Cn1 
	BYTE		N01     Fs1 
	BYTE	W12
	BYTE		N01   
	BYTE	W06
	BYTE		N01   
	BYTE	W06
	BYTE		        Cs0 
	BYTE		N01     An0 
	BYTE		N01     Bn0 
	BYTE		N01     Cn1 
	BYTE		N01     Fs1 
	BYTE	W12
	BYTE		N01   
	BYTE	W06
	BYTE		N01   
	BYTE	W06
	BYTE		N21     Cs0 
	BYTE		N01     An0 
	BYTE		N01     Cn1 
	BYTE		N01     Fs1 
	BYTE	W06
	BYTE		N01   
	BYTE	W06
	BYTE		N01   
	BYTE	W06
	BYTE		N01   
	BYTE	W06
Enemy_Phase_1_Alm_6_B1:
// 001   ----------------------------------------
Enemy_Phase_1_Alm_6_001:
	BYTE		N01     Cs0   v100
	BYTE		N01     An0 
	BYTE		N01     Bn0 
	BYTE		N01     Cn1 
	BYTE		N01     Fs1 
	BYTE	W12
	BYTE		N01   
	BYTE	W06
	BYTE		N01   
	BYTE	W06
	BYTE		        Cs0 
	BYTE		N01     An0 
	BYTE		N01     Cn1 
	BYTE		N01     Fs1 
	BYTE	W12
	BYTE		N01   
	BYTE	W06
	BYTE		N01   
	BYTE	W06
	BYTE		        Cs0 
	BYTE		N01     An0 
	BYTE		N01     Bn0 
	BYTE		N01     Cn1 
	BYTE		N01     Fs1 
	BYTE	W12
	BYTE		N01   
	BYTE	W06
	BYTE		N01   
	BYTE	W06
	BYTE		N21     Cs0 
	BYTE		N01     An0 
	BYTE		N01     Cn1 
	BYTE		N01     Fs1 
	BYTE	W06
	BYTE		N01   
	BYTE	W06
	BYTE		N01   
	BYTE	W06
	BYTE		N01   
	BYTE	W06
	BYTE	PEND
// 002   ----------------------------------------
Enemy_Phase_1_Alm_6_002:
	BYTE		N01     Cs0   v100
	BYTE		N01     An0 
	BYTE		N01     Bn0 
	BYTE		N01     Cn1 
	BYTE		N01     Fs1 
	BYTE		N01     Cs2 
	BYTE	W12
	BYTE		        Fs1 
	BYTE	W06
	BYTE		N01   
	BYTE	W06
	BYTE		        Cs0 
	BYTE		N01     An0 
	BYTE		N01     Cn1 
	BYTE		N01     Fs1 
	BYTE	W12
	BYTE		N01   
	BYTE	W06
	BYTE		N01   
	BYTE	W06
	BYTE		        Cs0 
	BYTE		N01     An0 
	BYTE		N01     Bn0 
	BYTE		N01     Cn1 
	BYTE		N01     Fs1 
	BYTE	W12
	BYTE		N01   
	BYTE	W06
	BYTE		N01   
	BYTE	W06
	BYTE		N21     Cs0 
	BYTE		N01     An0 
	BYTE		N01     Cn1 
	BYTE		N01     Fs1 
	BYTE	W06
	BYTE		N01   
	BYTE	W06
	BYTE		N01   
	BYTE	W06
	BYTE		N01   
	BYTE	W06
	BYTE	PEND
// 003   ----------------------------------------
	BYTE	PATT
	 POIN2	Enemy_Phase_1_Alm_6_001
// 004   ----------------------------------------
	BYTE	W02
	BYTE		N01     Cs0   v100
	BYTE		N01     An0 
	BYTE		N01     Bn0 
	BYTE		N01     Cn1 
	BYTE		N01     Fs1 
	BYTE	W12
	BYTE		N01   
	BYTE	W06
	BYTE		N01   
	BYTE	W06
	BYTE		        Cs0 
	BYTE		N01     An0 
	BYTE		N01     Cn1 
	BYTE		N01     Fs1 
	BYTE	W12
	BYTE		N01   
	BYTE	W06
	BYTE		N01   
	BYTE	W06
	BYTE		        Cs0 
	BYTE		N01     An0 
	BYTE		N01     Bn0 
	BYTE		N01     Cn1 
	BYTE		N01     Fs1 
	BYTE	W12
	BYTE		N01   
	BYTE	W06
	BYTE		N01   
	BYTE	W06
	BYTE		N21     Cs0 
	BYTE		N01     An0 
	BYTE		N01     Cn1 
	BYTE		N01     Fs1 
	BYTE	W06
	BYTE		N01   
	BYTE	W06
	BYTE		N01   
	BYTE	W06
	BYTE		N01   
	BYTE	W04
// 005   ----------------------------------------
	BYTE	W02
	BYTE		        Cs0 
	BYTE		N01     An0 
	BYTE		N01     Bn0 
	BYTE		N01     Cn1 
	BYTE		N01     Fs1 
	BYTE	W12
	BYTE		N01   
	BYTE	W06
	BYTE		N01   
	BYTE	W06
	BYTE		        Cs0 
	BYTE		N01     An0 
	BYTE		N01     Cn1 
	BYTE		N01     Fs1 
	BYTE	W12
	BYTE		N01   
	BYTE	W06
	BYTE		N01   
	BYTE	W06
	BYTE		        Cs0 
	BYTE		N01     An0 
	BYTE		N01     Bn0 
	BYTE		N01     Cn1 
	BYTE		N01     Fs1 
	BYTE	W12
	BYTE		N01   
	BYTE	W06
	BYTE		N01   
	BYTE	W06
	BYTE		N22     Cs0 
	BYTE		N01     An0 
	BYTE		N01     Cn1 
	BYTE		N01     Fs1 
	BYTE	W06
	BYTE		N01   
	BYTE	W06
	BYTE		N01   
	BYTE	W06
	BYTE		N01   
	BYTE	W04
// 006   ----------------------------------------
	BYTE		        An0 
	BYTE		N01     Bn0 
	BYTE		N01     Cn1 
	BYTE		N01     Fs1 
	BYTE	W12
	BYTE		N01   
	BYTE	W06
	BYTE		N01   
	BYTE	W06
	BYTE		        Cs0 
	BYTE		N01     An0 
	BYTE		N01     Cn1 
	BYTE		N01     Fs1 
	BYTE	W12
	BYTE		N01   
	BYTE	W06
	BYTE		N01   
	BYTE	W06
	BYTE		        Cs0 
	BYTE		N01     An0 
	BYTE		N01     Bn0 
	BYTE		N01     Cn1 
	BYTE		N01     Fs1 
	BYTE	W12
	BYTE		N01   
	BYTE	W06
	BYTE		N01   
	BYTE	W06
	BYTE		N21     Cs0 
	BYTE		N01     An0 
	BYTE		N01     Cn1 
	BYTE		N01     Fs1 
	BYTE	W06
	BYTE		N01   
	BYTE	W06
	BYTE		N01   
	BYTE	W06
	BYTE		N01   
	BYTE	W06
// 007   ----------------------------------------
	BYTE	PATT
	 POIN2	Enemy_Phase_1_Alm_6_001
// 008   ----------------------------------------
	BYTE	PATT
	 POIN2	Enemy_Phase_1_Alm_6_001
// 009   ----------------------------------------
	BYTE	PATT
	 POIN2	Enemy_Phase_1_Alm_6_001
// 010   ----------------------------------------
	BYTE	PATT
	 POIN2	Enemy_Phase_1_Alm_6_002
// 011   ----------------------------------------
	BYTE	PATT
	 POIN2	Enemy_Phase_1_Alm_6_001
// 012   ----------------------------------------
	BYTE	PATT
	 POIN2	Enemy_Phase_1_Alm_6_001
// 013   ----------------------------------------
	BYTE	PATT
	 POIN2	Enemy_Phase_1_Alm_6_001
// 014   ----------------------------------------
	BYTE	PATT
	 POIN2	Enemy_Phase_1_Alm_6_001
// 015   ----------------------------------------
	BYTE	PATT
	 POIN2	Enemy_Phase_1_Alm_6_001
// 016   ----------------------------------------
	BYTE	PATT
	 POIN2	Enemy_Phase_1_Alm_6_001
// 017   ----------------------------------------
	BYTE	PATT
	 POIN2	Enemy_Phase_1_Alm_6_001
// 018   ----------------------------------------
	BYTE	PATT
	 POIN2	Enemy_Phase_1_Alm_6_001
// 019   ----------------------------------------
	BYTE	PATT
	 POIN2	Enemy_Phase_1_Alm_6_001
// 020   ----------------------------------------
	BYTE	PATT
	 POIN2	Enemy_Phase_1_Alm_6_001
// 021   ----------------------------------------
	BYTE	PATT
	 POIN2	Enemy_Phase_1_Alm_6_001
// 022   ----------------------------------------
	BYTE	PATT
	 POIN2	Enemy_Phase_1_Alm_6_002
// 023   ----------------------------------------
	BYTE	PATT
	 POIN2	Enemy_Phase_1_Alm_6_001
// 024   ----------------------------------------
	BYTE	PATT
	 POIN2	Enemy_Phase_1_Alm_6_001
// 025   ----------------------------------------
	BYTE	PATT
	 POIN2	Enemy_Phase_1_Alm_6_001
// 026   ----------------------------------------
	BYTE	PATT
	 POIN2	Enemy_Phase_1_Alm_6_001
// 027   ----------------------------------------
	BYTE	PATT
	 POIN2	Enemy_Phase_1_Alm_6_001
// 028   ----------------------------------------
	BYTE	PATT
	 POIN2	Enemy_Phase_1_Alm_6_001
// 029   ----------------------------------------
	BYTE	PATT
	 POIN2	Enemy_Phase_1_Alm_6_001
// 030   ----------------------------------------
	BYTE	PATT
	 POIN2	Enemy_Phase_1_Alm_6_001
// 031   ----------------------------------------
	BYTE		N01     Cs0   v100
	BYTE		N01     An0 
	BYTE		N01     Bn0 
	BYTE		N01     Cn1 
	BYTE		N01     Fs1 
	BYTE	W12
	BYTE		N01   
	BYTE	W06
	BYTE		N01   
	BYTE	W06
	BYTE		        Cs0 
	BYTE		N01     An0 
	BYTE		N01     Cn1 
	BYTE		N01     Fs1 
	BYTE	W12
	BYTE		N01   
	BYTE	W06
	BYTE		N01   
	BYTE	W06
	BYTE		N24     Cs0 
	BYTE		N01     An0 
	BYTE		N01     Bn0 
	BYTE		N01     Cn1 
	BYTE		N01     Fs1 
	BYTE		N01     Ds2 
	BYTE	W08
	BYTE		        Cn1 
	BYTE	W04
	BYTE		        Fs1 
	BYTE	W04
	BYTE		        Cn1 
	BYTE	W02
	BYTE		        Fs1 
	BYTE	W06
	BYTE		N21     Cs0 
	BYTE		N01     An0 
	BYTE		N01     Cn1 
	BYTE		N01     Fs1 
	BYTE	W06
	BYTE		N01   
	BYTE	W02
	BYTE		        Cn1 
	BYTE	W04
	BYTE		        Fs1 
	BYTE	W04
	BYTE		        Cn1 
	BYTE	W02
	BYTE		        Fs1 
	BYTE	W06
// 032   ----------------------------------------
	BYTE	PATT
	 POIN2	Enemy_Phase_1_Alm_6_002
// 033   ----------------------------------------
	BYTE	PATT
	 POIN2	Enemy_Phase_1_Alm_6_001
	BYTE	GoTo
	 POIN2	Enemy_Phase_1_Alm_6_B1
Enemy_Phase_1_Alm_6_B2:
// 034   ----------------------------------------
	BYTE	W96
// 035   ----------------------------------------
	BYTE	W96
// 036   ----------------------------------------
	BYTE	W96
// 037   ----------------------------------------
	BYTE	W96
// 038   ----------------------------------------
	BYTE	W96
// 039   ----------------------------------------
	BYTE	W96
// 040   ----------------------------------------
	BYTE	W96
// 041   ----------------------------------------
	BYTE	W96
// 042   ----------------------------------------
	BYTE	W96
// 043   ----------------------------------------
	BYTE	W96
// 044   ----------------------------------------
	BYTE	W96
// 045   ----------------------------------------
	BYTE	W96
// 046   ----------------------------------------
	BYTE	W96
// 047   ----------------------------------------
	BYTE	W96
// 048   ----------------------------------------
	BYTE	W96
// 049   ----------------------------------------
	BYTE	W96
// 050   ----------------------------------------
	BYTE	W96
// 051   ----------------------------------------
	BYTE	W96
// 052   ----------------------------------------
	BYTE	W96
// 053   ----------------------------------------
	BYTE	W96
// 054   ----------------------------------------
	BYTE	W96
// 055   ----------------------------------------
	BYTE	W96
// 056   ----------------------------------------
	BYTE	W96
// 057   ----------------------------------------
	BYTE	W96
// 058   ----------------------------------------
	BYTE	W96
// 059   ----------------------------------------
	BYTE	W96
// 060   ----------------------------------------
	BYTE	W96
// 061   ----------------------------------------
	BYTE	W96
// 062   ----------------------------------------
	BYTE	W96
// 063   ----------------------------------------
	BYTE	W96
// 064   ----------------------------------------
	BYTE	W96
// 065   ----------------------------------------
	BYTE	W96
// 066   ----------------------------------------
	BYTE	W96
// 067   ----------------------------------------
	BYTE	W96
// 068   ----------------------------------------
	BYTE	W96
// 069   ----------------------------------------
	BYTE	W96
// 070   ----------------------------------------
	BYTE	FINE

//******************************************************//
	ALIGN 4

Enemy_Phase_1_Alm:
	BYTE	6	// NumTrks
	BYTE	0	// NumBlks
	BYTE	Enemy_Phase_1_Alm_pri	// Priority
	BYTE	Enemy_Phase_1_Alm_rev	// Reverb.

	POIN2	Enemy_Phase_1_Alm_grp

	POIN2	Enemy_Phase_1_Alm_1
	POIN2	Enemy_Phase_1_Alm_2
	POIN2	Enemy_Phase_1_Alm_3
	POIN2	Enemy_Phase_1_Alm_4
	POIN2	Enemy_Phase_1_Alm_5
	POIN2	Enemy_Phase_1_Alm_6

	
