//Event file generated from Sappy .s format.
	#include "MPlayDef.event"

	#define	isaachtest_grp  voicegroup000
	#define	isaachtest_pri  0
	#define	isaachtest_rev  0
	#define	isaachtest_mvl  73
	#define	isaachtest_key  0
	#define	isaachtest_tbs  1
	#define	isaachtest_exg  0
	#define	isaachtest_cmp  1

	// .rodata
	//	isaachtest
	ALIGN 4

//**************** Track 1 (Midi-Chn.1) ****************//

isaachtest_1:
	BYTE	KEYSH   isaachtest_key+0
isaachtest_1_B1:
// 000   ----------------------------------------
	BYTE	TEMPO   124*isaachtest_tbs/2
	BYTE		VOICE   93
	BYTE		VOL     92*isaachtest_mvl/mxv
	BYTE		PAN     c_v+0
	BYTE	W24
	BYTE		N24     An3   v108
	BYTE	W24
	BYTE		        En4 
	BYTE	W24
	BYTE		N06     Dn4 
	BYTE	W06
	BYTE		        Dn4   v056
	BYTE	W06
	BYTE		N05     Cs4   v108
	BYTE	W06
	BYTE		N06     Cs4   v056
	BYTE	W06
// 001   ----------------------------------------
	BYTE		N96     Bn3   v108
	BYTE	W96
// 002   ----------------------------------------
isaachtest_1_002:
	BYTE	W24
	BYTE		N24     An3   v108
	BYTE	W24
	BYTE		        En4 
	BYTE	W24
	BYTE		N06     Dn4 
	BYTE	W06
	BYTE		        Dn4   v056
	BYTE	W06
	BYTE		        Cs4   v108
	BYTE	W06
	BYTE		        Cs4   v056
	BYTE	W06
	BYTE	PEND
// 003   ----------------------------------------
	BYTE		N48     Gn4   v108
	BYTE	W48
	BYTE		N24     Fs4 
	BYTE	W24
	BYTE		        En4 
	BYTE	W24
// 004   ----------------------------------------
	BYTE	PATT
	 POIN2	isaachtest_1_002
// 005   ----------------------------------------
	BYTE		N24     Bn3   v108
	BYTE	W24
	BYTE		        Gn3 
	BYTE	W24
	BYTE		        Dn4 
	BYTE	W24
	BYTE		        Bn3 
	BYTE	W24
// 006   ----------------------------------------
	BYTE	PATT
	 POIN2	isaachtest_1_002
// 007   ----------------------------------------
	BYTE		N96     Gn4   v108
	BYTE	W96
// 008   ----------------------------------------
	BYTE		VOICE   40
	BYTE		VOL     56*isaachtest_mvl/mxv
	BYTE		MOD     0
	BYTE		BEND    c_v-25
	BYTE		N48     Fs4   v076
	BYTE	W01
	BYTE		VOL     64*isaachtest_mvl/mxv
	BYTE		BEND    c_v-18
	BYTE	W01
	BYTE		VOL     72*isaachtest_mvl/mxv
	BYTE		BEND    c_v-10
	BYTE	W02
	BYTE		VOL     80*isaachtest_mvl/mxv
	BYTE		BEND    c_v-2
	BYTE	W02
	BYTE		VOL     84*isaachtest_mvl/mxv
	BYTE		BEND    c_v+0
	BYTE	W01
	BYTE		VOL     88*isaachtest_mvl/mxv
	BYTE	W01
	BYTE		        90*isaachtest_mvl/mxv
	BYTE		MOD     1
	BYTE	W02
	BYTE		VOL     92*isaachtest_mvl/mxv
	BYTE	W02
	BYTE		MOD     2
	BYTE	W36
	BYTE		VOL     56*isaachtest_mvl/mxv
	BYTE		MOD     0
	BYTE		BEND    c_v-25
	BYTE		N72     Cs4 
	BYTE	W01
	BYTE		VOL     64*isaachtest_mvl/mxv
	BYTE		BEND    c_v-18
	BYTE	W01
	BYTE		VOL     72*isaachtest_mvl/mxv
	BYTE		BEND    c_v-10
	BYTE	W02
	BYTE		VOL     80*isaachtest_mvl/mxv
	BYTE		BEND    c_v-2
	BYTE	W02
	BYTE		VOL     84*isaachtest_mvl/mxv
	BYTE		BEND    c_v+0
	BYTE	W01
	BYTE		VOL     88*isaachtest_mvl/mxv
	BYTE	W01
	BYTE		        90*isaachtest_mvl/mxv
	BYTE		MOD     1
	BYTE	W02
	BYTE		VOL     92*isaachtest_mvl/mxv
	BYTE	W02
	BYTE		MOD     2
	BYTE	W36
// 009   ----------------------------------------
	BYTE	W24
	BYTE		VOL     56*isaachtest_mvl/mxv
	BYTE		MOD     0
	BYTE		BEND    c_v-25
	BYTE		N24     Bn3 
	BYTE	W01
	BYTE		VOL     64*isaachtest_mvl/mxv
	BYTE		BEND    c_v-18
	BYTE	W01
	BYTE		VOL     72*isaachtest_mvl/mxv
	BYTE		BEND    c_v-10
	BYTE	W02
	BYTE		VOL     80*isaachtest_mvl/mxv
	BYTE		BEND    c_v-2
	BYTE	W02
	BYTE		VOL     84*isaachtest_mvl/mxv
	BYTE		BEND    c_v+0
	BYTE	W01
	BYTE		VOL     88*isaachtest_mvl/mxv
	BYTE	W01
	BYTE		        90*isaachtest_mvl/mxv
	BYTE		MOD     1
	BYTE	W02
	BYTE		VOL     92*isaachtest_mvl/mxv
	BYTE	W02
	BYTE		MOD     2
	BYTE	W12
	BYTE		VOL     56*isaachtest_mvl/mxv
	BYTE		MOD     0
	BYTE		BEND    c_v-25
	BYTE		N24     Cs4 
	BYTE	W01
	BYTE		VOL     64*isaachtest_mvl/mxv
	BYTE		BEND    c_v-18
	BYTE	W01
	BYTE		VOL     72*isaachtest_mvl/mxv
	BYTE		BEND    c_v-10
	BYTE	W02
	BYTE		VOL     80*isaachtest_mvl/mxv
	BYTE		BEND    c_v-2
	BYTE	W02
	BYTE		VOL     84*isaachtest_mvl/mxv
	BYTE		BEND    c_v+0
	BYTE	W01
	BYTE		VOL     88*isaachtest_mvl/mxv
	BYTE	W01
	BYTE		        90*isaachtest_mvl/mxv
	BYTE		MOD     1
	BYTE	W02
	BYTE		VOL     92*isaachtest_mvl/mxv
	BYTE	W02
	BYTE		MOD     2
	BYTE	W12
	BYTE		N24     Dn4 
	BYTE	W24
// 010   ----------------------------------------
	BYTE		VOL     56*isaachtest_mvl/mxv
	BYTE		MOD     0
	BYTE		BEND    c_v-25
	BYTE		N72     En4 
	BYTE	W01
	BYTE		VOL     64*isaachtest_mvl/mxv
	BYTE		BEND    c_v-18
	BYTE	W01
	BYTE		VOL     72*isaachtest_mvl/mxv
	BYTE		BEND    c_v-10
	BYTE	W02
	BYTE		VOL     80*isaachtest_mvl/mxv
	BYTE		BEND    c_v-2
	BYTE	W02
	BYTE		VOL     84*isaachtest_mvl/mxv
	BYTE		BEND    c_v+0
	BYTE	W01
	BYTE		VOL     88*isaachtest_mvl/mxv
	BYTE	W01
	BYTE		        90*isaachtest_mvl/mxv
	BYTE		MOD     1
	BYTE	W02
	BYTE		VOL     92*isaachtest_mvl/mxv
	BYTE	W02
	BYTE		MOD     2
	BYTE	W60
	BYTE		VOL     56*isaachtest_mvl/mxv
	BYTE		MOD     0
	BYTE		BEND    c_v-25
	BYTE		N24     Cs4 
	BYTE	W01
	BYTE		VOL     64*isaachtest_mvl/mxv
	BYTE		BEND    c_v-18
	BYTE	W01
	BYTE		VOL     72*isaachtest_mvl/mxv
	BYTE		BEND    c_v-10
	BYTE	W02
	BYTE		VOL     80*isaachtest_mvl/mxv
	BYTE		BEND    c_v-2
	BYTE	W02
	BYTE		VOL     84*isaachtest_mvl/mxv
	BYTE		BEND    c_v+0
	BYTE	W01
	BYTE		VOL     88*isaachtest_mvl/mxv
	BYTE	W01
	BYTE		        90*isaachtest_mvl/mxv
	BYTE		MOD     1
	BYTE	W02
	BYTE		VOL     92*isaachtest_mvl/mxv
	BYTE	W02
	BYTE		MOD     2
	BYTE	W12
// 011   ----------------------------------------
	BYTE		VOL     56*isaachtest_mvl/mxv
	BYTE		MOD     0
	BYTE		BEND    c_v-25
	BYTE		N72     An4 
	BYTE	W01
	BYTE		VOL     64*isaachtest_mvl/mxv
	BYTE		BEND    c_v-18
	BYTE	W01
	BYTE		VOL     72*isaachtest_mvl/mxv
	BYTE		BEND    c_v-10
	BYTE	W02
	BYTE		VOL     80*isaachtest_mvl/mxv
	BYTE		BEND    c_v-2
	BYTE	W02
	BYTE		VOL     84*isaachtest_mvl/mxv
	BYTE		BEND    c_v+0
	BYTE	W01
	BYTE		VOL     88*isaachtest_mvl/mxv
	BYTE	W01
	BYTE		        90*isaachtest_mvl/mxv
	BYTE		MOD     1
	BYTE	W02
	BYTE		VOL     92*isaachtest_mvl/mxv
	BYTE	W02
	BYTE		MOD     2
	BYTE	W60
	BYTE		VOL     56*isaachtest_mvl/mxv
	BYTE		MOD     0
	BYTE		BEND    c_v-25
	BYTE		N24     Gs4 
	BYTE	W01
	BYTE		VOL     64*isaachtest_mvl/mxv
	BYTE		BEND    c_v-18
	BYTE	W01
	BYTE		VOL     72*isaachtest_mvl/mxv
	BYTE		BEND    c_v-10
	BYTE	W02
	BYTE		VOL     80*isaachtest_mvl/mxv
	BYTE		BEND    c_v-2
	BYTE	W02
	BYTE		VOL     84*isaachtest_mvl/mxv
	BYTE		BEND    c_v+0
	BYTE	W01
	BYTE		VOL     88*isaachtest_mvl/mxv
	BYTE	W01
	BYTE		        90*isaachtest_mvl/mxv
	BYTE		MOD     1
	BYTE	W02
	BYTE		VOL     92*isaachtest_mvl/mxv
	BYTE	W02
	BYTE		MOD     2
	BYTE	W12
// 012   ----------------------------------------
	BYTE		VOL     56*isaachtest_mvl/mxv
	BYTE		MOD     0
	BYTE		BEND    c_v-25
	BYTE		N48     Fs4 
	BYTE	W01
	BYTE		VOL     64*isaachtest_mvl/mxv
	BYTE		BEND    c_v-18
	BYTE	W01
	BYTE		VOL     72*isaachtest_mvl/mxv
	BYTE		BEND    c_v-10
	BYTE	W02
	BYTE		VOL     80*isaachtest_mvl/mxv
	BYTE		BEND    c_v-2
	BYTE	W02
	BYTE		VOL     84*isaachtest_mvl/mxv
	BYTE		BEND    c_v+0
	BYTE	W01
	BYTE		VOL     88*isaachtest_mvl/mxv
	BYTE	W01
	BYTE		        90*isaachtest_mvl/mxv
	BYTE		MOD     1
	BYTE	W02
	BYTE		VOL     92*isaachtest_mvl/mxv
	BYTE	W02
	BYTE		MOD     2
	BYTE	W36
	BYTE		VOL     56*isaachtest_mvl/mxv
	BYTE		MOD     0
	BYTE		BEND    c_v-25
	BYTE		N72     Cs4 
	BYTE	W01
	BYTE		VOL     64*isaachtest_mvl/mxv
	BYTE		BEND    c_v-18
	BYTE	W01
	BYTE		VOL     72*isaachtest_mvl/mxv
	BYTE		BEND    c_v-10
	BYTE	W02
	BYTE		VOL     80*isaachtest_mvl/mxv
	BYTE		BEND    c_v-2
	BYTE	W02
	BYTE		VOL     84*isaachtest_mvl/mxv
	BYTE		BEND    c_v+0
	BYTE	W01
	BYTE		VOL     88*isaachtest_mvl/mxv
	BYTE	W01
	BYTE		        90*isaachtest_mvl/mxv
	BYTE		MOD     1
	BYTE	W02
	BYTE		VOL     92*isaachtest_mvl/mxv
	BYTE	W02
	BYTE		MOD     2
	BYTE	W36
// 013   ----------------------------------------
	BYTE	W24
	BYTE		VOL     56*isaachtest_mvl/mxv
	BYTE		MOD     0
	BYTE		BEND    c_v-25
	BYTE		N24     Bn3 
	BYTE	W01
	BYTE		VOL     64*isaachtest_mvl/mxv
	BYTE		BEND    c_v-18
	BYTE	W01
	BYTE		VOL     72*isaachtest_mvl/mxv
	BYTE		BEND    c_v-10
	BYTE	W02
	BYTE		VOL     80*isaachtest_mvl/mxv
	BYTE		BEND    c_v-2
	BYTE	W02
	BYTE		VOL     84*isaachtest_mvl/mxv
	BYTE		BEND    c_v+0
	BYTE	W01
	BYTE		VOL     88*isaachtest_mvl/mxv
	BYTE	W01
	BYTE		        90*isaachtest_mvl/mxv
	BYTE		MOD     1
	BYTE	W02
	BYTE		VOL     92*isaachtest_mvl/mxv
	BYTE	W02
	BYTE		MOD     2
	BYTE	W12
	BYTE		VOL     56*isaachtest_mvl/mxv
	BYTE		MOD     0
	BYTE		BEND    c_v-25
	BYTE		N24     En4 
	BYTE	W01
	BYTE		VOL     64*isaachtest_mvl/mxv
	BYTE		BEND    c_v-18
	BYTE	W01
	BYTE		VOL     72*isaachtest_mvl/mxv
	BYTE		BEND    c_v-10
	BYTE	W02
	BYTE		VOL     80*isaachtest_mvl/mxv
	BYTE		BEND    c_v-2
	BYTE	W02
	BYTE		VOL     84*isaachtest_mvl/mxv
	BYTE		BEND    c_v+0
	BYTE	W01
	BYTE		VOL     88*isaachtest_mvl/mxv
	BYTE	W01
	BYTE		        90*isaachtest_mvl/mxv
	BYTE		MOD     1
	BYTE	W02
	BYTE		VOL     92*isaachtest_mvl/mxv
	BYTE	W02
	BYTE		MOD     2
	BYTE	W12
	BYTE		VOL     56*isaachtest_mvl/mxv
	BYTE		MOD     0
	BYTE		BEND    c_v-25
	BYTE		N24     Gs4 
	BYTE	W01
	BYTE		VOL     64*isaachtest_mvl/mxv
	BYTE		BEND    c_v-18
	BYTE	W01
	BYTE		VOL     72*isaachtest_mvl/mxv
	BYTE		BEND    c_v-10
	BYTE	W02
	BYTE		VOL     80*isaachtest_mvl/mxv
	BYTE		BEND    c_v-2
	BYTE	W02
	BYTE		VOL     84*isaachtest_mvl/mxv
	BYTE		BEND    c_v+0
	BYTE	W01
	BYTE		VOL     88*isaachtest_mvl/mxv
	BYTE	W01
	BYTE		        90*isaachtest_mvl/mxv
	BYTE		MOD     1
	BYTE	W02
	BYTE		VOL     92*isaachtest_mvl/mxv
	BYTE	W02
	BYTE		MOD     2
	BYTE	W12
// 014   ----------------------------------------
	BYTE		VOL     56*isaachtest_mvl/mxv
	BYTE		MOD     0
	BYTE		BEND    c_v-25
	BYTE		N68     Bn4 
	BYTE	W01
	BYTE		VOL     64*isaachtest_mvl/mxv
	BYTE		BEND    c_v-18
	BYTE	W01
	BYTE		VOL     72*isaachtest_mvl/mxv
	BYTE		BEND    c_v-10
	BYTE	W02
	BYTE		VOL     80*isaachtest_mvl/mxv
	BYTE		BEND    c_v-2
	BYTE	W02
	BYTE		VOL     84*isaachtest_mvl/mxv
	BYTE		BEND    c_v+0
	BYTE	W01
	BYTE		VOL     88*isaachtest_mvl/mxv
	BYTE	W01
	BYTE		        90*isaachtest_mvl/mxv
	BYTE		MOD     1
	BYTE	W02
	BYTE		VOL     92*isaachtest_mvl/mxv
	BYTE	W02
	BYTE		MOD     2
	BYTE	W60
	BYTE		VOL     56*isaachtest_mvl/mxv
	BYTE		MOD     0
	BYTE		BEND    c_v-25
	BYTE		N24     Gs4 
	BYTE	W01
	BYTE		VOL     64*isaachtest_mvl/mxv
	BYTE		BEND    c_v-18
	BYTE	W01
	BYTE		VOL     72*isaachtest_mvl/mxv
	BYTE		BEND    c_v-10
	BYTE	W02
	BYTE		VOL     80*isaachtest_mvl/mxv
	BYTE		BEND    c_v-2
	BYTE	W02
	BYTE		VOL     84*isaachtest_mvl/mxv
	BYTE		BEND    c_v+0
	BYTE	W01
	BYTE		VOL     88*isaachtest_mvl/mxv
	BYTE	W01
	BYTE		        90*isaachtest_mvl/mxv
	BYTE		MOD     1
	BYTE	W02
	BYTE		VOL     92*isaachtest_mvl/mxv
	BYTE	W02
	BYTE		MOD     2
	BYTE	W12
// 015   ----------------------------------------
	BYTE		VOL     56*isaachtest_mvl/mxv
	BYTE		MOD     0
	BYTE		BEND    c_v-25
	BYTE		N48     An4 
	BYTE	W01
	BYTE		VOL     64*isaachtest_mvl/mxv
	BYTE		BEND    c_v-18
	BYTE	W01
	BYTE		VOL     72*isaachtest_mvl/mxv
	BYTE		BEND    c_v-10
	BYTE	W02
	BYTE		VOL     80*isaachtest_mvl/mxv
	BYTE		BEND    c_v-2
	BYTE	W02
	BYTE		VOL     84*isaachtest_mvl/mxv
	BYTE		BEND    c_v+0
	BYTE	W01
	BYTE		VOL     88*isaachtest_mvl/mxv
	BYTE	W01
	BYTE		        90*isaachtest_mvl/mxv
	BYTE		MOD     1
	BYTE	W02
	BYTE		VOL     92*isaachtest_mvl/mxv
	BYTE	W02
	BYTE		MOD     2
	BYTE	W36
	BYTE		VOL     56*isaachtest_mvl/mxv
	BYTE		MOD     0
	BYTE		BEND    c_v-25
	BYTE		N48     Bn4 
	BYTE	W01
	BYTE		VOL     64*isaachtest_mvl/mxv
	BYTE		BEND    c_v-18
	BYTE	W01
	BYTE		VOL     72*isaachtest_mvl/mxv
	BYTE		BEND    c_v-10
	BYTE	W02
	BYTE		VOL     80*isaachtest_mvl/mxv
	BYTE		BEND    c_v-2
	BYTE	W02
	BYTE		VOL     84*isaachtest_mvl/mxv
	BYTE		BEND    c_v+0
	BYTE	W01
	BYTE		VOL     88*isaachtest_mvl/mxv
	BYTE	W01
	BYTE		        90*isaachtest_mvl/mxv
	BYTE		MOD     1
	BYTE	W02
	BYTE		VOL     92*isaachtest_mvl/mxv
	BYTE	W02
	BYTE		MOD     2
	BYTE	W36
// 016   ----------------------------------------
	BYTE		VOL     56*isaachtest_mvl/mxv
	BYTE		MOD     0
	BYTE		BEND    c_v-25
	BYTE		N48     Cs5 
	BYTE	W01
	BYTE		VOL     64*isaachtest_mvl/mxv
	BYTE		BEND    c_v-18
	BYTE	W01
	BYTE		VOL     72*isaachtest_mvl/mxv
	BYTE		BEND    c_v-10
	BYTE	W02
	BYTE		VOL     80*isaachtest_mvl/mxv
	BYTE		BEND    c_v-2
	BYTE	W02
	BYTE		VOL     84*isaachtest_mvl/mxv
	BYTE		BEND    c_v+0
	BYTE	W01
	BYTE		VOL     88*isaachtest_mvl/mxv
	BYTE	W01
	BYTE		        90*isaachtest_mvl/mxv
	BYTE		MOD     1
	BYTE	W02
	BYTE		VOL     92*isaachtest_mvl/mxv
	BYTE	W02
	BYTE		MOD     2
	BYTE	W36
	BYTE		VOL     56*isaachtest_mvl/mxv
	BYTE		MOD     0
	BYTE		BEND    c_v-25
	BYTE		N24     Fs4 
	BYTE	W01
	BYTE		VOL     64*isaachtest_mvl/mxv
	BYTE		BEND    c_v-18
	BYTE	W01
	BYTE		VOL     72*isaachtest_mvl/mxv
	BYTE		BEND    c_v-10
	BYTE	W02
	BYTE		VOL     80*isaachtest_mvl/mxv
	BYTE		BEND    c_v-2
	BYTE	W02
	BYTE		VOL     84*isaachtest_mvl/mxv
	BYTE		BEND    c_v+0
	BYTE	W01
	BYTE		VOL     88*isaachtest_mvl/mxv
	BYTE	W01
	BYTE		        90*isaachtest_mvl/mxv
	BYTE		MOD     1
	BYTE	W02
	BYTE		VOL     92*isaachtest_mvl/mxv
	BYTE	W02
	BYTE		MOD     2
	BYTE	W12
	BYTE		VOL     56*isaachtest_mvl/mxv
	BYTE		MOD     0
	BYTE		BEND    c_v-25
	BYTE		N24     Cs5 
	BYTE	W01
	BYTE		VOL     64*isaachtest_mvl/mxv
	BYTE		BEND    c_v-18
	BYTE	W01
	BYTE		VOL     72*isaachtest_mvl/mxv
	BYTE		BEND    c_v-10
	BYTE	W02
	BYTE		VOL     80*isaachtest_mvl/mxv
	BYTE		BEND    c_v-2
	BYTE	W02
	BYTE		VOL     84*isaachtest_mvl/mxv
	BYTE		BEND    c_v+0
	BYTE	W01
	BYTE		VOL     88*isaachtest_mvl/mxv
	BYTE	W01
	BYTE		        90*isaachtest_mvl/mxv
	BYTE		MOD     1
	BYTE	W02
	BYTE		VOL     92*isaachtest_mvl/mxv
	BYTE	W02
	BYTE		MOD     2
	BYTE	W12
// 017   ----------------------------------------
	BYTE		VOL     56*isaachtest_mvl/mxv
	BYTE		MOD     0
	BYTE		BEND    c_v-25
	BYTE		N24     En5 
	BYTE	W01
	BYTE		VOL     64*isaachtest_mvl/mxv
	BYTE		BEND    c_v-18
	BYTE	W01
	BYTE		VOL     72*isaachtest_mvl/mxv
	BYTE		BEND    c_v-10
	BYTE	W02
	BYTE		VOL     80*isaachtest_mvl/mxv
	BYTE		BEND    c_v-2
	BYTE	W02
	BYTE		VOL     84*isaachtest_mvl/mxv
	BYTE		BEND    c_v+0
	BYTE	W01
	BYTE		VOL     88*isaachtest_mvl/mxv
	BYTE	W01
	BYTE		        90*isaachtest_mvl/mxv
	BYTE		MOD     1
	BYTE	W02
	BYTE		VOL     92*isaachtest_mvl/mxv
	BYTE	W02
	BYTE		MOD     2
	BYTE	W12
	BYTE		VOL     56*isaachtest_mvl/mxv
	BYTE		MOD     0
	BYTE		BEND    c_v-25
	BYTE		N24     Dn5 
	BYTE	W01
	BYTE		VOL     64*isaachtest_mvl/mxv
	BYTE		BEND    c_v-18
	BYTE	W01
	BYTE		VOL     72*isaachtest_mvl/mxv
	BYTE		BEND    c_v-10
	BYTE	W02
	BYTE		VOL     80*isaachtest_mvl/mxv
	BYTE		BEND    c_v-2
	BYTE	W02
	BYTE		VOL     84*isaachtest_mvl/mxv
	BYTE		BEND    c_v+0
	BYTE	W01
	BYTE		VOL     88*isaachtest_mvl/mxv
	BYTE	W01
	BYTE		        90*isaachtest_mvl/mxv
	BYTE		MOD     1
	BYTE	W02
	BYTE		VOL     92*isaachtest_mvl/mxv
	BYTE	W02
	BYTE		MOD     2
	BYTE	W12
	BYTE		VOL     56*isaachtest_mvl/mxv
	BYTE		MOD     0
	BYTE		BEND    c_v-25
	BYTE		N24     An4 
	BYTE	W01
	BYTE		VOL     64*isaachtest_mvl/mxv
	BYTE		BEND    c_v-18
	BYTE	W01
	BYTE		VOL     72*isaachtest_mvl/mxv
	BYTE		BEND    c_v-10
	BYTE	W02
	BYTE		VOL     80*isaachtest_mvl/mxv
	BYTE		BEND    c_v-2
	BYTE	W02
	BYTE		VOL     84*isaachtest_mvl/mxv
	BYTE		BEND    c_v+0
	BYTE	W01
	BYTE		VOL     88*isaachtest_mvl/mxv
	BYTE	W01
	BYTE		        90*isaachtest_mvl/mxv
	BYTE		MOD     1
	BYTE	W02
	BYTE		VOL     92*isaachtest_mvl/mxv
	BYTE	W02
	BYTE		MOD     2
	BYTE	W12
	BYTE		VOL     56*isaachtest_mvl/mxv
	BYTE		MOD     0
	BYTE		BEND    c_v-25
	BYTE		N24     Bn4 
	BYTE	W01
	BYTE		VOL     64*isaachtest_mvl/mxv
	BYTE		BEND    c_v-18
	BYTE	W01
	BYTE		VOL     72*isaachtest_mvl/mxv
	BYTE		BEND    c_v-10
	BYTE	W02
	BYTE		VOL     80*isaachtest_mvl/mxv
	BYTE		BEND    c_v-2
	BYTE	W02
	BYTE		VOL     84*isaachtest_mvl/mxv
	BYTE		BEND    c_v+0
	BYTE	W01
	BYTE		VOL     88*isaachtest_mvl/mxv
	BYTE	W01
	BYTE		        90*isaachtest_mvl/mxv
	BYTE		MOD     1
	BYTE	W02
	BYTE		VOL     92*isaachtest_mvl/mxv
	BYTE	W02
	BYTE		MOD     2
	BYTE	W12
// 018   ----------------------------------------
	BYTE		VOL     56*isaachtest_mvl/mxv
	BYTE		MOD     0
	BYTE		BEND    c_v-25
	BYTE		N96     Cs5 
	BYTE	W01
	BYTE		VOL     64*isaachtest_mvl/mxv
	BYTE		BEND    c_v-18
	BYTE	W01
	BYTE		VOL     72*isaachtest_mvl/mxv
	BYTE		BEND    c_v-10
	BYTE	W02
	BYTE		VOL     80*isaachtest_mvl/mxv
	BYTE		BEND    c_v-2
	BYTE	W02
	BYTE		VOL     84*isaachtest_mvl/mxv
	BYTE		BEND    c_v+0
	BYTE	W01
	BYTE		VOL     88*isaachtest_mvl/mxv
	BYTE	W01
	BYTE		        90*isaachtest_mvl/mxv
	BYTE		MOD     1
	BYTE	W02
	BYTE		VOL     92*isaachtest_mvl/mxv
	BYTE	W02
	BYTE		MOD     2
	BYTE	W84
// 019   ----------------------------------------
	BYTE		VOL     56*isaachtest_mvl/mxv
	BYTE		MOD     0
	BYTE		BEND    c_v-25
	BYTE		N72     Cs4 
	BYTE	W01
	BYTE		VOL     64*isaachtest_mvl/mxv
	BYTE		BEND    c_v-18
	BYTE	W01
	BYTE		VOL     72*isaachtest_mvl/mxv
	BYTE		BEND    c_v-10
	BYTE	W02
	BYTE		VOL     80*isaachtest_mvl/mxv
	BYTE		BEND    c_v-2
	BYTE	W02
	BYTE		VOL     84*isaachtest_mvl/mxv
	BYTE		BEND    c_v+0
	BYTE	W01
	BYTE		VOL     88*isaachtest_mvl/mxv
	BYTE	W01
	BYTE		        90*isaachtest_mvl/mxv
	BYTE		MOD     1
	BYTE	W02
	BYTE		VOL     92*isaachtest_mvl/mxv
	BYTE	W02
	BYTE		MOD     2
	BYTE	W32
	BYTE	W03
	BYTE		VOL     88*isaachtest_mvl/mxv
	BYTE	W04
	BYTE		        84*isaachtest_mvl/mxv
	BYTE	W02
	BYTE		        80*isaachtest_mvl/mxv
	BYTE	W04
	BYTE		        76*isaachtest_mvl/mxv
	BYTE	W02
	BYTE		        72*isaachtest_mvl/mxv
	BYTE	W04
	BYTE		        68*isaachtest_mvl/mxv
	BYTE	W02
	BYTE		        64*isaachtest_mvl/mxv
	BYTE	W04
	BYTE		        56*isaachtest_mvl/mxv
	BYTE	W03
	BYTE		        56*isaachtest_mvl/mxv
	BYTE		MOD     0
	BYTE		BEND    c_v-25
	BYTE		N24     Cs3 
	BYTE	W01
	BYTE		VOL     64*isaachtest_mvl/mxv
	BYTE		BEND    c_v-18
	BYTE	W01
	BYTE		VOL     72*isaachtest_mvl/mxv
	BYTE		BEND    c_v-10
	BYTE	W02
	BYTE		VOL     80*isaachtest_mvl/mxv
	BYTE		BEND    c_v-2
	BYTE	W02
	BYTE		VOL     84*isaachtest_mvl/mxv
	BYTE		BEND    c_v+0
	BYTE	W01
	BYTE		VOL     88*isaachtest_mvl/mxv
	BYTE	W01
	BYTE		        90*isaachtest_mvl/mxv
	BYTE		MOD     1
	BYTE	W02
	BYTE		VOL     92*isaachtest_mvl/mxv
	BYTE	W02
	BYTE		MOD     2
	BYTE	W12
// 020   ----------------------------------------
	BYTE		VOL     56*isaachtest_mvl/mxv
	BYTE		MOD     0
	BYTE		BEND    c_v-25
	BYTE		N48   
	BYTE	W01
	BYTE		VOL     64*isaachtest_mvl/mxv
	BYTE		BEND    c_v-18
	BYTE	W01
	BYTE		VOL     72*isaachtest_mvl/mxv
	BYTE		BEND    c_v-10
	BYTE	W02
	BYTE		VOL     80*isaachtest_mvl/mxv
	BYTE		BEND    c_v-2
	BYTE	W02
	BYTE		VOL     84*isaachtest_mvl/mxv
	BYTE		BEND    c_v+0
	BYTE	W01
	BYTE		VOL     88*isaachtest_mvl/mxv
	BYTE	W01
	BYTE		        90*isaachtest_mvl/mxv
	BYTE		MOD     1
	BYTE	W02
	BYTE		VOL     92*isaachtest_mvl/mxv
	BYTE	W02
	BYTE		MOD     2
	BYTE	W36
	BYTE		VOL     56*isaachtest_mvl/mxv
	BYTE		MOD     0
	BYTE		BEND    c_v-25
	BYTE		N24     Dn3 
	BYTE	W01
	BYTE		VOL     64*isaachtest_mvl/mxv
	BYTE		BEND    c_v-18
	BYTE	W01
	BYTE		VOL     72*isaachtest_mvl/mxv
	BYTE		BEND    c_v-10
	BYTE	W02
	BYTE		VOL     80*isaachtest_mvl/mxv
	BYTE		BEND    c_v-2
	BYTE	W02
	BYTE		VOL     84*isaachtest_mvl/mxv
	BYTE		BEND    c_v+0
	BYTE	W01
	BYTE		VOL     88*isaachtest_mvl/mxv
	BYTE	W01
	BYTE		        90*isaachtest_mvl/mxv
	BYTE		MOD     1
	BYTE	W02
	BYTE		VOL     92*isaachtest_mvl/mxv
	BYTE	W02
	BYTE		MOD     2
	BYTE	W12
	BYTE		VOL     56*isaachtest_mvl/mxv
	BYTE		MOD     0
	BYTE		BEND    c_v-25
	BYTE		N24     En3 
	BYTE	W01
	BYTE		VOL     64*isaachtest_mvl/mxv
	BYTE		BEND    c_v-18
	BYTE	W01
	BYTE		VOL     72*isaachtest_mvl/mxv
	BYTE		BEND    c_v-10
	BYTE	W02
	BYTE		VOL     80*isaachtest_mvl/mxv
	BYTE		BEND    c_v-2
	BYTE	W02
	BYTE		VOL     84*isaachtest_mvl/mxv
	BYTE		BEND    c_v+0
	BYTE	W01
	BYTE		VOL     88*isaachtest_mvl/mxv
	BYTE	W01
	BYTE		        90*isaachtest_mvl/mxv
	BYTE		MOD     1
	BYTE	W02
	BYTE		VOL     92*isaachtest_mvl/mxv
	BYTE	W02
	BYTE		MOD     2
	BYTE	W12
// 021   ----------------------------------------
	BYTE		VOL     56*isaachtest_mvl/mxv
	BYTE		MOD     0
	BYTE		BEND    c_v-25
	BYTE		N48     Fs3 
	BYTE	W01
	BYTE		VOL     64*isaachtest_mvl/mxv
	BYTE		BEND    c_v-18
	BYTE	W01
	BYTE		VOL     72*isaachtest_mvl/mxv
	BYTE		BEND    c_v-10
	BYTE	W02
	BYTE		VOL     80*isaachtest_mvl/mxv
	BYTE		BEND    c_v-2
	BYTE	W02
	BYTE		VOL     84*isaachtest_mvl/mxv
	BYTE		BEND    c_v+0
	BYTE	W01
	BYTE		VOL     88*isaachtest_mvl/mxv
	BYTE	W01
	BYTE		        90*isaachtest_mvl/mxv
	BYTE		MOD     1
	BYTE	W02
	BYTE		VOL     92*isaachtest_mvl/mxv
	BYTE	W02
	BYTE		MOD     2
	BYTE	W36
	BYTE		VOL     56*isaachtest_mvl/mxv
	BYTE		MOD     0
	BYTE		BEND    c_v-25
	BYTE		N18     Cs4 
	BYTE	W01
	BYTE		VOL     64*isaachtest_mvl/mxv
	BYTE		BEND    c_v-18
	BYTE	W01
	BYTE		VOL     72*isaachtest_mvl/mxv
	BYTE		BEND    c_v-10
	BYTE	W02
	BYTE		VOL     80*isaachtest_mvl/mxv
	BYTE		BEND    c_v-2
	BYTE	W02
	BYTE		VOL     84*isaachtest_mvl/mxv
	BYTE		BEND    c_v+0
	BYTE	W01
	BYTE		VOL     88*isaachtest_mvl/mxv
	BYTE	W01
	BYTE		        90*isaachtest_mvl/mxv
	BYTE		MOD     1
	BYTE	W02
	BYTE		VOL     92*isaachtest_mvl/mxv
	BYTE	W02
	BYTE		MOD     2
	BYTE	W06
	BYTE		N18     Bn3 
	BYTE	W18
	BYTE		N12     An3 
	BYTE	W12
// 022   ----------------------------------------
	BYTE		VOL     56*isaachtest_mvl/mxv
	BYTE		MOD     0
	BYTE		BEND    c_v-25
	BYTE		N48     Bn3 
	BYTE	W01
	BYTE		VOL     64*isaachtest_mvl/mxv
	BYTE		BEND    c_v-18
	BYTE	W01
	BYTE		VOL     72*isaachtest_mvl/mxv
	BYTE		BEND    c_v-10
	BYTE	W02
	BYTE		VOL     80*isaachtest_mvl/mxv
	BYTE		BEND    c_v-2
	BYTE	W02
	BYTE		VOL     84*isaachtest_mvl/mxv
	BYTE		BEND    c_v+0
	BYTE	W01
	BYTE		VOL     88*isaachtest_mvl/mxv
	BYTE	W01
	BYTE		        90*isaachtest_mvl/mxv
	BYTE		MOD     1
	BYTE	W02
	BYTE		VOL     92*isaachtest_mvl/mxv
	BYTE	W02
	BYTE		MOD     2
	BYTE	W36
	BYTE		VOL     56*isaachtest_mvl/mxv
	BYTE		MOD     0
	BYTE		BEND    c_v-25
	BYTE		N48     Gs3 
	BYTE	W01
	BYTE		VOL     64*isaachtest_mvl/mxv
	BYTE		BEND    c_v-18
	BYTE	W01
	BYTE		VOL     72*isaachtest_mvl/mxv
	BYTE		BEND    c_v-10
	BYTE	W02
	BYTE		VOL     80*isaachtest_mvl/mxv
	BYTE		BEND    c_v-2
	BYTE	W02
	BYTE		VOL     84*isaachtest_mvl/mxv
	BYTE		BEND    c_v+0
	BYTE	W01
	BYTE		VOL     88*isaachtest_mvl/mxv
	BYTE	W01
	BYTE		        90*isaachtest_mvl/mxv
	BYTE		MOD     1
	BYTE	W02
	BYTE		VOL     92*isaachtest_mvl/mxv
	BYTE	W02
	BYTE		MOD     2
	BYTE	W36
// 023   ----------------------------------------
	BYTE		VOL     56*isaachtest_mvl/mxv
	BYTE		MOD     0
	BYTE		BEND    c_v-25
	BYTE		N96     En3   v064
	BYTE	W01
	BYTE		VOL     64*isaachtest_mvl/mxv
	BYTE		BEND    c_v-18
	BYTE	W01
	BYTE		VOL     72*isaachtest_mvl/mxv
	BYTE		BEND    c_v-10
	BYTE	W02
	BYTE		VOL     80*isaachtest_mvl/mxv
	BYTE		BEND    c_v-2
	BYTE	W02
	BYTE		VOL     90*isaachtest_mvl/mxv
	BYTE		BEND    c_v+0
	BYTE	W01
	BYTE		VOL     88*isaachtest_mvl/mxv
	BYTE	W01
	BYTE		        90*isaachtest_mvl/mxv
	BYTE		MOD     1
	BYTE	W02
	BYTE		VOL     92*isaachtest_mvl/mxv
	BYTE	W01
	BYTE		        88*isaachtest_mvl/mxv
	BYTE	W01
	BYTE		MOD     2
	BYTE	W05
	BYTE		VOL     86*isaachtest_mvl/mxv
	BYTE	W06
	BYTE		        84*isaachtest_mvl/mxv
	BYTE	W06
	BYTE		        82*isaachtest_mvl/mxv
	BYTE	W06
	BYTE		        80*isaachtest_mvl/mxv
	BYTE	W06
	BYTE		        78*isaachtest_mvl/mxv
	BYTE	W06
	BYTE		        76*isaachtest_mvl/mxv
	BYTE	W04
	BYTE		        74*isaachtest_mvl/mxv
	BYTE	W02
	BYTE		        72*isaachtest_mvl/mxv
	BYTE	W04
	BYTE		        70*isaachtest_mvl/mxv
	BYTE	W02
	BYTE		        68*isaachtest_mvl/mxv
	BYTE	W04
	BYTE		        66*isaachtest_mvl/mxv
	BYTE	W02
	BYTE		        64*isaachtest_mvl/mxv
	BYTE	W04
	BYTE		        62*isaachtest_mvl/mxv
	BYTE	W02
	BYTE		        58*isaachtest_mvl/mxv
	BYTE	W04
	BYTE		        54*isaachtest_mvl/mxv
	BYTE	W03
	BYTE		        50*isaachtest_mvl/mxv
	BYTE	W03
	BYTE		        46*isaachtest_mvl/mxv
	BYTE	W03
	BYTE		        38*isaachtest_mvl/mxv
	BYTE	W03
	BYTE		        30*isaachtest_mvl/mxv
	BYTE	W03
	BYTE		        22*isaachtest_mvl/mxv
	BYTE	W03
	BYTE		        14*isaachtest_mvl/mxv
	BYTE	W02
	BYTE		VOICE   101
	BYTE	W01
// 024   ----------------------------------------
	BYTE		MOD     0
	BYTE		VOL     92*isaachtest_mvl/mxv
	BYTE		N48     Cs4   v108
	BYTE	W48
	BYTE		        Bn3 
	BYTE	W48
// 025   ----------------------------------------
	BYTE		        An3 
	BYTE	W48
	BYTE		        Bn3 
	BYTE	W48
// 026   ----------------------------------------
	BYTE		TIE     Gs3 
	BYTE	W06
	BYTE		VOL     94*isaachtest_mvl/mxv
	BYTE	W06
	BYTE		        96*isaachtest_mvl/mxv
	BYTE	W06
	BYTE		        98*isaachtest_mvl/mxv
	BYTE	W06
	BYTE		        100*isaachtest_mvl/mxv
	BYTE	W02
	BYTE		        102*isaachtest_mvl/mxv
	BYTE	W04
	BYTE		        104*isaachtest_mvl/mxv
	BYTE	W02
	BYTE		        106*isaachtest_mvl/mxv
	BYTE	W04
	BYTE		        108*isaachtest_mvl/mxv
	BYTE	W02
	BYTE		        110*isaachtest_mvl/mxv
	BYTE	W04
	BYTE		        112*isaachtest_mvl/mxv
	BYTE	W02
	BYTE		        114*isaachtest_mvl/mxv
	BYTE	W04
	BYTE		        116*isaachtest_mvl/mxv
	BYTE	W02
	BYTE		        118*isaachtest_mvl/mxv
	BYTE	W04
	BYTE		        120*isaachtest_mvl/mxv
	BYTE	W02
	BYTE		        122*isaachtest_mvl/mxv
	BYTE	W04
	BYTE		        124*isaachtest_mvl/mxv
	BYTE	W02
	BYTE		        126*isaachtest_mvl/mxv
	BYTE	W32
	BYTE	W01
	BYTE		MOD     2
	BYTE	W01
// 027   ----------------------------------------
	BYTE	W05
	BYTE		VOL     124*isaachtest_mvl/mxv
	BYTE	W12
	BYTE		        122*isaachtest_mvl/mxv
	BYTE	W12
	BYTE		        120*isaachtest_mvl/mxv
	BYTE	W06
	BYTE		        118*isaachtest_mvl/mxv
	BYTE	W06
	BYTE		        116*isaachtest_mvl/mxv
	BYTE	W06
	BYTE		MOD     4
	BYTE		VOL     114*isaachtest_mvl/mxv
	BYTE	W06
	BYTE		        112*isaachtest_mvl/mxv
	BYTE	W06
	BYTE		        110*isaachtest_mvl/mxv
	BYTE	W07
	BYTE		        108*isaachtest_mvl/mxv
	BYTE	W06
	BYTE		        106*isaachtest_mvl/mxv
	BYTE	W03
	BYTE		        104*isaachtest_mvl/mxv
	BYTE	W03
	BYTE		        102*isaachtest_mvl/mxv
	BYTE	W03
	BYTE		        100*isaachtest_mvl/mxv
	BYTE	W03
	BYTE		        98*isaachtest_mvl/mxv
	BYTE	W02
	BYTE		        96*isaachtest_mvl/mxv
	BYTE	W04
	BYTE		        94*isaachtest_mvl/mxv
	BYTE	W02
	BYTE		        92*isaachtest_mvl/mxv
	BYTE	W03
	BYTE		VOICE   101
	BYTE	W01
	BYTE		EOT   
// 028   ----------------------------------------
	BYTE		VOICE   61
	BYTE		MOD     0
	BYTE		N36     Cn3   v104
	BYTE	W36
	BYTE		N06   
	BYTE	W06
	BYTE		        Dn3 
	BYTE	W06
	BYTE		N36     Ds3 
	BYTE	W36
	BYTE		N06   
	BYTE	W06
	BYTE		        Fn3 
	BYTE	W06
// 029   ----------------------------------------
	BYTE		N36     Gn3 
	BYTE	W36
	BYTE		N06   
	BYTE	W06
	BYTE		        An3 
	BYTE	W06
	BYTE		N36     As3 
	BYTE	W36
	BYTE		N06   
	BYTE	W06
	BYTE		        Cn4 
	BYTE	W06
// 030   ----------------------------------------
	BYTE		N96     Cs4 
	BYTE	W96
// 031   ----------------------------------------
	BYTE		N48     An3 
	BYTE	W48
	BYTE		N12     An3   v064
	BYTE	W12
	BYTE		        An3   v104
	BYTE	W12
	BYTE		        An3   v064
	BYTE	W12
	BYTE		N06     An3   v104
	BYTE	W06
	BYTE		        An3   v040
	BYTE	W06
	BYTE	GoTo
	 POIN2	isaachtest_1_B1
isaachtest_1_B2:
// 032   ----------------------------------------
	BYTE	FINE

//**************** Track 2 (Midi-Chn.2) ****************//

isaachtest_2:
	BYTE	KEYSH   isaachtest_key+0
isaachtest_2_B1:
// 000   ----------------------------------------
	BYTE		VOICE   60
	BYTE		VOL     72*isaachtest_mvl/mxv
	BYTE		PAN     c_v-16
	BYTE		MOD     0
	BYTE		PAN     c_v+0
	BYTE		N96     Cs4   v108
	BYTE	W96
// 001   ----------------------------------------
	BYTE	W24
	BYTE		N24     Gn3 
	BYTE	W24
	BYTE		        Bn3 
	BYTE	W24
	BYTE		        Dn4 
	BYTE	W24
// 002   ----------------------------------------
	BYTE		N96     Cs4 
	BYTE	W96
// 003   ----------------------------------------
	BYTE	W24
	BYTE		N24     Bn3 
	BYTE	W24
	BYTE		        Dn4 
	BYTE	W24
	BYTE		        Fs4 
	BYTE	W24
// 004   ----------------------------------------
	BYTE		N96     Cs4 
	BYTE	W96
// 005   ----------------------------------------
	BYTE		N48     Gn3 
	BYTE	W48
	BYTE		N24     Bn3 
	BYTE	W24
	BYTE		        Dn4 
	BYTE	W24
// 006   ----------------------------------------
	BYTE		N96     Cs4 
	BYTE	W96
// 007   ----------------------------------------
	BYTE	W24
	BYTE		N24     Bn3 
	BYTE	W24
	BYTE		        Dn4 
	BYTE	W24
	BYTE		        Gn4 
	BYTE	W24
// 008   ----------------------------------------
	BYTE		N48     Dn3 
	BYTE	W48
	BYTE		        En3 
	BYTE	W48
// 009   ----------------------------------------
	BYTE		        Fs3 
	BYTE	W48
	BYTE		N24     Gs3 
	BYTE	W24
	BYTE		        Fs3 
	BYTE	W24
// 010   ----------------------------------------
	BYTE		N72     En3 
	BYTE	W72
	BYTE		N24     Gs3 
	BYTE	W24
// 011   ----------------------------------------
	BYTE		        Bn3 
	BYTE	W24
	BYTE		        An3 
	BYTE	W24
	BYTE		        Gs3 
	BYTE	W24
	BYTE		        An3 
	BYTE	W24
// 012   ----------------------------------------
	BYTE		N96     Cs3 
	BYTE	W96
// 013   ----------------------------------------
	BYTE		N48     En3 
	BYTE	W48
	BYTE		        Dn3 
	BYTE	W48
// 014   ----------------------------------------
	BYTE		        Cs3 
	BYTE	W48
	BYTE		        Bn2 
	BYTE	W48
// 015   ----------------------------------------
	BYTE		        An2 
	BYTE	W48
	BYTE		        Gn2 
	BYTE	W48
// 016   ----------------------------------------
	BYTE		        Fs2 
	BYTE	W48
	BYTE		        Cs3 
	BYTE	W48
// 017   ----------------------------------------
	BYTE		        Gn3 
	BYTE	W48
	BYTE		N24     Dn3 
	BYTE	W24
	BYTE		        En3 
	BYTE	W24
// 018   ----------------------------------------
	BYTE		        An2 
	BYTE	W24
	BYTE		        Bn2 
	BYTE	W24
	BYTE		        Cs3 
	BYTE	W24
	BYTE		        En3 
	BYTE	W24
// 019   ----------------------------------------
	BYTE		N48     An3 
	BYTE	W72
	BYTE		N24   
	BYTE	W24
// 020   ----------------------------------------
	BYTE		        Fs3 
	BYTE	W24
	BYTE		N05     Gs3 
	BYTE	W07
	BYTE		        Fs3 
	BYTE	W08
	BYTE		        En3 
	BYTE	W09
	BYTE		N24     Fs3 
	BYTE	W36
	BYTE		N12   
	BYTE	W12
// 021   ----------------------------------------
	BYTE		N48     Cs4 
	BYTE	W48
	BYTE		N12     An3 
	BYTE	W18
	BYTE		        Gs3 
	BYTE	W18
	BYTE		N08     Fs3 
	BYTE	W12
// 022   ----------------------------------------
	BYTE		N48     Gs3 
	BYTE	W48
	BYTE		        En3 
	BYTE	W48
// 023   ----------------------------------------
	BYTE		N64     Cs3 
	BYTE	W96
// 024   ----------------------------------------
	BYTE		N48     Cs4 
	BYTE	W48
	BYTE		        Bn3 
	BYTE	W48
// 025   ----------------------------------------
	BYTE		        An3 
	BYTE	W48
	BYTE		        Bn3 
	BYTE	W48
// 026   ----------------------------------------
	BYTE		TIE     Gs3 
	BYTE	W96
// 027   ----------------------------------------
	BYTE		MOD     2
	BYTE	W92
	BYTE	W03
	BYTE		        0
	BYTE	W01
	BYTE		EOT   
// 028   ----------------------------------------
	BYTE	W96
// 029   ----------------------------------------
	BYTE	W96
// 030   ----------------------------------------
	BYTE	W96
// 031   ----------------------------------------
	BYTE	W96
	BYTE	GoTo
	 POIN2	isaachtest_2_B1
isaachtest_2_B2:
// 032   ----------------------------------------
	BYTE	FINE

//**************** Track 3 (Midi-Chn.3) ****************//

isaachtest_3:
	BYTE	KEYSH   isaachtest_key+0
isaachtest_3_B1:
// 000   ----------------------------------------
	BYTE		VOICE   31
	BYTE		PAN     c_v-48
	BYTE		VOL     64*isaachtest_mvl/mxv
	BYTE		MOD     0
	BYTE		N96     An2   v108
	BYTE	W02
	BYTE		VOL     62*isaachtest_mvl/mxv
	BYTE	W04
	BYTE		        60*isaachtest_mvl/mxv
	BYTE	W02
	BYTE		        58*isaachtest_mvl/mxv
	BYTE	W04
	BYTE		        56*isaachtest_mvl/mxv
	BYTE	W03
	BYTE		        54*isaachtest_mvl/mxv
	BYTE	W03
	BYTE		        52*isaachtest_mvl/mxv
	BYTE	W03
	BYTE		        50*isaachtest_mvl/mxv
	BYTE	W03
	BYTE		        48*isaachtest_mvl/mxv
	BYTE	W03
	BYTE		        46*isaachtest_mvl/mxv
	BYTE	W03
	BYTE		        44*isaachtest_mvl/mxv
	BYTE	W03
	BYTE		        42*isaachtest_mvl/mxv
	BYTE	W02
	BYTE		        40*isaachtest_mvl/mxv
	BYTE	W24
	BYTE	W01
	BYTE		        38*isaachtest_mvl/mxv
	BYTE	W03
	BYTE		        36*isaachtest_mvl/mxv
	BYTE	W03
	BYTE		        34*isaachtest_mvl/mxv
	BYTE	W03
	BYTE		        32*isaachtest_mvl/mxv
	BYTE	W03
	BYTE		        28*isaachtest_mvl/mxv
	BYTE	W03
	BYTE		        24*isaachtest_mvl/mxv
	BYTE	W03
	BYTE		        20*isaachtest_mvl/mxv
	BYTE	W03
	BYTE		        16*isaachtest_mvl/mxv
	BYTE	W02
	BYTE		        12*isaachtest_mvl/mxv
	BYTE	W04
	BYTE		        8*isaachtest_mvl/mxv
	BYTE	W09
// 001   ----------------------------------------
isaachtest_3_001:
	BYTE	W12
	BYTE		VOL     64*isaachtest_mvl/mxv
	BYTE		N08     Gn2   v108
	BYTE	W24
	BYTE		N08   
	BYTE	W24
	BYTE		N08   
	BYTE	W24
	BYTE		N08   
	BYTE	W12
	BYTE	PEND
// 002   ----------------------------------------
isaachtest_3_002:
	BYTE		N96     An2   v108
	BYTE	W02
	BYTE		VOL     62*isaachtest_mvl/mxv
	BYTE	W04
	BYTE		        60*isaachtest_mvl/mxv
	BYTE	W02
	BYTE		        58*isaachtest_mvl/mxv
	BYTE	W04
	BYTE		        56*isaachtest_mvl/mxv
	BYTE	W03
	BYTE		        54*isaachtest_mvl/mxv
	BYTE	W03
	BYTE		        52*isaachtest_mvl/mxv
	BYTE	W03
	BYTE		        50*isaachtest_mvl/mxv
	BYTE	W03
	BYTE		        48*isaachtest_mvl/mxv
	BYTE	W03
	BYTE		        46*isaachtest_mvl/mxv
	BYTE	W03
	BYTE		        44*isaachtest_mvl/mxv
	BYTE	W03
	BYTE		        42*isaachtest_mvl/mxv
	BYTE	W02
	BYTE		        40*isaachtest_mvl/mxv
	BYTE	W24
	BYTE	W01
	BYTE		        38*isaachtest_mvl/mxv
	BYTE	W03
	BYTE		        36*isaachtest_mvl/mxv
	BYTE	W03
	BYTE		        34*isaachtest_mvl/mxv
	BYTE	W03
	BYTE		        32*isaachtest_mvl/mxv
	BYTE	W03
	BYTE		        28*isaachtest_mvl/mxv
	BYTE	W03
	BYTE		        24*isaachtest_mvl/mxv
	BYTE	W03
	BYTE		        20*isaachtest_mvl/mxv
	BYTE	W03
	BYTE		        16*isaachtest_mvl/mxv
	BYTE	W02
	BYTE		        12*isaachtest_mvl/mxv
	BYTE	W04
	BYTE		        8*isaachtest_mvl/mxv
	BYTE	W09
	BYTE	PEND
// 003   ----------------------------------------
	BYTE	PATT
	 POIN2	isaachtest_3_001
// 004   ----------------------------------------
	BYTE	PATT
	 POIN2	isaachtest_3_002
// 005   ----------------------------------------
	BYTE	PATT
	 POIN2	isaachtest_3_001
// 006   ----------------------------------------
	BYTE	PATT
	 POIN2	isaachtest_3_002
// 007   ----------------------------------------
	BYTE	W12
	BYTE		VOL     64*isaachtest_mvl/mxv
	BYTE		N08     En2   v108
	BYTE	W24
	BYTE		N08   
	BYTE	W24
	BYTE		N08   
	BYTE	W24
	BYTE		N08   
	BYTE	W12
// 008   ----------------------------------------
isaachtest_3_008:
	BYTE		N08     Dn2   v108
	BYTE	W12
	BYTE		N08   
	BYTE	W24
	BYTE		N08   
	BYTE	W24
	BYTE		N08   
	BYTE	W24
	BYTE		N08   
	BYTE	W12
	BYTE	PEND
// 009   ----------------------------------------
	BYTE	PATT
	 POIN2	isaachtest_3_008
// 010   ----------------------------------------
isaachtest_3_010:
	BYTE		N08     Cs2   v108
	BYTE	W12
	BYTE		N08   
	BYTE	W24
	BYTE		N08   
	BYTE	W24
	BYTE		N08   
	BYTE	W24
	BYTE		N08   
	BYTE	W12
	BYTE	PEND
// 011   ----------------------------------------
	BYTE		        Fs2 
	BYTE	W12
	BYTE		N08   
	BYTE	W24
	BYTE		N08   
	BYTE	W24
	BYTE		        En2 
	BYTE	W24
	BYTE		N08   
	BYTE	W12
// 012   ----------------------------------------
	BYTE	PATT
	 POIN2	isaachtest_3_008
// 013   ----------------------------------------
	BYTE	PATT
	 POIN2	isaachtest_3_008
// 014   ----------------------------------------
	BYTE	PATT
	 POIN2	isaachtest_3_010
// 015   ----------------------------------------
	BYTE		N08     Cn2   v108
	BYTE	W12
	BYTE		N08   
	BYTE	W24
	BYTE		N08   
	BYTE	W24
	BYTE		N08   
	BYTE	W24
	BYTE		N08   
	BYTE	W12
// 016   ----------------------------------------
	BYTE		        Bn1 
	BYTE	W12
	BYTE		N08   
	BYTE	W24
	BYTE		N08   
	BYTE	W24
	BYTE		N08   
	BYTE	W24
	BYTE		N08   
	BYTE	W12
// 017   ----------------------------------------
	BYTE		        As1 
	BYTE	W12
	BYTE		N08   
	BYTE	W24
	BYTE		N08   
	BYTE	W24
	BYTE		N08   
	BYTE	W24
	BYTE		N08   
	BYTE	W12
// 018   ----------------------------------------
	BYTE		        An1 
	BYTE	W12
	BYTE		N08   
	BYTE	W24
	BYTE		N08   
	BYTE	W24
	BYTE		N08   
	BYTE	W24
	BYTE		        An2 
	BYTE	W12
// 019   ----------------------------------------
	BYTE		        An1 
	BYTE	W12
	BYTE		N08   
	BYTE	W24
	BYTE		N08   
	BYTE	W24
	BYTE		        An2 
	BYTE	W12
	BYTE		        An1 
	BYTE	W12
	BYTE		        An2 
	BYTE	W12
// 020   ----------------------------------------
isaachtest_3_020:
	BYTE		N08     Gn1   v108
	BYTE	W12
	BYTE		N08   
	BYTE	W24
	BYTE		N08   
	BYTE	W24
	BYTE		N08   
	BYTE	W24
	BYTE		N08   
	BYTE	W12
	BYTE	PEND
// 021   ----------------------------------------
	BYTE		N08   
	BYTE	W12
	BYTE		N08   
	BYTE	W24
	BYTE		N08   
	BYTE	W24
	BYTE		N08   
	BYTE	W24
	BYTE		        Gn2 
	BYTE	W12
// 022   ----------------------------------------
	BYTE		        Fs1 
	BYTE	W12
	BYTE		N08   
	BYTE	W24
	BYTE		N08   
	BYTE	W24
	BYTE		N08   
	BYTE	W24
	BYTE		        Fs2 
	BYTE	W12
// 023   ----------------------------------------
	BYTE		        Fs1 
	BYTE	W12
	BYTE		N08   
	BYTE	W24
	BYTE		N08   
	BYTE	W24
	BYTE		N08   
	BYTE	W12
	BYTE		N12     Fs2 
	BYTE	W12
	BYTE		N08     Fs1 
	BYTE	W12
// 024   ----------------------------------------
	BYTE	PATT
	 POIN2	isaachtest_3_020
// 025   ----------------------------------------
	BYTE		N08     Gn1   v108
	BYTE	W12
	BYTE		N08   
	BYTE	W24
	BYTE		N08   
	BYTE	W24
	BYTE		N08   
	BYTE	W12
	BYTE		        Gn2 
	BYTE	W12
	BYTE		        Gn1 
	BYTE	W12
// 026   ----------------------------------------
	BYTE		        Fs1 
	BYTE	W12
	BYTE		N08   
	BYTE	W24
	BYTE		N08   
	BYTE	W24
	BYTE		N08   
	BYTE	W24
	BYTE		N08   
	BYTE	W12
// 027   ----------------------------------------
	BYTE		N08   
	BYTE	W12
	BYTE		N08   
	BYTE	W24
	BYTE		N08   
	BYTE	W24
	BYTE		        Fs2 
	BYTE	W12
	BYTE		        Fs1 
	BYTE	W12
	BYTE		        Fs2 
	BYTE	W12
// 028   ----------------------------------------
	BYTE		N96     Fn2 
	BYTE	W02
	BYTE		VOL     62*isaachtest_mvl/mxv
	BYTE	W04
	BYTE		        60*isaachtest_mvl/mxv
	BYTE	W02
	BYTE		        58*isaachtest_mvl/mxv
	BYTE	W04
	BYTE		        56*isaachtest_mvl/mxv
	BYTE	W03
	BYTE		        54*isaachtest_mvl/mxv
	BYTE	W03
	BYTE		        52*isaachtest_mvl/mxv
	BYTE	W03
	BYTE		        50*isaachtest_mvl/mxv
	BYTE	W03
	BYTE		        48*isaachtest_mvl/mxv
	BYTE	W03
	BYTE		        46*isaachtest_mvl/mxv
	BYTE	W03
	BYTE		        44*isaachtest_mvl/mxv
	BYTE	W03
	BYTE		        42*isaachtest_mvl/mxv
	BYTE	W02
	BYTE		        40*isaachtest_mvl/mxv
	BYTE	W60
	BYTE	W01
// 029   ----------------------------------------
	BYTE		N96     Gs2 
	BYTE	W02
	BYTE		VOL     62*isaachtest_mvl/mxv
	BYTE	W04
	BYTE		        60*isaachtest_mvl/mxv
	BYTE	W02
	BYTE		        58*isaachtest_mvl/mxv
	BYTE	W04
	BYTE		        56*isaachtest_mvl/mxv
	BYTE	W03
	BYTE		        54*isaachtest_mvl/mxv
	BYTE	W03
	BYTE		        52*isaachtest_mvl/mxv
	BYTE	W03
	BYTE		        50*isaachtest_mvl/mxv
	BYTE	W03
	BYTE		        48*isaachtest_mvl/mxv
	BYTE	W03
	BYTE		        46*isaachtest_mvl/mxv
	BYTE	W03
	BYTE		        44*isaachtest_mvl/mxv
	BYTE	W03
	BYTE		        42*isaachtest_mvl/mxv
	BYTE	W02
	BYTE		        40*isaachtest_mvl/mxv
	BYTE	W60
	BYTE	W01
// 030   ----------------------------------------
	BYTE		TIE     An2 
	BYTE	W02
	BYTE		VOL     62*isaachtest_mvl/mxv
	BYTE	W04
	BYTE		        60*isaachtest_mvl/mxv
	BYTE	W02
	BYTE		        58*isaachtest_mvl/mxv
	BYTE	W04
	BYTE		        56*isaachtest_mvl/mxv
	BYTE	W03
	BYTE		        54*isaachtest_mvl/mxv
	BYTE	W03
	BYTE		        52*isaachtest_mvl/mxv
	BYTE	W03
	BYTE		        50*isaachtest_mvl/mxv
	BYTE	W03
	BYTE		        48*isaachtest_mvl/mxv
	BYTE	W03
	BYTE		        46*isaachtest_mvl/mxv
	BYTE	W03
	BYTE		        44*isaachtest_mvl/mxv
	BYTE	W03
	BYTE		        42*isaachtest_mvl/mxv
	BYTE	W02
	BYTE		        40*isaachtest_mvl/mxv
	BYTE	W60
	BYTE	W01
// 031   ----------------------------------------
	BYTE	W48
	BYTE		EOT   
	BYTE	W12
	BYTE		VOL     64*isaachtest_mvl/mxv
	BYTE		N12   
	BYTE	W24
	BYTE		N12   
	BYTE	W12
	BYTE	GoTo
	 POIN2	isaachtest_3_B1
isaachtest_3_B2:
// 032   ----------------------------------------
	BYTE	FINE

//**************** Track 4 (Midi-Chn.4) ****************//

isaachtest_4:
	BYTE	KEYSH   isaachtest_key+0
isaachtest_4_B1:
// 000   ----------------------------------------
	BYTE		VOICE   8
	BYTE		VOL     90*isaachtest_mvl/mxv
	BYTE	W96
// 001   ----------------------------------------
	BYTE	W96
// 002   ----------------------------------------
	BYTE	W96
// 003   ----------------------------------------
	BYTE	W96
// 004   ----------------------------------------
	BYTE	W96
// 005   ----------------------------------------
	BYTE	W96
// 006   ----------------------------------------
	BYTE	W96
// 007   ----------------------------------------
	BYTE	W96
// 008   ----------------------------------------
	BYTE	W96
// 009   ----------------------------------------
	BYTE	W96
// 010   ----------------------------------------
	BYTE	W96
// 011   ----------------------------------------
	BYTE	W96
// 012   ----------------------------------------
	BYTE	W96
// 013   ----------------------------------------
	BYTE	W96
// 014   ----------------------------------------
	BYTE	W96
// 015   ----------------------------------------
	BYTE	W96
// 016   ----------------------------------------
	BYTE	W96
// 017   ----------------------------------------
	BYTE	W96
// 018   ----------------------------------------
	BYTE	W96
// 019   ----------------------------------------
	BYTE	W96
// 020   ----------------------------------------
	BYTE		N48     Cs4   v100
	BYTE	W02
	BYTE		VOL     88*isaachtest_mvl/mxv
	BYTE	W04
	BYTE		        86*isaachtest_mvl/mxv
	BYTE	W02
	BYTE		        84*isaachtest_mvl/mxv
	BYTE	W04
	BYTE		        80*isaachtest_mvl/mxv
	BYTE	W02
	BYTE		        77*isaachtest_mvl/mxv
	BYTE	W04
	BYTE		        74*isaachtest_mvl/mxv
	BYTE	W02
	BYTE		        71*isaachtest_mvl/mxv
	BYTE	W04
	BYTE		        68*isaachtest_mvl/mxv
	BYTE	W02
	BYTE		        64*isaachtest_mvl/mxv
	BYTE	W04
	BYTE		        60*isaachtest_mvl/mxv
	BYTE	W02
	BYTE		        56*isaachtest_mvl/mxv
	BYTE	W04
	BYTE		        52*isaachtest_mvl/mxv
	BYTE	W01
	BYTE		        48*isaachtest_mvl/mxv
	BYTE	W01
	BYTE		        44*isaachtest_mvl/mxv
	BYTE	W02
	BYTE		        40*isaachtest_mvl/mxv
	BYTE	W02
	BYTE		        36*isaachtest_mvl/mxv
	BYTE	W01
	BYTE		        32*isaachtest_mvl/mxv
	BYTE	W01
	BYTE		        28*isaachtest_mvl/mxv
	BYTE	W02
	BYTE		        24*isaachtest_mvl/mxv
	BYTE	W02
	BYTE		        90*isaachtest_mvl/mxv
	BYTE		N24     Dn4 
	BYTE	W02
	BYTE		VOL     88*isaachtest_mvl/mxv
	BYTE	W04
	BYTE		        86*isaachtest_mvl/mxv
	BYTE	W02
	BYTE		        84*isaachtest_mvl/mxv
	BYTE	W04
	BYTE		        80*isaachtest_mvl/mxv
	BYTE	W02
	BYTE		        77*isaachtest_mvl/mxv
	BYTE	W04
	BYTE		        74*isaachtest_mvl/mxv
	BYTE	W02
	BYTE		        71*isaachtest_mvl/mxv
	BYTE	W04
	BYTE		        90*isaachtest_mvl/mxv
	BYTE		N24     En4 
	BYTE	W02
	BYTE		VOL     88*isaachtest_mvl/mxv
	BYTE	W04
	BYTE		        86*isaachtest_mvl/mxv
	BYTE	W02
	BYTE		        84*isaachtest_mvl/mxv
	BYTE	W04
	BYTE		        80*isaachtest_mvl/mxv
	BYTE	W02
	BYTE		        77*isaachtest_mvl/mxv
	BYTE	W04
	BYTE		        74*isaachtest_mvl/mxv
	BYTE	W02
	BYTE		        71*isaachtest_mvl/mxv
	BYTE	W04
// 021   ----------------------------------------
	BYTE		        68*isaachtest_mvl/mxv
	BYTE		N48     Fs4 
	BYTE	W02
	BYTE		VOL     88*isaachtest_mvl/mxv
	BYTE	W04
	BYTE		        86*isaachtest_mvl/mxv
	BYTE	W02
	BYTE		        84*isaachtest_mvl/mxv
	BYTE	W04
	BYTE		        80*isaachtest_mvl/mxv
	BYTE	W02
	BYTE		        77*isaachtest_mvl/mxv
	BYTE	W04
	BYTE		        74*isaachtest_mvl/mxv
	BYTE	W02
	BYTE		        71*isaachtest_mvl/mxv
	BYTE	W04
	BYTE		        68*isaachtest_mvl/mxv
	BYTE	W02
	BYTE		        64*isaachtest_mvl/mxv
	BYTE	W04
	BYTE		        60*isaachtest_mvl/mxv
	BYTE	W02
	BYTE		        56*isaachtest_mvl/mxv
	BYTE	W04
	BYTE		        52*isaachtest_mvl/mxv
	BYTE	W01
	BYTE		        48*isaachtest_mvl/mxv
	BYTE	W01
	BYTE		        44*isaachtest_mvl/mxv
	BYTE	W02
	BYTE		        40*isaachtest_mvl/mxv
	BYTE	W02
	BYTE		        36*isaachtest_mvl/mxv
	BYTE	W01
	BYTE		        32*isaachtest_mvl/mxv
	BYTE	W01
	BYTE		        28*isaachtest_mvl/mxv
	BYTE	W02
	BYTE		        24*isaachtest_mvl/mxv
	BYTE	W01
	BYTE		        90*isaachtest_mvl/mxv
	BYTE	W01
	BYTE		N12     Cs5 
	BYTE	W18
	BYTE		        Bn4 
	BYTE	W18
	BYTE		N08     An4 
	BYTE	W12
// 022   ----------------------------------------
	BYTE		N48     Bn4 
	BYTE	W02
	BYTE		VOL     88*isaachtest_mvl/mxv
	BYTE	W04
	BYTE		        86*isaachtest_mvl/mxv
	BYTE	W02
	BYTE		        84*isaachtest_mvl/mxv
	BYTE	W04
	BYTE		        80*isaachtest_mvl/mxv
	BYTE	W02
	BYTE		        77*isaachtest_mvl/mxv
	BYTE	W04
	BYTE		        74*isaachtest_mvl/mxv
	BYTE	W02
	BYTE		        71*isaachtest_mvl/mxv
	BYTE	W04
	BYTE		        68*isaachtest_mvl/mxv
	BYTE	W02
	BYTE		        64*isaachtest_mvl/mxv
	BYTE	W04
	BYTE		        60*isaachtest_mvl/mxv
	BYTE	W02
	BYTE		        56*isaachtest_mvl/mxv
	BYTE	W04
	BYTE		        52*isaachtest_mvl/mxv
	BYTE	W01
	BYTE		        48*isaachtest_mvl/mxv
	BYTE	W01
	BYTE		        44*isaachtest_mvl/mxv
	BYTE	W02
	BYTE		        40*isaachtest_mvl/mxv
	BYTE	W02
	BYTE		        36*isaachtest_mvl/mxv
	BYTE	W01
	BYTE		        32*isaachtest_mvl/mxv
	BYTE	W01
	BYTE		        28*isaachtest_mvl/mxv
	BYTE	W02
	BYTE		        24*isaachtest_mvl/mxv
	BYTE	W02
	BYTE		        90*isaachtest_mvl/mxv
	BYTE		N48     Gs4 
	BYTE	W02
	BYTE		VOL     88*isaachtest_mvl/mxv
	BYTE	W04
	BYTE		        86*isaachtest_mvl/mxv
	BYTE	W02
	BYTE		        84*isaachtest_mvl/mxv
	BYTE	W04
	BYTE		        80*isaachtest_mvl/mxv
	BYTE	W02
	BYTE		        77*isaachtest_mvl/mxv
	BYTE	W04
	BYTE		        74*isaachtest_mvl/mxv
	BYTE	W02
	BYTE		        71*isaachtest_mvl/mxv
	BYTE	W04
	BYTE		        68*isaachtest_mvl/mxv
	BYTE	W02
	BYTE		        64*isaachtest_mvl/mxv
	BYTE	W04
	BYTE		        60*isaachtest_mvl/mxv
	BYTE	W02
	BYTE		        56*isaachtest_mvl/mxv
	BYTE	W04
	BYTE		        52*isaachtest_mvl/mxv
	BYTE	W01
	BYTE		        48*isaachtest_mvl/mxv
	BYTE	W01
	BYTE		        44*isaachtest_mvl/mxv
	BYTE	W02
	BYTE		        40*isaachtest_mvl/mxv
	BYTE	W02
	BYTE		        36*isaachtest_mvl/mxv
	BYTE	W01
	BYTE		        32*isaachtest_mvl/mxv
	BYTE	W01
	BYTE		        28*isaachtest_mvl/mxv
	BYTE	W02
	BYTE		        24*isaachtest_mvl/mxv
	BYTE	W02
// 023   ----------------------------------------
	BYTE		        90*isaachtest_mvl/mxv
	BYTE		N72     En4 
	BYTE	W02
	BYTE		VOL     88*isaachtest_mvl/mxv
	BYTE	W04
	BYTE		        86*isaachtest_mvl/mxv
	BYTE	W02
	BYTE		        84*isaachtest_mvl/mxv
	BYTE	W04
	BYTE		        80*isaachtest_mvl/mxv
	BYTE	W02
	BYTE		        77*isaachtest_mvl/mxv
	BYTE	W04
	BYTE		        74*isaachtest_mvl/mxv
	BYTE	W02
	BYTE		        71*isaachtest_mvl/mxv
	BYTE	W04
	BYTE		        68*isaachtest_mvl/mxv
	BYTE	W02
	BYTE		        64*isaachtest_mvl/mxv
	BYTE	W04
	BYTE		        60*isaachtest_mvl/mxv
	BYTE	W02
	BYTE		        56*isaachtest_mvl/mxv
	BYTE	W04
	BYTE		        52*isaachtest_mvl/mxv
	BYTE	W01
	BYTE		        48*isaachtest_mvl/mxv
	BYTE	W01
	BYTE		        44*isaachtest_mvl/mxv
	BYTE	W02
	BYTE		        40*isaachtest_mvl/mxv
	BYTE	W02
	BYTE		        36*isaachtest_mvl/mxv
	BYTE	W01
	BYTE		        32*isaachtest_mvl/mxv
	BYTE	W01
	BYTE		        28*isaachtest_mvl/mxv
	BYTE	W02
	BYTE		        24*isaachtest_mvl/mxv
	BYTE	W48
	BYTE	W02
// 024   ----------------------------------------
	BYTE		VOICE   85
	BYTE		N48     Cs4 
	BYTE	W03
	BYTE		VOL     38*isaachtest_mvl/mxv
	BYTE	W02
	BYTE		        44*isaachtest_mvl/mxv
	BYTE	W04
	BYTE		        50*isaachtest_mvl/mxv
	BYTE	W02
	BYTE		        54*isaachtest_mvl/mxv
	BYTE	W04
	BYTE		        58*isaachtest_mvl/mxv
	BYTE	W02
	BYTE		        62*isaachtest_mvl/mxv
	BYTE	W04
	BYTE		        66*isaachtest_mvl/mxv
	BYTE	W02
	BYTE		        70*isaachtest_mvl/mxv
	BYTE	W04
	BYTE		        73*isaachtest_mvl/mxv
	BYTE	W02
	BYTE		        77*isaachtest_mvl/mxv
	BYTE	W04
	BYTE		        78*isaachtest_mvl/mxv
	BYTE	W02
	BYTE		        81*isaachtest_mvl/mxv
	BYTE	W04
	BYTE		        84*isaachtest_mvl/mxv
	BYTE	W02
	BYTE		        87*isaachtest_mvl/mxv
	BYTE	W04
	BYTE		        90*isaachtest_mvl/mxv
	BYTE	W03
	BYTE		        32*isaachtest_mvl/mxv
	BYTE		N48     Bn3 
	BYTE	W03
	BYTE		VOL     38*isaachtest_mvl/mxv
	BYTE	W02
	BYTE		        44*isaachtest_mvl/mxv
	BYTE	W04
	BYTE		        50*isaachtest_mvl/mxv
	BYTE	W02
	BYTE		        54*isaachtest_mvl/mxv
	BYTE	W04
	BYTE		        58*isaachtest_mvl/mxv
	BYTE	W02
	BYTE		        62*isaachtest_mvl/mxv
	BYTE	W04
	BYTE		        66*isaachtest_mvl/mxv
	BYTE	W02
	BYTE		        70*isaachtest_mvl/mxv
	BYTE	W04
	BYTE		        73*isaachtest_mvl/mxv
	BYTE	W02
	BYTE		        77*isaachtest_mvl/mxv
	BYTE	W04
	BYTE		        78*isaachtest_mvl/mxv
	BYTE	W02
	BYTE		        81*isaachtest_mvl/mxv
	BYTE	W04
	BYTE		        84*isaachtest_mvl/mxv
	BYTE	W02
	BYTE		        87*isaachtest_mvl/mxv
	BYTE	W04
	BYTE		        90*isaachtest_mvl/mxv
	BYTE	W03
// 025   ----------------------------------------
	BYTE		        32*isaachtest_mvl/mxv
	BYTE		N96     An3 
	BYTE	W03
	BYTE		VOL     38*isaachtest_mvl/mxv
	BYTE	W02
	BYTE		        44*isaachtest_mvl/mxv
	BYTE	W04
	BYTE		        50*isaachtest_mvl/mxv
	BYTE	W02
	BYTE		        54*isaachtest_mvl/mxv
	BYTE	W04
	BYTE		        58*isaachtest_mvl/mxv
	BYTE	W02
	BYTE		        62*isaachtest_mvl/mxv
	BYTE	W04
	BYTE		        66*isaachtest_mvl/mxv
	BYTE	W02
	BYTE		        70*isaachtest_mvl/mxv
	BYTE	W04
	BYTE		        73*isaachtest_mvl/mxv
	BYTE	W02
	BYTE		        77*isaachtest_mvl/mxv
	BYTE	W04
	BYTE		        78*isaachtest_mvl/mxv
	BYTE	W02
	BYTE		        81*isaachtest_mvl/mxv
	BYTE	W04
	BYTE		        84*isaachtest_mvl/mxv
	BYTE	W02
	BYTE		        87*isaachtest_mvl/mxv
	BYTE	W04
	BYTE		        90*isaachtest_mvl/mxv
	BYTE	W48
	BYTE	W03
// 026   ----------------------------------------
	BYTE		        32*isaachtest_mvl/mxv
	BYTE		TIE     Gs3 
	BYTE	W03
	BYTE		VOL     38*isaachtest_mvl/mxv
	BYTE	W02
	BYTE		        44*isaachtest_mvl/mxv
	BYTE	W04
	BYTE		        50*isaachtest_mvl/mxv
	BYTE	W02
	BYTE		        54*isaachtest_mvl/mxv
	BYTE	W04
	BYTE		        58*isaachtest_mvl/mxv
	BYTE	W02
	BYTE		        62*isaachtest_mvl/mxv
	BYTE	W04
	BYTE		        66*isaachtest_mvl/mxv
	BYTE	W02
	BYTE		        70*isaachtest_mvl/mxv
	BYTE	W04
	BYTE		        73*isaachtest_mvl/mxv
	BYTE	W02
	BYTE		        77*isaachtest_mvl/mxv
	BYTE	W04
	BYTE		        78*isaachtest_mvl/mxv
	BYTE	W02
	BYTE		        81*isaachtest_mvl/mxv
	BYTE	W04
	BYTE		        84*isaachtest_mvl/mxv
	BYTE	W02
	BYTE		        87*isaachtest_mvl/mxv
	BYTE	W04
	BYTE		        90*isaachtest_mvl/mxv
	BYTE	W48
	BYTE	W03
// 027   ----------------------------------------
	BYTE	W96
	BYTE		EOT   
// 028   ----------------------------------------
	BYTE		VOL     32*isaachtest_mvl/mxv
	BYTE		N96     Cn3 
	BYTE	W03
	BYTE		VOL     38*isaachtest_mvl/mxv
	BYTE	W02
	BYTE		        44*isaachtest_mvl/mxv
	BYTE	W04
	BYTE		        50*isaachtest_mvl/mxv
	BYTE	W02
	BYTE		        54*isaachtest_mvl/mxv
	BYTE	W04
	BYTE		        58*isaachtest_mvl/mxv
	BYTE	W02
	BYTE		        62*isaachtest_mvl/mxv
	BYTE	W04
	BYTE		        66*isaachtest_mvl/mxv
	BYTE	W02
	BYTE		        70*isaachtest_mvl/mxv
	BYTE	W04
	BYTE		        73*isaachtest_mvl/mxv
	BYTE	W02
	BYTE		        77*isaachtest_mvl/mxv
	BYTE	W04
	BYTE		        78*isaachtest_mvl/mxv
	BYTE	W02
	BYTE		        81*isaachtest_mvl/mxv
	BYTE	W04
	BYTE		        84*isaachtest_mvl/mxv
	BYTE	W02
	BYTE		        87*isaachtest_mvl/mxv
	BYTE	W04
	BYTE		        90*isaachtest_mvl/mxv
	BYTE	W48
	BYTE	W02
	BYTE		        32*isaachtest_mvl/mxv
	BYTE	W01
// 029   ----------------------------------------
	BYTE		N96     Ds3 
	BYTE	W03
	BYTE		VOL     38*isaachtest_mvl/mxv
	BYTE	W02
	BYTE		        44*isaachtest_mvl/mxv
	BYTE	W04
	BYTE		        50*isaachtest_mvl/mxv
	BYTE	W02
	BYTE		        54*isaachtest_mvl/mxv
	BYTE	W04
	BYTE		        58*isaachtest_mvl/mxv
	BYTE	W02
	BYTE		        62*isaachtest_mvl/mxv
	BYTE	W04
	BYTE		        66*isaachtest_mvl/mxv
	BYTE	W02
	BYTE		        70*isaachtest_mvl/mxv
	BYTE	W04
	BYTE		        73*isaachtest_mvl/mxv
	BYTE	W02
	BYTE		        77*isaachtest_mvl/mxv
	BYTE	W04
	BYTE		        78*isaachtest_mvl/mxv
	BYTE	W02
	BYTE		        81*isaachtest_mvl/mxv
	BYTE	W04
	BYTE		        84*isaachtest_mvl/mxv
	BYTE	W02
	BYTE		        87*isaachtest_mvl/mxv
	BYTE	W04
	BYTE		        90*isaachtest_mvl/mxv
	BYTE	W48
	BYTE	W03
// 030   ----------------------------------------
	BYTE		        32*isaachtest_mvl/mxv
	BYTE		TIE     An3 
	BYTE	W03
	BYTE		VOL     38*isaachtest_mvl/mxv
	BYTE	W02
	BYTE		        44*isaachtest_mvl/mxv
	BYTE	W04
	BYTE		        50*isaachtest_mvl/mxv
	BYTE	W02
	BYTE		        54*isaachtest_mvl/mxv
	BYTE	W04
	BYTE		        58*isaachtest_mvl/mxv
	BYTE	W02
	BYTE		        62*isaachtest_mvl/mxv
	BYTE	W04
	BYTE		        66*isaachtest_mvl/mxv
	BYTE	W02
	BYTE		        70*isaachtest_mvl/mxv
	BYTE	W04
	BYTE		        73*isaachtest_mvl/mxv
	BYTE	W02
	BYTE		        77*isaachtest_mvl/mxv
	BYTE	W04
	BYTE		        78*isaachtest_mvl/mxv
	BYTE	W02
	BYTE		        81*isaachtest_mvl/mxv
	BYTE	W04
	BYTE		        84*isaachtest_mvl/mxv
	BYTE	W02
	BYTE		        87*isaachtest_mvl/mxv
	BYTE	W04
	BYTE		        90*isaachtest_mvl/mxv
	BYTE	W48
	BYTE	W03
// 031   ----------------------------------------
	BYTE	W96
	BYTE		EOT   
	BYTE	GoTo
	 POIN2	isaachtest_4_B1
isaachtest_4_B2:
// 032   ----------------------------------------
	BYTE	FINE

//**************** Track 5 (Midi-Chn.5) ****************//

isaachtest_5:
	BYTE	KEYSH   isaachtest_key+0
isaachtest_5_B1:
// 000   ----------------------------------------
	BYTE		VOICE   85
	BYTE		PAN     c_v-4
	BYTE		VOL     88*isaachtest_mvl/mxv
	BYTE		PAN     c_v+0
	BYTE		N96     An3   v100
	BYTE	W03
	BYTE		VOL     34*isaachtest_mvl/mxv
	BYTE	W02
	BYTE		        42*isaachtest_mvl/mxv
	BYTE	W04
	BYTE		        50*isaachtest_mvl/mxv
	BYTE	W02
	BYTE		        58*isaachtest_mvl/mxv
	BYTE	W04
	BYTE		        62*isaachtest_mvl/mxv
	BYTE	W02
	BYTE		        66*isaachtest_mvl/mxv
	BYTE	W04
	BYTE		        70*isaachtest_mvl/mxv
	BYTE	W02
	BYTE		        74*isaachtest_mvl/mxv
	BYTE	W04
	BYTE		        76*isaachtest_mvl/mxv
	BYTE	W02
	BYTE		        78*isaachtest_mvl/mxv
	BYTE	W04
	BYTE		        80*isaachtest_mvl/mxv
	BYTE	W02
	BYTE		        82*isaachtest_mvl/mxv
	BYTE	W04
	BYTE		        84*isaachtest_mvl/mxv
	BYTE	W02
	BYTE		        86*isaachtest_mvl/mxv
	BYTE	W04
	BYTE		        88*isaachtest_mvl/mxv
	BYTE	W48
	BYTE	W03
// 001   ----------------------------------------
	BYTE		N96     Gn3 
	BYTE	W03
	BYTE		VOL     34*isaachtest_mvl/mxv
	BYTE	W02
	BYTE		        42*isaachtest_mvl/mxv
	BYTE	W04
	BYTE		        50*isaachtest_mvl/mxv
	BYTE	W02
	BYTE		        58*isaachtest_mvl/mxv
	BYTE	W04
	BYTE		        62*isaachtest_mvl/mxv
	BYTE	W02
	BYTE		        66*isaachtest_mvl/mxv
	BYTE	W04
	BYTE		        70*isaachtest_mvl/mxv
	BYTE	W02
	BYTE		        74*isaachtest_mvl/mxv
	BYTE	W04
	BYTE		        76*isaachtest_mvl/mxv
	BYTE	W02
	BYTE		        78*isaachtest_mvl/mxv
	BYTE	W04
	BYTE		        80*isaachtest_mvl/mxv
	BYTE	W02
	BYTE		        82*isaachtest_mvl/mxv
	BYTE	W04
	BYTE		        84*isaachtest_mvl/mxv
	BYTE	W02
	BYTE		        86*isaachtest_mvl/mxv
	BYTE	W04
	BYTE		        88*isaachtest_mvl/mxv
	BYTE	W48
	BYTE	W03
// 002   ----------------------------------------
isaachtest_5_002:
	BYTE		N96     An3   v100
	BYTE	W03
	BYTE		VOL     34*isaachtest_mvl/mxv
	BYTE	W02
	BYTE		        42*isaachtest_mvl/mxv
	BYTE	W04
	BYTE		        50*isaachtest_mvl/mxv
	BYTE	W02
	BYTE		        58*isaachtest_mvl/mxv
	BYTE	W04
	BYTE		        62*isaachtest_mvl/mxv
	BYTE	W02
	BYTE		        66*isaachtest_mvl/mxv
	BYTE	W04
	BYTE		        70*isaachtest_mvl/mxv
	BYTE	W02
	BYTE		        74*isaachtest_mvl/mxv
	BYTE	W04
	BYTE		        76*isaachtest_mvl/mxv
	BYTE	W02
	BYTE		        78*isaachtest_mvl/mxv
	BYTE	W04
	BYTE		        80*isaachtest_mvl/mxv
	BYTE	W02
	BYTE		        82*isaachtest_mvl/mxv
	BYTE	W04
	BYTE		        84*isaachtest_mvl/mxv
	BYTE	W02
	BYTE		        86*isaachtest_mvl/mxv
	BYTE	W04
	BYTE		        88*isaachtest_mvl/mxv
	BYTE	W48
	BYTE	W03
	BYTE	PEND
// 003   ----------------------------------------
	BYTE		N96     Bn3 
	BYTE	W03
	BYTE		VOL     34*isaachtest_mvl/mxv
	BYTE	W02
	BYTE		        42*isaachtest_mvl/mxv
	BYTE	W04
	BYTE		        50*isaachtest_mvl/mxv
	BYTE	W02
	BYTE		        58*isaachtest_mvl/mxv
	BYTE	W04
	BYTE		        62*isaachtest_mvl/mxv
	BYTE	W02
	BYTE		        66*isaachtest_mvl/mxv
	BYTE	W04
	BYTE		        70*isaachtest_mvl/mxv
	BYTE	W02
	BYTE		        74*isaachtest_mvl/mxv
	BYTE	W04
	BYTE		        76*isaachtest_mvl/mxv
	BYTE	W02
	BYTE		        78*isaachtest_mvl/mxv
	BYTE	W04
	BYTE		        80*isaachtest_mvl/mxv
	BYTE	W02
	BYTE		        82*isaachtest_mvl/mxv
	BYTE	W04
	BYTE		        84*isaachtest_mvl/mxv
	BYTE	W02
	BYTE		        86*isaachtest_mvl/mxv
	BYTE	W04
	BYTE		        88*isaachtest_mvl/mxv
	BYTE	W48
	BYTE	W03
// 004   ----------------------------------------
	BYTE	PATT
	 POIN2	isaachtest_5_002
// 005   ----------------------------------------
	BYTE		N96     Gn3   v100
	BYTE	W03
	BYTE		VOL     34*isaachtest_mvl/mxv
	BYTE	W02
	BYTE		        42*isaachtest_mvl/mxv
	BYTE	W04
	BYTE		        50*isaachtest_mvl/mxv
	BYTE	W02
	BYTE		        58*isaachtest_mvl/mxv
	BYTE	W04
	BYTE		        62*isaachtest_mvl/mxv
	BYTE	W02
	BYTE		        66*isaachtest_mvl/mxv
	BYTE	W04
	BYTE		        70*isaachtest_mvl/mxv
	BYTE	W02
	BYTE		        74*isaachtest_mvl/mxv
	BYTE	W04
	BYTE		        76*isaachtest_mvl/mxv
	BYTE	W02
	BYTE		        78*isaachtest_mvl/mxv
	BYTE	W04
	BYTE		        80*isaachtest_mvl/mxv
	BYTE	W02
	BYTE		        82*isaachtest_mvl/mxv
	BYTE	W04
	BYTE		        84*isaachtest_mvl/mxv
	BYTE	W02
	BYTE		        86*isaachtest_mvl/mxv
	BYTE	W04
	BYTE		        88*isaachtest_mvl/mxv
	BYTE	W48
	BYTE	W02
	BYTE		        26*isaachtest_mvl/mxv
	BYTE	W01
// 006   ----------------------------------------
	BYTE	PATT
	 POIN2	isaachtest_5_002
// 007   ----------------------------------------
	BYTE		VOL     32*isaachtest_mvl/mxv
	BYTE		N48     Gn4   v100
	BYTE	W02
	BYTE		VOL     42*isaachtest_mvl/mxv
	BYTE	W04
	BYTE		        52*isaachtest_mvl/mxv
	BYTE	W02
	BYTE		        62*isaachtest_mvl/mxv
	BYTE	W04
	BYTE		        72*isaachtest_mvl/mxv
	BYTE	W02
	BYTE		        76*isaachtest_mvl/mxv
	BYTE	W04
	BYTE		        80*isaachtest_mvl/mxv
	BYTE	W02
	BYTE		        84*isaachtest_mvl/mxv
	BYTE	W04
	BYTE		        88*isaachtest_mvl/mxv
	BYTE	W24
	BYTE		        32*isaachtest_mvl/mxv
	BYTE		N48     Fs4 
	BYTE	W02
	BYTE		VOL     42*isaachtest_mvl/mxv
	BYTE	W04
	BYTE		        52*isaachtest_mvl/mxv
	BYTE	W02
	BYTE		        62*isaachtest_mvl/mxv
	BYTE	W04
	BYTE		        72*isaachtest_mvl/mxv
	BYTE	W02
	BYTE		        76*isaachtest_mvl/mxv
	BYTE	W04
	BYTE		        80*isaachtest_mvl/mxv
	BYTE	W02
	BYTE		        84*isaachtest_mvl/mxv
	BYTE	W04
	BYTE		        88*isaachtest_mvl/mxv
	BYTE	W24
// 008   ----------------------------------------
	BYTE		VOICE   67
	BYTE		N48     Fs4   v056
	BYTE	W01
	BYTE		PAN     c_v-32
	BYTE	W02
	BYTE		VOL     44*isaachtest_mvl/mxv
	BYTE		PAN     c_v-40
	BYTE	W01
	BYTE		        c_v-32
	BYTE	W01
	BYTE		VOL     48*isaachtest_mvl/mxv
	BYTE		PAN     c_v-24
	BYTE	W02
	BYTE		        c_v-16
	BYTE	W02
	BYTE		VOL     52*isaachtest_mvl/mxv
	BYTE		PAN     c_v-8
	BYTE	W01
	BYTE		        c_v+0
	BYTE	W01
	BYTE		VOL     56*isaachtest_mvl/mxv
	BYTE		PAN     c_v+8
	BYTE	W02
	BYTE		        c_v+16
	BYTE	W02
	BYTE		VOL     60*isaachtest_mvl/mxv
	BYTE		PAN     c_v+24
	BYTE	W01
	BYTE		        c_v+32
	BYTE	W01
	BYTE		        c_v+40
	BYTE	W01
	BYTE		VOL     64*isaachtest_mvl/mxv
	BYTE	W01
	BYTE		PAN     c_v+48
	BYTE	W02
	BYTE		VOL     68*isaachtest_mvl/mxv
	BYTE		PAN     c_v+56
	BYTE	W01
	BYTE		        c_v+63
	BYTE	W01
	BYTE		MOD     2
	BYTE		PAN     c_v+56
	BYTE	W02
	BYTE		        c_v+48
	BYTE	W02
	BYTE		VOL     68*isaachtest_mvl/mxv
	BYTE		PAN     c_v+40
	BYTE	W01
	BYTE		        c_v+32
	BYTE	W01
	BYTE		VOL     64*isaachtest_mvl/mxv
	BYTE		PAN     c_v+24
	BYTE	W02
	BYTE		        c_v+16
	BYTE	W02
	BYTE		VOL     60*isaachtest_mvl/mxv
	BYTE		PAN     c_v+8
	BYTE	W01
	BYTE		        c_v+0
	BYTE	W01
	BYTE		VOL     56*isaachtest_mvl/mxv
	BYTE	W01
	BYTE		PAN     c_v-8
	BYTE	W01
	BYTE		        c_v-16
	BYTE	W02
	BYTE		VOL     52*isaachtest_mvl/mxv
	BYTE		PAN     c_v-20
	BYTE	W01
	BYTE		        c_v-32
	BYTE	W01
	BYTE		VOL     48*isaachtest_mvl/mxv
	BYTE	W01
	BYTE		PAN     c_v-40
	BYTE	W01
	BYTE		        c_v-48
	BYTE	W02
	BYTE		VOL     44*isaachtest_mvl/mxv
	BYTE		PAN     c_v-56
	BYTE	W01
	BYTE		        c_v-64
	BYTE	W01
	BYTE		VOL     40*isaachtest_mvl/mxv
	BYTE	W01
	BYTE		MOD     0
	BYTE		N72     Cs4 
	BYTE	W01
	BYTE		PAN     c_v-48
	BYTE	W02
	BYTE		VOL     44*isaachtest_mvl/mxv
	BYTE		PAN     c_v-40
	BYTE	W01
	BYTE		        c_v-32
	BYTE	W01
	BYTE		VOL     48*isaachtest_mvl/mxv
	BYTE		PAN     c_v-24
	BYTE	W02
	BYTE		        c_v-16
	BYTE	W02
	BYTE		VOL     52*isaachtest_mvl/mxv
	BYTE		PAN     c_v-8
	BYTE	W01
	BYTE		        c_v+0
	BYTE	W01
	BYTE		VOL     56*isaachtest_mvl/mxv
	BYTE		PAN     c_v+8
	BYTE	W02
	BYTE		        c_v+16
	BYTE	W02
	BYTE		VOL     60*isaachtest_mvl/mxv
	BYTE		PAN     c_v+24
	BYTE	W01
	BYTE		        c_v+32
	BYTE	W01
	BYTE		        c_v+40
	BYTE	W01
	BYTE		VOL     64*isaachtest_mvl/mxv
	BYTE	W01
	BYTE		PAN     c_v+48
	BYTE	W02
	BYTE		VOL     68*isaachtest_mvl/mxv
	BYTE		PAN     c_v+56
	BYTE	W01
	BYTE		        c_v+63
	BYTE	W01
	BYTE		        c_v+56
	BYTE	W01
	BYTE		MOD     2
	BYTE	W01
	BYTE		PAN     c_v+48
	BYTE	W02
	BYTE		VOL     68*isaachtest_mvl/mxv
	BYTE		PAN     c_v+40
	BYTE	W01
	BYTE		        c_v+32
	BYTE	W01
	BYTE		VOL     64*isaachtest_mvl/mxv
	BYTE		PAN     c_v+24
	BYTE	W02
	BYTE		        c_v+16
	BYTE	W02
	BYTE		VOL     60*isaachtest_mvl/mxv
	BYTE		PAN     c_v+8
	BYTE	W01
	BYTE		        c_v+0
	BYTE	W01
	BYTE		VOL     56*isaachtest_mvl/mxv
	BYTE	W01
	BYTE		PAN     c_v-8
	BYTE	W01
	BYTE		        c_v-16
	BYTE	W02
	BYTE		VOL     52*isaachtest_mvl/mxv
	BYTE		PAN     c_v-20
	BYTE	W01
	BYTE		        c_v-32
	BYTE	W01
	BYTE		VOL     48*isaachtest_mvl/mxv
	BYTE	W01
	BYTE		PAN     c_v-40
	BYTE	W01
	BYTE		        c_v-48
	BYTE	W02
	BYTE		VOL     44*isaachtest_mvl/mxv
	BYTE		PAN     c_v-56
	BYTE	W01
	BYTE		        c_v-64
	BYTE	W01
	BYTE		VOL     40*isaachtest_mvl/mxv
	BYTE	W01
// 009   ----------------------------------------
	BYTE	W01
	BYTE		PAN     c_v-48
	BYTE	W02
	BYTE		VOL     44*isaachtest_mvl/mxv
	BYTE		PAN     c_v-40
	BYTE	W01
	BYTE		        c_v-32
	BYTE	W01
	BYTE		VOL     48*isaachtest_mvl/mxv
	BYTE		PAN     c_v-24
	BYTE	W02
	BYTE		        c_v-16
	BYTE	W02
	BYTE		VOL     52*isaachtest_mvl/mxv
	BYTE		PAN     c_v-8
	BYTE	W01
	BYTE		        c_v+0
	BYTE	W01
	BYTE		VOL     56*isaachtest_mvl/mxv
	BYTE		PAN     c_v+8
	BYTE	W02
	BYTE		        c_v+16
	BYTE	W02
	BYTE		VOL     60*isaachtest_mvl/mxv
	BYTE		PAN     c_v+24
	BYTE	W01
	BYTE		        c_v+32
	BYTE	W01
	BYTE		        c_v+40
	BYTE	W01
	BYTE		VOL     64*isaachtest_mvl/mxv
	BYTE	W01
	BYTE		PAN     c_v+48
	BYTE	W02
	BYTE		VOL     68*isaachtest_mvl/mxv
	BYTE		PAN     c_v+56
	BYTE	W01
	BYTE		        c_v+63
	BYTE	W01
	BYTE		MOD     2
	BYTE		PAN     c_v+56
	BYTE	W01
	BYTE		N24     Bn3 
	BYTE	W01
	BYTE		PAN     c_v+48
	BYTE	W02
	BYTE		VOL     68*isaachtest_mvl/mxv
	BYTE		PAN     c_v+40
	BYTE	W01
	BYTE		        c_v+32
	BYTE	W01
	BYTE		VOL     64*isaachtest_mvl/mxv
	BYTE		PAN     c_v+24
	BYTE	W02
	BYTE		        c_v+16
	BYTE	W02
	BYTE		VOL     60*isaachtest_mvl/mxv
	BYTE		PAN     c_v+8
	BYTE	W01
	BYTE		        c_v+0
	BYTE	W01
	BYTE		VOL     56*isaachtest_mvl/mxv
	BYTE	W01
	BYTE		PAN     c_v-8
	BYTE	W01
	BYTE		        c_v-16
	BYTE	W02
	BYTE		VOL     52*isaachtest_mvl/mxv
	BYTE		PAN     c_v-20
	BYTE	W01
	BYTE		        c_v-32
	BYTE	W01
	BYTE		VOL     48*isaachtest_mvl/mxv
	BYTE	W01
	BYTE		PAN     c_v-40
	BYTE	W01
	BYTE		        c_v-48
	BYTE	W02
	BYTE		VOL     44*isaachtest_mvl/mxv
	BYTE		PAN     c_v-56
	BYTE	W01
	BYTE		        c_v-64
	BYTE	W01
	BYTE		VOL     40*isaachtest_mvl/mxv
	BYTE	W01
	BYTE		MOD     0
	BYTE		N24     Cs4 
	BYTE	W01
	BYTE		PAN     c_v-48
	BYTE	W02
	BYTE		VOL     44*isaachtest_mvl/mxv
	BYTE		PAN     c_v-40
	BYTE	W01
	BYTE		        c_v-32
	BYTE	W01
	BYTE		VOL     48*isaachtest_mvl/mxv
	BYTE		PAN     c_v-24
	BYTE	W02
	BYTE		        c_v-16
	BYTE	W02
	BYTE		VOL     52*isaachtest_mvl/mxv
	BYTE		PAN     c_v-8
	BYTE	W01
	BYTE		        c_v+0
	BYTE	W01
	BYTE		VOL     56*isaachtest_mvl/mxv
	BYTE		PAN     c_v+8
	BYTE	W02
	BYTE		        c_v+16
	BYTE	W02
	BYTE		VOL     60*isaachtest_mvl/mxv
	BYTE		PAN     c_v+24
	BYTE	W01
	BYTE		        c_v+32
	BYTE	W01
	BYTE		        c_v+40
	BYTE	W01
	BYTE		VOL     64*isaachtest_mvl/mxv
	BYTE	W01
	BYTE		PAN     c_v+48
	BYTE	W02
	BYTE		VOL     68*isaachtest_mvl/mxv
	BYTE		PAN     c_v+56
	BYTE	W01
	BYTE		        c_v+63
	BYTE	W01
	BYTE		        c_v+56
	BYTE	W01
	BYTE		MOD     2
	BYTE		N24     Dn4 
	BYTE	W01
	BYTE		PAN     c_v+48
	BYTE	W02
	BYTE		VOL     68*isaachtest_mvl/mxv
	BYTE		PAN     c_v+40
	BYTE	W01
	BYTE		        c_v+32
	BYTE	W01
	BYTE		VOL     64*isaachtest_mvl/mxv
	BYTE		PAN     c_v+24
	BYTE	W02
	BYTE		        c_v+16
	BYTE	W02
	BYTE		VOL     60*isaachtest_mvl/mxv
	BYTE		PAN     c_v+8
	BYTE	W01
	BYTE		        c_v+0
	BYTE	W01
	BYTE		VOL     56*isaachtest_mvl/mxv
	BYTE	W01
	BYTE		PAN     c_v-8
	BYTE	W01
	BYTE		        c_v-16
	BYTE	W02
	BYTE		VOL     52*isaachtest_mvl/mxv
	BYTE		PAN     c_v-20
	BYTE	W01
	BYTE		        c_v-32
	BYTE	W01
	BYTE		VOL     48*isaachtest_mvl/mxv
	BYTE	W01
	BYTE		PAN     c_v-40
	BYTE	W01
	BYTE		        c_v-48
	BYTE	W02
	BYTE		VOL     44*isaachtest_mvl/mxv
	BYTE		PAN     c_v-56
	BYTE	W01
	BYTE		        c_v-64
	BYTE	W01
	BYTE		VOL     40*isaachtest_mvl/mxv
	BYTE	W01
// 010   ----------------------------------------
	BYTE		N72     En4 
	BYTE	W01
	BYTE		PAN     c_v-48
	BYTE	W02
	BYTE		VOL     44*isaachtest_mvl/mxv
	BYTE		PAN     c_v-40
	BYTE	W01
	BYTE		        c_v-32
	BYTE	W01
	BYTE		VOL     48*isaachtest_mvl/mxv
	BYTE		PAN     c_v-24
	BYTE	W02
	BYTE		        c_v-16
	BYTE	W02
	BYTE		VOL     52*isaachtest_mvl/mxv
	BYTE		PAN     c_v-8
	BYTE	W01
	BYTE		        c_v+0
	BYTE	W01
	BYTE		VOL     56*isaachtest_mvl/mxv
	BYTE		PAN     c_v+8
	BYTE	W02
	BYTE		        c_v+16
	BYTE	W02
	BYTE		VOL     60*isaachtest_mvl/mxv
	BYTE		PAN     c_v+24
	BYTE	W01
	BYTE		        c_v+32
	BYTE	W01
	BYTE		        c_v+40
	BYTE	W01
	BYTE		VOL     64*isaachtest_mvl/mxv
	BYTE	W01
	BYTE		PAN     c_v+48
	BYTE	W02
	BYTE		VOL     68*isaachtest_mvl/mxv
	BYTE		PAN     c_v+56
	BYTE	W01
	BYTE		        c_v+63
	BYTE	W01
	BYTE		MOD     2
	BYTE		PAN     c_v+56
	BYTE	W02
	BYTE		        c_v+48
	BYTE	W02
	BYTE		VOL     68*isaachtest_mvl/mxv
	BYTE		PAN     c_v+40
	BYTE	W01
	BYTE		        c_v+32
	BYTE	W01
	BYTE		VOL     64*isaachtest_mvl/mxv
	BYTE		PAN     c_v+24
	BYTE	W02
	BYTE		        c_v+16
	BYTE	W02
	BYTE		VOL     60*isaachtest_mvl/mxv
	BYTE		PAN     c_v+8
	BYTE	W01
	BYTE		        c_v+0
	BYTE	W01
	BYTE		VOL     56*isaachtest_mvl/mxv
	BYTE	W01
	BYTE		PAN     c_v-8
	BYTE	W01
	BYTE		        c_v-16
	BYTE	W02
	BYTE		VOL     52*isaachtest_mvl/mxv
	BYTE		PAN     c_v-20
	BYTE	W01
	BYTE		        c_v-32
	BYTE	W01
	BYTE		VOL     48*isaachtest_mvl/mxv
	BYTE	W01
	BYTE		PAN     c_v-40
	BYTE	W01
	BYTE		        c_v-48
	BYTE	W02
	BYTE		VOL     44*isaachtest_mvl/mxv
	BYTE		PAN     c_v-56
	BYTE	W01
	BYTE		        c_v-64
	BYTE	W01
	BYTE		VOL     40*isaachtest_mvl/mxv
	BYTE	W01
	BYTE		MOD     0
	BYTE	W01
	BYTE		PAN     c_v-48
	BYTE	W02
	BYTE		VOL     44*isaachtest_mvl/mxv
	BYTE		PAN     c_v-40
	BYTE	W01
	BYTE		        c_v-32
	BYTE	W01
	BYTE		VOL     48*isaachtest_mvl/mxv
	BYTE		PAN     c_v-24
	BYTE	W02
	BYTE		        c_v-16
	BYTE	W02
	BYTE		VOL     52*isaachtest_mvl/mxv
	BYTE		PAN     c_v-8
	BYTE	W01
	BYTE		        c_v+0
	BYTE	W01
	BYTE		VOL     56*isaachtest_mvl/mxv
	BYTE		PAN     c_v+8
	BYTE	W02
	BYTE		        c_v+16
	BYTE	W02
	BYTE		VOL     60*isaachtest_mvl/mxv
	BYTE		PAN     c_v+24
	BYTE	W01
	BYTE		        c_v+32
	BYTE	W01
	BYTE		        c_v+40
	BYTE	W01
	BYTE		VOL     64*isaachtest_mvl/mxv
	BYTE	W01
	BYTE		PAN     c_v+48
	BYTE	W02
	BYTE		VOL     68*isaachtest_mvl/mxv
	BYTE		PAN     c_v+56
	BYTE	W01
	BYTE		        c_v+63
	BYTE	W01
	BYTE		        c_v+56
	BYTE	W01
	BYTE		MOD     2
	BYTE		N24     Cs4 
	BYTE	W01
	BYTE		PAN     c_v+48
	BYTE	W02
	BYTE		VOL     68*isaachtest_mvl/mxv
	BYTE		PAN     c_v+40
	BYTE	W01
	BYTE		        c_v+32
	BYTE	W01
	BYTE		VOL     64*isaachtest_mvl/mxv
	BYTE		PAN     c_v+24
	BYTE	W02
	BYTE		        c_v+16
	BYTE	W02
	BYTE		VOL     60*isaachtest_mvl/mxv
	BYTE		PAN     c_v+8
	BYTE	W01
	BYTE		        c_v+0
	BYTE	W01
	BYTE		VOL     56*isaachtest_mvl/mxv
	BYTE	W01
	BYTE		PAN     c_v-8
	BYTE	W01
	BYTE		        c_v-16
	BYTE	W02
	BYTE		VOL     52*isaachtest_mvl/mxv
	BYTE		PAN     c_v-20
	BYTE	W01
	BYTE		        c_v-32
	BYTE	W01
	BYTE		VOL     48*isaachtest_mvl/mxv
	BYTE	W01
	BYTE		PAN     c_v-40
	BYTE	W01
	BYTE		        c_v-48
	BYTE	W02
	BYTE		VOL     44*isaachtest_mvl/mxv
	BYTE		PAN     c_v-56
	BYTE	W01
	BYTE		        c_v-64
	BYTE	W01
	BYTE		VOL     40*isaachtest_mvl/mxv
	BYTE	W01
// 011   ----------------------------------------
	BYTE		N72     An4 
	BYTE	W01
	BYTE		PAN     c_v-48
	BYTE	W02
	BYTE		VOL     44*isaachtest_mvl/mxv
	BYTE		PAN     c_v-40
	BYTE	W01
	BYTE		        c_v-32
	BYTE	W01
	BYTE		VOL     48*isaachtest_mvl/mxv
	BYTE		PAN     c_v-24
	BYTE	W02
	BYTE		        c_v-16
	BYTE	W02
	BYTE		VOL     52*isaachtest_mvl/mxv
	BYTE		PAN     c_v-8
	BYTE	W01
	BYTE		        c_v+0
	BYTE	W01
	BYTE		VOL     56*isaachtest_mvl/mxv
	BYTE		PAN     c_v+8
	BYTE	W02
	BYTE		        c_v+16
	BYTE	W02
	BYTE		VOL     60*isaachtest_mvl/mxv
	BYTE		PAN     c_v+24
	BYTE	W01
	BYTE		        c_v+32
	BYTE	W01
	BYTE		        c_v+40
	BYTE	W01
	BYTE		VOL     64*isaachtest_mvl/mxv
	BYTE	W01
	BYTE		PAN     c_v+48
	BYTE	W02
	BYTE		VOL     68*isaachtest_mvl/mxv
	BYTE		PAN     c_v+56
	BYTE	W01
	BYTE		        c_v+63
	BYTE	W01
	BYTE		MOD     2
	BYTE		PAN     c_v+56
	BYTE	W02
	BYTE		        c_v+48
	BYTE	W02
	BYTE		VOL     68*isaachtest_mvl/mxv
	BYTE		PAN     c_v+40
	BYTE	W01
	BYTE		        c_v+32
	BYTE	W01
	BYTE		VOL     64*isaachtest_mvl/mxv
	BYTE		PAN     c_v+24
	BYTE	W02
	BYTE		        c_v+16
	BYTE	W02
	BYTE		VOL     60*isaachtest_mvl/mxv
	BYTE		PAN     c_v+8
	BYTE	W01
	BYTE		        c_v+0
	BYTE	W01
	BYTE		VOL     56*isaachtest_mvl/mxv
	BYTE	W01
	BYTE		PAN     c_v-8
	BYTE	W01
	BYTE		        c_v-16
	BYTE	W02
	BYTE		VOL     52*isaachtest_mvl/mxv
	BYTE		PAN     c_v-20
	BYTE	W01
	BYTE		        c_v-32
	BYTE	W01
	BYTE		VOL     48*isaachtest_mvl/mxv
	BYTE	W01
	BYTE		PAN     c_v-40
	BYTE	W01
	BYTE		        c_v-48
	BYTE	W02
	BYTE		VOL     44*isaachtest_mvl/mxv
	BYTE		PAN     c_v-56
	BYTE	W01
	BYTE		        c_v-64
	BYTE	W01
	BYTE		VOL     40*isaachtest_mvl/mxv
	BYTE	W01
	BYTE		MOD     0
	BYTE	W01
	BYTE		PAN     c_v-48
	BYTE	W02
	BYTE		VOL     44*isaachtest_mvl/mxv
	BYTE		PAN     c_v-40
	BYTE	W01
	BYTE		        c_v-32
	BYTE	W01
	BYTE		VOL     48*isaachtest_mvl/mxv
	BYTE		PAN     c_v-24
	BYTE	W02
	BYTE		        c_v-16
	BYTE	W02
	BYTE		VOL     52*isaachtest_mvl/mxv
	BYTE		PAN     c_v-8
	BYTE	W01
	BYTE		        c_v+0
	BYTE	W01
	BYTE		VOL     56*isaachtest_mvl/mxv
	BYTE		PAN     c_v+8
	BYTE	W02
	BYTE		        c_v+16
	BYTE	W02
	BYTE		VOL     60*isaachtest_mvl/mxv
	BYTE		PAN     c_v+24
	BYTE	W01
	BYTE		        c_v+32
	BYTE	W01
	BYTE		        c_v+40
	BYTE	W01
	BYTE		VOL     64*isaachtest_mvl/mxv
	BYTE	W01
	BYTE		PAN     c_v+48
	BYTE	W02
	BYTE		VOL     68*isaachtest_mvl/mxv
	BYTE		PAN     c_v+56
	BYTE	W01
	BYTE		        c_v+63
	BYTE	W01
	BYTE		        c_v+56
	BYTE	W01
	BYTE		MOD     2
	BYTE		N24     Gs4 
	BYTE	W01
	BYTE		PAN     c_v+48
	BYTE	W02
	BYTE		VOL     68*isaachtest_mvl/mxv
	BYTE		PAN     c_v+40
	BYTE	W01
	BYTE		        c_v+32
	BYTE	W01
	BYTE		VOL     64*isaachtest_mvl/mxv
	BYTE		PAN     c_v+24
	BYTE	W02
	BYTE		        c_v+16
	BYTE	W02
	BYTE		VOL     60*isaachtest_mvl/mxv
	BYTE		PAN     c_v+8
	BYTE	W01
	BYTE		        c_v+0
	BYTE	W01
	BYTE		VOL     56*isaachtest_mvl/mxv
	BYTE	W01
	BYTE		PAN     c_v-8
	BYTE	W01
	BYTE		        c_v-16
	BYTE	W02
	BYTE		VOL     52*isaachtest_mvl/mxv
	BYTE		PAN     c_v-20
	BYTE	W01
	BYTE		        c_v-32
	BYTE	W01
	BYTE		VOL     48*isaachtest_mvl/mxv
	BYTE	W01
	BYTE		PAN     c_v-40
	BYTE	W01
	BYTE		        c_v-48
	BYTE	W02
	BYTE		VOL     44*isaachtest_mvl/mxv
	BYTE		PAN     c_v-56
	BYTE	W01
	BYTE		        c_v-64
	BYTE	W01
	BYTE		VOL     40*isaachtest_mvl/mxv
	BYTE	W01
// 012   ----------------------------------------
	BYTE		N48     Fs4 
	BYTE	W01
	BYTE		PAN     c_v-48
	BYTE	W02
	BYTE		VOL     44*isaachtest_mvl/mxv
	BYTE		PAN     c_v-40
	BYTE	W01
	BYTE		        c_v-32
	BYTE	W01
	BYTE		VOL     48*isaachtest_mvl/mxv
	BYTE		PAN     c_v-24
	BYTE	W02
	BYTE		        c_v-16
	BYTE	W02
	BYTE		VOL     52*isaachtest_mvl/mxv
	BYTE		PAN     c_v-8
	BYTE	W01
	BYTE		        c_v+0
	BYTE	W01
	BYTE		VOL     56*isaachtest_mvl/mxv
	BYTE		PAN     c_v+8
	BYTE	W02
	BYTE		        c_v+16
	BYTE	W02
	BYTE		VOL     60*isaachtest_mvl/mxv
	BYTE		PAN     c_v+24
	BYTE	W01
	BYTE		        c_v+32
	BYTE	W01
	BYTE		        c_v+40
	BYTE	W01
	BYTE		VOL     64*isaachtest_mvl/mxv
	BYTE	W01
	BYTE		PAN     c_v+48
	BYTE	W02
	BYTE		VOL     68*isaachtest_mvl/mxv
	BYTE		PAN     c_v+56
	BYTE	W01
	BYTE		        c_v+63
	BYTE	W01
	BYTE		MOD     2
	BYTE		PAN     c_v+56
	BYTE	W02
	BYTE		        c_v+48
	BYTE	W02
	BYTE		VOL     68*isaachtest_mvl/mxv
	BYTE		PAN     c_v+40
	BYTE	W01
	BYTE		        c_v+32
	BYTE	W01
	BYTE		VOL     64*isaachtest_mvl/mxv
	BYTE		PAN     c_v+24
	BYTE	W02
	BYTE		        c_v+16
	BYTE	W02
	BYTE		VOL     60*isaachtest_mvl/mxv
	BYTE		PAN     c_v+8
	BYTE	W01
	BYTE		        c_v+0
	BYTE	W01
	BYTE		VOL     56*isaachtest_mvl/mxv
	BYTE	W01
	BYTE		PAN     c_v-8
	BYTE	W01
	BYTE		        c_v-16
	BYTE	W02
	BYTE		VOL     52*isaachtest_mvl/mxv
	BYTE		PAN     c_v-20
	BYTE	W01
	BYTE		        c_v-32
	BYTE	W01
	BYTE		VOL     48*isaachtest_mvl/mxv
	BYTE	W01
	BYTE		PAN     c_v-40
	BYTE	W01
	BYTE		        c_v-48
	BYTE	W02
	BYTE		VOL     44*isaachtest_mvl/mxv
	BYTE		PAN     c_v-56
	BYTE	W01
	BYTE		        c_v-64
	BYTE	W01
	BYTE		VOL     40*isaachtest_mvl/mxv
	BYTE	W01
	BYTE		MOD     0
	BYTE		N72     Cs4 
	BYTE	W01
	BYTE		PAN     c_v-48
	BYTE	W02
	BYTE		VOL     44*isaachtest_mvl/mxv
	BYTE		PAN     c_v-40
	BYTE	W01
	BYTE		        c_v-32
	BYTE	W01
	BYTE		VOL     48*isaachtest_mvl/mxv
	BYTE		PAN     c_v-24
	BYTE	W02
	BYTE		        c_v-16
	BYTE	W02
	BYTE		VOL     52*isaachtest_mvl/mxv
	BYTE		PAN     c_v-8
	BYTE	W01
	BYTE		        c_v+0
	BYTE	W01
	BYTE		VOL     56*isaachtest_mvl/mxv
	BYTE		PAN     c_v+8
	BYTE	W02
	BYTE		        c_v+16
	BYTE	W02
	BYTE		VOL     60*isaachtest_mvl/mxv
	BYTE		PAN     c_v+24
	BYTE	W01
	BYTE		        c_v+32
	BYTE	W01
	BYTE		        c_v+40
	BYTE	W01
	BYTE		VOL     64*isaachtest_mvl/mxv
	BYTE	W01
	BYTE		PAN     c_v+48
	BYTE	W02
	BYTE		VOL     68*isaachtest_mvl/mxv
	BYTE		PAN     c_v+56
	BYTE	W01
	BYTE		        c_v+63
	BYTE	W01
	BYTE		        c_v+56
	BYTE	W01
	BYTE		MOD     2
	BYTE	W01
	BYTE		PAN     c_v+48
	BYTE	W02
	BYTE		VOL     68*isaachtest_mvl/mxv
	BYTE		PAN     c_v+40
	BYTE	W01
	BYTE		        c_v+32
	BYTE	W01
	BYTE		VOL     64*isaachtest_mvl/mxv
	BYTE		PAN     c_v+24
	BYTE	W02
	BYTE		        c_v+16
	BYTE	W02
	BYTE		VOL     60*isaachtest_mvl/mxv
	BYTE		PAN     c_v+8
	BYTE	W01
	BYTE		        c_v+0
	BYTE	W01
	BYTE		VOL     56*isaachtest_mvl/mxv
	BYTE	W01
	BYTE		PAN     c_v-8
	BYTE	W01
	BYTE		        c_v-16
	BYTE	W02
	BYTE		VOL     52*isaachtest_mvl/mxv
	BYTE		PAN     c_v-20
	BYTE	W01
	BYTE		        c_v-32
	BYTE	W01
	BYTE		VOL     48*isaachtest_mvl/mxv
	BYTE	W01
	BYTE		PAN     c_v-40
	BYTE	W01
	BYTE		        c_v-48
	BYTE	W02
	BYTE		VOL     44*isaachtest_mvl/mxv
	BYTE		PAN     c_v-56
	BYTE	W01
	BYTE		        c_v-64
	BYTE	W01
	BYTE		VOL     40*isaachtest_mvl/mxv
	BYTE	W01
// 013   ----------------------------------------
	BYTE	W01
	BYTE		PAN     c_v-48
	BYTE	W02
	BYTE		VOL     44*isaachtest_mvl/mxv
	BYTE		PAN     c_v-40
	BYTE	W01
	BYTE		        c_v-32
	BYTE	W01
	BYTE		VOL     48*isaachtest_mvl/mxv
	BYTE		PAN     c_v-24
	BYTE	W02
	BYTE		        c_v-16
	BYTE	W02
	BYTE		VOL     52*isaachtest_mvl/mxv
	BYTE		PAN     c_v-8
	BYTE	W01
	BYTE		        c_v+0
	BYTE	W01
	BYTE		VOL     56*isaachtest_mvl/mxv
	BYTE		PAN     c_v+8
	BYTE	W02
	BYTE		        c_v+16
	BYTE	W02
	BYTE		VOL     60*isaachtest_mvl/mxv
	BYTE		PAN     c_v+24
	BYTE	W01
	BYTE		        c_v+32
	BYTE	W01
	BYTE		        c_v+40
	BYTE	W01
	BYTE		VOL     64*isaachtest_mvl/mxv
	BYTE	W01
	BYTE		PAN     c_v+48
	BYTE	W02
	BYTE		VOL     68*isaachtest_mvl/mxv
	BYTE		PAN     c_v+56
	BYTE	W01
	BYTE		        c_v+63
	BYTE	W01
	BYTE		MOD     2
	BYTE		PAN     c_v+56
	BYTE	W01
	BYTE		N24     Bn3 
	BYTE	W01
	BYTE		PAN     c_v+48
	BYTE	W02
	BYTE		VOL     68*isaachtest_mvl/mxv
	BYTE		PAN     c_v+40
	BYTE	W01
	BYTE		        c_v+32
	BYTE	W01
	BYTE		VOL     64*isaachtest_mvl/mxv
	BYTE		PAN     c_v+24
	BYTE	W02
	BYTE		        c_v+16
	BYTE	W02
	BYTE		VOL     60*isaachtest_mvl/mxv
	BYTE		PAN     c_v+8
	BYTE	W01
	BYTE		        c_v+0
	BYTE	W01
	BYTE		VOL     56*isaachtest_mvl/mxv
	BYTE	W01
	BYTE		PAN     c_v-8
	BYTE	W01
	BYTE		        c_v-16
	BYTE	W02
	BYTE		VOL     52*isaachtest_mvl/mxv
	BYTE		PAN     c_v-20
	BYTE	W01
	BYTE		        c_v-32
	BYTE	W01
	BYTE		VOL     48*isaachtest_mvl/mxv
	BYTE	W01
	BYTE		PAN     c_v-40
	BYTE	W01
	BYTE		        c_v-48
	BYTE	W02
	BYTE		VOL     44*isaachtest_mvl/mxv
	BYTE		PAN     c_v-56
	BYTE	W01
	BYTE		        c_v-64
	BYTE	W01
	BYTE		VOL     40*isaachtest_mvl/mxv
	BYTE	W01
	BYTE		MOD     0
	BYTE		N24     En4 
	BYTE	W01
	BYTE		PAN     c_v-48
	BYTE	W02
	BYTE		VOL     44*isaachtest_mvl/mxv
	BYTE		PAN     c_v-40
	BYTE	W01
	BYTE		        c_v-32
	BYTE	W01
	BYTE		VOL     48*isaachtest_mvl/mxv
	BYTE		PAN     c_v-24
	BYTE	W02
	BYTE		        c_v-16
	BYTE	W02
	BYTE		VOL     52*isaachtest_mvl/mxv
	BYTE		PAN     c_v-8
	BYTE	W01
	BYTE		        c_v+0
	BYTE	W01
	BYTE		VOL     56*isaachtest_mvl/mxv
	BYTE		PAN     c_v+8
	BYTE	W02
	BYTE		        c_v+16
	BYTE	W02
	BYTE		VOL     60*isaachtest_mvl/mxv
	BYTE		PAN     c_v+24
	BYTE	W01
	BYTE		        c_v+32
	BYTE	W01
	BYTE		        c_v+40
	BYTE	W01
	BYTE		VOL     64*isaachtest_mvl/mxv
	BYTE	W01
	BYTE		PAN     c_v+48
	BYTE	W02
	BYTE		VOL     68*isaachtest_mvl/mxv
	BYTE		PAN     c_v+56
	BYTE	W01
	BYTE		        c_v+63
	BYTE	W01
	BYTE		        c_v+56
	BYTE	W01
	BYTE		MOD     2
	BYTE		N24     Gs4 
	BYTE	W01
	BYTE		PAN     c_v+48
	BYTE	W02
	BYTE		VOL     68*isaachtest_mvl/mxv
	BYTE		PAN     c_v+40
	BYTE	W01
	BYTE		        c_v+32
	BYTE	W01
	BYTE		VOL     64*isaachtest_mvl/mxv
	BYTE		PAN     c_v+24
	BYTE	W02
	BYTE		        c_v+16
	BYTE	W02
	BYTE		VOL     60*isaachtest_mvl/mxv
	BYTE		PAN     c_v+8
	BYTE	W01
	BYTE		        c_v+0
	BYTE	W01
	BYTE		VOL     56*isaachtest_mvl/mxv
	BYTE	W01
	BYTE		PAN     c_v-8
	BYTE	W01
	BYTE		        c_v-16
	BYTE	W02
	BYTE		VOL     52*isaachtest_mvl/mxv
	BYTE		PAN     c_v-20
	BYTE	W01
	BYTE		        c_v-32
	BYTE	W01
	BYTE		VOL     48*isaachtest_mvl/mxv
	BYTE	W01
	BYTE		PAN     c_v-40
	BYTE	W01
	BYTE		        c_v-48
	BYTE	W02
	BYTE		VOL     44*isaachtest_mvl/mxv
	BYTE		PAN     c_v-56
	BYTE	W01
	BYTE		        c_v-64
	BYTE	W01
	BYTE		VOL     40*isaachtest_mvl/mxv
	BYTE	W01
// 014   ----------------------------------------
	BYTE		N68     Bn4 
	BYTE	W01
	BYTE		PAN     c_v-48
	BYTE	W02
	BYTE		VOL     44*isaachtest_mvl/mxv
	BYTE		PAN     c_v-40
	BYTE	W01
	BYTE		        c_v-32
	BYTE	W01
	BYTE		VOL     48*isaachtest_mvl/mxv
	BYTE		PAN     c_v-24
	BYTE	W02
	BYTE		        c_v-16
	BYTE	W02
	BYTE		VOL     52*isaachtest_mvl/mxv
	BYTE		PAN     c_v-8
	BYTE	W01
	BYTE		        c_v+0
	BYTE	W01
	BYTE		VOL     56*isaachtest_mvl/mxv
	BYTE		PAN     c_v+8
	BYTE	W02
	BYTE		        c_v+16
	BYTE	W02
	BYTE		VOL     60*isaachtest_mvl/mxv
	BYTE		PAN     c_v+24
	BYTE	W01
	BYTE		        c_v+32
	BYTE	W01
	BYTE		        c_v+40
	BYTE	W01
	BYTE		VOL     64*isaachtest_mvl/mxv
	BYTE	W01
	BYTE		PAN     c_v+48
	BYTE	W02
	BYTE		VOL     68*isaachtest_mvl/mxv
	BYTE		PAN     c_v+56
	BYTE	W01
	BYTE		        c_v+63
	BYTE	W01
	BYTE		MOD     2
	BYTE		PAN     c_v+56
	BYTE	W02
	BYTE		        c_v+48
	BYTE	W02
	BYTE		VOL     68*isaachtest_mvl/mxv
	BYTE		PAN     c_v+40
	BYTE	W01
	BYTE		        c_v+32
	BYTE	W01
	BYTE		VOL     64*isaachtest_mvl/mxv
	BYTE		PAN     c_v+24
	BYTE	W02
	BYTE		        c_v+16
	BYTE	W02
	BYTE		VOL     60*isaachtest_mvl/mxv
	BYTE		PAN     c_v+8
	BYTE	W01
	BYTE		        c_v+0
	BYTE	W01
	BYTE		VOL     56*isaachtest_mvl/mxv
	BYTE	W01
	BYTE		PAN     c_v-8
	BYTE	W01
	BYTE		        c_v-16
	BYTE	W02
	BYTE		VOL     52*isaachtest_mvl/mxv
	BYTE		PAN     c_v-20
	BYTE	W01
	BYTE		        c_v-32
	BYTE	W01
	BYTE		VOL     48*isaachtest_mvl/mxv
	BYTE	W01
	BYTE		PAN     c_v-40
	BYTE	W01
	BYTE		        c_v-48
	BYTE	W02
	BYTE		VOL     44*isaachtest_mvl/mxv
	BYTE		PAN     c_v-56
	BYTE	W01
	BYTE		        c_v-64
	BYTE	W01
	BYTE		VOL     40*isaachtest_mvl/mxv
	BYTE	W01
	BYTE		MOD     0
	BYTE	W01
	BYTE		PAN     c_v-48
	BYTE	W02
	BYTE		VOL     44*isaachtest_mvl/mxv
	BYTE		PAN     c_v-40
	BYTE	W01
	BYTE		        c_v-32
	BYTE	W01
	BYTE		VOL     48*isaachtest_mvl/mxv
	BYTE		PAN     c_v-24
	BYTE	W02
	BYTE		        c_v-16
	BYTE	W02
	BYTE		VOL     52*isaachtest_mvl/mxv
	BYTE		PAN     c_v-8
	BYTE	W01
	BYTE		        c_v+0
	BYTE	W01
	BYTE		VOL     56*isaachtest_mvl/mxv
	BYTE		PAN     c_v+8
	BYTE	W02
	BYTE		        c_v+16
	BYTE	W02
	BYTE		VOL     60*isaachtest_mvl/mxv
	BYTE		PAN     c_v+24
	BYTE	W01
	BYTE		        c_v+32
	BYTE	W01
	BYTE		        c_v+40
	BYTE	W01
	BYTE		VOL     64*isaachtest_mvl/mxv
	BYTE	W01
	BYTE		PAN     c_v+48
	BYTE	W02
	BYTE		VOL     68*isaachtest_mvl/mxv
	BYTE		PAN     c_v+56
	BYTE	W01
	BYTE		        c_v+63
	BYTE	W01
	BYTE		        c_v+56
	BYTE	W01
	BYTE		MOD     2
	BYTE		N24     Gs4 
	BYTE	W01
	BYTE		PAN     c_v+48
	BYTE	W02
	BYTE		VOL     68*isaachtest_mvl/mxv
	BYTE		PAN     c_v+40
	BYTE	W01
	BYTE		        c_v+32
	BYTE	W01
	BYTE		VOL     64*isaachtest_mvl/mxv
	BYTE		PAN     c_v+24
	BYTE	W02
	BYTE		        c_v+16
	BYTE	W02
	BYTE		VOL     60*isaachtest_mvl/mxv
	BYTE		PAN     c_v+8
	BYTE	W01
	BYTE		        c_v+0
	BYTE	W01
	BYTE		VOL     56*isaachtest_mvl/mxv
	BYTE	W01
	BYTE		PAN     c_v-8
	BYTE	W01
	BYTE		        c_v-16
	BYTE	W02
	BYTE		VOL     52*isaachtest_mvl/mxv
	BYTE		PAN     c_v-20
	BYTE	W01
	BYTE		        c_v-32
	BYTE	W01
	BYTE		VOL     48*isaachtest_mvl/mxv
	BYTE	W01
	BYTE		PAN     c_v-40
	BYTE	W01
	BYTE		        c_v-48
	BYTE	W02
	BYTE		VOL     44*isaachtest_mvl/mxv
	BYTE		PAN     c_v-56
	BYTE	W01
	BYTE		        c_v-64
	BYTE	W01
	BYTE		VOL     40*isaachtest_mvl/mxv
	BYTE	W01
// 015   ----------------------------------------
	BYTE		N48     An4 
	BYTE	W01
	BYTE		PAN     c_v-48
	BYTE	W02
	BYTE		VOL     44*isaachtest_mvl/mxv
	BYTE		PAN     c_v-40
	BYTE	W01
	BYTE		        c_v-32
	BYTE	W01
	BYTE		VOL     48*isaachtest_mvl/mxv
	BYTE		PAN     c_v-24
	BYTE	W02
	BYTE		        c_v-16
	BYTE	W02
	BYTE		VOL     52*isaachtest_mvl/mxv
	BYTE		PAN     c_v-8
	BYTE	W01
	BYTE		        c_v+0
	BYTE	W01
	BYTE		VOL     56*isaachtest_mvl/mxv
	BYTE		PAN     c_v+8
	BYTE	W02
	BYTE		        c_v+16
	BYTE	W02
	BYTE		VOL     60*isaachtest_mvl/mxv
	BYTE		PAN     c_v+24
	BYTE	W01
	BYTE		        c_v+32
	BYTE	W01
	BYTE		        c_v+40
	BYTE	W01
	BYTE		VOL     64*isaachtest_mvl/mxv
	BYTE	W01
	BYTE		PAN     c_v+48
	BYTE	W02
	BYTE		VOL     68*isaachtest_mvl/mxv
	BYTE		PAN     c_v+56
	BYTE	W01
	BYTE		        c_v+63
	BYTE	W01
	BYTE		MOD     2
	BYTE		PAN     c_v+56
	BYTE	W02
	BYTE		        c_v+48
	BYTE	W02
	BYTE		VOL     68*isaachtest_mvl/mxv
	BYTE		PAN     c_v+40
	BYTE	W01
	BYTE		        c_v+32
	BYTE	W01
	BYTE		VOL     64*isaachtest_mvl/mxv
	BYTE		PAN     c_v+24
	BYTE	W02
	BYTE		        c_v+16
	BYTE	W02
	BYTE		VOL     60*isaachtest_mvl/mxv
	BYTE		PAN     c_v+8
	BYTE	W01
	BYTE		        c_v+0
	BYTE	W01
	BYTE		VOL     56*isaachtest_mvl/mxv
	BYTE	W01
	BYTE		PAN     c_v-8
	BYTE	W01
	BYTE		        c_v-16
	BYTE	W02
	BYTE		VOL     52*isaachtest_mvl/mxv
	BYTE		PAN     c_v-20
	BYTE	W01
	BYTE		        c_v-32
	BYTE	W01
	BYTE		VOL     48*isaachtest_mvl/mxv
	BYTE	W01
	BYTE		PAN     c_v-40
	BYTE	W01
	BYTE		        c_v-48
	BYTE	W02
	BYTE		VOL     44*isaachtest_mvl/mxv
	BYTE		PAN     c_v-56
	BYTE	W01
	BYTE		        c_v-64
	BYTE	W01
	BYTE		VOL     40*isaachtest_mvl/mxv
	BYTE	W01
	BYTE		MOD     0
	BYTE		N48     Bn4 
	BYTE	W01
	BYTE		PAN     c_v-48
	BYTE	W02
	BYTE		VOL     44*isaachtest_mvl/mxv
	BYTE		PAN     c_v-40
	BYTE	W01
	BYTE		        c_v-32
	BYTE	W01
	BYTE		VOL     48*isaachtest_mvl/mxv
	BYTE		PAN     c_v-24
	BYTE	W02
	BYTE		        c_v-16
	BYTE	W02
	BYTE		VOL     52*isaachtest_mvl/mxv
	BYTE		PAN     c_v-8
	BYTE	W01
	BYTE		        c_v+0
	BYTE	W01
	BYTE		VOL     56*isaachtest_mvl/mxv
	BYTE		PAN     c_v+8
	BYTE	W02
	BYTE		        c_v+16
	BYTE	W02
	BYTE		VOL     60*isaachtest_mvl/mxv
	BYTE		PAN     c_v+24
	BYTE	W01
	BYTE		        c_v+32
	BYTE	W01
	BYTE		        c_v+40
	BYTE	W01
	BYTE		VOL     64*isaachtest_mvl/mxv
	BYTE	W01
	BYTE		PAN     c_v+48
	BYTE	W02
	BYTE		VOL     68*isaachtest_mvl/mxv
	BYTE		PAN     c_v+56
	BYTE	W01
	BYTE		        c_v+63
	BYTE	W01
	BYTE		        c_v+56
	BYTE	W01
	BYTE		MOD     2
	BYTE	W01
	BYTE		PAN     c_v+48
	BYTE	W02
	BYTE		VOL     68*isaachtest_mvl/mxv
	BYTE		PAN     c_v+40
	BYTE	W01
	BYTE		        c_v+32
	BYTE	W01
	BYTE		VOL     64*isaachtest_mvl/mxv
	BYTE		PAN     c_v+24
	BYTE	W02
	BYTE		        c_v+16
	BYTE	W02
	BYTE		VOL     60*isaachtest_mvl/mxv
	BYTE		PAN     c_v+8
	BYTE	W01
	BYTE		        c_v+0
	BYTE	W01
	BYTE		VOL     56*isaachtest_mvl/mxv
	BYTE	W01
	BYTE		PAN     c_v-8
	BYTE	W01
	BYTE		        c_v-16
	BYTE	W02
	BYTE		VOL     52*isaachtest_mvl/mxv
	BYTE		PAN     c_v-20
	BYTE	W01
	BYTE		        c_v-32
	BYTE	W01
	BYTE		VOL     48*isaachtest_mvl/mxv
	BYTE	W01
	BYTE		PAN     c_v-40
	BYTE	W01
	BYTE		        c_v-48
	BYTE	W02
	BYTE		VOL     44*isaachtest_mvl/mxv
	BYTE		PAN     c_v-56
	BYTE	W01
	BYTE		        c_v-64
	BYTE	W01
	BYTE		VOL     40*isaachtest_mvl/mxv
	BYTE	W01
// 016   ----------------------------------------
	BYTE		N48     Cs5 
	BYTE	W01
	BYTE		PAN     c_v-48
	BYTE	W02
	BYTE		VOL     44*isaachtest_mvl/mxv
	BYTE		PAN     c_v-40
	BYTE	W01
	BYTE		        c_v-32
	BYTE	W01
	BYTE		VOL     48*isaachtest_mvl/mxv
	BYTE		PAN     c_v-24
	BYTE	W02
	BYTE		        c_v-16
	BYTE	W02
	BYTE		VOL     52*isaachtest_mvl/mxv
	BYTE		PAN     c_v-8
	BYTE	W01
	BYTE		        c_v+0
	BYTE	W01
	BYTE		VOL     56*isaachtest_mvl/mxv
	BYTE		PAN     c_v+8
	BYTE	W02
	BYTE		        c_v+16
	BYTE	W02
	BYTE		VOL     60*isaachtest_mvl/mxv
	BYTE		PAN     c_v+24
	BYTE	W01
	BYTE		        c_v+32
	BYTE	W01
	BYTE		        c_v+40
	BYTE	W01
	BYTE		VOL     64*isaachtest_mvl/mxv
	BYTE	W01
	BYTE		PAN     c_v+48
	BYTE	W02
	BYTE		VOL     68*isaachtest_mvl/mxv
	BYTE		PAN     c_v+56
	BYTE	W01
	BYTE		        c_v+63
	BYTE	W01
	BYTE		MOD     2
	BYTE		PAN     c_v+56
	BYTE	W02
	BYTE		        c_v+48
	BYTE	W02
	BYTE		VOL     68*isaachtest_mvl/mxv
	BYTE		PAN     c_v+40
	BYTE	W01
	BYTE		        c_v+32
	BYTE	W01
	BYTE		VOL     64*isaachtest_mvl/mxv
	BYTE		PAN     c_v+24
	BYTE	W02
	BYTE		        c_v+16
	BYTE	W02
	BYTE		VOL     60*isaachtest_mvl/mxv
	BYTE		PAN     c_v+8
	BYTE	W01
	BYTE		        c_v+0
	BYTE	W01
	BYTE		VOL     56*isaachtest_mvl/mxv
	BYTE	W01
	BYTE		PAN     c_v-8
	BYTE	W01
	BYTE		        c_v-16
	BYTE	W02
	BYTE		VOL     52*isaachtest_mvl/mxv
	BYTE		PAN     c_v-20
	BYTE	W01
	BYTE		        c_v-32
	BYTE	W01
	BYTE		VOL     48*isaachtest_mvl/mxv
	BYTE	W01
	BYTE		PAN     c_v-40
	BYTE	W01
	BYTE		        c_v-48
	BYTE	W02
	BYTE		VOL     44*isaachtest_mvl/mxv
	BYTE		PAN     c_v-56
	BYTE	W01
	BYTE		        c_v-64
	BYTE	W01
	BYTE		VOL     40*isaachtest_mvl/mxv
	BYTE	W01
	BYTE		MOD     0
	BYTE		N24     Fs4 
	BYTE	W01
	BYTE		PAN     c_v-48
	BYTE	W02
	BYTE		VOL     44*isaachtest_mvl/mxv
	BYTE		PAN     c_v-40
	BYTE	W01
	BYTE		        c_v-32
	BYTE	W01
	BYTE		VOL     48*isaachtest_mvl/mxv
	BYTE		PAN     c_v-24
	BYTE	W02
	BYTE		        c_v-16
	BYTE	W02
	BYTE		VOL     52*isaachtest_mvl/mxv
	BYTE		PAN     c_v-8
	BYTE	W01
	BYTE		        c_v+0
	BYTE	W01
	BYTE		VOL     56*isaachtest_mvl/mxv
	BYTE		PAN     c_v+8
	BYTE	W02
	BYTE		        c_v+16
	BYTE	W02
	BYTE		VOL     60*isaachtest_mvl/mxv
	BYTE		PAN     c_v+24
	BYTE	W01
	BYTE		        c_v+32
	BYTE	W01
	BYTE		        c_v+40
	BYTE	W01
	BYTE		VOL     64*isaachtest_mvl/mxv
	BYTE	W01
	BYTE		PAN     c_v+48
	BYTE	W02
	BYTE		VOL     68*isaachtest_mvl/mxv
	BYTE		PAN     c_v+56
	BYTE	W01
	BYTE		        c_v+63
	BYTE	W01
	BYTE		        c_v+56
	BYTE	W01
	BYTE		MOD     2
	BYTE		N24     Cs5 
	BYTE	W01
	BYTE		PAN     c_v+48
	BYTE	W02
	BYTE		VOL     68*isaachtest_mvl/mxv
	BYTE		PAN     c_v+40
	BYTE	W01
	BYTE		        c_v+32
	BYTE	W01
	BYTE		VOL     64*isaachtest_mvl/mxv
	BYTE		PAN     c_v+24
	BYTE	W02
	BYTE		        c_v+16
	BYTE	W02
	BYTE		VOL     60*isaachtest_mvl/mxv
	BYTE		PAN     c_v+8
	BYTE	W01
	BYTE		        c_v+0
	BYTE	W01
	BYTE		VOL     56*isaachtest_mvl/mxv
	BYTE	W01
	BYTE		PAN     c_v-8
	BYTE	W01
	BYTE		        c_v-16
	BYTE	W02
	BYTE		VOL     52*isaachtest_mvl/mxv
	BYTE		PAN     c_v-20
	BYTE	W01
	BYTE		        c_v-32
	BYTE	W01
	BYTE		VOL     48*isaachtest_mvl/mxv
	BYTE	W01
	BYTE		PAN     c_v-40
	BYTE	W01
	BYTE		        c_v-48
	BYTE	W02
	BYTE		VOL     44*isaachtest_mvl/mxv
	BYTE		PAN     c_v-56
	BYTE	W01
	BYTE		        c_v-64
	BYTE	W01
	BYTE		VOL     40*isaachtest_mvl/mxv
	BYTE	W01
// 017   ----------------------------------------
	BYTE		N24     En5 
	BYTE	W01
	BYTE		PAN     c_v-48
	BYTE	W02
	BYTE		VOL     44*isaachtest_mvl/mxv
	BYTE		PAN     c_v-40
	BYTE	W01
	BYTE		        c_v-32
	BYTE	W01
	BYTE		VOL     48*isaachtest_mvl/mxv
	BYTE		PAN     c_v-24
	BYTE	W02
	BYTE		        c_v-16
	BYTE	W02
	BYTE		VOL     52*isaachtest_mvl/mxv
	BYTE		PAN     c_v-8
	BYTE	W01
	BYTE		        c_v+0
	BYTE	W01
	BYTE		VOL     56*isaachtest_mvl/mxv
	BYTE		PAN     c_v+8
	BYTE	W02
	BYTE		        c_v+16
	BYTE	W02
	BYTE		VOL     60*isaachtest_mvl/mxv
	BYTE		PAN     c_v+24
	BYTE	W01
	BYTE		        c_v+32
	BYTE	W01
	BYTE		        c_v+40
	BYTE	W01
	BYTE		VOL     64*isaachtest_mvl/mxv
	BYTE	W01
	BYTE		PAN     c_v+48
	BYTE	W02
	BYTE		VOL     68*isaachtest_mvl/mxv
	BYTE		PAN     c_v+56
	BYTE	W01
	BYTE		        c_v+63
	BYTE	W01
	BYTE		MOD     2
	BYTE		PAN     c_v+56
	BYTE	W01
	BYTE		N24     Dn5 
	BYTE	W01
	BYTE		PAN     c_v+48
	BYTE	W02
	BYTE		VOL     68*isaachtest_mvl/mxv
	BYTE		PAN     c_v+40
	BYTE	W01
	BYTE		        c_v+32
	BYTE	W01
	BYTE		VOL     64*isaachtest_mvl/mxv
	BYTE		PAN     c_v+24
	BYTE	W02
	BYTE		        c_v+16
	BYTE	W02
	BYTE		VOL     60*isaachtest_mvl/mxv
	BYTE		PAN     c_v+8
	BYTE	W01
	BYTE		        c_v+0
	BYTE	W01
	BYTE		VOL     56*isaachtest_mvl/mxv
	BYTE	W01
	BYTE		PAN     c_v-8
	BYTE	W01
	BYTE		        c_v-16
	BYTE	W02
	BYTE		VOL     52*isaachtest_mvl/mxv
	BYTE		PAN     c_v-20
	BYTE	W01
	BYTE		        c_v-32
	BYTE	W01
	BYTE		VOL     48*isaachtest_mvl/mxv
	BYTE	W01
	BYTE		PAN     c_v-40
	BYTE	W01
	BYTE		        c_v-48
	BYTE	W02
	BYTE		VOL     44*isaachtest_mvl/mxv
	BYTE		PAN     c_v-56
	BYTE	W01
	BYTE		        c_v-64
	BYTE	W01
	BYTE		VOL     40*isaachtest_mvl/mxv
	BYTE	W01
	BYTE		MOD     0
	BYTE		N24     An4 
	BYTE	W01
	BYTE		PAN     c_v-48
	BYTE	W02
	BYTE		VOL     44*isaachtest_mvl/mxv
	BYTE		PAN     c_v-40
	BYTE	W01
	BYTE		        c_v-32
	BYTE	W01
	BYTE		VOL     48*isaachtest_mvl/mxv
	BYTE		PAN     c_v-24
	BYTE	W02
	BYTE		        c_v-16
	BYTE	W02
	BYTE		VOL     52*isaachtest_mvl/mxv
	BYTE		PAN     c_v-8
	BYTE	W01
	BYTE		        c_v+0
	BYTE	W01
	BYTE		VOL     56*isaachtest_mvl/mxv
	BYTE		PAN     c_v+8
	BYTE	W02
	BYTE		        c_v+16
	BYTE	W02
	BYTE		VOL     60*isaachtest_mvl/mxv
	BYTE		PAN     c_v+24
	BYTE	W01
	BYTE		        c_v+32
	BYTE	W01
	BYTE		        c_v+40
	BYTE	W01
	BYTE		VOL     64*isaachtest_mvl/mxv
	BYTE	W01
	BYTE		PAN     c_v+48
	BYTE	W02
	BYTE		VOL     68*isaachtest_mvl/mxv
	BYTE		PAN     c_v+56
	BYTE	W01
	BYTE		        c_v+63
	BYTE	W01
	BYTE		        c_v+56
	BYTE	W01
	BYTE		MOD     2
	BYTE		N24     Bn4 
	BYTE	W01
	BYTE		PAN     c_v+48
	BYTE	W02
	BYTE		VOL     68*isaachtest_mvl/mxv
	BYTE		PAN     c_v+40
	BYTE	W01
	BYTE		        c_v+32
	BYTE	W01
	BYTE		VOL     64*isaachtest_mvl/mxv
	BYTE		PAN     c_v+24
	BYTE	W02
	BYTE		        c_v+16
	BYTE	W02
	BYTE		VOL     60*isaachtest_mvl/mxv
	BYTE		PAN     c_v+8
	BYTE	W01
	BYTE		        c_v+0
	BYTE	W01
	BYTE		VOL     56*isaachtest_mvl/mxv
	BYTE	W01
	BYTE		PAN     c_v-8
	BYTE	W01
	BYTE		        c_v-16
	BYTE	W02
	BYTE		VOL     52*isaachtest_mvl/mxv
	BYTE		PAN     c_v-20
	BYTE	W01
	BYTE		        c_v-32
	BYTE	W01
	BYTE		VOL     48*isaachtest_mvl/mxv
	BYTE	W01
	BYTE		PAN     c_v-40
	BYTE	W01
	BYTE		        c_v-48
	BYTE	W02
	BYTE		VOL     44*isaachtest_mvl/mxv
	BYTE		PAN     c_v-56
	BYTE	W01
	BYTE		        c_v-64
	BYTE	W01
	BYTE		VOL     40*isaachtest_mvl/mxv
	BYTE	W01
// 018   ----------------------------------------
	BYTE		N96     Cs5 
	BYTE	W01
	BYTE		PAN     c_v-48
	BYTE	W02
	BYTE		VOL     44*isaachtest_mvl/mxv
	BYTE		PAN     c_v-40
	BYTE	W01
	BYTE		        c_v-32
	BYTE	W01
	BYTE		VOL     48*isaachtest_mvl/mxv
	BYTE		PAN     c_v-24
	BYTE	W02
	BYTE		        c_v-16
	BYTE	W02
	BYTE		VOL     52*isaachtest_mvl/mxv
	BYTE		PAN     c_v-8
	BYTE	W01
	BYTE		        c_v+0
	BYTE	W01
	BYTE		VOL     56*isaachtest_mvl/mxv
	BYTE		PAN     c_v+8
	BYTE	W02
	BYTE		        c_v+16
	BYTE	W02
	BYTE		VOL     60*isaachtest_mvl/mxv
	BYTE		PAN     c_v+24
	BYTE	W01
	BYTE		        c_v+32
	BYTE	W01
	BYTE		        c_v+40
	BYTE	W01
	BYTE		VOL     64*isaachtest_mvl/mxv
	BYTE	W01
	BYTE		PAN     c_v+48
	BYTE	W02
	BYTE		VOL     68*isaachtest_mvl/mxv
	BYTE		PAN     c_v+56
	BYTE	W01
	BYTE		        c_v+63
	BYTE	W01
	BYTE		MOD     2
	BYTE		PAN     c_v+56
	BYTE	W02
	BYTE		        c_v+48
	BYTE	W02
	BYTE		VOL     68*isaachtest_mvl/mxv
	BYTE		PAN     c_v+40
	BYTE	W01
	BYTE		        c_v+32
	BYTE	W01
	BYTE		VOL     64*isaachtest_mvl/mxv
	BYTE		PAN     c_v+24
	BYTE	W02
	BYTE		        c_v+16
	BYTE	W02
	BYTE		VOL     60*isaachtest_mvl/mxv
	BYTE		PAN     c_v+8
	BYTE	W01
	BYTE		        c_v+0
	BYTE	W01
	BYTE		VOL     56*isaachtest_mvl/mxv
	BYTE	W01
	BYTE		PAN     c_v-8
	BYTE	W01
	BYTE		        c_v-16
	BYTE	W02
	BYTE		VOL     52*isaachtest_mvl/mxv
	BYTE		PAN     c_v-20
	BYTE	W01
	BYTE		        c_v-32
	BYTE	W01
	BYTE		VOL     48*isaachtest_mvl/mxv
	BYTE	W01
	BYTE		PAN     c_v-40
	BYTE	W01
	BYTE		        c_v-48
	BYTE	W02
	BYTE		VOL     44*isaachtest_mvl/mxv
	BYTE		PAN     c_v-56
	BYTE	W01
	BYTE		        c_v-64
	BYTE	W01
	BYTE		VOL     40*isaachtest_mvl/mxv
	BYTE	W01
	BYTE		MOD     0
	BYTE	W01
	BYTE		PAN     c_v-48
	BYTE	W02
	BYTE		VOL     44*isaachtest_mvl/mxv
	BYTE		PAN     c_v-40
	BYTE	W01
	BYTE		        c_v-32
	BYTE	W01
	BYTE		VOL     48*isaachtest_mvl/mxv
	BYTE		PAN     c_v-24
	BYTE	W02
	BYTE		        c_v-16
	BYTE	W02
	BYTE		VOL     52*isaachtest_mvl/mxv
	BYTE		PAN     c_v-8
	BYTE	W01
	BYTE		        c_v+0
	BYTE	W01
	BYTE		VOL     56*isaachtest_mvl/mxv
	BYTE		PAN     c_v+8
	BYTE	W02
	BYTE		        c_v+16
	BYTE	W02
	BYTE		VOL     60*isaachtest_mvl/mxv
	BYTE		PAN     c_v+24
	BYTE	W01
	BYTE		        c_v+32
	BYTE	W01
	BYTE		        c_v+40
	BYTE	W01
	BYTE		VOL     64*isaachtest_mvl/mxv
	BYTE	W01
	BYTE		PAN     c_v+48
	BYTE	W02
	BYTE		VOL     68*isaachtest_mvl/mxv
	BYTE		PAN     c_v+56
	BYTE	W01
	BYTE		        c_v+63
	BYTE	W01
	BYTE		        c_v+56
	BYTE	W01
	BYTE		MOD     2
	BYTE	W01
	BYTE		PAN     c_v+48
	BYTE	W02
	BYTE		VOL     68*isaachtest_mvl/mxv
	BYTE		PAN     c_v+40
	BYTE	W01
	BYTE		        c_v+32
	BYTE	W01
	BYTE		VOL     64*isaachtest_mvl/mxv
	BYTE		PAN     c_v+24
	BYTE	W02
	BYTE		        c_v+16
	BYTE	W02
	BYTE		VOL     60*isaachtest_mvl/mxv
	BYTE		PAN     c_v+8
	BYTE	W01
	BYTE		        c_v+0
	BYTE	W01
	BYTE		VOL     56*isaachtest_mvl/mxv
	BYTE	W01
	BYTE		PAN     c_v-8
	BYTE	W01
	BYTE		        c_v-16
	BYTE	W02
	BYTE		VOL     52*isaachtest_mvl/mxv
	BYTE		PAN     c_v-20
	BYTE	W01
	BYTE		        c_v-32
	BYTE	W01
	BYTE		VOL     48*isaachtest_mvl/mxv
	BYTE	W01
	BYTE		PAN     c_v-40
	BYTE	W01
	BYTE		        c_v-48
	BYTE	W02
	BYTE		VOL     44*isaachtest_mvl/mxv
	BYTE		PAN     c_v-56
	BYTE	W01
	BYTE		        c_v-64
	BYTE	W01
	BYTE		VOL     40*isaachtest_mvl/mxv
	BYTE	W01
// 019   ----------------------------------------
	BYTE		N64     Cs4 
	BYTE	W01
	BYTE		PAN     c_v-48
	BYTE	W02
	BYTE		VOL     44*isaachtest_mvl/mxv
	BYTE		PAN     c_v-40
	BYTE	W01
	BYTE		        c_v-32
	BYTE	W01
	BYTE		VOL     48*isaachtest_mvl/mxv
	BYTE		PAN     c_v-24
	BYTE	W02
	BYTE		        c_v-16
	BYTE	W02
	BYTE		VOL     52*isaachtest_mvl/mxv
	BYTE		PAN     c_v-8
	BYTE	W01
	BYTE		        c_v+0
	BYTE	W01
	BYTE		VOL     56*isaachtest_mvl/mxv
	BYTE		PAN     c_v+8
	BYTE	W02
	BYTE		        c_v+16
	BYTE	W02
	BYTE		VOL     60*isaachtest_mvl/mxv
	BYTE		PAN     c_v+24
	BYTE	W01
	BYTE		        c_v+32
	BYTE	W01
	BYTE		        c_v+40
	BYTE	W01
	BYTE		VOL     64*isaachtest_mvl/mxv
	BYTE	W01
	BYTE		PAN     c_v+48
	BYTE	W02
	BYTE		VOL     68*isaachtest_mvl/mxv
	BYTE		PAN     c_v+56
	BYTE	W01
	BYTE		        c_v+63
	BYTE	W01
	BYTE		MOD     2
	BYTE		PAN     c_v+56
	BYTE	W02
	BYTE		        c_v+48
	BYTE	W02
	BYTE		VOL     68*isaachtest_mvl/mxv
	BYTE		PAN     c_v+40
	BYTE	W01
	BYTE		        c_v+32
	BYTE	W01
	BYTE		VOL     64*isaachtest_mvl/mxv
	BYTE		PAN     c_v+24
	BYTE	W02
	BYTE		        c_v+16
	BYTE	W02
	BYTE		VOL     60*isaachtest_mvl/mxv
	BYTE		PAN     c_v+8
	BYTE	W01
	BYTE		        c_v+0
	BYTE	W01
	BYTE		VOL     56*isaachtest_mvl/mxv
	BYTE	W01
	BYTE		PAN     c_v-8
	BYTE	W01
	BYTE		        c_v-16
	BYTE	W02
	BYTE		VOL     52*isaachtest_mvl/mxv
	BYTE		PAN     c_v-20
	BYTE	W01
	BYTE		        c_v-32
	BYTE	W01
	BYTE		VOL     48*isaachtest_mvl/mxv
	BYTE	W01
	BYTE		PAN     c_v-40
	BYTE	W01
	BYTE		        c_v-48
	BYTE	W02
	BYTE		VOL     44*isaachtest_mvl/mxv
	BYTE		PAN     c_v-56
	BYTE	W01
	BYTE		        c_v-64
	BYTE	W01
	BYTE		VOL     40*isaachtest_mvl/mxv
	BYTE	W01
	BYTE		MOD     0
	BYTE	W01
	BYTE		PAN     c_v-48
	BYTE	W02
	BYTE		VOL     44*isaachtest_mvl/mxv
	BYTE		PAN     c_v-40
	BYTE	W01
	BYTE		        c_v-32
	BYTE	W01
	BYTE		VOL     48*isaachtest_mvl/mxv
	BYTE		PAN     c_v-24
	BYTE	W02
	BYTE		        c_v-16
	BYTE	W02
	BYTE		VOL     52*isaachtest_mvl/mxv
	BYTE		PAN     c_v-8
	BYTE	W01
	BYTE		        c_v+0
	BYTE	W01
	BYTE		VOL     56*isaachtest_mvl/mxv
	BYTE		PAN     c_v+8
	BYTE	W02
	BYTE		        c_v+16
	BYTE	W02
	BYTE		VOL     60*isaachtest_mvl/mxv
	BYTE		PAN     c_v+24
	BYTE	W01
	BYTE		        c_v+32
	BYTE	W01
	BYTE		        c_v+40
	BYTE	W01
	BYTE		VOL     64*isaachtest_mvl/mxv
	BYTE	W01
	BYTE		PAN     c_v+48
	BYTE	W02
	BYTE		VOL     68*isaachtest_mvl/mxv
	BYTE		PAN     c_v+56
	BYTE	W01
	BYTE		        c_v+63
	BYTE	W01
	BYTE		        c_v+56
	BYTE	W01
	BYTE		MOD     2
	BYTE		N24     Cs3 
	BYTE	W01
	BYTE		PAN     c_v+48
	BYTE	W02
	BYTE		VOL     68*isaachtest_mvl/mxv
	BYTE		PAN     c_v+40
	BYTE	W01
	BYTE		        c_v+32
	BYTE	W01
	BYTE		VOL     64*isaachtest_mvl/mxv
	BYTE		PAN     c_v+24
	BYTE	W02
	BYTE		        c_v+16
	BYTE	W02
	BYTE		VOL     60*isaachtest_mvl/mxv
	BYTE		PAN     c_v+8
	BYTE	W01
	BYTE		        c_v+0
	BYTE	W01
	BYTE		VOL     56*isaachtest_mvl/mxv
	BYTE	W01
	BYTE		PAN     c_v-8
	BYTE	W01
	BYTE		        c_v-16
	BYTE	W02
	BYTE		VOL     52*isaachtest_mvl/mxv
	BYTE		PAN     c_v-20
	BYTE	W01
	BYTE		        c_v-32
	BYTE	W01
	BYTE		VOL     48*isaachtest_mvl/mxv
	BYTE	W01
	BYTE		PAN     c_v-40
	BYTE	W01
	BYTE		        c_v-48
	BYTE	W02
	BYTE		VOL     44*isaachtest_mvl/mxv
	BYTE		PAN     c_v-56
	BYTE	W01
	BYTE		        c_v-64
	BYTE	W01
	BYTE		VOL     40*isaachtest_mvl/mxv
	BYTE	W01
// 020   ----------------------------------------
	BYTE		N48   
	BYTE	W01
	BYTE		PAN     c_v-48
	BYTE	W02
	BYTE		VOL     44*isaachtest_mvl/mxv
	BYTE		PAN     c_v-40
	BYTE	W01
	BYTE		        c_v-32
	BYTE	W01
	BYTE		VOL     48*isaachtest_mvl/mxv
	BYTE		PAN     c_v-24
	BYTE	W02
	BYTE		        c_v-16
	BYTE	W02
	BYTE		VOL     52*isaachtest_mvl/mxv
	BYTE		PAN     c_v-8
	BYTE	W01
	BYTE		        c_v+0
	BYTE	W01
	BYTE		VOL     56*isaachtest_mvl/mxv
	BYTE		PAN     c_v+8
	BYTE	W02
	BYTE		        c_v+16
	BYTE	W02
	BYTE		VOL     60*isaachtest_mvl/mxv
	BYTE		PAN     c_v+24
	BYTE	W01
	BYTE		        c_v+32
	BYTE	W01
	BYTE		        c_v+40
	BYTE	W01
	BYTE		VOL     64*isaachtest_mvl/mxv
	BYTE	W01
	BYTE		PAN     c_v+48
	BYTE	W02
	BYTE		VOL     68*isaachtest_mvl/mxv
	BYTE		PAN     c_v+56
	BYTE	W01
	BYTE		        c_v+63
	BYTE	W01
	BYTE		MOD     2
	BYTE		PAN     c_v+56
	BYTE	W02
	BYTE		        c_v+48
	BYTE	W02
	BYTE		VOL     68*isaachtest_mvl/mxv
	BYTE		PAN     c_v+40
	BYTE	W01
	BYTE		        c_v+32
	BYTE	W01
	BYTE		VOL     64*isaachtest_mvl/mxv
	BYTE		PAN     c_v+24
	BYTE	W02
	BYTE		        c_v+16
	BYTE	W02
	BYTE		VOL     60*isaachtest_mvl/mxv
	BYTE		PAN     c_v+8
	BYTE	W01
	BYTE		        c_v+0
	BYTE	W01
	BYTE		VOL     56*isaachtest_mvl/mxv
	BYTE	W01
	BYTE		PAN     c_v-8
	BYTE	W01
	BYTE		        c_v-16
	BYTE	W02
	BYTE		VOL     52*isaachtest_mvl/mxv
	BYTE		PAN     c_v-20
	BYTE	W01
	BYTE		        c_v-32
	BYTE	W01
	BYTE		VOL     48*isaachtest_mvl/mxv
	BYTE	W01
	BYTE		PAN     c_v-40
	BYTE	W01
	BYTE		        c_v-48
	BYTE	W02
	BYTE		VOL     44*isaachtest_mvl/mxv
	BYTE		PAN     c_v-56
	BYTE	W01
	BYTE		        c_v-64
	BYTE	W01
	BYTE		VOL     40*isaachtest_mvl/mxv
	BYTE	W01
	BYTE		MOD     0
	BYTE		N24     Dn3 
	BYTE	W01
	BYTE		PAN     c_v-48
	BYTE	W02
	BYTE		VOL     44*isaachtest_mvl/mxv
	BYTE		PAN     c_v-40
	BYTE	W01
	BYTE		        c_v-32
	BYTE	W01
	BYTE		VOL     48*isaachtest_mvl/mxv
	BYTE		PAN     c_v-24
	BYTE	W02
	BYTE		        c_v-16
	BYTE	W02
	BYTE		VOL     52*isaachtest_mvl/mxv
	BYTE		PAN     c_v-8
	BYTE	W01
	BYTE		        c_v+0
	BYTE	W01
	BYTE		VOL     56*isaachtest_mvl/mxv
	BYTE		PAN     c_v+8
	BYTE	W02
	BYTE		        c_v+16
	BYTE	W02
	BYTE		VOL     60*isaachtest_mvl/mxv
	BYTE		PAN     c_v+24
	BYTE	W01
	BYTE		        c_v+32
	BYTE	W01
	BYTE		        c_v+40
	BYTE	W01
	BYTE		VOL     64*isaachtest_mvl/mxv
	BYTE	W01
	BYTE		PAN     c_v+48
	BYTE	W02
	BYTE		VOL     68*isaachtest_mvl/mxv
	BYTE		PAN     c_v+56
	BYTE	W01
	BYTE		        c_v+63
	BYTE	W01
	BYTE		        c_v+56
	BYTE	W01
	BYTE		MOD     2
	BYTE		N24     En3 
	BYTE	W01
	BYTE		PAN     c_v+48
	BYTE	W02
	BYTE		VOL     68*isaachtest_mvl/mxv
	BYTE		PAN     c_v+40
	BYTE	W01
	BYTE		        c_v+32
	BYTE	W01
	BYTE		VOL     64*isaachtest_mvl/mxv
	BYTE		PAN     c_v+24
	BYTE	W02
	BYTE		        c_v+16
	BYTE	W02
	BYTE		VOL     60*isaachtest_mvl/mxv
	BYTE		PAN     c_v+8
	BYTE	W01
	BYTE		        c_v+0
	BYTE	W01
	BYTE		VOL     56*isaachtest_mvl/mxv
	BYTE	W01
	BYTE		PAN     c_v-8
	BYTE	W01
	BYTE		        c_v-16
	BYTE	W02
	BYTE		VOL     52*isaachtest_mvl/mxv
	BYTE		PAN     c_v-20
	BYTE	W01
	BYTE		        c_v-32
	BYTE	W01
	BYTE		VOL     48*isaachtest_mvl/mxv
	BYTE	W01
	BYTE		PAN     c_v-40
	BYTE	W01
	BYTE		        c_v-48
	BYTE	W02
	BYTE		VOL     44*isaachtest_mvl/mxv
	BYTE		PAN     c_v-56
	BYTE	W01
	BYTE		        c_v-64
	BYTE	W01
	BYTE		VOL     40*isaachtest_mvl/mxv
	BYTE	W01
// 021   ----------------------------------------
	BYTE		N48     Fs3 
	BYTE	W01
	BYTE		PAN     c_v-48
	BYTE	W02
	BYTE		VOL     44*isaachtest_mvl/mxv
	BYTE		PAN     c_v-40
	BYTE	W01
	BYTE		        c_v-32
	BYTE	W01
	BYTE		VOL     48*isaachtest_mvl/mxv
	BYTE		PAN     c_v-24
	BYTE	W02
	BYTE		        c_v-16
	BYTE	W02
	BYTE		VOL     52*isaachtest_mvl/mxv
	BYTE		PAN     c_v-8
	BYTE	W01
	BYTE		        c_v+0
	BYTE	W01
	BYTE		VOL     56*isaachtest_mvl/mxv
	BYTE		PAN     c_v+8
	BYTE	W02
	BYTE		        c_v+16
	BYTE	W02
	BYTE		VOL     60*isaachtest_mvl/mxv
	BYTE		PAN     c_v+24
	BYTE	W01
	BYTE		        c_v+32
	BYTE	W01
	BYTE		        c_v+40
	BYTE	W01
	BYTE		VOL     64*isaachtest_mvl/mxv
	BYTE	W01
	BYTE		PAN     c_v+48
	BYTE	W02
	BYTE		VOL     68*isaachtest_mvl/mxv
	BYTE		PAN     c_v+56
	BYTE	W01
	BYTE		        c_v+63
	BYTE	W01
	BYTE		MOD     2
	BYTE		PAN     c_v+56
	BYTE	W02
	BYTE		        c_v+48
	BYTE	W02
	BYTE		VOL     68*isaachtest_mvl/mxv
	BYTE		PAN     c_v+40
	BYTE	W01
	BYTE		        c_v+32
	BYTE	W01
	BYTE		VOL     64*isaachtest_mvl/mxv
	BYTE		PAN     c_v+24
	BYTE	W02
	BYTE		        c_v+16
	BYTE	W02
	BYTE		VOL     60*isaachtest_mvl/mxv
	BYTE		PAN     c_v+8
	BYTE	W01
	BYTE		        c_v+0
	BYTE	W01
	BYTE		VOL     56*isaachtest_mvl/mxv
	BYTE	W01
	BYTE		PAN     c_v-8
	BYTE	W01
	BYTE		        c_v-16
	BYTE	W02
	BYTE		VOL     52*isaachtest_mvl/mxv
	BYTE		PAN     c_v-20
	BYTE	W01
	BYTE		        c_v-32
	BYTE	W01
	BYTE		VOL     48*isaachtest_mvl/mxv
	BYTE	W01
	BYTE		PAN     c_v-40
	BYTE	W01
	BYTE		        c_v-48
	BYTE	W02
	BYTE		VOL     44*isaachtest_mvl/mxv
	BYTE		PAN     c_v-56
	BYTE	W01
	BYTE		        c_v-64
	BYTE	W01
	BYTE		VOL     40*isaachtest_mvl/mxv
	BYTE	W01
	BYTE		MOD     0
	BYTE		N18     Cs4 
	BYTE	W01
	BYTE		PAN     c_v-48
	BYTE	W02
	BYTE		VOL     44*isaachtest_mvl/mxv
	BYTE		PAN     c_v-40
	BYTE	W01
	BYTE		        c_v-32
	BYTE	W01
	BYTE		VOL     48*isaachtest_mvl/mxv
	BYTE		PAN     c_v-24
	BYTE	W02
	BYTE		        c_v-16
	BYTE	W02
	BYTE		VOL     52*isaachtest_mvl/mxv
	BYTE		PAN     c_v-8
	BYTE	W01
	BYTE		        c_v+0
	BYTE	W01
	BYTE		VOL     56*isaachtest_mvl/mxv
	BYTE		PAN     c_v+8
	BYTE	W02
	BYTE		        c_v+16
	BYTE	W02
	BYTE		VOL     60*isaachtest_mvl/mxv
	BYTE		PAN     c_v+24
	BYTE	W01
	BYTE		        c_v+32
	BYTE	W01
	BYTE		        c_v+40
	BYTE	W01
	BYTE		VOL     64*isaachtest_mvl/mxv
	BYTE		N18     Bn3 
	BYTE	W01
	BYTE		PAN     c_v+48
	BYTE	W02
	BYTE		VOL     68*isaachtest_mvl/mxv
	BYTE		PAN     c_v+56
	BYTE	W01
	BYTE		        c_v+63
	BYTE	W01
	BYTE		        c_v+56
	BYTE	W01
	BYTE		MOD     2
	BYTE	W01
	BYTE		PAN     c_v+48
	BYTE	W02
	BYTE		VOL     68*isaachtest_mvl/mxv
	BYTE		PAN     c_v+40
	BYTE	W01
	BYTE		        c_v+32
	BYTE	W01
	BYTE		VOL     64*isaachtest_mvl/mxv
	BYTE		PAN     c_v+24
	BYTE	W02
	BYTE		        c_v+16
	BYTE	W02
	BYTE		VOL     60*isaachtest_mvl/mxv
	BYTE		PAN     c_v+8
	BYTE	W01
	BYTE		        c_v+0
	BYTE	W01
	BYTE		VOL     56*isaachtest_mvl/mxv
	BYTE	W01
	BYTE		PAN     c_v-8
	BYTE		N12     An3 
	BYTE	W01
	BYTE		PAN     c_v-16
	BYTE	W02
	BYTE		VOL     52*isaachtest_mvl/mxv
	BYTE		PAN     c_v-20
	BYTE	W01
	BYTE		        c_v-32
	BYTE	W01
	BYTE		VOL     48*isaachtest_mvl/mxv
	BYTE	W01
	BYTE		PAN     c_v-40
	BYTE	W01
	BYTE		        c_v-48
	BYTE	W02
	BYTE		VOL     44*isaachtest_mvl/mxv
	BYTE		PAN     c_v-56
	BYTE	W01
	BYTE		        c_v-64
	BYTE	W01
	BYTE		VOL     40*isaachtest_mvl/mxv
	BYTE	W01
// 022   ----------------------------------------
	BYTE		N48     Bn3 
	BYTE	W01
	BYTE		PAN     c_v-48
	BYTE	W02
	BYTE		VOL     44*isaachtest_mvl/mxv
	BYTE		PAN     c_v-40
	BYTE	W01
	BYTE		        c_v-32
	BYTE	W01
	BYTE		VOL     48*isaachtest_mvl/mxv
	BYTE		PAN     c_v-24
	BYTE	W02
	BYTE		        c_v-16
	BYTE	W02
	BYTE		VOL     52*isaachtest_mvl/mxv
	BYTE		PAN     c_v-8
	BYTE	W01
	BYTE		        c_v+0
	BYTE	W01
	BYTE		VOL     56*isaachtest_mvl/mxv
	BYTE		PAN     c_v+8
	BYTE	W02
	BYTE		        c_v+16
	BYTE	W02
	BYTE		VOL     60*isaachtest_mvl/mxv
	BYTE		PAN     c_v+24
	BYTE	W01
	BYTE		        c_v+32
	BYTE	W01
	BYTE		        c_v+40
	BYTE	W01
	BYTE		VOL     64*isaachtest_mvl/mxv
	BYTE	W01
	BYTE		PAN     c_v+48
	BYTE	W02
	BYTE		VOL     68*isaachtest_mvl/mxv
	BYTE		PAN     c_v+56
	BYTE	W01
	BYTE		        c_v+63
	BYTE	W01
	BYTE		MOD     2
	BYTE		PAN     c_v+56
	BYTE	W02
	BYTE		        c_v+48
	BYTE	W02
	BYTE		VOL     68*isaachtest_mvl/mxv
	BYTE		PAN     c_v+40
	BYTE	W01
	BYTE		        c_v+32
	BYTE	W01
	BYTE		VOL     64*isaachtest_mvl/mxv
	BYTE		PAN     c_v+24
	BYTE	W02
	BYTE		        c_v+16
	BYTE	W02
	BYTE		VOL     60*isaachtest_mvl/mxv
	BYTE		PAN     c_v+8
	BYTE	W01
	BYTE		        c_v+0
	BYTE	W01
	BYTE		VOL     56*isaachtest_mvl/mxv
	BYTE	W01
	BYTE		PAN     c_v-8
	BYTE	W01
	BYTE		        c_v-16
	BYTE	W02
	BYTE		VOL     52*isaachtest_mvl/mxv
	BYTE		PAN     c_v-20
	BYTE	W01
	BYTE		        c_v-32
	BYTE	W01
	BYTE		VOL     48*isaachtest_mvl/mxv
	BYTE	W01
	BYTE		PAN     c_v-40
	BYTE	W01
	BYTE		        c_v-48
	BYTE	W02
	BYTE		VOL     44*isaachtest_mvl/mxv
	BYTE		PAN     c_v-56
	BYTE	W01
	BYTE		        c_v-64
	BYTE	W01
	BYTE		VOL     40*isaachtest_mvl/mxv
	BYTE	W01
	BYTE		MOD     0
	BYTE		N48     Gs3 
	BYTE	W01
	BYTE		PAN     c_v-48
	BYTE	W02
	BYTE		VOL     44*isaachtest_mvl/mxv
	BYTE		PAN     c_v-40
	BYTE	W01
	BYTE		        c_v-32
	BYTE	W01
	BYTE		VOL     48*isaachtest_mvl/mxv
	BYTE		PAN     c_v-24
	BYTE	W02
	BYTE		        c_v-16
	BYTE	W02
	BYTE		VOL     52*isaachtest_mvl/mxv
	BYTE		PAN     c_v-8
	BYTE	W01
	BYTE		        c_v+0
	BYTE	W01
	BYTE		VOL     56*isaachtest_mvl/mxv
	BYTE		PAN     c_v+8
	BYTE	W02
	BYTE		        c_v+16
	BYTE	W02
	BYTE		VOL     60*isaachtest_mvl/mxv
	BYTE		PAN     c_v+24
	BYTE	W01
	BYTE		        c_v+32
	BYTE	W01
	BYTE		        c_v+40
	BYTE	W01
	BYTE		VOL     64*isaachtest_mvl/mxv
	BYTE	W01
	BYTE		PAN     c_v+48
	BYTE	W02
	BYTE		VOL     68*isaachtest_mvl/mxv
	BYTE		PAN     c_v+56
	BYTE	W01
	BYTE		        c_v+63
	BYTE	W01
	BYTE		        c_v+56
	BYTE	W01
	BYTE		MOD     2
	BYTE	W01
	BYTE		PAN     c_v+48
	BYTE	W02
	BYTE		VOL     68*isaachtest_mvl/mxv
	BYTE		PAN     c_v+40
	BYTE	W01
	BYTE		        c_v+32
	BYTE	W01
	BYTE		VOL     64*isaachtest_mvl/mxv
	BYTE		PAN     c_v+24
	BYTE	W02
	BYTE		        c_v+16
	BYTE	W02
	BYTE		VOL     60*isaachtest_mvl/mxv
	BYTE		PAN     c_v+8
	BYTE	W01
	BYTE		        c_v+0
	BYTE	W01
	BYTE		VOL     56*isaachtest_mvl/mxv
	BYTE	W01
	BYTE		PAN     c_v-8
	BYTE	W01
	BYTE		        c_v-16
	BYTE	W02
	BYTE		VOL     52*isaachtest_mvl/mxv
	BYTE		PAN     c_v-20
	BYTE	W01
	BYTE		        c_v-32
	BYTE	W01
	BYTE		VOL     48*isaachtest_mvl/mxv
	BYTE	W01
	BYTE		PAN     c_v-40
	BYTE	W01
	BYTE		        c_v-48
	BYTE	W02
	BYTE		VOL     44*isaachtest_mvl/mxv
	BYTE		PAN     c_v-56
	BYTE	W01
	BYTE		        c_v-64
	BYTE	W01
	BYTE		VOL     40*isaachtest_mvl/mxv
	BYTE	W01
// 023   ----------------------------------------
	BYTE		N96     En3 
	BYTE	W01
	BYTE		PAN     c_v-48
	BYTE	W02
	BYTE		VOL     44*isaachtest_mvl/mxv
	BYTE		PAN     c_v-40
	BYTE	W01
	BYTE		        c_v-32
	BYTE	W01
	BYTE		VOL     48*isaachtest_mvl/mxv
	BYTE		PAN     c_v-24
	BYTE	W02
	BYTE		        c_v-16
	BYTE	W02
	BYTE		VOL     52*isaachtest_mvl/mxv
	BYTE		PAN     c_v-8
	BYTE	W01
	BYTE		        c_v+0
	BYTE	W01
	BYTE		VOL     56*isaachtest_mvl/mxv
	BYTE		PAN     c_v+8
	BYTE	W02
	BYTE		        c_v+16
	BYTE	W02
	BYTE		VOL     60*isaachtest_mvl/mxv
	BYTE		PAN     c_v+24
	BYTE	W01
	BYTE		        c_v+32
	BYTE	W01
	BYTE		        c_v+40
	BYTE	W01
	BYTE		VOL     64*isaachtest_mvl/mxv
	BYTE	W01
	BYTE		PAN     c_v+48
	BYTE	W02
	BYTE		VOL     68*isaachtest_mvl/mxv
	BYTE		PAN     c_v+56
	BYTE	W01
	BYTE		        c_v+63
	BYTE	W01
	BYTE		MOD     2
	BYTE		PAN     c_v+56
	BYTE	W02
	BYTE		        c_v+48
	BYTE	W02
	BYTE		VOL     68*isaachtest_mvl/mxv
	BYTE		PAN     c_v+40
	BYTE	W01
	BYTE		        c_v+32
	BYTE	W01
	BYTE		VOL     64*isaachtest_mvl/mxv
	BYTE		PAN     c_v+24
	BYTE	W02
	BYTE		        c_v+16
	BYTE	W02
	BYTE		VOL     60*isaachtest_mvl/mxv
	BYTE		PAN     c_v+8
	BYTE	W01
	BYTE		        c_v+0
	BYTE	W01
	BYTE		VOL     56*isaachtest_mvl/mxv
	BYTE	W01
	BYTE		PAN     c_v-8
	BYTE	W01
	BYTE		        c_v-16
	BYTE	W02
	BYTE		VOL     52*isaachtest_mvl/mxv
	BYTE		PAN     c_v-20
	BYTE	W01
	BYTE		        c_v-32
	BYTE	W01
	BYTE		VOL     48*isaachtest_mvl/mxv
	BYTE	W01
	BYTE		PAN     c_v-40
	BYTE	W01
	BYTE		        c_v-48
	BYTE	W02
	BYTE		VOL     44*isaachtest_mvl/mxv
	BYTE		PAN     c_v-56
	BYTE	W01
	BYTE		        c_v-64
	BYTE	W01
	BYTE		VOL     40*isaachtest_mvl/mxv
	BYTE	W01
	BYTE		MOD     0
	BYTE	W01
	BYTE		PAN     c_v-48
	BYTE	W02
	BYTE		VOL     44*isaachtest_mvl/mxv
	BYTE		PAN     c_v-40
	BYTE	W01
	BYTE		        c_v-32
	BYTE	W01
	BYTE		VOL     48*isaachtest_mvl/mxv
	BYTE		PAN     c_v-24
	BYTE	W02
	BYTE		        c_v-16
	BYTE	W02
	BYTE		VOL     52*isaachtest_mvl/mxv
	BYTE		PAN     c_v-8
	BYTE	W01
	BYTE		        c_v+0
	BYTE	W01
	BYTE		VOL     56*isaachtest_mvl/mxv
	BYTE		PAN     c_v+8
	BYTE	W02
	BYTE		        c_v+16
	BYTE	W02
	BYTE		VOL     60*isaachtest_mvl/mxv
	BYTE		PAN     c_v+24
	BYTE	W01
	BYTE		        c_v+32
	BYTE	W01
	BYTE		        c_v+40
	BYTE	W01
	BYTE		VOL     64*isaachtest_mvl/mxv
	BYTE	W01
	BYTE		PAN     c_v+48
	BYTE	W02
	BYTE		VOL     68*isaachtest_mvl/mxv
	BYTE		PAN     c_v+56
	BYTE	W01
	BYTE		        c_v+63
	BYTE	W01
	BYTE		        c_v+56
	BYTE	W01
	BYTE		MOD     2
	BYTE	W01
	BYTE		PAN     c_v+48
	BYTE	W02
	BYTE		VOL     68*isaachtest_mvl/mxv
	BYTE		PAN     c_v+40
	BYTE	W01
	BYTE		        c_v+32
	BYTE	W01
	BYTE		VOL     64*isaachtest_mvl/mxv
	BYTE		PAN     c_v+24
	BYTE	W02
	BYTE		        c_v+16
	BYTE	W02
	BYTE		VOL     60*isaachtest_mvl/mxv
	BYTE		PAN     c_v+8
	BYTE	W01
	BYTE		        c_v+0
	BYTE	W01
	BYTE		VOL     56*isaachtest_mvl/mxv
	BYTE	W01
	BYTE		PAN     c_v-8
	BYTE	W01
	BYTE		        c_v-16
	BYTE	W02
	BYTE		VOL     52*isaachtest_mvl/mxv
	BYTE		PAN     c_v-20
	BYTE	W01
	BYTE		        c_v-32
	BYTE	W01
	BYTE		VOL     48*isaachtest_mvl/mxv
	BYTE	W01
	BYTE		PAN     c_v-40
	BYTE	W01
	BYTE		        c_v-48
	BYTE	W02
	BYTE		VOL     44*isaachtest_mvl/mxv
	BYTE		PAN     c_v-56
	BYTE	W01
	BYTE		        c_v-64
	BYTE	W01
	BYTE		VOL     40*isaachtest_mvl/mxv
	BYTE	W01
// 024   ----------------------------------------
	BYTE	W96
// 025   ----------------------------------------
	BYTE	W96
// 026   ----------------------------------------
	BYTE	W96
// 027   ----------------------------------------
	BYTE	W96
// 028   ----------------------------------------
	BYTE		VOICE   80
	BYTE		PAN     c_v+0
	BYTE		VOL     52*isaachtest_mvl/mxv
	BYTE		N36     Cn3   v104
	BYTE	W36
	BYTE		N06   
	BYTE	W06
	BYTE		        Dn3 
	BYTE	W06
	BYTE		N36     Ds3 
	BYTE	W36
	BYTE		N06   
	BYTE	W06
	BYTE		        Fn3 
	BYTE	W06
// 029   ----------------------------------------
	BYTE		N36     Gn3 
	BYTE	W36
	BYTE		N06   
	BYTE	W06
	BYTE		        An3 
	BYTE	W06
	BYTE		N36     As3 
	BYTE	W36
	BYTE		N06   
	BYTE	W06
	BYTE		        Cn4 
	BYTE	W06
// 030   ----------------------------------------
	BYTE		N96     Cs4 
	BYTE	W96
// 031   ----------------------------------------
	BYTE		N48     An3 
	BYTE	W48
	BYTE		N12     An3   v040
	BYTE	W12
	BYTE		        An3   v104
	BYTE	W12
	BYTE		        An3   v040
	BYTE	W12
	BYTE		N06     An3   v104
	BYTE	W06
	BYTE		        An3   v040
	BYTE	W06
	BYTE	GoTo
	 POIN2	isaachtest_5_B1
isaachtest_5_B2:
// 032   ----------------------------------------
	BYTE	FINE

//**************** Track 6 (Midi-Chn.6) ****************//

isaachtest_6:
	BYTE	KEYSH   isaachtest_key+0
isaachtest_6_B1:
// 000   ----------------------------------------
	BYTE		VOICE   67
	BYTE		PAN     c_v+8
	BYTE		VOL     90*isaachtest_mvl/mxv
	BYTE		MOD     0
	BYTE		PAN     c_v+0
	BYTE	W24
	BYTE		N23     En3   v100
	BYTE	W24
	BYTE		        An3 
	BYTE	W24
	BYTE		N06   
	BYTE	W12
	BYTE		N06   
	BYTE	W12
// 001   ----------------------------------------
	BYTE		N92     Gn3 
	BYTE	W96
// 002   ----------------------------------------
isaachtest_6_002:
	BYTE	W24
	BYTE		N23     En3   v100
	BYTE	W24
	BYTE		        An3 
	BYTE	W24
	BYTE		N06   
	BYTE	W12
	BYTE		N06   
	BYTE	W12
	BYTE	PEND
// 003   ----------------------------------------
	BYTE		N44     Bn3 
	BYTE	W48
	BYTE		N23   
	BYTE	W24
	BYTE		N23   
	BYTE	W24
// 004   ----------------------------------------
	BYTE	PATT
	 POIN2	isaachtest_6_002
// 005   ----------------------------------------
	BYTE		N23     Gn3   v100
	BYTE	W24
	BYTE		        Dn3 
	BYTE	W24
	BYTE		        Gn3 
	BYTE	W24
	BYTE		N23   
	BYTE	W24
// 006   ----------------------------------------
	BYTE	PATT
	 POIN2	isaachtest_6_002
// 007   ----------------------------------------
	BYTE		N92     Dn4   v100
	BYTE	W96
// 008   ----------------------------------------
isaachtest_6_008:
	BYTE		MOD     2
	BYTE		N48     Fs4   v048
	BYTE	W01
	BYTE		PAN     c_v+48
	BYTE	W02
	BYTE		VOL     68*isaachtest_mvl/mxv
	BYTE		PAN     c_v+40
	BYTE	W01
	BYTE		        c_v+32
	BYTE	W01
	BYTE		VOL     64*isaachtest_mvl/mxv
	BYTE		PAN     c_v+24
	BYTE	W02
	BYTE		        c_v+16
	BYTE	W02
	BYTE		VOL     60*isaachtest_mvl/mxv
	BYTE		PAN     c_v+8
	BYTE	W01
	BYTE		        c_v+0
	BYTE	W01
	BYTE		VOL     56*isaachtest_mvl/mxv
	BYTE	W01
	BYTE		PAN     c_v-8
	BYTE	W01
	BYTE		        c_v-16
	BYTE	W02
	BYTE		VOL     52*isaachtest_mvl/mxv
	BYTE		PAN     c_v-20
	BYTE	W01
	BYTE		        c_v-32
	BYTE	W01
	BYTE		VOL     48*isaachtest_mvl/mxv
	BYTE	W01
	BYTE		PAN     c_v-40
	BYTE	W01
	BYTE		        c_v-48
	BYTE	W02
	BYTE		VOL     44*isaachtest_mvl/mxv
	BYTE		PAN     c_v-56
	BYTE	W01
	BYTE		        c_v-64
	BYTE	W01
	BYTE		VOL     40*isaachtest_mvl/mxv
	BYTE	W01
	BYTE		MOD     0
	BYTE	W01
	BYTE		PAN     c_v-48
	BYTE	W02
	BYTE		VOL     44*isaachtest_mvl/mxv
	BYTE		PAN     c_v-40
	BYTE	W01
	BYTE		        c_v-32
	BYTE	W01
	BYTE		VOL     48*isaachtest_mvl/mxv
	BYTE		PAN     c_v-24
	BYTE	W02
	BYTE		        c_v-16
	BYTE	W02
	BYTE		VOL     52*isaachtest_mvl/mxv
	BYTE		PAN     c_v-8
	BYTE	W01
	BYTE		        c_v+0
	BYTE	W01
	BYTE		VOL     56*isaachtest_mvl/mxv
	BYTE		PAN     c_v+8
	BYTE	W02
	BYTE		        c_v+16
	BYTE	W02
	BYTE		VOL     60*isaachtest_mvl/mxv
	BYTE		PAN     c_v+24
	BYTE	W01
	BYTE		        c_v+32
	BYTE	W01
	BYTE		        c_v+40
	BYTE	W01
	BYTE		VOL     64*isaachtest_mvl/mxv
	BYTE	W01
	BYTE		PAN     c_v+48
	BYTE	W02
	BYTE		VOL     68*isaachtest_mvl/mxv
	BYTE		PAN     c_v+56
	BYTE	W01
	BYTE		        c_v+63
	BYTE	W01
	BYTE		        c_v+56
	BYTE	W01
	BYTE		MOD     2
	BYTE		N72     Cs4 
	BYTE	W01
	BYTE		PAN     c_v+48
	BYTE	W02
	BYTE		VOL     68*isaachtest_mvl/mxv
	BYTE		PAN     c_v+40
	BYTE	W01
	BYTE		        c_v+32
	BYTE	W01
	BYTE		VOL     64*isaachtest_mvl/mxv
	BYTE		PAN     c_v+24
	BYTE	W02
	BYTE		        c_v+16
	BYTE	W02
	BYTE		VOL     60*isaachtest_mvl/mxv
	BYTE		PAN     c_v+8
	BYTE	W01
	BYTE		        c_v+0
	BYTE	W01
	BYTE		VOL     56*isaachtest_mvl/mxv
	BYTE	W01
	BYTE		PAN     c_v-8
	BYTE	W01
	BYTE		        c_v-16
	BYTE	W02
	BYTE		VOL     52*isaachtest_mvl/mxv
	BYTE		PAN     c_v-20
	BYTE	W01
	BYTE		        c_v-32
	BYTE	W01
	BYTE		VOL     48*isaachtest_mvl/mxv
	BYTE	W01
	BYTE		PAN     c_v-40
	BYTE	W01
	BYTE		        c_v-48
	BYTE	W02
	BYTE		VOL     44*isaachtest_mvl/mxv
	BYTE		PAN     c_v-56
	BYTE	W01
	BYTE		        c_v-64
	BYTE	W01
	BYTE		VOL     40*isaachtest_mvl/mxv
	BYTE		MOD     0
	BYTE	W02
	BYTE		PAN     c_v-48
	BYTE	W02
	BYTE		VOL     44*isaachtest_mvl/mxv
	BYTE		PAN     c_v-40
	BYTE	W01
	BYTE		        c_v-32
	BYTE	W01
	BYTE		VOL     48*isaachtest_mvl/mxv
	BYTE		PAN     c_v-24
	BYTE	W02
	BYTE		        c_v-16
	BYTE	W02
	BYTE		VOL     52*isaachtest_mvl/mxv
	BYTE		PAN     c_v-8
	BYTE	W01
	BYTE		        c_v+0
	BYTE	W01
	BYTE		VOL     56*isaachtest_mvl/mxv
	BYTE		PAN     c_v+8
	BYTE	W02
	BYTE		        c_v+16
	BYTE	W02
	BYTE		VOL     60*isaachtest_mvl/mxv
	BYTE		PAN     c_v+24
	BYTE	W01
	BYTE		        c_v+32
	BYTE	W01
	BYTE		        c_v+40
	BYTE	W01
	BYTE		VOL     64*isaachtest_mvl/mxv
	BYTE	W01
	BYTE		PAN     c_v+48
	BYTE	W02
	BYTE		VOL     68*isaachtest_mvl/mxv
	BYTE		PAN     c_v+56
	BYTE	W01
	BYTE		        c_v+63
	BYTE	W01
	BYTE		MOD     0
	BYTE		PAN     c_v+56
	BYTE	W01
	BYTE	PEND
// 009   ----------------------------------------
	BYTE		MOD     2
	BYTE	W01
	BYTE		PAN     c_v+48
	BYTE	W02
	BYTE		VOL     68*isaachtest_mvl/mxv
	BYTE		PAN     c_v+40
	BYTE	W01
	BYTE		        c_v+32
	BYTE	W01
	BYTE		VOL     64*isaachtest_mvl/mxv
	BYTE		PAN     c_v+24
	BYTE	W02
	BYTE		        c_v+16
	BYTE	W02
	BYTE		VOL     60*isaachtest_mvl/mxv
	BYTE		PAN     c_v+8
	BYTE	W01
	BYTE		        c_v+0
	BYTE	W01
	BYTE		VOL     56*isaachtest_mvl/mxv
	BYTE	W01
	BYTE		PAN     c_v-8
	BYTE	W01
	BYTE		        c_v-16
	BYTE	W02
	BYTE		VOL     52*isaachtest_mvl/mxv
	BYTE		PAN     c_v-20
	BYTE	W01
	BYTE		        c_v-32
	BYTE	W01
	BYTE		VOL     48*isaachtest_mvl/mxv
	BYTE	W01
	BYTE		PAN     c_v-40
	BYTE	W01
	BYTE		        c_v-48
	BYTE	W02
	BYTE		VOL     44*isaachtest_mvl/mxv
	BYTE		PAN     c_v-56
	BYTE	W01
	BYTE		        c_v-64
	BYTE	W01
	BYTE		VOL     40*isaachtest_mvl/mxv
	BYTE	W01
	BYTE		MOD     0
	BYTE		N24     Bn3 
	BYTE	W01
	BYTE		PAN     c_v-48
	BYTE	W02
	BYTE		VOL     44*isaachtest_mvl/mxv
	BYTE		PAN     c_v-40
	BYTE	W01
	BYTE		        c_v-32
	BYTE	W01
	BYTE		VOL     48*isaachtest_mvl/mxv
	BYTE		PAN     c_v-24
	BYTE	W02
	BYTE		        c_v-16
	BYTE	W02
	BYTE		VOL     52*isaachtest_mvl/mxv
	BYTE		PAN     c_v-8
	BYTE	W01
	BYTE		        c_v+0
	BYTE	W01
	BYTE		VOL     56*isaachtest_mvl/mxv
	BYTE		PAN     c_v+8
	BYTE	W02
	BYTE		        c_v+16
	BYTE	W02
	BYTE		VOL     60*isaachtest_mvl/mxv
	BYTE		PAN     c_v+24
	BYTE	W01
	BYTE		        c_v+32
	BYTE	W01
	BYTE		        c_v+40
	BYTE	W01
	BYTE		VOL     64*isaachtest_mvl/mxv
	BYTE	W01
	BYTE		PAN     c_v+48
	BYTE	W02
	BYTE		VOL     68*isaachtest_mvl/mxv
	BYTE		PAN     c_v+56
	BYTE	W01
	BYTE		        c_v+63
	BYTE	W01
	BYTE		        c_v+56
	BYTE	W01
	BYTE		MOD     2
	BYTE		N24     Cs4 
	BYTE	W01
	BYTE		PAN     c_v+48
	BYTE	W02
	BYTE		VOL     68*isaachtest_mvl/mxv
	BYTE		PAN     c_v+40
	BYTE	W01
	BYTE		        c_v+32
	BYTE	W01
	BYTE		VOL     64*isaachtest_mvl/mxv
	BYTE		PAN     c_v+24
	BYTE	W02
	BYTE		        c_v+16
	BYTE	W02
	BYTE		VOL     60*isaachtest_mvl/mxv
	BYTE		PAN     c_v+8
	BYTE	W01
	BYTE		        c_v+0
	BYTE	W01
	BYTE		VOL     56*isaachtest_mvl/mxv
	BYTE	W01
	BYTE		PAN     c_v-8
	BYTE	W01
	BYTE		        c_v-16
	BYTE	W02
	BYTE		VOL     52*isaachtest_mvl/mxv
	BYTE		PAN     c_v-20
	BYTE	W01
	BYTE		        c_v-32
	BYTE	W01
	BYTE		VOL     48*isaachtest_mvl/mxv
	BYTE	W01
	BYTE		PAN     c_v-40
	BYTE	W01
	BYTE		        c_v-48
	BYTE	W02
	BYTE		VOL     44*isaachtest_mvl/mxv
	BYTE		PAN     c_v-56
	BYTE	W01
	BYTE		        c_v-64
	BYTE	W01
	BYTE		VOL     40*isaachtest_mvl/mxv
	BYTE		MOD     0
	BYTE	W01
	BYTE		N24     Dn4 
	BYTE	W01
	BYTE		PAN     c_v-48
	BYTE	W02
	BYTE		VOL     44*isaachtest_mvl/mxv
	BYTE		PAN     c_v-40
	BYTE	W01
	BYTE		        c_v-32
	BYTE	W01
	BYTE		VOL     48*isaachtest_mvl/mxv
	BYTE		PAN     c_v-24
	BYTE	W02
	BYTE		        c_v-16
	BYTE	W02
	BYTE		VOL     52*isaachtest_mvl/mxv
	BYTE		PAN     c_v-8
	BYTE	W01
	BYTE		        c_v+0
	BYTE	W01
	BYTE		VOL     56*isaachtest_mvl/mxv
	BYTE		PAN     c_v+8
	BYTE	W02
	BYTE		        c_v+16
	BYTE	W02
	BYTE		VOL     60*isaachtest_mvl/mxv
	BYTE		PAN     c_v+24
	BYTE	W01
	BYTE		        c_v+32
	BYTE	W01
	BYTE		        c_v+40
	BYTE	W01
	BYTE		VOL     64*isaachtest_mvl/mxv
	BYTE	W01
	BYTE		PAN     c_v+48
	BYTE	W02
	BYTE		VOL     68*isaachtest_mvl/mxv
	BYTE		PAN     c_v+56
	BYTE	W01
	BYTE		        c_v+63
	BYTE	W01
	BYTE		MOD     0
	BYTE		PAN     c_v+56
	BYTE	W01
// 010   ----------------------------------------
	BYTE		MOD     2
	BYTE		N72     En4 
	BYTE	W01
	BYTE		PAN     c_v+48
	BYTE	W02
	BYTE		VOL     68*isaachtest_mvl/mxv
	BYTE		PAN     c_v+40
	BYTE	W01
	BYTE		        c_v+32
	BYTE	W01
	BYTE		VOL     64*isaachtest_mvl/mxv
	BYTE		PAN     c_v+24
	BYTE	W02
	BYTE		        c_v+16
	BYTE	W02
	BYTE		VOL     60*isaachtest_mvl/mxv
	BYTE		PAN     c_v+8
	BYTE	W01
	BYTE		        c_v+0
	BYTE	W01
	BYTE		VOL     56*isaachtest_mvl/mxv
	BYTE	W01
	BYTE		PAN     c_v-8
	BYTE	W01
	BYTE		        c_v-16
	BYTE	W02
	BYTE		VOL     52*isaachtest_mvl/mxv
	BYTE		PAN     c_v-20
	BYTE	W01
	BYTE		        c_v-32
	BYTE	W01
	BYTE		VOL     48*isaachtest_mvl/mxv
	BYTE	W01
	BYTE		PAN     c_v-40
	BYTE	W01
	BYTE		        c_v-48
	BYTE	W02
	BYTE		VOL     44*isaachtest_mvl/mxv
	BYTE		PAN     c_v-56
	BYTE	W01
	BYTE		        c_v-64
	BYTE	W01
	BYTE		VOL     40*isaachtest_mvl/mxv
	BYTE	W01
	BYTE		MOD     0
	BYTE	W01
	BYTE		PAN     c_v-48
	BYTE	W02
	BYTE		VOL     44*isaachtest_mvl/mxv
	BYTE		PAN     c_v-40
	BYTE	W01
	BYTE		        c_v-32
	BYTE	W01
	BYTE		VOL     48*isaachtest_mvl/mxv
	BYTE		PAN     c_v-24
	BYTE	W02
	BYTE		        c_v-16
	BYTE	W02
	BYTE		VOL     52*isaachtest_mvl/mxv
	BYTE		PAN     c_v-8
	BYTE	W01
	BYTE		        c_v+0
	BYTE	W01
	BYTE		VOL     56*isaachtest_mvl/mxv
	BYTE		PAN     c_v+8
	BYTE	W02
	BYTE		        c_v+16
	BYTE	W02
	BYTE		VOL     60*isaachtest_mvl/mxv
	BYTE		PAN     c_v+24
	BYTE	W01
	BYTE		        c_v+32
	BYTE	W01
	BYTE		        c_v+40
	BYTE	W01
	BYTE		VOL     64*isaachtest_mvl/mxv
	BYTE	W01
	BYTE		PAN     c_v+48
	BYTE	W02
	BYTE		VOL     68*isaachtest_mvl/mxv
	BYTE		PAN     c_v+56
	BYTE	W01
	BYTE		        c_v+63
	BYTE	W01
	BYTE		        c_v+56
	BYTE	W01
	BYTE		MOD     2
	BYTE	W01
	BYTE		PAN     c_v+48
	BYTE	W02
	BYTE		VOL     68*isaachtest_mvl/mxv
	BYTE		PAN     c_v+40
	BYTE	W01
	BYTE		        c_v+32
	BYTE	W01
	BYTE		VOL     64*isaachtest_mvl/mxv
	BYTE		PAN     c_v+24
	BYTE	W02
	BYTE		        c_v+16
	BYTE	W02
	BYTE		VOL     60*isaachtest_mvl/mxv
	BYTE		PAN     c_v+8
	BYTE	W01
	BYTE		        c_v+0
	BYTE	W01
	BYTE		VOL     56*isaachtest_mvl/mxv
	BYTE	W01
	BYTE		PAN     c_v-8
	BYTE	W01
	BYTE		        c_v-16
	BYTE	W02
	BYTE		VOL     52*isaachtest_mvl/mxv
	BYTE		PAN     c_v-20
	BYTE	W01
	BYTE		        c_v-32
	BYTE	W01
	BYTE		VOL     48*isaachtest_mvl/mxv
	BYTE	W01
	BYTE		PAN     c_v-40
	BYTE	W01
	BYTE		        c_v-48
	BYTE	W02
	BYTE		VOL     44*isaachtest_mvl/mxv
	BYTE		PAN     c_v-56
	BYTE	W01
	BYTE		        c_v-64
	BYTE	W01
	BYTE		VOL     40*isaachtest_mvl/mxv
	BYTE		MOD     0
	BYTE	W01
	BYTE		N24     Cs4 
	BYTE	W01
	BYTE		PAN     c_v-48
	BYTE	W02
	BYTE		VOL     44*isaachtest_mvl/mxv
	BYTE		PAN     c_v-40
	BYTE	W01
	BYTE		        c_v-32
	BYTE	W01
	BYTE		VOL     48*isaachtest_mvl/mxv
	BYTE		PAN     c_v-24
	BYTE	W02
	BYTE		        c_v-16
	BYTE	W02
	BYTE		VOL     52*isaachtest_mvl/mxv
	BYTE		PAN     c_v-8
	BYTE	W01
	BYTE		        c_v+0
	BYTE	W01
	BYTE		VOL     56*isaachtest_mvl/mxv
	BYTE		PAN     c_v+8
	BYTE	W02
	BYTE		        c_v+16
	BYTE	W02
	BYTE		VOL     60*isaachtest_mvl/mxv
	BYTE		PAN     c_v+24
	BYTE	W01
	BYTE		        c_v+32
	BYTE	W01
	BYTE		        c_v+40
	BYTE	W01
	BYTE		VOL     64*isaachtest_mvl/mxv
	BYTE	W01
	BYTE		PAN     c_v+48
	BYTE	W02
	BYTE		VOL     68*isaachtest_mvl/mxv
	BYTE		PAN     c_v+56
	BYTE	W01
	BYTE		        c_v+63
	BYTE	W01
	BYTE		MOD     0
	BYTE		PAN     c_v+56
	BYTE	W01
// 011   ----------------------------------------
	BYTE		MOD     2
	BYTE		N72     An4 
	BYTE	W01
	BYTE		PAN     c_v+48
	BYTE	W02
	BYTE		VOL     68*isaachtest_mvl/mxv
	BYTE		PAN     c_v+40
	BYTE	W01
	BYTE		        c_v+32
	BYTE	W01
	BYTE		VOL     64*isaachtest_mvl/mxv
	BYTE		PAN     c_v+24
	BYTE	W02
	BYTE		        c_v+16
	BYTE	W02
	BYTE		VOL     60*isaachtest_mvl/mxv
	BYTE		PAN     c_v+8
	BYTE	W01
	BYTE		        c_v+0
	BYTE	W01
	BYTE		VOL     56*isaachtest_mvl/mxv
	BYTE	W01
	BYTE		PAN     c_v-8
	BYTE	W01
	BYTE		        c_v-16
	BYTE	W02
	BYTE		VOL     52*isaachtest_mvl/mxv
	BYTE		PAN     c_v-20
	BYTE	W01
	BYTE		        c_v-32
	BYTE	W01
	BYTE		VOL     48*isaachtest_mvl/mxv
	BYTE	W01
	BYTE		PAN     c_v-40
	BYTE	W01
	BYTE		        c_v-48
	BYTE	W02
	BYTE		VOL     44*isaachtest_mvl/mxv
	BYTE		PAN     c_v-56
	BYTE	W01
	BYTE		        c_v-64
	BYTE	W01
	BYTE		VOL     40*isaachtest_mvl/mxv
	BYTE	W01
	BYTE		MOD     0
	BYTE	W01
	BYTE		PAN     c_v-48
	BYTE	W02
	BYTE		VOL     44*isaachtest_mvl/mxv
	BYTE		PAN     c_v-40
	BYTE	W01
	BYTE		        c_v-32
	BYTE	W01
	BYTE		VOL     48*isaachtest_mvl/mxv
	BYTE		PAN     c_v-24
	BYTE	W02
	BYTE		        c_v-16
	BYTE	W02
	BYTE		VOL     52*isaachtest_mvl/mxv
	BYTE		PAN     c_v-8
	BYTE	W01
	BYTE		        c_v+0
	BYTE	W01
	BYTE		VOL     56*isaachtest_mvl/mxv
	BYTE		PAN     c_v+8
	BYTE	W02
	BYTE		        c_v+16
	BYTE	W02
	BYTE		VOL     60*isaachtest_mvl/mxv
	BYTE		PAN     c_v+24
	BYTE	W01
	BYTE		        c_v+32
	BYTE	W01
	BYTE		        c_v+40
	BYTE	W01
	BYTE		VOL     64*isaachtest_mvl/mxv
	BYTE	W01
	BYTE		PAN     c_v+48
	BYTE	W02
	BYTE		VOL     68*isaachtest_mvl/mxv
	BYTE		PAN     c_v+56
	BYTE	W01
	BYTE		        c_v+63
	BYTE	W01
	BYTE		        c_v+56
	BYTE	W01
	BYTE		MOD     2
	BYTE	W01
	BYTE		PAN     c_v+48
	BYTE	W02
	BYTE		VOL     68*isaachtest_mvl/mxv
	BYTE		PAN     c_v+40
	BYTE	W01
	BYTE		        c_v+32
	BYTE	W01
	BYTE		VOL     64*isaachtest_mvl/mxv
	BYTE		PAN     c_v+24
	BYTE	W02
	BYTE		        c_v+16
	BYTE	W02
	BYTE		VOL     60*isaachtest_mvl/mxv
	BYTE		PAN     c_v+8
	BYTE	W01
	BYTE		        c_v+0
	BYTE	W01
	BYTE		VOL     56*isaachtest_mvl/mxv
	BYTE	W01
	BYTE		PAN     c_v-8
	BYTE	W01
	BYTE		        c_v-16
	BYTE	W02
	BYTE		VOL     52*isaachtest_mvl/mxv
	BYTE		PAN     c_v-20
	BYTE	W01
	BYTE		        c_v-32
	BYTE	W01
	BYTE		VOL     48*isaachtest_mvl/mxv
	BYTE	W01
	BYTE		PAN     c_v-40
	BYTE	W01
	BYTE		        c_v-48
	BYTE	W02
	BYTE		VOL     44*isaachtest_mvl/mxv
	BYTE		PAN     c_v-56
	BYTE	W01
	BYTE		        c_v-64
	BYTE	W01
	BYTE		VOL     40*isaachtest_mvl/mxv
	BYTE		MOD     0
	BYTE	W01
	BYTE		N24     Gs4 
	BYTE	W01
	BYTE		PAN     c_v-48
	BYTE	W02
	BYTE		VOL     44*isaachtest_mvl/mxv
	BYTE		PAN     c_v-40
	BYTE	W01
	BYTE		        c_v-32
	BYTE	W01
	BYTE		VOL     48*isaachtest_mvl/mxv
	BYTE		PAN     c_v-24
	BYTE	W02
	BYTE		        c_v-16
	BYTE	W02
	BYTE		VOL     52*isaachtest_mvl/mxv
	BYTE		PAN     c_v-8
	BYTE	W01
	BYTE		        c_v+0
	BYTE	W01
	BYTE		VOL     56*isaachtest_mvl/mxv
	BYTE		PAN     c_v+8
	BYTE	W02
	BYTE		        c_v+16
	BYTE	W02
	BYTE		VOL     60*isaachtest_mvl/mxv
	BYTE		PAN     c_v+24
	BYTE	W01
	BYTE		        c_v+32
	BYTE	W01
	BYTE		        c_v+40
	BYTE	W01
	BYTE		VOL     64*isaachtest_mvl/mxv
	BYTE	W01
	BYTE		PAN     c_v+48
	BYTE	W02
	BYTE		VOL     68*isaachtest_mvl/mxv
	BYTE		PAN     c_v+56
	BYTE	W01
	BYTE		        c_v+63
	BYTE	W01
	BYTE		MOD     0
	BYTE		PAN     c_v+56
	BYTE	W01
// 012   ----------------------------------------
	BYTE	PATT
	 POIN2	isaachtest_6_008
// 013   ----------------------------------------
	BYTE		MOD     2
	BYTE	W01
	BYTE		PAN     c_v+48
	BYTE	W02
	BYTE		VOL     68*isaachtest_mvl/mxv
	BYTE		PAN     c_v+40
	BYTE	W01
	BYTE		        c_v+32
	BYTE	W01
	BYTE		VOL     64*isaachtest_mvl/mxv
	BYTE		PAN     c_v+24
	BYTE	W02
	BYTE		        c_v+16
	BYTE	W02
	BYTE		VOL     60*isaachtest_mvl/mxv
	BYTE		PAN     c_v+8
	BYTE	W01
	BYTE		        c_v+0
	BYTE	W01
	BYTE		VOL     56*isaachtest_mvl/mxv
	BYTE	W01
	BYTE		PAN     c_v-8
	BYTE	W01
	BYTE		        c_v-16
	BYTE	W02
	BYTE		VOL     52*isaachtest_mvl/mxv
	BYTE		PAN     c_v-20
	BYTE	W01
	BYTE		        c_v-32
	BYTE	W01
	BYTE		VOL     48*isaachtest_mvl/mxv
	BYTE	W01
	BYTE		PAN     c_v-40
	BYTE	W01
	BYTE		        c_v-48
	BYTE	W02
	BYTE		VOL     44*isaachtest_mvl/mxv
	BYTE		PAN     c_v-56
	BYTE	W01
	BYTE		        c_v-64
	BYTE	W01
	BYTE		VOL     40*isaachtest_mvl/mxv
	BYTE	W01
	BYTE		MOD     0
	BYTE		N24     Bn3   v048
	BYTE	W01
	BYTE		PAN     c_v-48
	BYTE	W02
	BYTE		VOL     44*isaachtest_mvl/mxv
	BYTE		PAN     c_v-40
	BYTE	W01
	BYTE		        c_v-32
	BYTE	W01
	BYTE		VOL     48*isaachtest_mvl/mxv
	BYTE		PAN     c_v-24
	BYTE	W02
	BYTE		        c_v-16
	BYTE	W02
	BYTE		VOL     52*isaachtest_mvl/mxv
	BYTE		PAN     c_v-8
	BYTE	W01
	BYTE		        c_v+0
	BYTE	W01
	BYTE		VOL     56*isaachtest_mvl/mxv
	BYTE		PAN     c_v+8
	BYTE	W02
	BYTE		        c_v+16
	BYTE	W02
	BYTE		VOL     60*isaachtest_mvl/mxv
	BYTE		PAN     c_v+24
	BYTE	W01
	BYTE		        c_v+32
	BYTE	W01
	BYTE		        c_v+40
	BYTE	W01
	BYTE		VOL     64*isaachtest_mvl/mxv
	BYTE	W01
	BYTE		PAN     c_v+48
	BYTE	W02
	BYTE		VOL     68*isaachtest_mvl/mxv
	BYTE		PAN     c_v+56
	BYTE	W01
	BYTE		        c_v+63
	BYTE	W01
	BYTE		        c_v+56
	BYTE	W01
	BYTE		MOD     2
	BYTE		N24     En4 
	BYTE	W01
	BYTE		PAN     c_v+48
	BYTE	W02
	BYTE		VOL     68*isaachtest_mvl/mxv
	BYTE		PAN     c_v+40
	BYTE	W01
	BYTE		        c_v+32
	BYTE	W01
	BYTE		VOL     64*isaachtest_mvl/mxv
	BYTE		PAN     c_v+24
	BYTE	W02
	BYTE		        c_v+16
	BYTE	W02
	BYTE		VOL     60*isaachtest_mvl/mxv
	BYTE		PAN     c_v+8
	BYTE	W01
	BYTE		        c_v+0
	BYTE	W01
	BYTE		VOL     56*isaachtest_mvl/mxv
	BYTE	W01
	BYTE		PAN     c_v-8
	BYTE	W01
	BYTE		        c_v-16
	BYTE	W02
	BYTE		VOL     52*isaachtest_mvl/mxv
	BYTE		PAN     c_v-20
	BYTE	W01
	BYTE		        c_v-32
	BYTE	W01
	BYTE		VOL     48*isaachtest_mvl/mxv
	BYTE	W01
	BYTE		PAN     c_v-40
	BYTE	W01
	BYTE		        c_v-48
	BYTE	W02
	BYTE		VOL     44*isaachtest_mvl/mxv
	BYTE		PAN     c_v-56
	BYTE	W01
	BYTE		        c_v-64
	BYTE	W01
	BYTE		VOL     40*isaachtest_mvl/mxv
	BYTE		MOD     0
	BYTE	W01
	BYTE		N24     Gs4 
	BYTE	W01
	BYTE		PAN     c_v-48
	BYTE	W02
	BYTE		VOL     44*isaachtest_mvl/mxv
	BYTE		PAN     c_v-40
	BYTE	W01
	BYTE		        c_v-32
	BYTE	W01
	BYTE		VOL     48*isaachtest_mvl/mxv
	BYTE		PAN     c_v-24
	BYTE	W02
	BYTE		        c_v-16
	BYTE	W02
	BYTE		VOL     52*isaachtest_mvl/mxv
	BYTE		PAN     c_v-8
	BYTE	W01
	BYTE		        c_v+0
	BYTE	W01
	BYTE		VOL     56*isaachtest_mvl/mxv
	BYTE		PAN     c_v+8
	BYTE	W02
	BYTE		        c_v+16
	BYTE	W02
	BYTE		VOL     60*isaachtest_mvl/mxv
	BYTE		PAN     c_v+24
	BYTE	W01
	BYTE		        c_v+32
	BYTE	W01
	BYTE		        c_v+40
	BYTE	W01
	BYTE		VOL     64*isaachtest_mvl/mxv
	BYTE	W01
	BYTE		PAN     c_v+48
	BYTE	W02
	BYTE		VOL     68*isaachtest_mvl/mxv
	BYTE		PAN     c_v+56
	BYTE	W01
	BYTE		        c_v+63
	BYTE	W01
	BYTE		MOD     0
	BYTE		PAN     c_v+56
	BYTE	W01
// 014   ----------------------------------------
	BYTE		MOD     2
	BYTE		N68     Bn4 
	BYTE	W01
	BYTE		PAN     c_v+48
	BYTE	W02
	BYTE		VOL     68*isaachtest_mvl/mxv
	BYTE		PAN     c_v+40
	BYTE	W01
	BYTE		        c_v+32
	BYTE	W01
	BYTE		VOL     64*isaachtest_mvl/mxv
	BYTE		PAN     c_v+24
	BYTE	W02
	BYTE		        c_v+16
	BYTE	W02
	BYTE		VOL     60*isaachtest_mvl/mxv
	BYTE		PAN     c_v+8
	BYTE	W01
	BYTE		        c_v+0
	BYTE	W01
	BYTE		VOL     56*isaachtest_mvl/mxv
	BYTE	W01
	BYTE		PAN     c_v-8
	BYTE	W01
	BYTE		        c_v-16
	BYTE	W02
	BYTE		VOL     52*isaachtest_mvl/mxv
	BYTE		PAN     c_v-20
	BYTE	W01
	BYTE		        c_v-32
	BYTE	W01
	BYTE		VOL     48*isaachtest_mvl/mxv
	BYTE	W01
	BYTE		PAN     c_v-40
	BYTE	W01
	BYTE		        c_v-48
	BYTE	W02
	BYTE		VOL     44*isaachtest_mvl/mxv
	BYTE		PAN     c_v-56
	BYTE	W01
	BYTE		        c_v-64
	BYTE	W01
	BYTE		VOL     40*isaachtest_mvl/mxv
	BYTE	W01
	BYTE		MOD     0
	BYTE	W01
	BYTE		PAN     c_v-48
	BYTE	W02
	BYTE		VOL     44*isaachtest_mvl/mxv
	BYTE		PAN     c_v-40
	BYTE	W01
	BYTE		        c_v-32
	BYTE	W01
	BYTE		VOL     48*isaachtest_mvl/mxv
	BYTE		PAN     c_v-24
	BYTE	W02
	BYTE		        c_v-16
	BYTE	W02
	BYTE		VOL     52*isaachtest_mvl/mxv
	BYTE		PAN     c_v-8
	BYTE	W01
	BYTE		        c_v+0
	BYTE	W01
	BYTE		VOL     56*isaachtest_mvl/mxv
	BYTE		PAN     c_v+8
	BYTE	W02
	BYTE		        c_v+16
	BYTE	W02
	BYTE		VOL     60*isaachtest_mvl/mxv
	BYTE		PAN     c_v+24
	BYTE	W01
	BYTE		        c_v+32
	BYTE	W01
	BYTE		        c_v+40
	BYTE	W01
	BYTE		VOL     64*isaachtest_mvl/mxv
	BYTE	W01
	BYTE		PAN     c_v+48
	BYTE	W02
	BYTE		VOL     68*isaachtest_mvl/mxv
	BYTE		PAN     c_v+56
	BYTE	W01
	BYTE		        c_v+63
	BYTE	W01
	BYTE		        c_v+56
	BYTE	W01
	BYTE		MOD     2
	BYTE	W01
	BYTE		PAN     c_v+48
	BYTE	W02
	BYTE		VOL     68*isaachtest_mvl/mxv
	BYTE		PAN     c_v+40
	BYTE	W01
	BYTE		        c_v+32
	BYTE	W01
	BYTE		VOL     64*isaachtest_mvl/mxv
	BYTE		PAN     c_v+24
	BYTE	W02
	BYTE		        c_v+16
	BYTE	W02
	BYTE		VOL     60*isaachtest_mvl/mxv
	BYTE		PAN     c_v+8
	BYTE	W01
	BYTE		        c_v+0
	BYTE	W01
	BYTE		VOL     56*isaachtest_mvl/mxv
	BYTE	W01
	BYTE		PAN     c_v-8
	BYTE	W01
	BYTE		        c_v-16
	BYTE	W02
	BYTE		VOL     52*isaachtest_mvl/mxv
	BYTE		PAN     c_v-20
	BYTE	W01
	BYTE		        c_v-32
	BYTE	W01
	BYTE		VOL     48*isaachtest_mvl/mxv
	BYTE	W01
	BYTE		PAN     c_v-40
	BYTE	W01
	BYTE		        c_v-48
	BYTE	W02
	BYTE		VOL     44*isaachtest_mvl/mxv
	BYTE		PAN     c_v-56
	BYTE	W01
	BYTE		        c_v-64
	BYTE	W01
	BYTE		VOL     40*isaachtest_mvl/mxv
	BYTE		MOD     0
	BYTE	W01
	BYTE		N24     Gs4 
	BYTE	W01
	BYTE		PAN     c_v-48
	BYTE	W02
	BYTE		VOL     44*isaachtest_mvl/mxv
	BYTE		PAN     c_v-40
	BYTE	W01
	BYTE		        c_v-32
	BYTE	W01
	BYTE		VOL     48*isaachtest_mvl/mxv
	BYTE		PAN     c_v-24
	BYTE	W02
	BYTE		        c_v-16
	BYTE	W02
	BYTE		VOL     52*isaachtest_mvl/mxv
	BYTE		PAN     c_v-8
	BYTE	W01
	BYTE		        c_v+0
	BYTE	W01
	BYTE		VOL     56*isaachtest_mvl/mxv
	BYTE		PAN     c_v+8
	BYTE	W02
	BYTE		        c_v+16
	BYTE	W02
	BYTE		VOL     60*isaachtest_mvl/mxv
	BYTE		PAN     c_v+24
	BYTE	W01
	BYTE		        c_v+32
	BYTE	W01
	BYTE		        c_v+40
	BYTE	W01
	BYTE		VOL     64*isaachtest_mvl/mxv
	BYTE	W01
	BYTE		PAN     c_v+48
	BYTE	W02
	BYTE		VOL     68*isaachtest_mvl/mxv
	BYTE		PAN     c_v+56
	BYTE	W01
	BYTE		        c_v+63
	BYTE	W01
	BYTE		MOD     0
	BYTE		PAN     c_v+56
	BYTE	W01
// 015   ----------------------------------------
	BYTE		MOD     2
	BYTE		N48     An4 
	BYTE	W01
	BYTE		PAN     c_v+48
	BYTE	W02
	BYTE		VOL     68*isaachtest_mvl/mxv
	BYTE		PAN     c_v+40
	BYTE	W01
	BYTE		        c_v+32
	BYTE	W01
	BYTE		VOL     64*isaachtest_mvl/mxv
	BYTE		PAN     c_v+24
	BYTE	W02
	BYTE		        c_v+16
	BYTE	W02
	BYTE		VOL     60*isaachtest_mvl/mxv
	BYTE		PAN     c_v+8
	BYTE	W01
	BYTE		        c_v+0
	BYTE	W01
	BYTE		VOL     56*isaachtest_mvl/mxv
	BYTE	W01
	BYTE		PAN     c_v-8
	BYTE	W01
	BYTE		        c_v-16
	BYTE	W02
	BYTE		VOL     52*isaachtest_mvl/mxv
	BYTE		PAN     c_v-20
	BYTE	W01
	BYTE		        c_v-32
	BYTE	W01
	BYTE		VOL     48*isaachtest_mvl/mxv
	BYTE	W01
	BYTE		PAN     c_v-40
	BYTE	W01
	BYTE		        c_v-48
	BYTE	W02
	BYTE		VOL     44*isaachtest_mvl/mxv
	BYTE		PAN     c_v-56
	BYTE	W01
	BYTE		        c_v-64
	BYTE	W01
	BYTE		VOL     40*isaachtest_mvl/mxv
	BYTE	W01
	BYTE		MOD     0
	BYTE	W01
	BYTE		PAN     c_v-48
	BYTE	W02
	BYTE		VOL     44*isaachtest_mvl/mxv
	BYTE		PAN     c_v-40
	BYTE	W01
	BYTE		        c_v-32
	BYTE	W01
	BYTE		VOL     48*isaachtest_mvl/mxv
	BYTE		PAN     c_v-24
	BYTE	W02
	BYTE		        c_v-16
	BYTE	W02
	BYTE		VOL     52*isaachtest_mvl/mxv
	BYTE		PAN     c_v-8
	BYTE	W01
	BYTE		        c_v+0
	BYTE	W01
	BYTE		VOL     56*isaachtest_mvl/mxv
	BYTE		PAN     c_v+8
	BYTE	W02
	BYTE		        c_v+16
	BYTE	W02
	BYTE		VOL     60*isaachtest_mvl/mxv
	BYTE		PAN     c_v+24
	BYTE	W01
	BYTE		        c_v+32
	BYTE	W01
	BYTE		        c_v+40
	BYTE	W01
	BYTE		VOL     64*isaachtest_mvl/mxv
	BYTE	W01
	BYTE		PAN     c_v+48
	BYTE	W02
	BYTE		VOL     68*isaachtest_mvl/mxv
	BYTE		PAN     c_v+56
	BYTE	W01
	BYTE		        c_v+63
	BYTE	W01
	BYTE		        c_v+56
	BYTE	W01
	BYTE		MOD     2
	BYTE		N48     Bn4 
	BYTE	W01
	BYTE		PAN     c_v+48
	BYTE	W02
	BYTE		VOL     68*isaachtest_mvl/mxv
	BYTE		PAN     c_v+40
	BYTE	W01
	BYTE		        c_v+32
	BYTE	W01
	BYTE		VOL     64*isaachtest_mvl/mxv
	BYTE		PAN     c_v+24
	BYTE	W02
	BYTE		        c_v+16
	BYTE	W02
	BYTE		VOL     60*isaachtest_mvl/mxv
	BYTE		PAN     c_v+8
	BYTE	W01
	BYTE		        c_v+0
	BYTE	W01
	BYTE		VOL     56*isaachtest_mvl/mxv
	BYTE	W01
	BYTE		PAN     c_v-8
	BYTE	W01
	BYTE		        c_v-16
	BYTE	W02
	BYTE		VOL     52*isaachtest_mvl/mxv
	BYTE		PAN     c_v-20
	BYTE	W01
	BYTE		        c_v-32
	BYTE	W01
	BYTE		VOL     48*isaachtest_mvl/mxv
	BYTE	W01
	BYTE		PAN     c_v-40
	BYTE	W01
	BYTE		        c_v-48
	BYTE	W02
	BYTE		VOL     44*isaachtest_mvl/mxv
	BYTE		PAN     c_v-56
	BYTE	W01
	BYTE		        c_v-64
	BYTE	W01
	BYTE		VOL     40*isaachtest_mvl/mxv
	BYTE		MOD     0
	BYTE	W02
	BYTE		PAN     c_v-48
	BYTE	W02
	BYTE		VOL     44*isaachtest_mvl/mxv
	BYTE		PAN     c_v-40
	BYTE	W01
	BYTE		        c_v-32
	BYTE	W01
	BYTE		VOL     48*isaachtest_mvl/mxv
	BYTE		PAN     c_v-24
	BYTE	W02
	BYTE		        c_v-16
	BYTE	W02
	BYTE		VOL     52*isaachtest_mvl/mxv
	BYTE		PAN     c_v-8
	BYTE	W01
	BYTE		        c_v+0
	BYTE	W01
	BYTE		VOL     56*isaachtest_mvl/mxv
	BYTE		PAN     c_v+8
	BYTE	W02
	BYTE		        c_v+16
	BYTE	W02
	BYTE		VOL     60*isaachtest_mvl/mxv
	BYTE		PAN     c_v+24
	BYTE	W01
	BYTE		        c_v+32
	BYTE	W01
	BYTE		        c_v+40
	BYTE	W01
	BYTE		VOL     64*isaachtest_mvl/mxv
	BYTE	W01
	BYTE		PAN     c_v+48
	BYTE	W02
	BYTE		VOL     68*isaachtest_mvl/mxv
	BYTE		PAN     c_v+56
	BYTE	W01
	BYTE		        c_v+63
	BYTE	W01
	BYTE		MOD     0
	BYTE		PAN     c_v+56
	BYTE	W01
// 016   ----------------------------------------
	BYTE		MOD     2
	BYTE		N48     Cs5 
	BYTE	W01
	BYTE		PAN     c_v+48
	BYTE	W02
	BYTE		VOL     68*isaachtest_mvl/mxv
	BYTE		PAN     c_v+40
	BYTE	W01
	BYTE		        c_v+32
	BYTE	W01
	BYTE		VOL     64*isaachtest_mvl/mxv
	BYTE		PAN     c_v+24
	BYTE	W02
	BYTE		        c_v+16
	BYTE	W02
	BYTE		VOL     60*isaachtest_mvl/mxv
	BYTE		PAN     c_v+8
	BYTE	W01
	BYTE		        c_v+0
	BYTE	W01
	BYTE		VOL     56*isaachtest_mvl/mxv
	BYTE	W01
	BYTE		PAN     c_v-8
	BYTE	W01
	BYTE		        c_v-16
	BYTE	W02
	BYTE		VOL     52*isaachtest_mvl/mxv
	BYTE		PAN     c_v-20
	BYTE	W01
	BYTE		        c_v-32
	BYTE	W01
	BYTE		VOL     48*isaachtest_mvl/mxv
	BYTE	W01
	BYTE		PAN     c_v-40
	BYTE	W01
	BYTE		        c_v-48
	BYTE	W02
	BYTE		VOL     44*isaachtest_mvl/mxv
	BYTE		PAN     c_v-56
	BYTE	W01
	BYTE		        c_v-64
	BYTE	W01
	BYTE		VOL     40*isaachtest_mvl/mxv
	BYTE	W01
	BYTE		MOD     0
	BYTE	W01
	BYTE		PAN     c_v-48
	BYTE	W02
	BYTE		VOL     44*isaachtest_mvl/mxv
	BYTE		PAN     c_v-40
	BYTE	W01
	BYTE		        c_v-32
	BYTE	W01
	BYTE		VOL     48*isaachtest_mvl/mxv
	BYTE		PAN     c_v-24
	BYTE	W02
	BYTE		        c_v-16
	BYTE	W02
	BYTE		VOL     52*isaachtest_mvl/mxv
	BYTE		PAN     c_v-8
	BYTE	W01
	BYTE		        c_v+0
	BYTE	W01
	BYTE		VOL     56*isaachtest_mvl/mxv
	BYTE		PAN     c_v+8
	BYTE	W02
	BYTE		        c_v+16
	BYTE	W02
	BYTE		VOL     60*isaachtest_mvl/mxv
	BYTE		PAN     c_v+24
	BYTE	W01
	BYTE		        c_v+32
	BYTE	W01
	BYTE		        c_v+40
	BYTE	W01
	BYTE		VOL     64*isaachtest_mvl/mxv
	BYTE	W01
	BYTE		PAN     c_v+48
	BYTE	W02
	BYTE		VOL     68*isaachtest_mvl/mxv
	BYTE		PAN     c_v+56
	BYTE	W01
	BYTE		        c_v+63
	BYTE	W01
	BYTE		        c_v+56
	BYTE	W01
	BYTE		MOD     2
	BYTE		N24     Fs4 
	BYTE	W01
	BYTE		PAN     c_v+48
	BYTE	W02
	BYTE		VOL     68*isaachtest_mvl/mxv
	BYTE		PAN     c_v+40
	BYTE	W01
	BYTE		        c_v+32
	BYTE	W01
	BYTE		VOL     64*isaachtest_mvl/mxv
	BYTE		PAN     c_v+24
	BYTE	W02
	BYTE		        c_v+16
	BYTE	W02
	BYTE		VOL     60*isaachtest_mvl/mxv
	BYTE		PAN     c_v+8
	BYTE	W01
	BYTE		        c_v+0
	BYTE	W01
	BYTE		VOL     56*isaachtest_mvl/mxv
	BYTE	W01
	BYTE		PAN     c_v-8
	BYTE	W01
	BYTE		        c_v-16
	BYTE	W02
	BYTE		VOL     52*isaachtest_mvl/mxv
	BYTE		PAN     c_v-20
	BYTE	W01
	BYTE		        c_v-32
	BYTE	W01
	BYTE		VOL     48*isaachtest_mvl/mxv
	BYTE	W01
	BYTE		PAN     c_v-40
	BYTE	W01
	BYTE		        c_v-48
	BYTE	W02
	BYTE		VOL     44*isaachtest_mvl/mxv
	BYTE		PAN     c_v-56
	BYTE	W01
	BYTE		        c_v-64
	BYTE	W01
	BYTE		VOL     40*isaachtest_mvl/mxv
	BYTE		MOD     0
	BYTE	W01
	BYTE		N24     Cs5 
	BYTE	W01
	BYTE		PAN     c_v-48
	BYTE	W02
	BYTE		VOL     44*isaachtest_mvl/mxv
	BYTE		PAN     c_v-40
	BYTE	W01
	BYTE		        c_v-32
	BYTE	W01
	BYTE		VOL     48*isaachtest_mvl/mxv
	BYTE		PAN     c_v-24
	BYTE	W02
	BYTE		        c_v-16
	BYTE	W02
	BYTE		VOL     52*isaachtest_mvl/mxv
	BYTE		PAN     c_v-8
	BYTE	W01
	BYTE		        c_v+0
	BYTE	W01
	BYTE		VOL     56*isaachtest_mvl/mxv
	BYTE		PAN     c_v+8
	BYTE	W02
	BYTE		        c_v+16
	BYTE	W02
	BYTE		VOL     60*isaachtest_mvl/mxv
	BYTE		PAN     c_v+24
	BYTE	W01
	BYTE		        c_v+32
	BYTE	W01
	BYTE		        c_v+40
	BYTE	W01
	BYTE		VOL     64*isaachtest_mvl/mxv
	BYTE	W01
	BYTE		PAN     c_v+48
	BYTE	W02
	BYTE		VOL     68*isaachtest_mvl/mxv
	BYTE		PAN     c_v+56
	BYTE	W01
	BYTE		        c_v+63
	BYTE	W01
	BYTE		MOD     0
	BYTE		PAN     c_v+56
	BYTE	W01
// 017   ----------------------------------------
	BYTE		MOD     2
	BYTE		N24     En5 
	BYTE	W01
	BYTE		PAN     c_v+48
	BYTE	W02
	BYTE		VOL     68*isaachtest_mvl/mxv
	BYTE		PAN     c_v+40
	BYTE	W01
	BYTE		        c_v+32
	BYTE	W01
	BYTE		VOL     64*isaachtest_mvl/mxv
	BYTE		PAN     c_v+24
	BYTE	W02
	BYTE		        c_v+16
	BYTE	W02
	BYTE		VOL     60*isaachtest_mvl/mxv
	BYTE		PAN     c_v+8
	BYTE	W01
	BYTE		        c_v+0
	BYTE	W01
	BYTE		VOL     56*isaachtest_mvl/mxv
	BYTE	W01
	BYTE		PAN     c_v-8
	BYTE	W01
	BYTE		        c_v-16
	BYTE	W02
	BYTE		VOL     52*isaachtest_mvl/mxv
	BYTE		PAN     c_v-20
	BYTE	W01
	BYTE		        c_v-32
	BYTE	W01
	BYTE		VOL     48*isaachtest_mvl/mxv
	BYTE	W01
	BYTE		PAN     c_v-40
	BYTE	W01
	BYTE		        c_v-48
	BYTE	W02
	BYTE		VOL     44*isaachtest_mvl/mxv
	BYTE		PAN     c_v-56
	BYTE	W01
	BYTE		        c_v-64
	BYTE	W01
	BYTE		VOL     40*isaachtest_mvl/mxv
	BYTE	W01
	BYTE		MOD     0
	BYTE		N24     Dn5 
	BYTE	W01
	BYTE		PAN     c_v-48
	BYTE	W02
	BYTE		VOL     44*isaachtest_mvl/mxv
	BYTE		PAN     c_v-40
	BYTE	W01
	BYTE		        c_v-32
	BYTE	W01
	BYTE		VOL     48*isaachtest_mvl/mxv
	BYTE		PAN     c_v-24
	BYTE	W02
	BYTE		        c_v-16
	BYTE	W02
	BYTE		VOL     52*isaachtest_mvl/mxv
	BYTE		PAN     c_v-8
	BYTE	W01
	BYTE		        c_v+0
	BYTE	W01
	BYTE		VOL     56*isaachtest_mvl/mxv
	BYTE		PAN     c_v+8
	BYTE	W02
	BYTE		        c_v+16
	BYTE	W02
	BYTE		VOL     60*isaachtest_mvl/mxv
	BYTE		PAN     c_v+24
	BYTE	W01
	BYTE		        c_v+32
	BYTE	W01
	BYTE		        c_v+40
	BYTE	W01
	BYTE		VOL     64*isaachtest_mvl/mxv
	BYTE	W01
	BYTE		PAN     c_v+48
	BYTE	W02
	BYTE		VOL     68*isaachtest_mvl/mxv
	BYTE		PAN     c_v+56
	BYTE	W01
	BYTE		        c_v+63
	BYTE	W01
	BYTE		        c_v+56
	BYTE	W01
	BYTE		MOD     2
	BYTE		N24     An4 
	BYTE	W01
	BYTE		PAN     c_v+48
	BYTE	W02
	BYTE		VOL     68*isaachtest_mvl/mxv
	BYTE		PAN     c_v+40
	BYTE	W01
	BYTE		        c_v+32
	BYTE	W01
	BYTE		VOL     64*isaachtest_mvl/mxv
	BYTE		PAN     c_v+24
	BYTE	W02
	BYTE		        c_v+16
	BYTE	W02
	BYTE		VOL     60*isaachtest_mvl/mxv
	BYTE		PAN     c_v+8
	BYTE	W01
	BYTE		        c_v+0
	BYTE	W01
	BYTE		VOL     56*isaachtest_mvl/mxv
	BYTE	W01
	BYTE		PAN     c_v-8
	BYTE	W01
	BYTE		        c_v-16
	BYTE	W02
	BYTE		VOL     52*isaachtest_mvl/mxv
	BYTE		PAN     c_v-20
	BYTE	W01
	BYTE		        c_v-32
	BYTE	W01
	BYTE		VOL     48*isaachtest_mvl/mxv
	BYTE	W01
	BYTE		PAN     c_v-40
	BYTE	W01
	BYTE		        c_v-48
	BYTE	W02
	BYTE		VOL     44*isaachtest_mvl/mxv
	BYTE		PAN     c_v-56
	BYTE	W01
	BYTE		        c_v-64
	BYTE	W01
	BYTE		VOL     40*isaachtest_mvl/mxv
	BYTE		MOD     0
	BYTE	W01
	BYTE		N24     Bn4 
	BYTE	W01
	BYTE		PAN     c_v-48
	BYTE	W02
	BYTE		VOL     44*isaachtest_mvl/mxv
	BYTE		PAN     c_v-40
	BYTE	W01
	BYTE		        c_v-32
	BYTE	W01
	BYTE		VOL     48*isaachtest_mvl/mxv
	BYTE		PAN     c_v-24
	BYTE	W02
	BYTE		        c_v-16
	BYTE	W02
	BYTE		VOL     52*isaachtest_mvl/mxv
	BYTE		PAN     c_v-8
	BYTE	W01
	BYTE		        c_v+0
	BYTE	W01
	BYTE		VOL     56*isaachtest_mvl/mxv
	BYTE		PAN     c_v+8
	BYTE	W02
	BYTE		        c_v+16
	BYTE	W02
	BYTE		VOL     60*isaachtest_mvl/mxv
	BYTE		PAN     c_v+24
	BYTE	W01
	BYTE		        c_v+32
	BYTE	W01
	BYTE		        c_v+40
	BYTE	W01
	BYTE		VOL     64*isaachtest_mvl/mxv
	BYTE	W01
	BYTE		PAN     c_v+48
	BYTE	W02
	BYTE		VOL     68*isaachtest_mvl/mxv
	BYTE		PAN     c_v+56
	BYTE	W01
	BYTE		        c_v+63
	BYTE	W01
	BYTE		MOD     0
	BYTE		PAN     c_v+56
	BYTE	W01
// 018   ----------------------------------------
	BYTE		MOD     2
	BYTE		N96     Cs5 
	BYTE	W01
	BYTE		PAN     c_v+48
	BYTE	W02
	BYTE		VOL     68*isaachtest_mvl/mxv
	BYTE		PAN     c_v+40
	BYTE	W01
	BYTE		        c_v+32
	BYTE	W01
	BYTE		VOL     64*isaachtest_mvl/mxv
	BYTE		PAN     c_v+24
	BYTE	W02
	BYTE		        c_v+16
	BYTE	W02
	BYTE		VOL     60*isaachtest_mvl/mxv
	BYTE		PAN     c_v+8
	BYTE	W01
	BYTE		        c_v+0
	BYTE	W01
	BYTE		VOL     56*isaachtest_mvl/mxv
	BYTE	W01
	BYTE		PAN     c_v-8
	BYTE	W01
	BYTE		        c_v-16
	BYTE	W02
	BYTE		VOL     52*isaachtest_mvl/mxv
	BYTE		PAN     c_v-20
	BYTE	W01
	BYTE		        c_v-32
	BYTE	W01
	BYTE		VOL     48*isaachtest_mvl/mxv
	BYTE	W01
	BYTE		PAN     c_v-40
	BYTE	W01
	BYTE		        c_v-48
	BYTE	W02
	BYTE		VOL     44*isaachtest_mvl/mxv
	BYTE		PAN     c_v-56
	BYTE	W01
	BYTE		        c_v-64
	BYTE	W01
	BYTE		VOL     40*isaachtest_mvl/mxv
	BYTE	W01
	BYTE		MOD     0
	BYTE	W01
	BYTE		PAN     c_v-48
	BYTE	W02
	BYTE		VOL     44*isaachtest_mvl/mxv
	BYTE		PAN     c_v-40
	BYTE	W01
	BYTE		        c_v-32
	BYTE	W01
	BYTE		VOL     48*isaachtest_mvl/mxv
	BYTE		PAN     c_v-24
	BYTE	W02
	BYTE		        c_v-16
	BYTE	W02
	BYTE		VOL     52*isaachtest_mvl/mxv
	BYTE		PAN     c_v-8
	BYTE	W01
	BYTE		        c_v+0
	BYTE	W01
	BYTE		VOL     56*isaachtest_mvl/mxv
	BYTE		PAN     c_v+8
	BYTE	W02
	BYTE		        c_v+16
	BYTE	W02
	BYTE		VOL     60*isaachtest_mvl/mxv
	BYTE		PAN     c_v+24
	BYTE	W01
	BYTE		        c_v+32
	BYTE	W01
	BYTE		        c_v+40
	BYTE	W01
	BYTE		VOL     64*isaachtest_mvl/mxv
	BYTE	W01
	BYTE		PAN     c_v+48
	BYTE	W02
	BYTE		VOL     68*isaachtest_mvl/mxv
	BYTE		PAN     c_v+56
	BYTE	W01
	BYTE		        c_v+63
	BYTE	W01
	BYTE		        c_v+56
	BYTE	W01
	BYTE		MOD     2
	BYTE	W01
	BYTE		PAN     c_v+48
	BYTE	W02
	BYTE		VOL     68*isaachtest_mvl/mxv
	BYTE		PAN     c_v+40
	BYTE	W01
	BYTE		        c_v+32
	BYTE	W01
	BYTE		VOL     64*isaachtest_mvl/mxv
	BYTE		PAN     c_v+24
	BYTE	W02
	BYTE		        c_v+16
	BYTE	W02
	BYTE		VOL     60*isaachtest_mvl/mxv
	BYTE		PAN     c_v+8
	BYTE	W01
	BYTE		        c_v+0
	BYTE	W01
	BYTE		VOL     56*isaachtest_mvl/mxv
	BYTE	W01
	BYTE		PAN     c_v-8
	BYTE	W01
	BYTE		        c_v-16
	BYTE	W02
	BYTE		VOL     52*isaachtest_mvl/mxv
	BYTE		PAN     c_v-20
	BYTE	W01
	BYTE		        c_v-32
	BYTE	W01
	BYTE		VOL     48*isaachtest_mvl/mxv
	BYTE	W01
	BYTE		PAN     c_v-40
	BYTE	W01
	BYTE		        c_v-48
	BYTE	W02
	BYTE		VOL     44*isaachtest_mvl/mxv
	BYTE		PAN     c_v-56
	BYTE	W01
	BYTE		        c_v-64
	BYTE	W01
	BYTE		VOL     40*isaachtest_mvl/mxv
	BYTE		MOD     0
	BYTE	W02
	BYTE		PAN     c_v-48
	BYTE	W02
	BYTE		VOL     44*isaachtest_mvl/mxv
	BYTE		PAN     c_v-40
	BYTE	W01
	BYTE		        c_v-32
	BYTE	W01
	BYTE		VOL     48*isaachtest_mvl/mxv
	BYTE		PAN     c_v-24
	BYTE	W02
	BYTE		        c_v-16
	BYTE	W02
	BYTE		VOL     52*isaachtest_mvl/mxv
	BYTE		PAN     c_v-8
	BYTE	W01
	BYTE		        c_v+0
	BYTE	W01
	BYTE		VOL     56*isaachtest_mvl/mxv
	BYTE		PAN     c_v+8
	BYTE	W02
	BYTE		        c_v+16
	BYTE	W02
	BYTE		VOL     60*isaachtest_mvl/mxv
	BYTE		PAN     c_v+24
	BYTE	W01
	BYTE		        c_v+32
	BYTE	W01
	BYTE		        c_v+40
	BYTE	W01
	BYTE		VOL     64*isaachtest_mvl/mxv
	BYTE	W01
	BYTE		PAN     c_v+48
	BYTE	W02
	BYTE		VOL     68*isaachtest_mvl/mxv
	BYTE		PAN     c_v+56
	BYTE	W01
	BYTE		        c_v+63
	BYTE	W01
	BYTE		MOD     0
	BYTE		PAN     c_v+56
	BYTE	W01
// 019   ----------------------------------------
	BYTE		MOD     2
	BYTE		N72     Cs4 
	BYTE	W01
	BYTE		PAN     c_v+48
	BYTE	W02
	BYTE		VOL     68*isaachtest_mvl/mxv
	BYTE		PAN     c_v+40
	BYTE	W01
	BYTE		        c_v+32
	BYTE	W01
	BYTE		VOL     64*isaachtest_mvl/mxv
	BYTE		PAN     c_v+24
	BYTE	W02
	BYTE		        c_v+16
	BYTE	W02
	BYTE		VOL     60*isaachtest_mvl/mxv
	BYTE		PAN     c_v+8
	BYTE	W01
	BYTE		        c_v+0
	BYTE	W01
	BYTE		VOL     56*isaachtest_mvl/mxv
	BYTE	W01
	BYTE		PAN     c_v-8
	BYTE	W01
	BYTE		        c_v-16
	BYTE	W02
	BYTE		VOL     52*isaachtest_mvl/mxv
	BYTE		PAN     c_v-20
	BYTE	W01
	BYTE		        c_v-32
	BYTE	W01
	BYTE		VOL     48*isaachtest_mvl/mxv
	BYTE	W01
	BYTE		PAN     c_v-40
	BYTE	W01
	BYTE		        c_v-48
	BYTE	W02
	BYTE		VOL     44*isaachtest_mvl/mxv
	BYTE		PAN     c_v-56
	BYTE	W01
	BYTE		        c_v-64
	BYTE	W01
	BYTE		VOL     40*isaachtest_mvl/mxv
	BYTE	W01
	BYTE		MOD     0
	BYTE	W01
	BYTE		PAN     c_v-48
	BYTE	W02
	BYTE		VOL     44*isaachtest_mvl/mxv
	BYTE		PAN     c_v-40
	BYTE	W01
	BYTE		        c_v-32
	BYTE	W01
	BYTE		VOL     48*isaachtest_mvl/mxv
	BYTE		PAN     c_v-24
	BYTE	W02
	BYTE		        c_v-16
	BYTE	W02
	BYTE		VOL     52*isaachtest_mvl/mxv
	BYTE		PAN     c_v-8
	BYTE	W01
	BYTE		        c_v+0
	BYTE	W01
	BYTE		VOL     56*isaachtest_mvl/mxv
	BYTE		PAN     c_v+8
	BYTE	W02
	BYTE		        c_v+16
	BYTE	W02
	BYTE		VOL     60*isaachtest_mvl/mxv
	BYTE		PAN     c_v+24
	BYTE	W01
	BYTE		        c_v+32
	BYTE	W01
	BYTE		        c_v+40
	BYTE	W01
	BYTE		VOL     64*isaachtest_mvl/mxv
	BYTE	W01
	BYTE		PAN     c_v+48
	BYTE	W02
	BYTE		VOL     68*isaachtest_mvl/mxv
	BYTE		PAN     c_v+56
	BYTE	W01
	BYTE		        c_v+63
	BYTE	W01
	BYTE		        c_v+56
	BYTE	W01
	BYTE		MOD     2
	BYTE	W01
	BYTE		PAN     c_v+48
	BYTE	W02
	BYTE		VOL     68*isaachtest_mvl/mxv
	BYTE		PAN     c_v+40
	BYTE	W01
	BYTE		        c_v+32
	BYTE	W01
	BYTE		VOL     64*isaachtest_mvl/mxv
	BYTE		PAN     c_v+24
	BYTE	W02
	BYTE		        c_v+16
	BYTE	W02
	BYTE		VOL     60*isaachtest_mvl/mxv
	BYTE		PAN     c_v+8
	BYTE	W01
	BYTE		        c_v+0
	BYTE	W01
	BYTE		VOL     56*isaachtest_mvl/mxv
	BYTE	W01
	BYTE		PAN     c_v-8
	BYTE	W01
	BYTE		        c_v-16
	BYTE	W02
	BYTE		VOL     52*isaachtest_mvl/mxv
	BYTE		PAN     c_v-20
	BYTE	W01
	BYTE		        c_v-32
	BYTE	W01
	BYTE		VOL     48*isaachtest_mvl/mxv
	BYTE	W01
	BYTE		PAN     c_v-40
	BYTE	W01
	BYTE		        c_v-48
	BYTE	W02
	BYTE		VOL     44*isaachtest_mvl/mxv
	BYTE		PAN     c_v-56
	BYTE	W01
	BYTE		        c_v-64
	BYTE	W01
	BYTE		VOL     40*isaachtest_mvl/mxv
	BYTE		MOD     0
	BYTE	W02
	BYTE		PAN     c_v-48
	BYTE	W02
	BYTE		VOL     44*isaachtest_mvl/mxv
	BYTE		PAN     c_v-40
	BYTE	W01
	BYTE		        c_v-32
	BYTE	W01
	BYTE		VOL     48*isaachtest_mvl/mxv
	BYTE		PAN     c_v-24
	BYTE	W02
	BYTE		        c_v-16
	BYTE	W02
	BYTE		VOL     52*isaachtest_mvl/mxv
	BYTE		PAN     c_v-8
	BYTE	W01
	BYTE		        c_v+0
	BYTE	W01
	BYTE		VOL     56*isaachtest_mvl/mxv
	BYTE		PAN     c_v+8
	BYTE	W02
	BYTE		        c_v+16
	BYTE	W02
	BYTE		VOL     60*isaachtest_mvl/mxv
	BYTE		PAN     c_v+24
	BYTE	W01
	BYTE		        c_v+32
	BYTE	W01
	BYTE		        c_v+40
	BYTE	W01
	BYTE		VOL     64*isaachtest_mvl/mxv
	BYTE	W01
	BYTE		PAN     c_v+48
	BYTE	W02
	BYTE		VOL     68*isaachtest_mvl/mxv
	BYTE		PAN     c_v+56
	BYTE	W01
	BYTE		        c_v+63
	BYTE	W01
	BYTE		MOD     0
	BYTE		PAN     c_v+56
	BYTE	W01
// 020   ----------------------------------------
	BYTE		MOD     2
	BYTE		N48     Cs3 
	BYTE	W01
	BYTE		PAN     c_v+48
	BYTE	W02
	BYTE		VOL     68*isaachtest_mvl/mxv
	BYTE		PAN     c_v+40
	BYTE	W01
	BYTE		        c_v+32
	BYTE	W01
	BYTE		VOL     64*isaachtest_mvl/mxv
	BYTE		PAN     c_v+24
	BYTE	W02
	BYTE		        c_v+16
	BYTE	W02
	BYTE		VOL     60*isaachtest_mvl/mxv
	BYTE		PAN     c_v+8
	BYTE	W01
	BYTE		        c_v+0
	BYTE	W01
	BYTE		VOL     56*isaachtest_mvl/mxv
	BYTE	W01
	BYTE		PAN     c_v-8
	BYTE	W01
	BYTE		        c_v-16
	BYTE	W02
	BYTE		VOL     52*isaachtest_mvl/mxv
	BYTE		PAN     c_v-20
	BYTE	W01
	BYTE		        c_v-32
	BYTE	W01
	BYTE		VOL     48*isaachtest_mvl/mxv
	BYTE	W01
	BYTE		PAN     c_v-40
	BYTE	W01
	BYTE		        c_v-48
	BYTE	W02
	BYTE		VOL     44*isaachtest_mvl/mxv
	BYTE		PAN     c_v-56
	BYTE	W01
	BYTE		        c_v-64
	BYTE	W01
	BYTE		VOL     40*isaachtest_mvl/mxv
	BYTE	W01
	BYTE		MOD     0
	BYTE	W01
	BYTE		PAN     c_v-48
	BYTE	W02
	BYTE		VOL     44*isaachtest_mvl/mxv
	BYTE		PAN     c_v-40
	BYTE	W01
	BYTE		        c_v-32
	BYTE	W01
	BYTE		VOL     48*isaachtest_mvl/mxv
	BYTE		PAN     c_v-24
	BYTE	W02
	BYTE		        c_v-16
	BYTE	W02
	BYTE		VOL     52*isaachtest_mvl/mxv
	BYTE		PAN     c_v-8
	BYTE	W01
	BYTE		        c_v+0
	BYTE	W01
	BYTE		VOL     56*isaachtest_mvl/mxv
	BYTE		PAN     c_v+8
	BYTE	W02
	BYTE		        c_v+16
	BYTE	W02
	BYTE		VOL     60*isaachtest_mvl/mxv
	BYTE		PAN     c_v+24
	BYTE	W01
	BYTE		        c_v+32
	BYTE	W01
	BYTE		        c_v+40
	BYTE	W01
	BYTE		VOL     64*isaachtest_mvl/mxv
	BYTE	W01
	BYTE		PAN     c_v+48
	BYTE	W02
	BYTE		VOL     68*isaachtest_mvl/mxv
	BYTE		PAN     c_v+56
	BYTE	W01
	BYTE		        c_v+63
	BYTE	W01
	BYTE		        c_v+56
	BYTE	W01
	BYTE		MOD     2
	BYTE		N24     Dn3 
	BYTE	W01
	BYTE		PAN     c_v+48
	BYTE	W02
	BYTE		VOL     68*isaachtest_mvl/mxv
	BYTE		PAN     c_v+40
	BYTE	W01
	BYTE		        c_v+32
	BYTE	W01
	BYTE		VOL     64*isaachtest_mvl/mxv
	BYTE		PAN     c_v+24
	BYTE	W02
	BYTE		        c_v+16
	BYTE	W02
	BYTE		VOL     60*isaachtest_mvl/mxv
	BYTE		PAN     c_v+8
	BYTE	W01
	BYTE		        c_v+0
	BYTE	W01
	BYTE		VOL     56*isaachtest_mvl/mxv
	BYTE	W01
	BYTE		PAN     c_v-8
	BYTE	W01
	BYTE		        c_v-16
	BYTE	W02
	BYTE		VOL     52*isaachtest_mvl/mxv
	BYTE		PAN     c_v-20
	BYTE	W01
	BYTE		        c_v-32
	BYTE	W01
	BYTE		VOL     48*isaachtest_mvl/mxv
	BYTE	W01
	BYTE		PAN     c_v-40
	BYTE	W01
	BYTE		        c_v-48
	BYTE	W02
	BYTE		VOL     44*isaachtest_mvl/mxv
	BYTE		PAN     c_v-56
	BYTE	W01
	BYTE		        c_v-64
	BYTE	W01
	BYTE		VOL     40*isaachtest_mvl/mxv
	BYTE		MOD     0
	BYTE	W01
	BYTE		N24     En3 
	BYTE	W01
	BYTE		PAN     c_v-48
	BYTE	W02
	BYTE		VOL     44*isaachtest_mvl/mxv
	BYTE		PAN     c_v-40
	BYTE	W01
	BYTE		        c_v-32
	BYTE	W01
	BYTE		VOL     48*isaachtest_mvl/mxv
	BYTE		PAN     c_v-24
	BYTE	W02
	BYTE		        c_v-16
	BYTE	W02
	BYTE		VOL     52*isaachtest_mvl/mxv
	BYTE		PAN     c_v-8
	BYTE	W01
	BYTE		        c_v+0
	BYTE	W01
	BYTE		VOL     56*isaachtest_mvl/mxv
	BYTE		PAN     c_v+8
	BYTE	W02
	BYTE		        c_v+16
	BYTE	W02
	BYTE		VOL     60*isaachtest_mvl/mxv
	BYTE		PAN     c_v+24
	BYTE	W01
	BYTE		        c_v+32
	BYTE	W01
	BYTE		        c_v+40
	BYTE	W01
	BYTE		VOL     64*isaachtest_mvl/mxv
	BYTE	W01
	BYTE		PAN     c_v+48
	BYTE	W02
	BYTE		VOL     68*isaachtest_mvl/mxv
	BYTE		PAN     c_v+56
	BYTE	W01
	BYTE		        c_v+63
	BYTE	W01
	BYTE		MOD     0
	BYTE		PAN     c_v+56
	BYTE	W01
// 021   ----------------------------------------
	BYTE		MOD     2
	BYTE		N48     Fs3 
	BYTE	W01
	BYTE		PAN     c_v+48
	BYTE	W02
	BYTE		VOL     68*isaachtest_mvl/mxv
	BYTE		PAN     c_v+40
	BYTE	W01
	BYTE		        c_v+32
	BYTE	W01
	BYTE		VOL     64*isaachtest_mvl/mxv
	BYTE		PAN     c_v+24
	BYTE	W02
	BYTE		        c_v+16
	BYTE	W02
	BYTE		VOL     60*isaachtest_mvl/mxv
	BYTE		PAN     c_v+8
	BYTE	W01
	BYTE		        c_v+0
	BYTE	W01
	BYTE		VOL     56*isaachtest_mvl/mxv
	BYTE	W01
	BYTE		PAN     c_v-8
	BYTE	W01
	BYTE		        c_v-16
	BYTE	W02
	BYTE		VOL     52*isaachtest_mvl/mxv
	BYTE		PAN     c_v-20
	BYTE	W01
	BYTE		        c_v-32
	BYTE	W01
	BYTE		VOL     48*isaachtest_mvl/mxv
	BYTE	W01
	BYTE		PAN     c_v-40
	BYTE	W01
	BYTE		        c_v-48
	BYTE	W02
	BYTE		VOL     44*isaachtest_mvl/mxv
	BYTE		PAN     c_v-56
	BYTE	W01
	BYTE		        c_v-64
	BYTE	W01
	BYTE		VOL     40*isaachtest_mvl/mxv
	BYTE	W01
	BYTE		MOD     0
	BYTE	W01
	BYTE		PAN     c_v-48
	BYTE	W02
	BYTE		VOL     44*isaachtest_mvl/mxv
	BYTE		PAN     c_v-40
	BYTE	W01
	BYTE		        c_v-32
	BYTE	W01
	BYTE		VOL     48*isaachtest_mvl/mxv
	BYTE		PAN     c_v-24
	BYTE	W02
	BYTE		        c_v-16
	BYTE	W02
	BYTE		VOL     52*isaachtest_mvl/mxv
	BYTE		PAN     c_v-8
	BYTE	W01
	BYTE		        c_v+0
	BYTE	W01
	BYTE		VOL     56*isaachtest_mvl/mxv
	BYTE		PAN     c_v+8
	BYTE	W02
	BYTE		        c_v+16
	BYTE	W02
	BYTE		VOL     60*isaachtest_mvl/mxv
	BYTE		PAN     c_v+24
	BYTE	W01
	BYTE		        c_v+32
	BYTE	W01
	BYTE		        c_v+40
	BYTE	W01
	BYTE		VOL     64*isaachtest_mvl/mxv
	BYTE	W01
	BYTE		PAN     c_v+48
	BYTE	W02
	BYTE		VOL     68*isaachtest_mvl/mxv
	BYTE		PAN     c_v+56
	BYTE	W01
	BYTE		        c_v+63
	BYTE	W01
	BYTE		        c_v+56
	BYTE	W01
	BYTE		MOD     2
	BYTE		N18     Cs4 
	BYTE	W01
	BYTE		PAN     c_v+48
	BYTE	W02
	BYTE		VOL     68*isaachtest_mvl/mxv
	BYTE		PAN     c_v+40
	BYTE	W01
	BYTE		        c_v+32
	BYTE	W01
	BYTE		VOL     64*isaachtest_mvl/mxv
	BYTE		PAN     c_v+24
	BYTE	W02
	BYTE		        c_v+16
	BYTE	W02
	BYTE		VOL     60*isaachtest_mvl/mxv
	BYTE		PAN     c_v+8
	BYTE	W01
	BYTE		        c_v+0
	BYTE	W01
	BYTE		VOL     56*isaachtest_mvl/mxv
	BYTE	W01
	BYTE		PAN     c_v-8
	BYTE	W01
	BYTE		        c_v-16
	BYTE	W02
	BYTE		VOL     52*isaachtest_mvl/mxv
	BYTE		PAN     c_v-20
	BYTE	W01
	BYTE		        c_v-32
	BYTE	W01
	BYTE		VOL     48*isaachtest_mvl/mxv
	BYTE	W01
	BYTE		PAN     c_v-40
	BYTE		N18     Bn3 
	BYTE	W01
	BYTE		PAN     c_v-48
	BYTE	W02
	BYTE		VOL     44*isaachtest_mvl/mxv
	BYTE		PAN     c_v-56
	BYTE	W01
	BYTE		        c_v-64
	BYTE	W01
	BYTE		VOL     40*isaachtest_mvl/mxv
	BYTE		MOD     0
	BYTE	W02
	BYTE		PAN     c_v-48
	BYTE	W02
	BYTE		VOL     44*isaachtest_mvl/mxv
	BYTE		PAN     c_v-40
	BYTE	W01
	BYTE		        c_v-32
	BYTE	W01
	BYTE		VOL     48*isaachtest_mvl/mxv
	BYTE		PAN     c_v-24
	BYTE	W02
	BYTE		        c_v-16
	BYTE	W02
	BYTE		VOL     52*isaachtest_mvl/mxv
	BYTE		PAN     c_v-8
	BYTE	W01
	BYTE		        c_v+0
	BYTE	W01
	BYTE		VOL     56*isaachtest_mvl/mxv
	BYTE		PAN     c_v+8
	BYTE	W01
	BYTE		N12     An3 
	BYTE	W01
	BYTE		PAN     c_v+16
	BYTE	W02
	BYTE		VOL     60*isaachtest_mvl/mxv
	BYTE		PAN     c_v+24
	BYTE	W01
	BYTE		        c_v+32
	BYTE	W01
	BYTE		        c_v+40
	BYTE	W01
	BYTE		VOL     64*isaachtest_mvl/mxv
	BYTE	W01
	BYTE		PAN     c_v+48
	BYTE	W02
	BYTE		VOL     68*isaachtest_mvl/mxv
	BYTE		PAN     c_v+56
	BYTE	W01
	BYTE		        c_v+63
	BYTE	W01
	BYTE		MOD     0
	BYTE		PAN     c_v+56
	BYTE	W01
// 022   ----------------------------------------
	BYTE		MOD     2
	BYTE		N48     Bn3 
	BYTE	W01
	BYTE		PAN     c_v+48
	BYTE	W02
	BYTE		VOL     68*isaachtest_mvl/mxv
	BYTE		PAN     c_v+40
	BYTE	W01
	BYTE		        c_v+32
	BYTE	W01
	BYTE		VOL     64*isaachtest_mvl/mxv
	BYTE		PAN     c_v+24
	BYTE	W02
	BYTE		        c_v+16
	BYTE	W02
	BYTE		VOL     60*isaachtest_mvl/mxv
	BYTE		PAN     c_v+8
	BYTE	W01
	BYTE		        c_v+0
	BYTE	W01
	BYTE		VOL     56*isaachtest_mvl/mxv
	BYTE	W01
	BYTE		PAN     c_v-8
	BYTE	W01
	BYTE		        c_v-16
	BYTE	W02
	BYTE		VOL     52*isaachtest_mvl/mxv
	BYTE		PAN     c_v-20
	BYTE	W01
	BYTE		        c_v-32
	BYTE	W01
	BYTE		VOL     48*isaachtest_mvl/mxv
	BYTE	W01
	BYTE		PAN     c_v-40
	BYTE	W01
	BYTE		        c_v-48
	BYTE	W02
	BYTE		VOL     44*isaachtest_mvl/mxv
	BYTE		PAN     c_v-56
	BYTE	W01
	BYTE		        c_v-64
	BYTE	W01
	BYTE		VOL     40*isaachtest_mvl/mxv
	BYTE	W01
	BYTE		MOD     0
	BYTE	W01
	BYTE		PAN     c_v-48
	BYTE	W02
	BYTE		VOL     44*isaachtest_mvl/mxv
	BYTE		PAN     c_v-40
	BYTE	W01
	BYTE		        c_v-32
	BYTE	W01
	BYTE		VOL     48*isaachtest_mvl/mxv
	BYTE		PAN     c_v-24
	BYTE	W02
	BYTE		        c_v-16
	BYTE	W02
	BYTE		VOL     52*isaachtest_mvl/mxv
	BYTE		PAN     c_v-8
	BYTE	W01
	BYTE		        c_v+0
	BYTE	W01
	BYTE		VOL     56*isaachtest_mvl/mxv
	BYTE		PAN     c_v+8
	BYTE	W02
	BYTE		        c_v+16
	BYTE	W02
	BYTE		VOL     60*isaachtest_mvl/mxv
	BYTE		PAN     c_v+24
	BYTE	W01
	BYTE		        c_v+32
	BYTE	W01
	BYTE		        c_v+40
	BYTE	W01
	BYTE		VOL     64*isaachtest_mvl/mxv
	BYTE	W01
	BYTE		PAN     c_v+48
	BYTE	W02
	BYTE		VOL     68*isaachtest_mvl/mxv
	BYTE		PAN     c_v+56
	BYTE	W01
	BYTE		        c_v+63
	BYTE	W01
	BYTE		        c_v+56
	BYTE	W01
	BYTE		MOD     2
	BYTE		N48     Gs3 
	BYTE	W01
	BYTE		PAN     c_v+48
	BYTE	W02
	BYTE		VOL     68*isaachtest_mvl/mxv
	BYTE		PAN     c_v+40
	BYTE	W01
	BYTE		        c_v+32
	BYTE	W01
	BYTE		VOL     64*isaachtest_mvl/mxv
	BYTE		PAN     c_v+24
	BYTE	W02
	BYTE		        c_v+16
	BYTE	W02
	BYTE		VOL     60*isaachtest_mvl/mxv
	BYTE		PAN     c_v+8
	BYTE	W01
	BYTE		        c_v+0
	BYTE	W01
	BYTE		VOL     56*isaachtest_mvl/mxv
	BYTE	W01
	BYTE		PAN     c_v-8
	BYTE	W01
	BYTE		        c_v-16
	BYTE	W02
	BYTE		VOL     52*isaachtest_mvl/mxv
	BYTE		PAN     c_v-20
	BYTE	W01
	BYTE		        c_v-32
	BYTE	W01
	BYTE		VOL     48*isaachtest_mvl/mxv
	BYTE	W01
	BYTE		PAN     c_v-40
	BYTE	W01
	BYTE		        c_v-48
	BYTE	W02
	BYTE		VOL     44*isaachtest_mvl/mxv
	BYTE		PAN     c_v-56
	BYTE	W01
	BYTE		        c_v-64
	BYTE	W01
	BYTE		VOL     40*isaachtest_mvl/mxv
	BYTE		MOD     0
	BYTE	W02
	BYTE		PAN     c_v-48
	BYTE	W02
	BYTE		VOL     44*isaachtest_mvl/mxv
	BYTE		PAN     c_v-40
	BYTE	W01
	BYTE		        c_v-32
	BYTE	W01
	BYTE		VOL     48*isaachtest_mvl/mxv
	BYTE		PAN     c_v-24
	BYTE	W02
	BYTE		        c_v-16
	BYTE	W02
	BYTE		VOL     52*isaachtest_mvl/mxv
	BYTE		PAN     c_v-8
	BYTE	W01
	BYTE		        c_v+0
	BYTE	W01
	BYTE		VOL     56*isaachtest_mvl/mxv
	BYTE		PAN     c_v+8
	BYTE	W02
	BYTE		        c_v+16
	BYTE	W02
	BYTE		VOL     60*isaachtest_mvl/mxv
	BYTE		PAN     c_v+24
	BYTE	W01
	BYTE		        c_v+32
	BYTE	W01
	BYTE		        c_v+40
	BYTE	W01
	BYTE		VOL     64*isaachtest_mvl/mxv
	BYTE	W01
	BYTE		PAN     c_v+48
	BYTE	W02
	BYTE		VOL     68*isaachtest_mvl/mxv
	BYTE		PAN     c_v+56
	BYTE	W01
	BYTE		        c_v+63
	BYTE	W01
	BYTE		MOD     0
	BYTE		PAN     c_v+56
	BYTE	W01
// 023   ----------------------------------------
	BYTE		MOD     2
	BYTE		N96     En3 
	BYTE	W01
	BYTE		PAN     c_v+48
	BYTE	W02
	BYTE		VOL     68*isaachtest_mvl/mxv
	BYTE		PAN     c_v+40
	BYTE	W01
	BYTE		        c_v+32
	BYTE	W01
	BYTE		VOL     64*isaachtest_mvl/mxv
	BYTE		PAN     c_v+24
	BYTE	W02
	BYTE		        c_v+16
	BYTE	W02
	BYTE		VOL     60*isaachtest_mvl/mxv
	BYTE		PAN     c_v+8
	BYTE	W01
	BYTE		        c_v+0
	BYTE	W01
	BYTE		VOL     56*isaachtest_mvl/mxv
	BYTE	W01
	BYTE		PAN     c_v-8
	BYTE	W01
	BYTE		        c_v-16
	BYTE	W02
	BYTE		VOL     52*isaachtest_mvl/mxv
	BYTE		PAN     c_v-20
	BYTE	W01
	BYTE		        c_v-32
	BYTE	W01
	BYTE		VOL     48*isaachtest_mvl/mxv
	BYTE	W01
	BYTE		PAN     c_v-40
	BYTE	W01
	BYTE		        c_v-48
	BYTE	W02
	BYTE		VOL     44*isaachtest_mvl/mxv
	BYTE		PAN     c_v-56
	BYTE	W01
	BYTE		        c_v-64
	BYTE	W01
	BYTE		VOL     40*isaachtest_mvl/mxv
	BYTE	W01
	BYTE		MOD     0
	BYTE	W01
	BYTE		PAN     c_v-48
	BYTE	W02
	BYTE		VOL     44*isaachtest_mvl/mxv
	BYTE		PAN     c_v-40
	BYTE	W01
	BYTE		        c_v-32
	BYTE	W01
	BYTE		VOL     48*isaachtest_mvl/mxv
	BYTE		PAN     c_v-24
	BYTE	W02
	BYTE		        c_v-16
	BYTE	W02
	BYTE		VOL     52*isaachtest_mvl/mxv
	BYTE		PAN     c_v-8
	BYTE	W01
	BYTE		        c_v+0
	BYTE	W01
	BYTE		VOL     56*isaachtest_mvl/mxv
	BYTE		PAN     c_v+8
	BYTE	W02
	BYTE		        c_v+16
	BYTE	W02
	BYTE		VOL     60*isaachtest_mvl/mxv
	BYTE		PAN     c_v+24
	BYTE	W01
	BYTE		        c_v+32
	BYTE	W01
	BYTE		        c_v+40
	BYTE	W01
	BYTE		VOL     64*isaachtest_mvl/mxv
	BYTE	W01
	BYTE		PAN     c_v+48
	BYTE	W02
	BYTE		VOL     68*isaachtest_mvl/mxv
	BYTE		PAN     c_v+56
	BYTE	W01
	BYTE		        c_v+63
	BYTE	W01
	BYTE		        c_v+56
	BYTE	W01
	BYTE		MOD     2
	BYTE	W01
	BYTE		PAN     c_v+48
	BYTE	W02
	BYTE		VOL     68*isaachtest_mvl/mxv
	BYTE		PAN     c_v+40
	BYTE	W01
	BYTE		        c_v+32
	BYTE	W01
	BYTE		VOL     64*isaachtest_mvl/mxv
	BYTE		PAN     c_v+24
	BYTE	W02
	BYTE		        c_v+16
	BYTE	W02
	BYTE		VOL     60*isaachtest_mvl/mxv
	BYTE		PAN     c_v+8
	BYTE	W01
	BYTE		        c_v+0
	BYTE	W01
	BYTE		VOL     56*isaachtest_mvl/mxv
	BYTE	W01
	BYTE		PAN     c_v-8
	BYTE	W01
	BYTE		        c_v-16
	BYTE	W02
	BYTE		VOL     52*isaachtest_mvl/mxv
	BYTE		PAN     c_v-20
	BYTE	W01
	BYTE		        c_v-32
	BYTE	W01
	BYTE		VOL     48*isaachtest_mvl/mxv
	BYTE	W01
	BYTE		PAN     c_v-40
	BYTE	W01
	BYTE		        c_v-48
	BYTE	W02
	BYTE		VOL     44*isaachtest_mvl/mxv
	BYTE		PAN     c_v-56
	BYTE	W01
	BYTE		        c_v-64
	BYTE	W01
	BYTE		VOL     40*isaachtest_mvl/mxv
	BYTE		MOD     0
	BYTE	W02
	BYTE		PAN     c_v-48
	BYTE	W02
	BYTE		VOL     44*isaachtest_mvl/mxv
	BYTE		PAN     c_v-40
	BYTE	W01
	BYTE		        c_v-32
	BYTE	W01
	BYTE		VOL     48*isaachtest_mvl/mxv
	BYTE		PAN     c_v-24
	BYTE	W02
	BYTE		        c_v-16
	BYTE	W02
	BYTE		VOL     52*isaachtest_mvl/mxv
	BYTE		PAN     c_v-8
	BYTE	W01
	BYTE		        c_v+0
	BYTE	W01
	BYTE		VOL     56*isaachtest_mvl/mxv
	BYTE		PAN     c_v+8
	BYTE	W02
	BYTE		        c_v+16
	BYTE	W02
	BYTE		VOL     60*isaachtest_mvl/mxv
	BYTE		PAN     c_v+24
	BYTE	W01
	BYTE		        c_v+32
	BYTE	W01
	BYTE		        c_v+40
	BYTE	W01
	BYTE		VOL     64*isaachtest_mvl/mxv
	BYTE	W01
	BYTE		PAN     c_v+48
	BYTE	W02
	BYTE		VOL     68*isaachtest_mvl/mxv
	BYTE		PAN     c_v+56
	BYTE	W01
	BYTE		        c_v+63
	BYTE	W01
	BYTE		MOD     0
	BYTE		PAN     c_v+56
	BYTE	W01
// 024   ----------------------------------------
	BYTE	W96
// 025   ----------------------------------------
	BYTE	W96
// 026   ----------------------------------------
	BYTE	W96
// 027   ----------------------------------------
	BYTE	W96
// 028   ----------------------------------------
	BYTE		VOL     72*isaachtest_mvl/mxv
	BYTE		PAN     c_v+0
	BYTE		N36     Cn3   v088
	BYTE	W36
	BYTE		N06   
	BYTE	W06
	BYTE		        Dn3 
	BYTE	W06
	BYTE		N36     Ds3 
	BYTE	W36
	BYTE		N06   
	BYTE	W06
	BYTE		        Fn3 
	BYTE	W06
// 029   ----------------------------------------
	BYTE		N36     Gn3 
	BYTE	W36
	BYTE		N06   
	BYTE	W06
	BYTE		        An3 
	BYTE	W06
	BYTE		N36     As3 
	BYTE	W36
	BYTE		N06   
	BYTE	W06
	BYTE		        Cn4 
	BYTE	W06
// 030   ----------------------------------------
	BYTE		N96     Cs4 
	BYTE	W96
// 031   ----------------------------------------
	BYTE		N48     An3 
	BYTE	W60
	BYTE		N06   
	BYTE	W24
	BYTE		N06   
	BYTE	W12
	BYTE	GoTo
	 POIN2	isaachtest_6_B1
isaachtest_6_B2:
// 032   ----------------------------------------
	BYTE	FINE

//**************** Track 7 (Midi-Chn.7) ****************//

isaachtest_7:
	BYTE	KEYSH   isaachtest_key+0
isaachtest_7_B1:
// 000   ----------------------------------------
	BYTE		VOICE   124
	BYTE		VOL     90*isaachtest_mvl/mxv
	BYTE		PAN     c_v-1
	BYTE		MOD     0
	BYTE		PAN     c_v-8
	BYTE		N96     En2   v096
	BYTE	W96
// 001   ----------------------------------------
isaachtest_7_001:
	BYTE		N72     An2   v084
	BYTE	W02
	BYTE		PAN     c_v+16
	BYTE	W04
	BYTE		        c_v+32
	BYTE	W66
	BYTE		        c_v+48
	BYTE	W23
	BYTE		        c_v+0
	BYTE	W01
	BYTE	PEND
// 002   ----------------------------------------
	BYTE		N96     En2   v096
	BYTE	W96
// 003   ----------------------------------------
	BYTE		N72     An2   v084
	BYTE	W02
	BYTE		PAN     c_v-16
	BYTE	W04
	BYTE		        c_v-32
	BYTE	W02
	BYTE		        c_v-48
	BYTE	W84
	BYTE	W03
	BYTE		        c_v+0
	BYTE	W01
// 004   ----------------------------------------
	BYTE		N96     En2   v096
	BYTE	W96
// 005   ----------------------------------------
	BYTE	PATT
	 POIN2	isaachtest_7_001
// 006   ----------------------------------------
	BYTE		N96     En2   v096
	BYTE	W96
// 007   ----------------------------------------
	BYTE		N72     An2   v084
	BYTE	W02
	BYTE		PAN     c_v-16
	BYTE	W04
	BYTE		        c_v-32
	BYTE	W02
	BYTE		        c_v-48
	BYTE	W60
	BYTE	W03
	BYTE		        c_v+0
	BYTE	W01
	BYTE		N18     Dn1   v096
	BYTE	W24
// 008   ----------------------------------------
isaachtest_7_008:
	BYTE		N06     Cn1   v127
	BYTE		N09     Fs1   v084
	BYTE	W12
	BYTE		N06   
	BYTE	W06
	BYTE		N03   
	BYTE	W06
	BYTE		N06     Cn1   v127
	BYTE		N18     Dn1   v096
	BYTE		N03     Fs1   v084
	BYTE	W12
	BYTE		N06   
	BYTE	W06
	BYTE		N03   
	BYTE	W06
	BYTE		N06     Cn1   v127
	BYTE		N03     Fs1   v084
	BYTE	W12
	BYTE		N06   
	BYTE	W06
	BYTE		N03   
	BYTE	W06
	BYTE		N06     Cn1   v127
	BYTE		N18     Dn1   v096
	BYTE		N03     Fs1   v084
	BYTE	W12
	BYTE		N06   
	BYTE	W06
	BYTE		N03   
	BYTE	W06
	BYTE	PEND
// 009   ----------------------------------------
isaachtest_7_009:
	BYTE		N06     Cn1   v127
	BYTE		N03     Fs1   v084
	BYTE	W12
	BYTE		N06   
	BYTE	W06
	BYTE		N03   
	BYTE	W06
	BYTE		N06     Cn1   v127
	BYTE		N18     Dn1   v096
	BYTE		N03     Fs1   v084
	BYTE	W12
	BYTE		N06   
	BYTE	W06
	BYTE		N03   
	BYTE	W06
	BYTE		N06     Cn1   v127
	BYTE		N03     Fs1   v084
	BYTE	W12
	BYTE		N06   
	BYTE	W06
	BYTE		N03   
	BYTE	W06
	BYTE		N06     Cn1   v127
	BYTE		N18     Dn1   v096
	BYTE		N03     Fs1   v084
	BYTE	W12
	BYTE		N06   
	BYTE	W06
	BYTE		N03   
	BYTE	W06
	BYTE	PEND
// 010   ----------------------------------------
	BYTE	PATT
	 POIN2	isaachtest_7_009
// 011   ----------------------------------------
	BYTE		N06     Cn1   v127
	BYTE		N03     Fs1   v084
	BYTE	W12
	BYTE		N06   
	BYTE	W06
	BYTE		N03   
	BYTE	W06
	BYTE		N06     Cn1   v127
	BYTE		N18     Dn1   v096
	BYTE		N03     Fs1   v084
	BYTE	W12
	BYTE		N06   
	BYTE	W06
	BYTE		N03   
	BYTE	W06
	BYTE		N06     Cn1   v127
	BYTE		N03     Fs1   v084
	BYTE	W12
	BYTE		N06   
	BYTE	W06
	BYTE		N03   
	BYTE	W06
	BYTE		N06     Cn1   v127
	BYTE		N12     Dn1   v096
	BYTE		N12     Gn2   v076
	BYTE	W12
	BYTE		N06     Cn1   v127
	BYTE		N03     Dn1   v096
	BYTE		N12     As1   v076
	BYTE	W12
// 012   ----------------------------------------
	BYTE	PATT
	 POIN2	isaachtest_7_008
// 013   ----------------------------------------
	BYTE	PATT
	 POIN2	isaachtest_7_009
// 014   ----------------------------------------
	BYTE	PATT
	 POIN2	isaachtest_7_009
// 015   ----------------------------------------
	BYTE		N06     Cn1   v127
	BYTE		N03     Fs1   v084
	BYTE	W12
	BYTE		N06   
	BYTE	W06
	BYTE		N03   
	BYTE	W06
	BYTE		N06     Cn1   v127
	BYTE		N18     Dn1   v096
	BYTE		N03     Fs1   v084
	BYTE	W12
	BYTE		N06   
	BYTE	W06
	BYTE		N03   
	BYTE	W06
	BYTE		N06     Cn1   v127
	BYTE		N03     Fs1   v084
	BYTE	W12
	BYTE		N06   
	BYTE	W06
	BYTE		N03   
	BYTE	W06
	BYTE		N06     Cn1   v127
	BYTE		N12     Dn1   v096
	BYTE		N12     As1   v076
	BYTE	W12
	BYTE		N06     Cn1   v127
	BYTE		N03     Dn1   v096
	BYTE		N12     As1   v076
	BYTE	W12
// 016   ----------------------------------------
	BYTE	PATT
	 POIN2	isaachtest_7_008
// 017   ----------------------------------------
	BYTE	PATT
	 POIN2	isaachtest_7_009
// 018   ----------------------------------------
	BYTE	PATT
	 POIN2	isaachtest_7_009
// 019   ----------------------------------------
	BYTE		N06     Cn1   v127
	BYTE		N03     Fs1   v084
	BYTE	W12
	BYTE		N06   
	BYTE	W06
	BYTE		N03   
	BYTE	W06
	BYTE		N06     Cn1   v127
	BYTE		N18     Dn1   v096
	BYTE		N03     Fs1   v084
	BYTE	W12
	BYTE		N06   
	BYTE	W06
	BYTE		N03   
	BYTE	W06
	BYTE		N06     Cn1   v127
	BYTE		N03     Fs1   v084
	BYTE	W12
	BYTE		N09     Dn1   v096
	BYTE		N06     Fs1   v084
	BYTE	W06
	BYTE		N03   
	BYTE	W06
	BYTE		N06     Cn1   v127
	BYTE		N12     Gn2   v076
	BYTE	W06
	BYTE		N06     Cn1   v127
	BYTE	W06
	BYTE		N06   
	BYTE		N09     Dn1   v096
	BYTE		N12     As1   v076
	BYTE	W06
	BYTE		N06     Cn1   v127
	BYTE	W06
// 020   ----------------------------------------
	BYTE	PATT
	 POIN2	isaachtest_7_008
// 021   ----------------------------------------
	BYTE		N06     Cn1   v127
	BYTE		N03     Fs1   v084
	BYTE	W12
	BYTE		N06   
	BYTE	W06
	BYTE		N03   
	BYTE	W06
	BYTE		N06     Cn1   v127
	BYTE		N18     Dn1   v096
	BYTE		N03     Fs1   v084
	BYTE	W12
	BYTE		N06   
	BYTE	W06
	BYTE		N03   
	BYTE	W06
	BYTE		N06     Cn1   v127
	BYTE		N03     Fs1   v084
	BYTE	W12
	BYTE		N06   
	BYTE	W06
	BYTE		N03   
	BYTE	W06
	BYTE		N06     Cn1   v127
	BYTE		N18     Dn1   v096
	BYTE		N12     As1   v076
	BYTE	W12
	BYTE		N06     Cn1   v127
	BYTE		N06     Fs1   v084
	BYTE		N12     Gn2   v076
	BYTE	W06
	BYTE		N06     Cn1   v127
	BYTE		N06     Dn1   v096
	BYTE	W06
// 022   ----------------------------------------
	BYTE	PATT
	 POIN2	isaachtest_7_009
// 023   ----------------------------------------
	BYTE		N06     Cn1   v127
	BYTE		N03     Fs1   v084
	BYTE	W12
	BYTE		N06   
	BYTE	W06
	BYTE		N03   
	BYTE	W06
	BYTE		N06     Cn1   v127
	BYTE		N18     Dn1   v096
	BYTE		N03     Fs1   v084
	BYTE	W12
	BYTE		N06   
	BYTE	W06
	BYTE		N03   
	BYTE	W06
	BYTE		N06     Cn1   v127
	BYTE		N03     Fs1   v084
	BYTE	W12
	BYTE		N06   
	BYTE	W06
	BYTE		N03   
	BYTE	W06
	BYTE		N06     Cn1   v127
	BYTE		N18     Dn1   v096
	BYTE		N03     Fs1   v084
	BYTE	W12
	BYTE		N06     Cn1   v127
	BYTE		N06     Fs1   v084
	BYTE	W06
	BYTE		        Cn1   v127
	BYTE		N03     Fs1   v084
	BYTE	W06
// 024   ----------------------------------------
	BYTE		N06     Cn1   v127
	BYTE		N03     Fs1   v084
	BYTE	W12
	BYTE		N09   
	BYTE	W12
	BYTE		N06     Cn1   v127
	BYTE		N09     Dn1   v096
	BYTE		N09     Fs1   v084
	BYTE	W12
	BYTE		N09   
	BYTE	W12
	BYTE		N06     Cn1   v127
	BYTE		N09     Fs1   v084
	BYTE	W12
	BYTE		N09   
	BYTE	W12
	BYTE		N06     Cn1   v127
	BYTE		N09     Dn1   v096
	BYTE		N09     Fs1   v084
	BYTE	W12
	BYTE		N06     Cn1   v127
	BYTE		N09     Fs1   v084
	BYTE	W12
// 025   ----------------------------------------
	BYTE		N06     Cn1   v127
	BYTE		N09     Fs1   v084
	BYTE	W12
	BYTE		N09   
	BYTE	W12
	BYTE		N06     Cn1   v127
	BYTE		N09     Dn1   v096
	BYTE		N09     Fs1   v084
	BYTE	W12
	BYTE		N09   
	BYTE	W12
	BYTE		N06     Cn1   v127
	BYTE		N09     Fs1   v084
	BYTE	W12
	BYTE		N09   
	BYTE	W12
	BYTE		N06     Cn1   v127
	BYTE		N09     Dn1   v096
	BYTE		N09     Fs1   v084
	BYTE	W12
	BYTE		N06     Cn1   v127
	BYTE		N09     Dn1   v096
	BYTE		N09     Fs1   v084
	BYTE	W12
// 026   ----------------------------------------
	BYTE		N06     Cn1   v127
	BYTE		N09     Fs1   v084
	BYTE	W12
	BYTE		N09   
	BYTE	W12
	BYTE		N06     Cn1   v127
	BYTE		N09     Dn1   v096
	BYTE		N09     Fs1   v084
	BYTE	W12
	BYTE		N09   
	BYTE	W12
	BYTE		N06     Cn1   v127
	BYTE		N09     Fs1   v084
	BYTE	W12
	BYTE		N09   
	BYTE	W12
	BYTE		N06     Cn1   v127
	BYTE		N09     Dn1   v096
	BYTE		N09     Fs1   v084
	BYTE	W12
	BYTE		N06     Cn1   v127
	BYTE		N09     Fs1   v084
	BYTE	W12
// 027   ----------------------------------------
	BYTE		N06     Cn1   v127
	BYTE		N09     Fs1   v084
	BYTE	W12
	BYTE		N09   
	BYTE	W12
	BYTE		N06     Cn1   v127
	BYTE		N09     Dn1   v096
	BYTE		N09     Fs1   v084
	BYTE	W12
	BYTE		N09   
	BYTE	W12
	BYTE		N06     Cn1   v127
	BYTE		N09     Fs1   v084
	BYTE	W12
	BYTE		        Dn1   v096
	BYTE	W12
	BYTE		N06     Cn1   v127
	BYTE	W12
	BYTE		N06   
	BYTE		N09     Dn1   v096
	BYTE	W06
	BYTE		N06     Cn1   v127
	BYTE	W06
// 028   ----------------------------------------
isaachtest_7_028:
	BYTE		N06     Cn1   v127
	BYTE		N06     Dn1   v096
	BYTE		N24     Cs2   v084
	BYTE	W06
	BYTE		N06     Cn1   v127
	BYTE		N03     Dn1   v096
	BYTE	W06
	BYTE		N06     Cn1   v127
	BYTE		N03     Dn1   v096
	BYTE	W24
	BYTE		N06     Cn1   v127
	BYTE		N06     Dn1   v096
	BYTE	W06
	BYTE		N03   
	BYTE	W18
	BYTE		N06     Cn1   v127
	BYTE		N09     Dn1   v096
	BYTE	W24
	BYTE		N06     Cn1   v127
	BYTE		N09     Dn1   v096
	BYTE		N12     Gn2   v076
	BYTE	W12
	BYTE	PEND
// 029   ----------------------------------------
	BYTE	PATT
	 POIN2	isaachtest_7_028
// 030   ----------------------------------------
	BYTE		N06     Cn1   v127
	BYTE		N06     Dn1   v096
	BYTE		N24     Cs2   v084
	BYTE	W06
	BYTE		N06     Cn1   v127
	BYTE		N03     Dn1   v096
	BYTE	W06
	BYTE		N06     Cn1   v127
	BYTE		N03     Dn1   v096
	BYTE	W24
	BYTE		N06     Cn1   v127
	BYTE		N06     Dn1   v096
	BYTE	W06
	BYTE		N03   
	BYTE	W06
	BYTE		N03   
	BYTE	W06
	BYTE		N03   
	BYTE	W06
	BYTE		N06     Cn1   v127
	BYTE		N03     Dn1   v096
	BYTE	W24
	BYTE		N06     Cn1   v127
	BYTE		N06     Dn1   v096
	BYTE		N12     Cs2   v084
	BYTE	W06
	BYTE		N06     Cn1   v127
	BYTE		N03     Dn1   v096
	BYTE	W06
// 031   ----------------------------------------
	BYTE		N06     Cn1   v127
	BYTE		N03     Dn1   v096
	BYTE		N48     An2   v076
	BYTE	W12
	BYTE		N06     Cn1   v127
	BYTE	W12
	BYTE		N09     Dn1   v096
	BYTE	W12
	BYTE		N06     Cn1   v127
	BYTE	W24
	BYTE		N06   
	BYTE		N09     Dn1   v096
	BYTE	W06
	BYTE		N06     Cn1   v127
	BYTE	W06
	BYTE		N06   
	BYTE	W06
	BYTE		N06   
	BYTE	W06
	BYTE		N06   
	BYTE		N09     Dn1   v096
	BYTE	W06
	BYTE		N06     Cn1   v127
	BYTE	W06
	BYTE	GoTo
	 POIN2	isaachtest_7_B1
isaachtest_7_B2:
// 032   ----------------------------------------
	BYTE	FINE

//**************** Track 8 (Midi-Chn.8) ****************//

isaachtest_8:
	BYTE	KEYSH   isaachtest_key+0
isaachtest_8_B1:
// 000   ----------------------------------------
	BYTE		VOICE   81
	BYTE		PAN     c_v+48
	BYTE		VOL     80*isaachtest_mvl/mxv
	BYTE		MOD     0
	BYTE		N96     An2   v108
	BYTE	W02
	BYTE		VOL     78*isaachtest_mvl/mxv
	BYTE	W04
	BYTE		        76*isaachtest_mvl/mxv
	BYTE	W02
	BYTE		        74*isaachtest_mvl/mxv
	BYTE	W04
	BYTE		        72*isaachtest_mvl/mxv
	BYTE	W02
	BYTE		        70*isaachtest_mvl/mxv
	BYTE	W04
	BYTE		        68*isaachtest_mvl/mxv
	BYTE	W02
	BYTE		        66*isaachtest_mvl/mxv
	BYTE	W04
	BYTE		        64*isaachtest_mvl/mxv
	BYTE	W02
	BYTE		        62*isaachtest_mvl/mxv
	BYTE	W04
	BYTE		        60*isaachtest_mvl/mxv
	BYTE	W02
	BYTE		        58*isaachtest_mvl/mxv
	BYTE	W04
	BYTE		        56*isaachtest_mvl/mxv
	BYTE	W02
	BYTE		        54*isaachtest_mvl/mxv
	BYTE	W04
	BYTE		        52*isaachtest_mvl/mxv
	BYTE	W02
	BYTE		        48*isaachtest_mvl/mxv
	BYTE	W15
	BYTE		        46*isaachtest_mvl/mxv
	BYTE	W04
	BYTE		        44*isaachtest_mvl/mxv
	BYTE	W03
	BYTE		        42*isaachtest_mvl/mxv
	BYTE	W03
	BYTE		        40*isaachtest_mvl/mxv
	BYTE	W03
	BYTE		        36*isaachtest_mvl/mxv
	BYTE	W03
	BYTE		        32*isaachtest_mvl/mxv
	BYTE	W03
	BYTE		        28*isaachtest_mvl/mxv
	BYTE	W03
	BYTE		        24*isaachtest_mvl/mxv
	BYTE	W03
	BYTE		        20*isaachtest_mvl/mxv
	BYTE	W02
	BYTE		        16*isaachtest_mvl/mxv
	BYTE	W04
	BYTE		        12*isaachtest_mvl/mxv
	BYTE	W02
	BYTE		        8*isaachtest_mvl/mxv
	BYTE	W04
// 001   ----------------------------------------
isaachtest_8_001:
	BYTE	W12
	BYTE		VOL     80*isaachtest_mvl/mxv
	BYTE		N06     Gn2   v108
	BYTE	W24
	BYTE		N06   
	BYTE	W24
	BYTE		N06   
	BYTE	W24
	BYTE		N06   
	BYTE	W12
	BYTE	PEND
// 002   ----------------------------------------
isaachtest_8_002:
	BYTE		N96     An2   v108
	BYTE	W02
	BYTE		VOL     78*isaachtest_mvl/mxv
	BYTE	W04
	BYTE		        76*isaachtest_mvl/mxv
	BYTE	W02
	BYTE		        74*isaachtest_mvl/mxv
	BYTE	W04
	BYTE		        72*isaachtest_mvl/mxv
	BYTE	W02
	BYTE		        70*isaachtest_mvl/mxv
	BYTE	W04
	BYTE		        68*isaachtest_mvl/mxv
	BYTE	W02
	BYTE		        66*isaachtest_mvl/mxv
	BYTE	W04
	BYTE		        64*isaachtest_mvl/mxv
	BYTE	W02
	BYTE		        62*isaachtest_mvl/mxv
	BYTE	W04
	BYTE		        60*isaachtest_mvl/mxv
	BYTE	W02
	BYTE		        58*isaachtest_mvl/mxv
	BYTE	W04
	BYTE		        56*isaachtest_mvl/mxv
	BYTE	W02
	BYTE		        54*isaachtest_mvl/mxv
	BYTE	W04
	BYTE		        52*isaachtest_mvl/mxv
	BYTE	W02
	BYTE		        48*isaachtest_mvl/mxv
	BYTE	W15
	BYTE		        46*isaachtest_mvl/mxv
	BYTE	W04
	BYTE		        44*isaachtest_mvl/mxv
	BYTE	W03
	BYTE		        42*isaachtest_mvl/mxv
	BYTE	W03
	BYTE		        40*isaachtest_mvl/mxv
	BYTE	W03
	BYTE		        36*isaachtest_mvl/mxv
	BYTE	W03
	BYTE		        32*isaachtest_mvl/mxv
	BYTE	W03
	BYTE		        28*isaachtest_mvl/mxv
	BYTE	W03
	BYTE		        24*isaachtest_mvl/mxv
	BYTE	W03
	BYTE		        20*isaachtest_mvl/mxv
	BYTE	W02
	BYTE		        16*isaachtest_mvl/mxv
	BYTE	W04
	BYTE		        12*isaachtest_mvl/mxv
	BYTE	W02
	BYTE		        8*isaachtest_mvl/mxv
	BYTE	W04
	BYTE	PEND
// 003   ----------------------------------------
	BYTE	PATT
	 POIN2	isaachtest_8_001
// 004   ----------------------------------------
	BYTE	PATT
	 POIN2	isaachtest_8_002
// 005   ----------------------------------------
	BYTE	PATT
	 POIN2	isaachtest_8_001
// 006   ----------------------------------------
	BYTE	PATT
	 POIN2	isaachtest_8_002
// 007   ----------------------------------------
	BYTE	W12
	BYTE		VOL     80*isaachtest_mvl/mxv
	BYTE		N06     En2   v108
	BYTE	W24
	BYTE		N06   
	BYTE	W24
	BYTE		N06   
	BYTE	W24
	BYTE		N06   
	BYTE	W12
// 008   ----------------------------------------
isaachtest_8_008:
	BYTE		N06     Dn2   v108
	BYTE	W12
	BYTE		N06   
	BYTE	W24
	BYTE		N06   
	BYTE	W24
	BYTE		N06   
	BYTE	W24
	BYTE		N06   
	BYTE	W12
	BYTE	PEND
// 009   ----------------------------------------
	BYTE	PATT
	 POIN2	isaachtest_8_008
// 010   ----------------------------------------
isaachtest_8_010:
	BYTE		N06     Cs2   v108
	BYTE	W12
	BYTE		N06   
	BYTE	W24
	BYTE		N06   
	BYTE	W24
	BYTE		N06   
	BYTE	W24
	BYTE		N06   
	BYTE	W12
	BYTE	PEND
// 011   ----------------------------------------
	BYTE		        Fs2 
	BYTE	W12
	BYTE		N06   
	BYTE	W24
	BYTE		N06   
	BYTE	W24
	BYTE		        En2 
	BYTE	W24
	BYTE		N06   
	BYTE	W12
// 012   ----------------------------------------
	BYTE	PATT
	 POIN2	isaachtest_8_008
// 013   ----------------------------------------
	BYTE	PATT
	 POIN2	isaachtest_8_008
// 014   ----------------------------------------
	BYTE	PATT
	 POIN2	isaachtest_8_010
// 015   ----------------------------------------
	BYTE		N06     Cn2   v108
	BYTE	W12
	BYTE		N06   
	BYTE	W24
	BYTE		N06   
	BYTE	W24
	BYTE		N06   
	BYTE	W24
	BYTE		N06   
	BYTE	W12
// 016   ----------------------------------------
	BYTE		        Bn1 
	BYTE	W12
	BYTE		N06   
	BYTE	W24
	BYTE		N06   
	BYTE	W24
	BYTE		N06   
	BYTE	W24
	BYTE		N06   
	BYTE	W12
// 017   ----------------------------------------
	BYTE		        As1 
	BYTE	W12
	BYTE		N06   
	BYTE	W24
	BYTE		N06   
	BYTE	W24
	BYTE		N06   
	BYTE	W24
	BYTE		N06   
	BYTE	W12
// 018   ----------------------------------------
	BYTE		        An1 
	BYTE	W12
	BYTE		N06   
	BYTE	W24
	BYTE		N06   
	BYTE	W24
	BYTE		N06   
	BYTE	W24
	BYTE		        An2 
	BYTE	W12
// 019   ----------------------------------------
	BYTE		        An1 
	BYTE	W12
	BYTE		N06   
	BYTE	W24
	BYTE		N06   
	BYTE	W24
	BYTE		        An2 
	BYTE	W12
	BYTE		        An1 
	BYTE	W12
	BYTE		        An2 
	BYTE	W12
// 020   ----------------------------------------
isaachtest_8_020:
	BYTE		N06     Gn1   v108
	BYTE	W12
	BYTE		N06   
	BYTE	W24
	BYTE		N06   
	BYTE	W24
	BYTE		N06   
	BYTE	W24
	BYTE		N06   
	BYTE	W12
	BYTE	PEND
// 021   ----------------------------------------
	BYTE		N06   
	BYTE	W12
	BYTE		N06   
	BYTE	W24
	BYTE		N06   
	BYTE	W24
	BYTE		N06   
	BYTE	W24
	BYTE		        Gn2 
	BYTE	W12
// 022   ----------------------------------------
	BYTE		        Fs1 
	BYTE	W12
	BYTE		N06   
	BYTE	W24
	BYTE		N06   
	BYTE	W24
	BYTE		N06   
	BYTE	W24
	BYTE		        Fs2 
	BYTE	W12
// 023   ----------------------------------------
	BYTE		        Fs1 
	BYTE	W12
	BYTE		N06   
	BYTE	W24
	BYTE		N06   
	BYTE	W24
	BYTE		N06   
	BYTE	W12
	BYTE		        Fs2 
	BYTE	W12
	BYTE		        Fs1 
	BYTE	W12
// 024   ----------------------------------------
	BYTE	PATT
	 POIN2	isaachtest_8_020
// 025   ----------------------------------------
	BYTE		N06     Gn1   v108
	BYTE	W12
	BYTE		N06   
	BYTE	W24
	BYTE		N06   
	BYTE	W24
	BYTE		N06   
	BYTE	W12
	BYTE		        Gn2 
	BYTE	W12
	BYTE		        Gn1 
	BYTE	W12
// 026   ----------------------------------------
	BYTE		        Fs1 
	BYTE	W12
	BYTE		N06   
	BYTE	W24
	BYTE		N06   
	BYTE	W24
	BYTE		N06   
	BYTE	W24
	BYTE		N06   
	BYTE	W12
// 027   ----------------------------------------
	BYTE		N06   
	BYTE	W12
	BYTE		N06   
	BYTE	W24
	BYTE		N06   
	BYTE	W24
	BYTE		        Fs2 
	BYTE	W12
	BYTE		        Fs1 
	BYTE	W12
	BYTE		        Fs2 
	BYTE	W12
// 028   ----------------------------------------
	BYTE		        Fn2 
	BYTE	W12
	BYTE		N72     Fn2   v100
	BYTE	W02
	BYTE		VOL     78*isaachtest_mvl/mxv
	BYTE	W04
	BYTE		        76*isaachtest_mvl/mxv
	BYTE	W02
	BYTE		        74*isaachtest_mvl/mxv
	BYTE	W04
	BYTE		        72*isaachtest_mvl/mxv
	BYTE	W02
	BYTE		        70*isaachtest_mvl/mxv
	BYTE	W04
	BYTE		        68*isaachtest_mvl/mxv
	BYTE	W02
	BYTE		        66*isaachtest_mvl/mxv
	BYTE	W04
	BYTE		        64*isaachtest_mvl/mxv
	BYTE	W02
	BYTE		        62*isaachtest_mvl/mxv
	BYTE	W04
	BYTE		        60*isaachtest_mvl/mxv
	BYTE	W02
	BYTE		        58*isaachtest_mvl/mxv
	BYTE	W04
	BYTE		        56*isaachtest_mvl/mxv
	BYTE	W02
	BYTE		        54*isaachtest_mvl/mxv
	BYTE	W04
	BYTE		        52*isaachtest_mvl/mxv
	BYTE	W02
	BYTE		        48*isaachtest_mvl/mxv
	BYTE	W36
	BYTE	W03
	BYTE		        80*isaachtest_mvl/mxv
	BYTE	W01
// 029   ----------------------------------------
	BYTE		N06     Gs2   v108
	BYTE	W12
	BYTE		N72     Gs2   v100
	BYTE	W02
	BYTE		VOL     78*isaachtest_mvl/mxv
	BYTE	W04
	BYTE		        76*isaachtest_mvl/mxv
	BYTE	W02
	BYTE		        74*isaachtest_mvl/mxv
	BYTE	W04
	BYTE		        72*isaachtest_mvl/mxv
	BYTE	W02
	BYTE		        70*isaachtest_mvl/mxv
	BYTE	W04
	BYTE		        68*isaachtest_mvl/mxv
	BYTE	W02
	BYTE		        66*isaachtest_mvl/mxv
	BYTE	W04
	BYTE		        64*isaachtest_mvl/mxv
	BYTE	W02
	BYTE		        62*isaachtest_mvl/mxv
	BYTE	W04
	BYTE		        60*isaachtest_mvl/mxv
	BYTE	W02
	BYTE		        58*isaachtest_mvl/mxv
	BYTE	W04
	BYTE		        56*isaachtest_mvl/mxv
	BYTE	W02
	BYTE		        54*isaachtest_mvl/mxv
	BYTE	W04
	BYTE		        52*isaachtest_mvl/mxv
	BYTE	W02
	BYTE		        48*isaachtest_mvl/mxv
	BYTE	W40
// 030   ----------------------------------------
	BYTE		        80*isaachtest_mvl/mxv
	BYTE		N06     An2   v108
	BYTE	W12
	BYTE		N72     An2   v100
	BYTE	W02
	BYTE		VOL     78*isaachtest_mvl/mxv
	BYTE	W04
	BYTE		        76*isaachtest_mvl/mxv
	BYTE	W02
	BYTE		        74*isaachtest_mvl/mxv
	BYTE	W04
	BYTE		        72*isaachtest_mvl/mxv
	BYTE	W02
	BYTE		        70*isaachtest_mvl/mxv
	BYTE	W04
	BYTE		        68*isaachtest_mvl/mxv
	BYTE	W02
	BYTE		        66*isaachtest_mvl/mxv
	BYTE	W04
	BYTE		        64*isaachtest_mvl/mxv
	BYTE	W02
	BYTE		        62*isaachtest_mvl/mxv
	BYTE	W04
	BYTE		        60*isaachtest_mvl/mxv
	BYTE	W02
	BYTE		        58*isaachtest_mvl/mxv
	BYTE	W04
	BYTE		        56*isaachtest_mvl/mxv
	BYTE	W02
	BYTE		        54*isaachtest_mvl/mxv
	BYTE	W04
	BYTE		        52*isaachtest_mvl/mxv
	BYTE	W02
	BYTE		        48*isaachtest_mvl/mxv
	BYTE	W36
	BYTE	W03
	BYTE		        80*isaachtest_mvl/mxv
	BYTE	W01
// 031   ----------------------------------------
	BYTE		N06   
	BYTE	W12
	BYTE		N06   
	BYTE	W48
	BYTE		        An2   v108
	BYTE	W24
	BYTE		N06   
	BYTE	W12
	BYTE	GoTo
	 POIN2	isaachtest_8_B1
isaachtest_8_B2:
// 032   ----------------------------------------
	BYTE	FINE

//******************************************************//
	ALIGN 4

isaachtest:
	BYTE	8	// NumTrks
	BYTE	0	// NumBlks
	BYTE	isaachtest_pri	// Priority
	BYTE	isaachtest_rev	// Reverb.

	POIN2	isaachtest_grp

	POIN2	isaachtest_1
	POIN2	isaachtest_2
	POIN2	isaachtest_3
	POIN2	isaachtest_4
	POIN2	isaachtest_5
	POIN2	isaachtest_6
	POIN2	isaachtest_7
	POIN2	isaachtest_8

	
