//Event file generated from Sappy .s format.
	#include "MPlayDef.event"

	#define	twelveatktest_grp  voicegroup000
	#define	twelveatktest_pri  0
	#define	twelveatktest_rev  0
	#define	twelveatktest_mvl  78
	#define	twelveatktest_key  0
	#define	twelveatktest_tbs  1
	#define	twelveatktest_exg  0
	#define	twelveatktest_cmp  1

	// .rodata
	//	twelveatktest
	ALIGN 4

//**************** Track 1 (Midi-Chn.1) ****************//

twelveatktest_1:
	BYTE	KEYSH   twelveatktest_key+0
// 000   ----------------------------------------
	BYTE	TEMPO   200*twelveatktest_tbs/2
	BYTE		VOICE   40
	BYTE		VOL     114*twelveatktest_mvl/mxv
	BYTE		PAN     c_v+8
	BYTE	W36
twelveatktest_1_B1:
	BYTE	TEMPO   132*twelveatktest_tbs/2
	BYTE		MOD     8
	BYTE		BEND    c_v-49
	BYTE		N12     Gn3   v100
	BYTE	W01
	BYTE		BEND    c_v-33
	BYTE	W02
	BYTE		MOD     4
	BYTE		BEND    c_v-18
	BYTE	W01
	BYTE		        c_v+0
	BYTE	W02
	BYTE		MOD     0
	BYTE	W06
	BYTE		        4
	BYTE		N12     Gn3   v036
	BYTE	W06
	BYTE		MOD     2
	BYTE	W03
	BYTE		        0
	BYTE	W03
	BYTE		N12     Gn3   v032
	BYTE	W12
	BYTE		        Gn3   v024
	BYTE	W24
// 001   ----------------------------------------
	BYTE		MOD     1
	BYTE		N12     Gn3   v080
	BYTE	W12
	BYTE		MOD     8
	BYTE		BEND    c_v-49
	BYTE		N12     Gs3   v100
	BYTE	W01
	BYTE		BEND    c_v-33
	BYTE	W02
	BYTE		MOD     4
	BYTE		BEND    c_v-18
	BYTE	W01
	BYTE		        c_v+0
	BYTE	W02
	BYTE		MOD     0
	BYTE	W06
	BYTE		        4
	BYTE		N12     Gs3   v036
	BYTE	W06
	BYTE		MOD     2
	BYTE	W03
	BYTE		        0
	BYTE	W03
	BYTE		N12     Gs3   v032
	BYTE	W12
	BYTE		        Gs3   v024
	BYTE	W24
	BYTE		MOD     1
	BYTE		N12     Gs3   v080
	BYTE	W12
	BYTE		MOD     8
	BYTE		BEND    c_v-49
	BYTE		N12     Gn3   v100
	BYTE	W01
	BYTE		BEND    c_v-33
	BYTE	W02
	BYTE		MOD     4
	BYTE		BEND    c_v-18
	BYTE	W01
	BYTE		        c_v+0
	BYTE	W02
	BYTE		MOD     0
	BYTE	W06
// 002   ----------------------------------------
	BYTE		        4
	BYTE		N12     Gn3   v036
	BYTE	W06
	BYTE		MOD     2
	BYTE	W03
	BYTE		        0
	BYTE	W03
	BYTE		N12     Gn3   v032
	BYTE	W12
	BYTE		        Gn3   v024
	BYTE	W24
	BYTE		MOD     1
	BYTE		N12     Gn3   v080
	BYTE	W12
	BYTE		BEND    c_v-49
	BYTE		N12     Gs3   v100
	BYTE	W01
	BYTE		BEND    c_v-33
	BYTE	W02
	BYTE		        c_v-18
	BYTE	W01
	BYTE		        c_v+0
	BYTE	W08
	BYTE		N12     Gs3   v032
	BYTE	W12
	BYTE		MOD     8
	BYTE		BEND    c_v-49
	BYTE		N12     As3   v100
	BYTE	W01
	BYTE		BEND    c_v-33
	BYTE	W02
	BYTE		MOD     4
	BYTE		BEND    c_v-18
	BYTE	W01
	BYTE		        c_v+0
	BYTE	W02
	BYTE		MOD     0
	BYTE	W06
// 003   ----------------------------------------
	BYTE		        4
	BYTE		N12     As3   v032
	BYTE	W06
	BYTE		MOD     2
	BYTE	W03
	BYTE		        0
	BYTE	W03
	BYTE		        4
	BYTE		BEND    c_v-49
	BYTE		N24     Cn4   v100
	BYTE	W01
	BYTE		BEND    c_v-33
	BYTE	W02
	BYTE		MOD     8
	BYTE		BEND    c_v-18
	BYTE	W01
	BYTE		        c_v+0
	BYTE	W02
	BYTE		MOD     6
	BYTE	W03
	BYTE		        4
	BYTE	W03
	BYTE		        2
	BYTE	W06
	BYTE		        0
	BYTE	W06
	BYTE		        8
	BYTE		BEND    c_v-49
	BYTE		N12     Gn3 
	BYTE	W01
	BYTE		BEND    c_v-33
	BYTE	W02
	BYTE		MOD     4
	BYTE		BEND    c_v-18
	BYTE	W01
	BYTE		        c_v+0
	BYTE	W02
	BYTE		MOD     0
	BYTE	W06
	BYTE		        4
	BYTE		N12     Gn3   v036
	BYTE	W06
	BYTE		MOD     2
	BYTE	W03
	BYTE		        0
	BYTE	W03
	BYTE		N12     Gn3   v032
	BYTE	W12
	BYTE		        Gn3   v024
	BYTE	W24
// 004   ----------------------------------------
	BYTE		MOD     1
	BYTE		N12     Gn3   v080
	BYTE	W12
	BYTE		MOD     8
	BYTE		BEND    c_v-49
	BYTE		N12     Gs3   v100
	BYTE	W01
	BYTE		BEND    c_v-33
	BYTE	W02
	BYTE		MOD     4
	BYTE		BEND    c_v-18
	BYTE	W01
	BYTE		        c_v+0
	BYTE	W02
	BYTE		MOD     0
	BYTE	W06
	BYTE		        4
	BYTE		N12     Gs3   v036
	BYTE	W06
	BYTE		MOD     2
	BYTE	W03
	BYTE		        0
	BYTE	W03
	BYTE		N12     Gs3   v032
	BYTE	W12
	BYTE		        Gs3   v024
	BYTE	W24
	BYTE		MOD     1
	BYTE		N12     Gs3   v080
	BYTE	W12
	BYTE		MOD     8
	BYTE		BEND    c_v-49
	BYTE		N11     Gn3   v100
	BYTE	W01
	BYTE		BEND    c_v-33
	BYTE	W02
	BYTE		MOD     4
	BYTE		BEND    c_v-18
	BYTE	W01
	BYTE		        c_v+0
	BYTE	W02
	BYTE		MOD     0
	BYTE	W06
// 005   ----------------------------------------
	BYTE		        4
	BYTE		N12     Gn3   v032
	BYTE	W06
	BYTE		MOD     2
	BYTE	W03
	BYTE		        0
	BYTE	W03
	BYTE		        1
	BYTE		N11     Gn3   v100
	BYTE	W12
	BYTE		MOD     8
	BYTE		N11   
	BYTE	W03
	BYTE		MOD     4
	BYTE	W03
	BYTE		        0
	BYTE	W06
	BYTE		        4
	BYTE		N12     Gn3   v032
	BYTE	W06
	BYTE		MOD     2
	BYTE	W03
	BYTE		        0
	BYTE	W03
	BYTE		        1
	BYTE		N11     Gn3   v100
	BYTE	W12
	BYTE		MOD     8
	BYTE		N11   
	BYTE	W03
	BYTE		MOD     4
	BYTE	W03
	BYTE		        0
	BYTE	W06
	BYTE		        4
	BYTE		N12     Gn3   v032
	BYTE	W06
	BYTE		MOD     2
	BYTE	W03
	BYTE		        0
	BYTE	W03
	BYTE		        1
	BYTE		N11     Gn3   v096
	BYTE	W12
// 006   ----------------------------------------
	BYTE		MOD     8
	BYTE		N11   
	BYTE	W03
	BYTE		MOD     4
	BYTE	W03
	BYTE		        0
	BYTE	W06
	BYTE		        4
	BYTE		N12     Gn3   v032
	BYTE	W06
	BYTE		MOD     2
	BYTE	W03
	BYTE		        0
	BYTE	W03
	BYTE		        1
	BYTE		N11     Gn3   v096
	BYTE	W12
	BYTE	GoTo
	 POIN2	twelveatktest_1_B1
twelveatktest_1_B2:
	BYTE		N12     Gn3   v032
	BYTE	W12
	BYTE	FINE

//**************** Track 2 (Midi-Chn.2) ****************//

twelveatktest_2:
	BYTE	KEYSH   twelveatktest_key+0
// 000   ----------------------------------------
	BYTE		VOICE   36
	BYTE		VOL     100*twelveatktest_mvl/mxv
	BYTE		PAN     c_v-24
	BYTE	W36
twelveatktest_2_B1:
	BYTE		N05     Cn2   v084
	BYTE	W06
	BYTE		        Cn2   v036
	BYTE	W06
	BYTE		        Dn2   v084
	BYTE	W06
	BYTE		        Dn2   v036
	BYTE	W06
	BYTE		N10     Ds2   v088
	BYTE	W12
	BYTE		N05     Fn2   v084
	BYTE	W06
	BYTE		        Cn2 
	BYTE	W06
	BYTE		        Cn2   v036
	BYTE	W06
	BYTE		        Dn2   v084
	BYTE	W06
// 001   ----------------------------------------
	BYTE		        Ds2 
	BYTE	W06
	BYTE		        Fn2 
	BYTE	W06
	BYTE		        Cn2 
	BYTE	W06
	BYTE		        Cn2   v036
	BYTE	W06
	BYTE		        Dn2   v084
	BYTE	W06
	BYTE		        Dn2   v036
	BYTE	W06
	BYTE		N10     Ds2   v088
	BYTE	W12
	BYTE		N05     Fn2   v084
	BYTE	W06
	BYTE		        Cn2 
	BYTE	W06
	BYTE		        Cn2   v036
	BYTE	W06
	BYTE		        Dn2   v084
	BYTE	W06
	BYTE		        Ds2 
	BYTE	W06
	BYTE		        Fn2 
	BYTE	W06
	BYTE		        Cn2 
	BYTE	W06
	BYTE		        Cn2   v036
	BYTE	W06
// 002   ----------------------------------------
	BYTE		        Dn2   v084
	BYTE	W06
	BYTE		        Dn2   v036
	BYTE	W06
	BYTE		N10     Ds2   v088
	BYTE	W12
	BYTE		N05     Fn2   v084
	BYTE	W06
	BYTE		        Cn2 
	BYTE	W06
	BYTE		        Cn2   v036
	BYTE	W06
	BYTE		        Dn2   v084
	BYTE	W06
	BYTE		        Ds2 
	BYTE	W06
	BYTE		        Fn2 
	BYTE	W06
	BYTE		        Cn2 
	BYTE	W06
	BYTE		        Cn2   v036
	BYTE	W06
	BYTE		        Dn2   v084
	BYTE	W06
	BYTE		        Dn2   v036
	BYTE	W06
	BYTE		N10     Ds2   v088
	BYTE	W12
// 003   ----------------------------------------
	BYTE		N05     Fn2   v084
	BYTE	W06
	BYTE		        Cn2 
	BYTE	W06
	BYTE		        Cn2   v036
	BYTE	W06
	BYTE		        Dn2   v084
	BYTE	W06
	BYTE		        Ds2 
	BYTE	W06
	BYTE		        Fn2 
	BYTE	W06
	BYTE		        Cn2 
	BYTE	W06
	BYTE		        Cn2   v036
	BYTE	W06
	BYTE		        Dn2   v084
	BYTE	W06
	BYTE		        Dn2   v036
	BYTE	W06
	BYTE		N10     Ds2   v088
	BYTE	W12
	BYTE		N05     Fn2   v084
	BYTE	W06
	BYTE		        Cn2 
	BYTE	W06
	BYTE		        Cn2   v036
	BYTE	W06
	BYTE		        Dn2   v084
	BYTE	W06
// 004   ----------------------------------------
	BYTE		        Ds2 
	BYTE	W06
	BYTE		        Fn2 
	BYTE	W06
	BYTE		        Cn2 
	BYTE	W06
	BYTE		        Cn2   v036
	BYTE	W06
	BYTE		        Dn2   v084
	BYTE	W06
	BYTE		        Dn2   v036
	BYTE	W06
	BYTE		N10     Ds2   v088
	BYTE	W12
	BYTE		N05     Fn2   v084
	BYTE	W06
	BYTE		        Cn2 
	BYTE	W06
	BYTE		        Cn2   v036
	BYTE	W06
	BYTE		        Dn2   v084
	BYTE	W06
	BYTE		        Ds2 
	BYTE	W06
	BYTE		        Fn2 
	BYTE	W06
	BYTE		N10     Gn2 
	BYTE	W12
// 005   ----------------------------------------
	BYTE		N05     Gn2   v036
	BYTE	W12
	BYTE		N07     Gn2   v084
	BYTE	W12
	BYTE		N10   
	BYTE	W12
	BYTE		N05     Gn2   v036
	BYTE	W12
	BYTE		N07     Gn2   v084
	BYTE	W12
	BYTE		N10     Gn1 
	BYTE	W12
	BYTE		N05     Gn1   v036
	BYTE	W12
	BYTE		N07     Gn1   v084
	BYTE	W12
// 006   ----------------------------------------
	BYTE		N10   
	BYTE	W12
	BYTE		N05     Gn1   v036
	BYTE	W12
	BYTE		N07     Gn1   v084
	BYTE	W12
	BYTE	GoTo
	 POIN2	twelveatktest_2_B1
twelveatktest_2_B2:
	BYTE	W12
	BYTE	FINE

//**************** Track 3 (Midi-Chn.3) ****************//

twelveatktest_3:
	BYTE	KEYSH   twelveatktest_key+0
// 000   ----------------------------------------
	BYTE		VOICE   51
	BYTE		VOL     72*twelveatktest_mvl/mxv
	BYTE		PAN     c_v+0
	BYTE	W36
twelveatktest_3_B1:
	BYTE		VOL     72*twelveatktest_mvl/mxv
	BYTE		N72     Cn2   v076
	BYTE		N72     Gn2 
	BYTE	W01
	BYTE		VOL     60*twelveatktest_mvl/mxv
	BYTE	W02
	BYTE		        48*twelveatktest_mvl/mxv
	BYTE	W01
	BYTE		        36*twelveatktest_mvl/mxv
	BYTE	W02
	BYTE		        40*twelveatktest_mvl/mxv
	BYTE	W01
	BYTE		        44*twelveatktest_mvl/mxv
	BYTE	W02
	BYTE		        46*twelveatktest_mvl/mxv
	BYTE	W01
	BYTE		        48*twelveatktest_mvl/mxv
	BYTE	W02
	BYTE		        50*twelveatktest_mvl/mxv
	BYTE	W03
	BYTE		        52*twelveatktest_mvl/mxv
	BYTE	W44
	BYTE	W01
// 001   ----------------------------------------
	BYTE	W12
	BYTE		        72*twelveatktest_mvl/mxv
	BYTE		N72     Cs2 
	BYTE		N72     Gs2 
	BYTE	W01
	BYTE		VOL     60*twelveatktest_mvl/mxv
	BYTE	W02
	BYTE		        48*twelveatktest_mvl/mxv
	BYTE	W01
	BYTE		        36*twelveatktest_mvl/mxv
	BYTE	W02
	BYTE		        40*twelveatktest_mvl/mxv
	BYTE	W01
	BYTE		        44*twelveatktest_mvl/mxv
	BYTE	W02
	BYTE		        46*twelveatktest_mvl/mxv
	BYTE	W01
	BYTE		        48*twelveatktest_mvl/mxv
	BYTE	W02
	BYTE		        50*twelveatktest_mvl/mxv
	BYTE	W03
	BYTE		        52*twelveatktest_mvl/mxv
	BYTE	W09
	BYTE		        60*twelveatktest_mvl/mxv
	BYTE	W48
	BYTE		        72*twelveatktest_mvl/mxv
	BYTE		N72     Cn2 
	BYTE		N72     Gn2 
	BYTE	W01
	BYTE		VOL     60*twelveatktest_mvl/mxv
	BYTE	W02
	BYTE		        48*twelveatktest_mvl/mxv
	BYTE	W01
	BYTE		        36*twelveatktest_mvl/mxv
	BYTE	W02
	BYTE		        40*twelveatktest_mvl/mxv
	BYTE	W01
	BYTE		        44*twelveatktest_mvl/mxv
	BYTE	W02
	BYTE		        46*twelveatktest_mvl/mxv
	BYTE	W01
	BYTE		        48*twelveatktest_mvl/mxv
	BYTE	W02
// 002   ----------------------------------------
	BYTE		        50*twelveatktest_mvl/mxv
	BYTE	W03
	BYTE		        52*twelveatktest_mvl/mxv
	BYTE	W09
	BYTE		        60*twelveatktest_mvl/mxv
	BYTE	W48
	BYTE		        72*twelveatktest_mvl/mxv
	BYTE		N24     Cs2 
	BYTE		N24     Gs2 
	BYTE	W01
	BYTE		VOL     60*twelveatktest_mvl/mxv
	BYTE	W02
	BYTE		        48*twelveatktest_mvl/mxv
	BYTE	W01
	BYTE		        36*twelveatktest_mvl/mxv
	BYTE	W02
	BYTE		        40*twelveatktest_mvl/mxv
	BYTE	W01
	BYTE		        44*twelveatktest_mvl/mxv
	BYTE	W02
	BYTE		        46*twelveatktest_mvl/mxv
	BYTE	W01
	BYTE		        48*twelveatktest_mvl/mxv
	BYTE	W02
	BYTE		        50*twelveatktest_mvl/mxv
	BYTE	W03
	BYTE		        52*twelveatktest_mvl/mxv
	BYTE	W09
	BYTE		        72*twelveatktest_mvl/mxv
	BYTE		N24     Ds2 
	BYTE		N24     As2 
	BYTE	W01
	BYTE		VOL     60*twelveatktest_mvl/mxv
	BYTE	W02
	BYTE		        48*twelveatktest_mvl/mxv
	BYTE	W01
	BYTE		        36*twelveatktest_mvl/mxv
	BYTE	W02
	BYTE		        40*twelveatktest_mvl/mxv
	BYTE	W01
	BYTE		        44*twelveatktest_mvl/mxv
	BYTE	W02
	BYTE		        46*twelveatktest_mvl/mxv
	BYTE	W01
	BYTE		        48*twelveatktest_mvl/mxv
	BYTE	W02
// 003   ----------------------------------------
	BYTE		        50*twelveatktest_mvl/mxv
	BYTE	W03
	BYTE		        52*twelveatktest_mvl/mxv
	BYTE	W09
	BYTE		        72*twelveatktest_mvl/mxv
	BYTE		N24     Fn2 
	BYTE		N24     Cn3 
	BYTE	W01
	BYTE		VOL     60*twelveatktest_mvl/mxv
	BYTE	W02
	BYTE		        48*twelveatktest_mvl/mxv
	BYTE	W01
	BYTE		        36*twelveatktest_mvl/mxv
	BYTE	W02
	BYTE		        40*twelveatktest_mvl/mxv
	BYTE	W01
	BYTE		        44*twelveatktest_mvl/mxv
	BYTE	W02
	BYTE		        46*twelveatktest_mvl/mxv
	BYTE	W01
	BYTE		        48*twelveatktest_mvl/mxv
	BYTE	W02
	BYTE		        50*twelveatktest_mvl/mxv
	BYTE	W03
	BYTE		        52*twelveatktest_mvl/mxv
	BYTE	W09
	BYTE		        96*twelveatktest_mvl/mxv
	BYTE		N04     Cn3   v100
	BYTE	W04
	BYTE		        Gn2   v076
	BYTE	W04
	BYTE		        Cn3   v100
	BYTE	W04
	BYTE		        Ds3   v076
	BYTE	W04
	BYTE		        Cn3   v100
	BYTE	W04
	BYTE		        Ds3   v080
	BYTE	W04
	BYTE		VOL     60*twelveatktest_mvl/mxv
	BYTE		N04     Gn3 
	BYTE	W04
	BYTE		        Cn3   v100
	BYTE	W04
	BYTE		        Gn3   v080
	BYTE	W04
	BYTE		        Cn4 
	BYTE	W04
	BYTE		        Gn3 
	BYTE	W04
	BYTE		        Cn4 
	BYTE	W04
	BYTE		VOL     60*twelveatktest_mvl/mxv
	BYTE		N04     Ds4 
	BYTE	W04
	BYTE		        Cn4 
	BYTE	W04
	BYTE		        Ds4 
	BYTE	W04
// 004   ----------------------------------------
	BYTE		        Gn4 
	BYTE	W04
	BYTE		        Ds4 
	BYTE	W04
	BYTE		        Gn4 
	BYTE	W04
	BYTE		VOL     60*twelveatktest_mvl/mxv
	BYTE		N04     Cn3   v100
	BYTE	W04
	BYTE		        Gs2   v080
	BYTE	W04
	BYTE		        Cn3   v100
	BYTE	W04
	BYTE		        Ds3   v080
	BYTE	W04
	BYTE		        Cn3   v100
	BYTE	W04
	BYTE		        Ds3   v080
	BYTE	W04
	BYTE		        Gs3 
	BYTE	W04
	BYTE		        Ds3 
	BYTE	W04
	BYTE		        Gs3 
	BYTE	W04
	BYTE		        Cn4 
	BYTE	W04
	BYTE		        Gs3 
	BYTE	W04
	BYTE		        Cn4 
	BYTE	W04
	BYTE		        Ds4 
	BYTE	W04
	BYTE		        Cn4 
	BYTE	W04
	BYTE		        Ds4 
	BYTE	W04
	BYTE		        Gs4 
	BYTE	W04
	BYTE		        Ds4 
	BYTE	W04
	BYTE		        Gs4 
	BYTE	W04
	BYTE		        Gn5   v072
	BYTE	W04
	BYTE		        Dn5 
	BYTE	W04
	BYTE		        Cn5 
	BYTE	W04
// 005   ----------------------------------------
	BYTE		        Dn5 
	BYTE	W04
	BYTE		        Cn5 
	BYTE	W04
	BYTE		        Gn4   v080
	BYTE	W04
	BYTE		        Dn4 
	BYTE	W04
	BYTE		        Cn4 
	BYTE	W04
	BYTE		        Gn3 
	BYTE	W04
	BYTE		        Gn2 
	BYTE	W04
	BYTE		        Cn3   v100
	BYTE	W04
	BYTE		        Dn3   v080
	BYTE	W04
	BYTE		        Gn3 
	BYTE	W04
	BYTE		        Cn4 
	BYTE	W04
	BYTE		        Dn4 
	BYTE	W04
	BYTE		        Gn4 
	BYTE	W04
	BYTE		        Cn5   v072
	BYTE	W04
	BYTE		        Dn5 
	BYTE	W04
	BYTE		        Gn5 
	BYTE	W04
	BYTE		        Dn5 
	BYTE	W04
	BYTE		        Bn4   v076
	BYTE	W04
	BYTE		        Dn5   v072
	BYTE	W04
	BYTE		        Bn4   v076
	BYTE	W04
	BYTE		        Gn4   v080
	BYTE	W04
	BYTE		        Bn4 
	BYTE	W04
	BYTE		        Gn4 
	BYTE	W04
	BYTE		        Dn4 
	BYTE	W04
// 006   ----------------------------------------
	BYTE		        Gn4 
	BYTE	W04
	BYTE		        Dn4 
	BYTE	W04
	BYTE		        Bn3 
	BYTE	W04
	BYTE		        Dn4 
	BYTE	W04
	BYTE		        Bn3 
	BYTE	W04
	BYTE		        Gn3 
	BYTE	W04
	BYTE		        Bn3 
	BYTE	W04
	BYTE		        Gn3 
	BYTE	W04
	BYTE		        Bn3 
	BYTE	W04
	BYTE	GoTo
	 POIN2	twelveatktest_3_B1
twelveatktest_3_B2:
	BYTE	W12
	BYTE	FINE

//**************** Track 4 (Midi-Chn.4) ****************//

twelveatktest_4:
	BYTE	KEYSH   twelveatktest_key+0
// 000   ----------------------------------------
	BYTE		VOICE   40
	BYTE		MOD     2
	BYTE		PAN     c_v-16
	BYTE		VOL     86*twelveatktest_mvl/mxv
	BYTE	W36
twelveatktest_4_B1:
	BYTE		BEND    c_v-49
	BYTE		N12     Cn3   v096
	BYTE	W01
	BYTE		BEND    c_v-33
	BYTE	W02
	BYTE		        c_v-18
	BYTE	W01
	BYTE		        c_v+0
	BYTE	W08
	BYTE		N12     Cn3   v036
	BYTE	W12
	BYTE		        Cn3   v032
	BYTE	W12
	BYTE		        Cn3   v024
	BYTE	W24
// 001   ----------------------------------------
	BYTE		        Cn3   v076
	BYTE	W12
	BYTE		        Cs3   v096
	BYTE	W12
	BYTE		        Cs3   v036
	BYTE	W12
	BYTE		        Cs3   v032
	BYTE	W12
	BYTE		        Cs3   v024
	BYTE	W24
	BYTE		        Cs3   v048
	BYTE	W12
	BYTE		        Cn3   v096
	BYTE	W12
// 002   ----------------------------------------
	BYTE		        Cn3   v036
	BYTE	W12
	BYTE		        Cn3   v032
	BYTE	W12
	BYTE		        Cn3   v024
	BYTE	W24
	BYTE		        Cn3   v076
	BYTE	W12
	BYTE		        Cs3   v096
	BYTE	W12
	BYTE		        Cs3   v032
	BYTE	W12
	BYTE		        Ds3   v096
	BYTE	W12
// 003   ----------------------------------------
	BYTE		        Ds3   v032
	BYTE	W12
	BYTE		        Fn3   v096
	BYTE	W12
	BYTE		        Fn3   v032
	BYTE	W12
	BYTE		BEND    c_v-49
	BYTE		N12     Cn3   v096
	BYTE	W01
	BYTE		BEND    c_v-33
	BYTE	W02
	BYTE		        c_v-18
	BYTE	W01
	BYTE		        c_v+0
	BYTE	W08
	BYTE		N12     Cn3   v036
	BYTE	W12
	BYTE		        Cn3   v032
	BYTE	W12
	BYTE		        Cn3   v024
	BYTE	W24
// 004   ----------------------------------------
	BYTE		        Cn3   v076
	BYTE	W12
	BYTE		        Cs3   v096
	BYTE	W12
	BYTE		        Cs3   v036
	BYTE	W12
	BYTE		        Cs3   v032
	BYTE	W12
	BYTE		        Cs3   v024
	BYTE	W24
	BYTE		        Cs3   v076
	BYTE	W12
	BYTE		N11     Cn3   v096
	BYTE	W12
// 005   ----------------------------------------
	BYTE		N12     Cn3   v032
	BYTE	W12
	BYTE		N11     Cn3   v096
	BYTE	W12
	BYTE		N11   
	BYTE	W12
	BYTE		N12     Cn3   v032
	BYTE	W12
	BYTE		N11     Cn3   v096
	BYTE	W12
	BYTE		        Bn2 
	BYTE	W12
	BYTE		N12     Bn2   v032
	BYTE	W12
	BYTE		N11     Bn2   v096
	BYTE	W12
// 006   ----------------------------------------
	BYTE		N11   
	BYTE	W12
	BYTE		N12     Bn2   v032
	BYTE	W12
	BYTE		N11     Bn2   v096
	BYTE	W12
	BYTE	GoTo
	 POIN2	twelveatktest_4_B1
twelveatktest_4_B2:
	BYTE		N12     Bn2   v032
	BYTE	W12
	BYTE	FINE

//**************** Track 5 (Midi-Chn.5) ****************//

twelveatktest_5:
	BYTE	KEYSH   twelveatktest_key+0
// 000   ----------------------------------------
	BYTE		VOICE   81
	BYTE		PAN     c_v+54
	BYTE		VOL     100*twelveatktest_mvl/mxv
	BYTE		MOD     2
	BYTE	W36
twelveatktest_5_B1:
	BYTE		N03     Cn2   v088
	BYTE	W06
	BYTE		        Cn2   v036
	BYTE	W06
	BYTE		        Dn2   v088
	BYTE	W06
	BYTE		        Dn2   v036
	BYTE	W06
	BYTE		N06     Ds2   v092
	BYTE	W12
	BYTE		N03     Fn2   v088
	BYTE	W06
	BYTE		        Cn2 
	BYTE	W06
	BYTE		        Cn2   v036
	BYTE	W06
	BYTE		        Dn2   v088
	BYTE	W06
// 001   ----------------------------------------
	BYTE		        Ds2 
	BYTE	W06
	BYTE		        Fn2 
	BYTE	W06
	BYTE		        Cn2 
	BYTE	W06
	BYTE		        Cn2   v036
	BYTE	W06
	BYTE		        Dn2   v088
	BYTE	W06
	BYTE		        Dn2   v036
	BYTE	W06
	BYTE		N06     Ds2   v092
	BYTE	W12
	BYTE		N03     Fn2   v088
	BYTE	W06
	BYTE		        Cn2 
	BYTE	W06
	BYTE		        Cn2   v036
	BYTE	W06
	BYTE		        Dn2   v088
	BYTE	W06
	BYTE		        Ds2 
	BYTE	W06
	BYTE		        Fn2 
	BYTE	W06
	BYTE		        Cn2 
	BYTE	W06
	BYTE		        Cn2   v036
	BYTE	W06
// 002   ----------------------------------------
	BYTE		        Dn2   v088
	BYTE	W06
	BYTE		        Dn2   v036
	BYTE	W06
	BYTE		N06     Ds2   v092
	BYTE	W12
	BYTE		N03     Fn2   v088
	BYTE	W06
	BYTE		        Cn2 
	BYTE	W06
	BYTE		        Cn2   v036
	BYTE	W06
	BYTE		        Dn2   v088
	BYTE	W06
	BYTE		        Ds2 
	BYTE	W06
	BYTE		        Fn2 
	BYTE	W06
	BYTE		        Cn2 
	BYTE	W06
	BYTE		        Cn2   v036
	BYTE	W06
	BYTE		        Dn2   v088
	BYTE	W06
	BYTE		        Dn2   v036
	BYTE	W06
	BYTE		N06     Ds2   v092
	BYTE	W12
// 003   ----------------------------------------
	BYTE		N03     Fn2   v088
	BYTE	W06
	BYTE		        Cn2 
	BYTE	W06
	BYTE		        Cn2   v036
	BYTE	W06
	BYTE		        Dn2   v088
	BYTE	W06
	BYTE		        Ds2 
	BYTE	W06
	BYTE		        Fn2 
	BYTE	W06
	BYTE		        Cn3   v104
	BYTE	W04
	BYTE		        Gn2   v060
	BYTE	W04
	BYTE		        Cn3   v096
	BYTE	W04
	BYTE		        Ds3   v060
	BYTE	W04
	BYTE		        Cn3   v088
	BYTE	W04
	BYTE		        Ds3   v060
	BYTE	W04
	BYTE		        Gn3   v064
	BYTE	W04
	BYTE		        Cn3   v100
	BYTE	W04
	BYTE		        Gn3   v064
	BYTE	W04
	BYTE		        Cn4 
	BYTE	W04
	BYTE		        Gn3   v076
	BYTE	W04
	BYTE		        Cn4 
	BYTE	W08
	BYTE		        Cn4   v080
	BYTE	W04
	BYTE		        Ds4   v076
	BYTE	W04
// 004   ----------------------------------------
	BYTE		        Gn4   v084
	BYTE	W04
	BYTE		        Ds4   v076
	BYTE	W04
	BYTE		        Gn4   v080
	BYTE	W04
	BYTE		        Cn3   v104
	BYTE	W04
	BYTE		        Gs2   v080
	BYTE	W04
	BYTE		        Cn3   v104
	BYTE	W04
	BYTE		        Ds3   v076
	BYTE	W04
	BYTE		        Cn3   v104
	BYTE	W04
	BYTE		        Ds3   v080
	BYTE	W04
	BYTE		        Gs3   v084
	BYTE	W04
	BYTE		        Ds3   v088
	BYTE	W04
	BYTE		        Gs3   v072
	BYTE	W04
	BYTE		        Cn4 
	BYTE	W04
	BYTE		        Gs3   v084
	BYTE	W04
	BYTE		        Cn4   v072
	BYTE	W04
	BYTE		        Ds4   v080
	BYTE	W04
	BYTE		        Cn4   v088
	BYTE	W04
	BYTE		        Ds4 
	BYTE	W04
	BYTE		        Gs4   v072
	BYTE	W04
	BYTE		        Ds4   v084
	BYTE	W04
	BYTE		        Gs4   v080
	BYTE	W04
	BYTE		        Gn5   v096
	BYTE	W04
	BYTE		        Dn5   v076
	BYTE	W04
	BYTE		        Cn5   v068
	BYTE	W04
// 005   ----------------------------------------
	BYTE		        Dn5   v076
	BYTE	W04
	BYTE		        Cn5   v084
	BYTE	W04
	BYTE		        Gn4   v072
	BYTE	W04
	BYTE		        Dn4   v080
	BYTE	W04
	BYTE		        Cn4   v084
	BYTE	W04
	BYTE		        Gn3 
	BYTE	W04
	BYTE		        Gn2 
	BYTE	W04
	BYTE		        Cn3   v104
	BYTE	W04
	BYTE		        Dn3   v080
	BYTE	W04
	BYTE		        Gn3 
	BYTE	W04
	BYTE		        Cn4   v084
	BYTE	W04
	BYTE		        Dn4   v080
	BYTE	W04
	BYTE		        Gn4 
	BYTE	W04
	BYTE		        Cn5 
	BYTE	W04
	BYTE		        Dn5   v068
	BYTE	W04
	BYTE		        Gn5   v096
	BYTE	W04
	BYTE		        Dn5   v080
	BYTE	W04
	BYTE		        Bn4   v072
	BYTE	W04
	BYTE		        Dn5   v080
	BYTE	W04
	BYTE		        Bn4   v084
	BYTE	W04
	BYTE		        Gn4   v080
	BYTE	W04
	BYTE		        Bn4   v072
	BYTE	W04
	BYTE		        Gn4   v076
	BYTE	W04
	BYTE		        Dn4 
	BYTE	W04
// 006   ----------------------------------------
	BYTE		        Gn4   v084
	BYTE	W04
	BYTE		        Dn4 
	BYTE	W04
	BYTE		        Bn3   v072
	BYTE	W04
	BYTE		        Dn4   v080
	BYTE	W04
	BYTE		        Bn3   v084
	BYTE	W04
	BYTE		        Gn3 
	BYTE	W04
	BYTE		        Bn3   v080
	BYTE	W04
	BYTE		        Gn3   v084
	BYTE	W04
	BYTE		        Bn3   v080
	BYTE	W04
	BYTE	GoTo
	 POIN2	twelveatktest_5_B1
twelveatktest_5_B2:
	BYTE	W12
	BYTE	FINE

//**************** Track 6 (Midi-Chn.6) ****************//

twelveatktest_6:
	BYTE	KEYSH   twelveatktest_key+0
// 000   ----------------------------------------
	BYTE		VOICE   51
	BYTE		VOL     60*twelveatktest_mvl/mxv
	BYTE	W36
twelveatktest_6_B1:
	BYTE	W60
// 001   ----------------------------------------
	BYTE	W96
// 002   ----------------------------------------
	BYTE	W96
// 003   ----------------------------------------
	BYTE	W36
	BYTE		VOL     60*twelveatktest_mvl/mxv
	BYTE		N72     Cn2   v076
	BYTE		N72     Gn2 
	BYTE	W01
	BYTE		VOL     50*twelveatktest_mvl/mxv
	BYTE	W02
	BYTE		        40*twelveatktest_mvl/mxv
	BYTE	W01
	BYTE		        30*twelveatktest_mvl/mxv
	BYTE	W02
	BYTE		        32*twelveatktest_mvl/mxv
	BYTE	W01
	BYTE		        34*twelveatktest_mvl/mxv
	BYTE	W02
	BYTE		        36*twelveatktest_mvl/mxv
	BYTE	W01
	BYTE		        38*twelveatktest_mvl/mxv
	BYTE	W02
	BYTE		        40*twelveatktest_mvl/mxv
	BYTE	W48
// 004   ----------------------------------------
	BYTE	W12
	BYTE		        60*twelveatktest_mvl/mxv
	BYTE		N72     Cs2 
	BYTE		N72     Gs2 
	BYTE	W01
	BYTE		VOL     50*twelveatktest_mvl/mxv
	BYTE	W02
	BYTE		        40*twelveatktest_mvl/mxv
	BYTE	W01
	BYTE		        30*twelveatktest_mvl/mxv
	BYTE	W02
	BYTE		        32*twelveatktest_mvl/mxv
	BYTE	W01
	BYTE		        34*twelveatktest_mvl/mxv
	BYTE	W02
	BYTE		        36*twelveatktest_mvl/mxv
	BYTE	W01
	BYTE		        38*twelveatktest_mvl/mxv
	BYTE	W02
	BYTE		        40*twelveatktest_mvl/mxv
	BYTE	W60
	BYTE		        60*twelveatktest_mvl/mxv
	BYTE		N72     Cn2 
	BYTE		N72     Gn2 
	BYTE	W01
	BYTE		VOL     50*twelveatktest_mvl/mxv
	BYTE	W02
	BYTE		        40*twelveatktest_mvl/mxv
	BYTE	W01
	BYTE		        30*twelveatktest_mvl/mxv
	BYTE	W02
	BYTE		        32*twelveatktest_mvl/mxv
	BYTE	W01
	BYTE		        34*twelveatktest_mvl/mxv
	BYTE	W02
	BYTE		        36*twelveatktest_mvl/mxv
	BYTE	W01
	BYTE		        38*twelveatktest_mvl/mxv
	BYTE	W02
// 005   ----------------------------------------
	BYTE		        40*twelveatktest_mvl/mxv
	BYTE	W60
	BYTE		        60*twelveatktest_mvl/mxv
	BYTE		N60     Bn1 
	BYTE		N60     Gn2 
	BYTE	W01
	BYTE		VOL     50*twelveatktest_mvl/mxv
	BYTE	W02
	BYTE		        40*twelveatktest_mvl/mxv
	BYTE	W01
	BYTE		        30*twelveatktest_mvl/mxv
	BYTE	W02
	BYTE		        32*twelveatktest_mvl/mxv
	BYTE	W01
	BYTE		        34*twelveatktest_mvl/mxv
	BYTE	W02
	BYTE		        36*twelveatktest_mvl/mxv
	BYTE	W01
	BYTE		        38*twelveatktest_mvl/mxv
	BYTE	W02
	BYTE		        40*twelveatktest_mvl/mxv
	BYTE	W24
// 006   ----------------------------------------
	BYTE	W36
	BYTE	GoTo
	 POIN2	twelveatktest_6_B1
twelveatktest_6_B2:
	BYTE	W12
	BYTE	FINE

//**************** Track 7 (Midi-Chn.7) ****************//

twelveatktest_7:
	BYTE	KEYSH   twelveatktest_key+0
// 000   ----------------------------------------
	BYTE		VOICE   124
	BYTE		VOL     100*twelveatktest_mvl/mxv
	BYTE		PAN     c_v+0
	BYTE		N02     Dn1   v028
	BYTE	W03
	BYTE		PAN     c_v-48
	BYTE		N02     Dn1   v020
	BYTE	W03
	BYTE		PAN     c_v-40
	BYTE		N02     Dn1   v032
	BYTE	W03
	BYTE		PAN     c_v-32
	BYTE		N02     Dn1   v036
	BYTE	W03
	BYTE		PAN     c_v-8
	BYTE		N03     Cn1   v100
	BYTE		N02     Dn1   v048
	BYTE	W03
	BYTE		PAN     c_v+0
	BYTE		N02     Dn1   v036
	BYTE	W03
	BYTE		PAN     c_v+16
	BYTE		N02     Dn1   v032
	BYTE	W03
	BYTE		PAN     c_v+40
	BYTE		N02     Dn1   v036
	BYTE	W03
	BYTE		N04     Cn1   v100
	BYTE	W06
	BYTE		PAN     c_v+16
	BYTE		N04   
	BYTE	W06
twelveatktest_7_B1:
	BYTE		PAN     c_v+0
	BYTE		N03     Cn1   v100
	BYTE		N24     Cs2   v044
	BYTE	W12
	BYTE		N01     Dn1   v040
	BYTE		N05     Ds2   v028
	BYTE	W06
	BYTE		        Ds2   v012
	BYTE	W06
	BYTE		        Ds2   v028
	BYTE	W06
	BYTE		        Ds2   v012
	BYTE	W06
	BYTE		N03     Cn1   v100
	BYTE		N01     Dn1   v040
	BYTE		N05     Ds2   v028
	BYTE	W06
	BYTE		        Ds2   v036
	BYTE	W06
	BYTE		        Ds2   v012
	BYTE	W06
	BYTE		        Ds2   v044
	BYTE	W06
// 001   ----------------------------------------
	BYTE		N03     Cn1   v100
	BYTE		N01     Dn1   v040
	BYTE		N05     Ds2   v036
	BYTE	W06
	BYTE		N02     Ds2   v032
	BYTE	W03
	BYTE		        Ds2   v016
	BYTE	W03
	BYTE		N03     Cn1   v100
	BYTE		N05     Ds2   v040
	BYTE	W06
	BYTE		N05   
	BYTE	W06
	BYTE		N01     Dn1 
	BYTE		N05     Ds2   v036
	BYTE	W06
	BYTE		        Ds2   v012
	BYTE	W06
	BYTE		        Ds2   v044
	BYTE	W06
	BYTE		        Ds2   v012
	BYTE	W06
	BYTE		N03     Cn1   v100
	BYTE		N01     Dn1   v040
	BYTE		N05     Ds2   v056
	BYTE	W06
	BYTE		        Ds2   v036
	BYTE	W06
	BYTE		        Ds2   v012
	BYTE	W06
	BYTE		        Ds2   v052
	BYTE	W06
	BYTE		N03     Cn1   v100
	BYTE		N01     Dn1   v040
	BYTE		N05     Ds2   v012
	BYTE	W06
	BYTE		N03     Cn1   v100
	BYTE		N05     Ds2   v044
	BYTE	W06
	BYTE		N03     Cn1   v100
	BYTE		N05     Ds2   v036
	BYTE	W06
	BYTE		        Ds2   v012
	BYTE	W06
// 002   ----------------------------------------
	BYTE		N01     Dn1   v040
	BYTE		N05     Ds2   v048
	BYTE	W06
	BYTE		        Ds2   v012
	BYTE	W06
	BYTE		        Ds2   v048
	BYTE	W06
	BYTE		N02     Ds2   v028
	BYTE	W03
	BYTE		        Ds2   v016
	BYTE	W03
	BYTE		N03     Cn1   v100
	BYTE		N01     Dn1   v040
	BYTE		N05     Ds2   v052
	BYTE	W06
	BYTE		N06     Ds2   v036
	BYTE	W12
	BYTE		N05     Ds2   v044
	BYTE	W06
	BYTE		N03     Cn1   v100
	BYTE		N01     Dn1   v040
	BYTE		N06     Ds2   v036
	BYTE	W12
	BYTE		N03     Cn1   v100
	BYTE		N05     Ds2   v052
	BYTE	W06
	BYTE		        Ds2   v032
	BYTE	W06
	BYTE		N01     Dn1   v040
	BYTE		N05     Ds2   v036
	BYTE	W06
	BYTE		        Ds2   v028
	BYTE	W06
	BYTE		N05   
	BYTE	W06
	BYTE		        Ds2   v040
	BYTE	W06
// 003   ----------------------------------------
	BYTE		N03     Cn1   v100
	BYTE		N01     Dn1   v040
	BYTE		N05     Ds2   v012
	BYTE	W06
	BYTE		        Ds2   v044
	BYTE	W06
	BYTE		        Ds2   v012
	BYTE	W06
	BYTE		        Ds2   v056
	BYTE	W06
	BYTE		N03     Cn1   v100
	BYTE		N01     Dn1   v040
	BYTE		N05     Ds2   v036
	BYTE	W06
	BYTE		N03     Cn1   v100
	BYTE		N05     Ds2   v020
	BYTE	W06
	BYTE		N03     Cn1   v100
	BYTE		N24     Cs2   v044
	BYTE	W12
	BYTE		N01     Dn1   v040
	BYTE		N05     Ds2   v048
	BYTE	W06
	BYTE		        Ds2   v012
	BYTE	W06
	BYTE		        Ds2   v048
	BYTE	W06
	BYTE		N05   
	BYTE	W06
	BYTE		N03     Cn1   v100
	BYTE		N01     Dn1   v040
	BYTE		N05     Ds2   v024
	BYTE	W06
	BYTE		        Ds2   v052
	BYTE	W06
	BYTE		        Ds2   v016
	BYTE	W06
	BYTE		        Ds2   v044
	BYTE	W06
// 004   ----------------------------------------
	BYTE		N03     Cn1   v100
	BYTE		N01     Dn1   v040
	BYTE		N06     Ds2   v028
	BYTE	W12
	BYTE		N03     Cn1   v100
	BYTE		N05     Ds2   v040
	BYTE	W06
	BYTE		        Ds2   v052
	BYTE	W06
	BYTE		N01     Dn1   v040
	BYTE		N05     Ds2   v024
	BYTE	W06
	BYTE		        Ds2   v036
	BYTE	W06
	BYTE		        Ds2   v032
	BYTE	W06
	BYTE		        Ds2   v016
	BYTE	W06
	BYTE		N03     Cn1   v100
	BYTE		N01     Dn1   v040
	BYTE		N05     Ds2   v028
	BYTE	W06
	BYTE		        Ds2   v024
	BYTE	W06
	BYTE		        Ds2   v036
	BYTE	W06
	BYTE		        Ds2   v044
	BYTE	W06
	BYTE		N03     Cn1   v100
	BYTE		N01     Dn1   v040
	BYTE		N05     Ds2   v024
	BYTE	W06
	BYTE		        Ds2   v044
	BYTE	W06
	BYTE		N03     Cn1   v100
	BYTE		N24     Cs2   v044
	BYTE	W12
// 005   ----------------------------------------
	BYTE	W12
	BYTE		N03     Cn1   v100
	BYTE		N01     Dn1   v040
	BYTE	W12
	BYTE		N03     Cn1   v100
	BYTE		N24     Cs2   v044
	BYTE	W24
	BYTE		N03     Cn1   v100
	BYTE		N01     Dn1   v040
	BYTE	W12
	BYTE		N02     Dn1   v064
	BYTE		N24     Cs2   v044
	BYTE	W06
	BYTE		N02     Dn1   v064
	BYTE	W12
	BYTE		        Dn1   v052
	BYTE	W06
	BYTE		N02   
	BYTE		N11     An2   v048
	BYTE	W03
	BYTE		N02     Dn1   v036
	BYTE	W03
	BYTE		N01   
	BYTE	W02
	BYTE		        Dn1   v040
	BYTE	W02
	BYTE		        Dn1   v052
	BYTE	W02
// 006   ----------------------------------------
	BYTE		PAN     c_v+40
	BYTE		N02     Cn2 
	BYTE		N24     An2   v048
	BYTE	W03
	BYTE		N02     Dn1   v032
	BYTE	W03
	BYTE		        Dn1   v036
	BYTE	W03
	BYTE		PAN     c_v+16
	BYTE		N02     Dn1   v040
	BYTE	W03
	BYTE		PAN     c_v+0
	BYTE		N02     Dn1   v052
	BYTE	W03
	BYTE		PAN     c_v-32
	BYTE		N02     Dn1   v044
	BYTE	W03
	BYTE		PAN     c_v-56
	BYTE		N05     An1 
	BYTE	W06
	BYTE		N03     Cn1   v100
	BYTE		N06     Fn1   v044
	BYTE	W06
	BYTE		        Cn1   v100
	BYTE	W06
	BYTE	GoTo
	 POIN2	twelveatktest_7_B1
twelveatktest_7_B2:
	BYTE	W12
	BYTE	FINE

//**************** Track 8 (Midi-Chn.8) ****************//

twelveatktest_8:
	BYTE	KEYSH   twelveatktest_key+0
// 000   ----------------------------------------
	BYTE		VOICE   62
	BYTE		PAN     c_v-54
	BYTE		VOL     60*twelveatktest_mvl/mxv
	BYTE	W36
twelveatktest_8_B1:
	BYTE		VOICE   62
	BYTE		TIE     Cn3   v052
	BYTE	W60
// 001   ----------------------------------------
	BYTE	W84
	BYTE		EOT   
	BYTE		N72   
	BYTE	W12
// 002   ----------------------------------------
	BYTE	W60
	BYTE		N24     Cs3 
	BYTE	W24
	BYTE		        Ds3 
	BYTE	W12
// 003   ----------------------------------------
	BYTE	W12
	BYTE		        Fn3 
	BYTE	W24
	BYTE		VOICE   80
	BYTE		N03     Cn2   v100
	BYTE	W04
	BYTE		        Gn1 
	BYTE	W04
	BYTE		        Cn2 
	BYTE	W04
	BYTE		        Ds2 
	BYTE	W04
	BYTE		        Cn2 
	BYTE	W04
	BYTE		        Ds2 
	BYTE	W04
	BYTE		        Gn2 
	BYTE	W04
	BYTE		        Cn2 
	BYTE	W04
	BYTE		        Gn2 
	BYTE	W04
	BYTE		        Cn3 
	BYTE	W04
	BYTE		        Gn2 
	BYTE	W04
	BYTE		        Cn3 
	BYTE	W04
	BYTE		        Ds3 
	BYTE	W04
	BYTE		        Cn3 
	BYTE	W04
	BYTE		        Ds3 
	BYTE	W04
// 004   ----------------------------------------
	BYTE		        Gn3 
	BYTE	W04
	BYTE		        Ds3 
	BYTE	W04
	BYTE		        Gn3 
	BYTE	W04
	BYTE		        Cn2 
	BYTE	W04
	BYTE		        Gs1 
	BYTE	W04
	BYTE		        Cn2 
	BYTE	W04
	BYTE		        Ds2 
	BYTE	W04
	BYTE		        Cn2 
	BYTE	W04
	BYTE		        Ds2 
	BYTE	W04
	BYTE		        Gs2 
	BYTE	W04
	BYTE		        Ds2 
	BYTE	W04
	BYTE		        Gs2 
	BYTE	W04
	BYTE		        Cn3 
	BYTE	W04
	BYTE		        Gs2 
	BYTE	W04
	BYTE		        Cn3 
	BYTE	W04
	BYTE		        Ds3 
	BYTE	W04
	BYTE		        Cn3 
	BYTE	W04
	BYTE		        Ds3 
	BYTE	W04
	BYTE		        Gs3 
	BYTE	W04
	BYTE		        Ds3 
	BYTE	W04
	BYTE		        Gs3 
	BYTE	W04
	BYTE		        Gn4 
	BYTE	W04
	BYTE		        Dn4 
	BYTE	W04
	BYTE		        Cn4 
	BYTE	W04
// 005   ----------------------------------------
	BYTE		        Dn4 
	BYTE	W04
	BYTE		        Cn4 
	BYTE	W04
	BYTE		        Gn3 
	BYTE	W04
	BYTE		        Dn3 
	BYTE	W04
	BYTE		        Cn3 
	BYTE	W04
	BYTE		        Gn2 
	BYTE	W04
	BYTE		        Gn1 
	BYTE	W04
	BYTE		        Cn2 
	BYTE	W04
	BYTE		        Dn2 
	BYTE	W04
	BYTE		        Gn2 
	BYTE	W04
	BYTE		        Cn3 
	BYTE	W04
	BYTE		        Dn3 
	BYTE	W04
	BYTE		        Gn3 
	BYTE	W04
	BYTE		        Cn4 
	BYTE	W04
	BYTE		        Dn4 
	BYTE	W04
	BYTE		        Gn4 
	BYTE	W04
	BYTE		        Dn4 
	BYTE	W04
	BYTE		        Bn3 
	BYTE	W04
	BYTE		        Dn4 
	BYTE	W04
	BYTE		        Bn3 
	BYTE	W04
	BYTE		        Gn3 
	BYTE	W04
	BYTE		        Bn3 
	BYTE	W04
	BYTE		        Gn3 
	BYTE	W04
	BYTE		        Dn3 
	BYTE	W04
// 006   ----------------------------------------
	BYTE		        Gn3 
	BYTE	W04
	BYTE		        Dn3 
	BYTE	W04
	BYTE		        Bn2 
	BYTE	W04
	BYTE		        Dn3 
	BYTE	W04
	BYTE		        Bn2 
	BYTE	W04
	BYTE		        Gn2 
	BYTE	W04
	BYTE		        Bn2 
	BYTE	W04
	BYTE		        Gn2 
	BYTE	W04
	BYTE		        Bn2 
	BYTE	W04
	BYTE	GoTo
	 POIN2	twelveatktest_8_B1
twelveatktest_8_B2:
	BYTE	W12
	BYTE	FINE

//******************************************************//
	ALIGN 4

twelveatktest:
	BYTE	8	// NumTrks
	BYTE	0	// NumBlks
	BYTE	twelveatktest_pri	// Priority
	BYTE	twelveatktest_rev	// Reverb.

	POIN2	twelveatktest_grp

	POIN2	twelveatktest_1
	POIN2	twelveatktest_2
	POIN2	twelveatktest_3
	POIN2	twelveatktest_4
	POIN2	twelveatktest_5
	POIN2	twelveatktest_6
	POIN2	twelveatktest_7
	POIN2	twelveatktest_8

	
